<?xml version="1.0" encoding="utf-8"?>
<!-- Generator: Adobe Illustrator 18.0.0, SVG Export Plug-In . SVG Version: 6.00 Build 0)  -->
<!DOCTYPE svg PUBLIC "-//W3C//DTD SVG 1.1//EN" "http://www.w3.org/Graphics/SVG/1.1/DTD/svg11.dtd">
<svg version="1.1" id="Layer_1" xmlns="http://www.w3.org/2000/svg" xmlns:xlink="http://www.w3.org/1999/xlink" x="0px" y="0px"
	 viewBox="0 0 170.1 99.2" style="enable-background:new 0 0 170.1 99.2;" xml:space="preserve">
<style type="text/css">
	.st0{fill:#2570B7;}
	.st1{fill:#FFFFFF;}
	.st2{fill:#124B7E;}
</style>
<g>
	<g>
		<path class="st0" d="M140.9,96.4H29c0,0-0.1,0-0.1,0c-0.2,0-23.2-1.8-23.2-25.4c0-20.1,16.6-25.6,20.9-26.6
			C28,38.2,36.9,5.7,70.7,5.7c10.4,0,19.8,3.5,27.7,10.3c0.6,0.5,0.7,1.5,0.2,2.1c-0.5,0.6-1.5,0.7-2.1,0.2
			c-7.4-6.3-16.1-9.5-25.8-9.5c-34.6,0-41.1,35.7-41.4,37.2c-0.1,0.6-0.6,1.1-1.2,1.2C27.3,47.2,8.7,50.6,8.7,71
			c0,20.4,19,22.3,20.3,22.4h111.9c7.4,0,13.8-4,17.6-10.9c4-7.4,3.9-16.1-0.2-22.3c-8.1-12.3-21-10.7-21.1-10.7
			c-0.8,0.1-1.5-0.4-1.7-1.2c-1.4-6.9-4.3-11.8-8.8-14.6c-0.7-0.4-0.9-1.4-0.5-2.1c0.4-0.7,1.4-0.9,2.1-0.5c4.9,3,8.2,8.2,9.9,15.2
			c3.9-0.1,15,0.6,22.6,12.1c4.7,7.1,4.8,17,0.4,25.3C156.9,91.8,149.5,96.4,140.9,96.4z"/>
	</g>
	<g>
		<g>
			<g>
				<path class="st1" d="M111.3,69.4H58.8c-3.5,0-6.4-2.9-6.4-6.4v0c0-3.5,2.9-6.4,6.4-6.4h52.4c3.5,0,6.4,2.9,6.4,6.4v0
					C117.6,66.5,114.8,69.4,111.3,69.4z"/>
				<path class="st2" d="M111.3,70.1H58.8c-3.9,0-7.1-3.2-7.1-7.1s3.2-7.1,7.1-7.1h52.4c3.9,0,7.1,3.2,7.1,7.1
					S115.2,70.1,111.3,70.1z M58.8,57.4c-3.1,0-5.6,2.5-5.6,5.6s2.5,5.6,5.6,5.6h52.4c3.1,0,5.6-2.5,5.6-5.6s-2.5-5.6-5.6-5.6H58.8z
					"/>
			</g>
			<circle class="st2" cx="60.9" cy="63" r="2.1"/>
		</g>
		<g>
			<g>
				<path class="st1" d="M111.3,53.8H58.8c-3.5,0-6.4-2.9-6.4-6.4v0c0-3.5,2.9-6.4,6.4-6.4h52.4c3.5,0,6.4,2.9,6.4,6.4v0
					C117.6,50.9,114.8,53.8,111.3,53.8z"/>
				<path class="st2" d="M111.3,54.5H58.8c-3.9,0-7.1-3.2-7.1-7.1s3.2-7.1,7.1-7.1h52.4c3.9,0,7.1,3.2,7.1,7.1
					S115.2,54.5,111.3,54.5z M58.8,41.8c-3.1,0-5.6,2.5-5.6,5.6s2.5,5.6,5.6,5.6h52.4c3.1,0,5.6-2.5,5.6-5.6s-2.5-5.6-5.6-5.6H58.8z
					"/>
			</g>
			<circle class="st2" cx="60.9" cy="47.4" r="2.1"/>
		</g>
		<g>
			<g>
				<path class="st1" d="M111.3,38.2H58.8c-3.5,0-6.4-2.9-6.4-6.4v0c0-3.5,2.9-6.4,6.4-6.4h52.4c3.5,0,6.4,2.9,6.4,6.4v0
					C117.6,35.3,114.8,38.2,111.3,38.2z"/>
				<path class="st2" d="M111.3,38.9H58.8c-3.9,0-7.1-3.2-7.1-7.1s3.2-7.1,7.1-7.1h52.4c3.9,0,7.1,3.2,7.1,7.1
					S115.2,38.9,111.3,38.9z M58.8,26.2c-3.1,0-5.6,2.5-5.6,5.6s2.5,5.6,5.6,5.6h52.4c3.1,0,5.6-2.5,5.6-5.6s-2.5-5.6-5.6-5.6H58.8z
					"/>
			</g>
			<circle class="st2" cx="60.9" cy="31.8" r="2.1"/>
		</g>
		<g>
			<path class="st2" d="M117.6,82.2H99.2c-0.8,0-1.5-0.7-1.5-1.5s0.7-1.5,1.5-1.5h18.4c0.8,0,1.5,0.7,1.5,1.5S118.5,82.2,117.6,82.2
				z"/>
		</g>
		<g>
			<path class="st2" d="M70.9,82.2H52.4c-0.8,0-1.5-0.7-1.5-1.5s0.7-1.5,1.5-1.5h18.4c0.8,0,1.5,0.7,1.5,1.5S71.7,82.2,70.9,82.2z"
				/>
		</g>
		<g>
			<path class="st1" d="M92.1,85H78c-1.6,0-2.8-1.3-2.8-2.8v-2.8c0-1.6,1.3-2.8,2.8-2.8h14.2c1.6,0,2.8,1.3,2.8,2.8v2.8
				C95,83.7,93.7,85,92.1,85z"/>
			<path class="st2" d="M92.1,85.7H78c-2,0-3.6-1.6-3.6-3.6v-2.8c0-2,1.6-3.6,3.6-3.6h14.2c2,0,3.6,1.6,3.6,3.6v2.8
				C95.7,84.1,94.1,85.7,92.1,85.7z M78,77.2c-1.1,0-2.1,0.9-2.1,2.1v2.8c0,1.1,0.9,2.1,2.1,2.1h14.2c1.1,0,2.1-0.9,2.1-2.1v-2.8
				c0-1.1-0.9-2.1-2.1-2.1H78z"/>
		</g>
		<g>
			<rect x="83.5" y="69.4" class="st2" width="3" height="7.1"/>
		</g>
	</g>
</g>
</svg>
