<?xml version="1.0" encoding="utf-8"?>
<!-- Generator: Adobe Illustrator 23.0.1, SVG Export Plug-In . SVG Version: 6.00 Build 0)  -->
<svg version="1.1" id="Layer_1" xmlns="http://www.w3.org/2000/svg" xmlns:xlink="http://www.w3.org/1999/xlink" x="0px" y="0px"
	 viewBox="0 0 574.42 128.66" style="enable-background:new 0 0 574.42 128.66;" xml:space="preserve">
<style type="text/css">
	.st0{fill-rule:evenodd;clip-rule:evenodd;fill:url(#SVGID_1_);}
	.st1{fill-rule:evenodd;clip-rule:evenodd;fill:url(#SVGID_2_);}
	.st2{fill-rule:evenodd;clip-rule:evenodd;fill:url(#SVGID_3_);}
	.st3{fill-rule:evenodd;clip-rule:evenodd;fill:#FFFFFF;}
	.st4{fill-rule:evenodd;clip-rule:evenodd;fill:#D1D3D4;}
</style>
<radialGradient id="SVGID_1_" cx="510.3048" cy="63.9494" r="56.0131" gradientUnits="userSpaceOnUse">
	<stop  offset="0.2737" style="stop-color:#A7D275"/>
	<stop  offset="1" style="stop-color:#8FC852"/>
</radialGradient>
<path class="st0" d="M512.43,9.39l33.76,35.67l-35.76,37.78l14.58,15.4c6.35,6.71,9.53,10.07,9.53,10.07
	c12.09,12.96,18.83,17.58,25.13,17.58h-31.8c-9.2,0-13.49-1.08-19.69-7.39l-33.76-35.67l35.75-37.78l-14.58-15.4
	c-6.35-6.71-9.53-10.07-9.53-10.07C473.98,6.62,467.24,2,460.94,2l33.9,0.02C502.63,2.03,506.72,3.58,512.43,9.39z"/>
<linearGradient id="SVGID_2_" gradientUnits="userSpaceOnUse" x1="520.483" y1="27.7073" x2="591.6892" y2="98.9136">
	<stop  offset="0.4" style="stop-color:#8FC852"/>
	<stop  offset="1" style="stop-color:#68AC46"/>
</linearGradient>
<path class="st1" d="M546.18,99.75c-13.16,0-19.74,0-19.74,0c3.94,4.16,6.82,7.21,8.66,9.16c0.46,0.49,0.86,0.91,1.19,1.26
	c0.84,0.88,1.26,1.31,1.26,1.31c3.48,3.59,6.55,6.46,9.2,8.59c1.13,0.91,2.2,1.7,3.24,2.38c0.59,0.39,1.16,0.74,1.73,1.07
	c0.51,0.29,1.01,0.55,1.51,0.79c0.46,0.22,0.93,0.42,1.39,0.6c0.29,0.11,0.59,0.22,0.88,0.31c2.44,0.79,4.84,0.89,7.2,0.29
	c1.1-0.29,2.15-0.73,3.13-1.31c1.93-1.14,3.58-2.81,4.76-4.9c0.2-0.35,0.37-0.7,0.54-1.06c0.16-0.36,0.31-0.72,0.44-1.09
	c0.51-1.46,0.78-3.01,0.8-4.66c0-61,0-91.5,0-91.5c-0.11-4.68-1.45-8.66-4.02-11.94c-3.5-4.51-8.16-6.86-13.95-7.06
	c-5.46,0-8.2,0-8.2,0C546.19,67.17,546.18,99.75,546.18,99.75z"/>
<linearGradient id="SVGID_3_" gradientUnits="userSpaceOnUse" x1="431.155" y1="97.9569" x2="497.892" y2="31.2199">
	<stop  offset="0.4" style="stop-color:#8FC852"/>
	<stop  offset="1" style="stop-color:#68AC46"/>
</linearGradient>
<path class="st2" d="M474.43,28.15c13.16,0,19.74,0,19.74,0c-3.94-4.16-6.82-7.21-8.66-9.16c-0.46-0.49-0.86-0.91-1.19-1.26
	c-0.84-0.88-1.26-1.31-1.26-1.31c-3.48-3.59-6.55-6.46-9.2-8.59c-1.13-0.91-2.2-1.7-3.24-2.38c-0.58-0.39-1.16-0.74-1.73-1.07
	c-0.51-0.29-1.01-0.55-1.51-0.79c-0.46-0.22-0.93-0.42-1.39-0.6c-0.29-0.11-0.59-0.22-0.88-0.31c-2.44-0.79-4.84-0.89-7.2-0.29
	c-1.1,0.29-2.15,0.73-3.13,1.31c-1.93,1.14-3.58,2.81-4.76,4.9c-0.2,0.35-0.37,0.7-0.54,1.06c-0.16,0.36-0.31,0.72-0.44,1.09
	c-0.51,1.46-0.78,3.01-0.8,4.66c0,61,0,91.5,0,91.5c0.11,4.68,1.45,8.66,4.02,11.94c3.5,4.51,8.16,6.86,13.95,7.06
	c5.46,0,8.2,0,8.2,0C474.42,60.73,474.43,28.15,474.43,28.15z"/>
<path class="st3" d="M379.16,87.59c4.95-0.06,8.98-4.15,8.98-9.1V52.02h2.99c3.25,0,5.9,2.66,5.9,5.9l0,20.57
	c0,9.9-8.09,17.99-17.99,17.99h-8.68v-2.99c0-3.25,2.66-5.9,5.9-5.9H379.16L379.16,87.59z M128.06,83.09
	c-4.55,0-8.86-1.98-11.81-5.43c-3.1,3.14-7.11,5.1-11.52,5.43c-9.2,0-18.4,0-27.6,0c-9.87,0-17.99-8.17-17.99-18.04v-3.93
	c0-9.9,8.09-17.99,17.99-17.99h8.69v2.99c0,3.25-2.66,5.9-5.9,5.9c-1.72,0-3.53-0.13-5.19,0.33c-3.92,1.09-6.69,4.69-6.69,8.77v3.98
	c0,4.99,4.1,9.1,9.1,9.1c8.75,0,17.51,0,26.26,0c5,0,9.1-4.1,9.1-9.1c0-7.32,0-14.65,0-21.97h2.99c2.68,0,4.95,1.81,5.67,4.26
	c0.17,0.59,0.19,1.04,0.23,1.64v18.49c0,3.69,2.99,6.67,6.67,6.67c3.52,0,6.41-2.73,6.66-6.19V43.13h2.99c3.25,0,5.9,2.66,5.9,5.9
	v18.49c0,0.45,0.06,0.96,0.18,1.46c0.66,2.98,3.33,5.22,6.51,5.22l51.12,0.01V61.12c0-5-4.1-9.1-9.1-9.1h-26.47v13.34h-2.99
	c-3.25,0-5.9-2.66-5.9-5.9V43.13h35.36c9.9,0,17.99,8.09,17.99,17.99v21.97h-60.01c-4.21,0-8.17-1.67-11.12-4.67
	C136.23,81.42,132.26,83.09,128.06,83.09L128.06,83.09z M94.71,43.13v8.89h8.89v-8.89H94.71L94.71,43.13z M192.52,87.59h8.89v8.89
	h-8.89V87.59L192.52,87.59z M179.18,87.59h8.89v8.89h-8.89V87.59L179.18,87.59z M165.84,87.59h8.89v8.89h-8.89V87.59L165.84,87.59z
	 M134.72,87.59h8.89v8.89h-8.89V87.59L134.72,87.59z M121.38,87.59h8.89v8.89h-8.89V87.59L121.38,87.59z M301.45,83.09
	c-4.55,0-8.82-1.97-11.79-5.4c-3.14,3.16-7.08,5.07-11.54,5.4c-13.64,0-27.29,0-40.93,0c-9.9,0-17.99-8.09-17.99-17.99v-3.98
	c0-9.88,8.05-17.96,17.93-17.99h8.74v2.99c0,3.25-2.66,5.9-5.9,5.9c-1.71,0-3.53-0.13-5.19,0.33c-3.92,1.09-6.69,4.69-6.69,8.77
	v1.32v2.66c0,4.97,4.11,9.1,9.1,9.1l39.6,0c5.02,0,9.1-4.02,9.1-9.05c0-7.34,0-14.68,0-22.02h2.99c2.67,0,4.95,1.8,5.67,4.25
	c0.16,0.57,0.22,1.07,0.24,1.65v18.49c0,3.69,2.99,6.67,6.67,6.67c3.57,0,6.49-2.8,6.66-6.33V43.13h2.99c3.25,0,5.9,2.66,5.9,5.9
	l0.01,18.75c0.14,3.56,3.07,6.41,6.67,6.41c3.55,0,6.45-2.77,6.66-6.27V43.13h2.99c3.25,0,5.9,2.66,5.9,5.9l0.01,16.07
	c0,2.5,1.03,4.77,2.68,6.42c1.65,1.65,3.92,2.68,6.42,2.68h4.24l0-31.07h2.99c3.05,0,5.58,2.34,5.87,5.32
	c0.02,0.23,0.03,0.43,0.03,0.59v4.73v29.33l-12.64,0c-0.58,0-1.17-0.01-1.8-0.05c-4.44-0.32-8.42-2.23-11.54-5.38
	c-2.98,3.45-7.24,5.43-11.81,5.43c-4.23,0-8.15-1.67-11.12-4.67C309.59,81.42,305.68,83.09,301.45,83.09L301.45,83.09z M268.1,43.13
	v8.89h8.89v-8.89H268.1L268.1,43.13z M254.76,43.13v8.89h8.89v-8.89H254.76L254.76,43.13z M370.36,78.83h8.89V40.14
	c0-3.25-2.66-5.9-5.9-5.9h-2.99V78.83z"/>
<rect x="419.89" y="30.25" class="st4" width="3.41" height="70.22"/>
</svg>
