<?xml version="1.0" encoding="utf-8"?>
<!-- Generator: Adobe Illustrator 18.0.0, SVG Export Plug-In . SVG Version: 6.00 Build 0)  -->
<!DOCTYPE svg PUBLIC "-//W3C//DTD SVG 1.1//EN" "http://www.w3.org/Graphics/SVG/1.1/DTD/svg11.dtd">
<svg version="1.1" id="Layer_1" xmlns="http://www.w3.org/2000/svg" xmlns:xlink="http://www.w3.org/1999/xlink" x="0px" y="0px"
	 viewBox="0 0 155.9 99.2" style="enable-background:new 0 0 155.9 99.2;" xml:space="preserve">
<style type="text/css">
	.st0{fill:#2570B7;}
	.st1{fill:#FFFFFF;}
	.st2{fill:#124B7E;}
	.st3{fill:#FFFFFF;stroke:#124B7E;stroke-width:1.5;stroke-linecap:round;stroke-linejoin:round;stroke-miterlimit:10;}
</style>
<g>
	<g>
		<path class="st0" d="M129.1,92.5H26.6h-0.1c-0.2,0-21.3-1.6-21.3-23.3c0-18.4,15.2-23.5,19.2-24.4c1.3-5.7,9.4-35.5,40.4-35.5
			c9.5,0,18.1,3.2,25.4,9.4c0.5,0.5,0.6,1.4,0.2,1.9s-1.4,0.6-1.9,0.2c-6.8-5.8-14.8-8.7-23.6-8.7c-31.7,0-37.7,32.7-37.9,34.1
			c-0.1,0.5-0.5,1-1.1,1.1C25,47.4,8,50.5,8,69.2s17.4,20.4,18.6,20.5h102.6c6.8,0,12.6-3.7,16.1-10c3.7-6.8,3.6-14.8-0.2-20.4
			c-7.4-11.3-19.2-9.8-19.3-9.8c-0.7,0.1-1.4-0.4-1.6-1.1c-0.6-3.4-1.7-6.3-3.3-8.6c-0.5-0.6-0.3-1.5,0.4-1.9s1.5-0.3,1.9,0.4
			c1.6,2.4,2.7,5.1,3.4,8.4c3.6-0.1,13.7,0.5,20.7,11.1c4.3,6.5,4.4,15.6,0.4,23.2C143.8,88.3,137,92.5,129.1,92.5z"/>
	</g>
	<g>
		<g>
			<g>
				<path class="st1" d="M50.6,61.8c-1.1,0-1.9-0.8-1.9-1.9v-11c0-1,0.8-1.9,1.9-1.9h59.8c1.1,0,1.9,0.8,1.9,1.9v11
					c0,1-0.8,1.9-1.9,1.9H50.6z"/>
				<path class="st2" d="M110.4,47.7c0.6,0,1.2,0.5,1.2,1.2v11c0,0.6-0.5,1.2-1.2,1.2H50.7c-0.6,0-1.2-0.5-1.2-1.2v-11
					c0-0.6,0.5-1.2,1.2-1.2H110.4 M110.4,46.3H50.7c-1.5,0-2.6,1.2-2.6,2.6v11c0,1.5,1.2,2.6,2.6,2.6h59.8c1.5,0,2.6-1.2,2.6-2.6
					v-11C113,47.4,111.9,46.3,110.4,46.3L110.4,46.3z"/>
			</g>
			<path class="st3" d="M108.5,59.3h-13c-0.7,0-1.3-0.5-1.3-1.3v-2.6c0-0.7,0.5-1.3,1.3-1.3h13c0.7,0,1.3,0.5,1.3,1.3V58
				C109.8,58.7,109.3,59.3,108.5,59.3z"/>
		</g>
		<g>
			<g>
				<path class="st1" d="M50.6,80.7c-1.1,0-1.9-0.8-1.9-1.9v-11c0-1,0.8-1.9,1.9-1.9h59.8c1.1,0,1.9,0.8,1.9,1.9v11
					c0,1-0.8,1.9-1.9,1.9H50.6z"/>
				<path class="st2" d="M110.4,66.5c0.6,0,1.2,0.5,1.2,1.2v11c0,0.6-0.5,1.2-1.2,1.2H50.7c-0.6,0-1.2-0.5-1.2-1.2v-11
					c0-0.6,0.5-1.2,1.2-1.2H110.4 M110.4,65.1H50.7c-1.5,0-2.6,1.2-2.6,2.6v11c0,1.5,1.2,2.6,2.6,2.6h59.8c1.5,0,2.6-1.2,2.6-2.6
					v-11C113,66.3,111.9,65.1,110.4,65.1L110.4,65.1z"/>
			</g>
			<path class="st3" d="M108.5,78.1h-13c-0.7,0-1.3-0.5-1.3-1.3v-2.6c0-0.7,0.5-1.3,1.3-1.3h13c0.7,0,1.3,0.5,1.3,1.3v2.6
				C109.8,77.6,109.3,78.1,108.5,78.1z"/>
		</g>
		<g>
			<g>
				<path class="st1" d="M50.6,43c-1.1,0-1.9-0.8-1.9-1.9v-11c0-1,0.8-1.9,1.9-1.9h59.8c1.1,0,1.9,0.8,1.9,1.9v11
					c0,1-0.8,1.9-1.9,1.9H50.6z"/>
				<path class="st2" d="M110.4,28.8c0.6,0,1.2,0.5,1.2,1.2v11c0,0.6-0.5,1.2-1.2,1.2H50.7c-0.6,0-1.2-0.5-1.2-1.2V30
					c0-0.6,0.5-1.2,1.2-1.2L110.4,28.8 M110.4,27.4H50.7c-1.5,0-2.6,1.2-2.6,2.6v11c0,1.5,1.2,2.6,2.6,2.6h59.8
					c1.5,0,2.6-1.2,2.6-2.6V30C113,28.6,111.9,27.4,110.4,27.4L110.4,27.4z"/>
			</g>
			<path class="st3" d="M108.5,40.4h-13c-0.7,0-1.3-0.5-1.3-1.3v-2.6c0-0.7,0.5-1.3,1.3-1.3h13c0.7,0,1.3,0.5,1.3,1.3v2.6
				C109.8,39.9,109.3,40.4,108.5,40.4z"/>
		</g>
	</g>
</g>
</svg>
