<svg xmlns="http://www.w3.org/2000/svg" width="49" height="48" viewBox="0 0 49 48" fill="none"><path fill-rule="evenodd" clip-rule="evenodd" d="M24.7002 5C14.2068 5 5.7002 13.5066 5.7002 24H3.7002C3.7002 12.402 13.1022 3 24.7002 3V5ZM24.7002 43C35.1936 43 43.7002 34.4934 43.7002 24H45.7002C45.7002 35.598 36.2982 45 24.7002 45V43Z" fill="#19BFD3"></path><path fill-rule="evenodd" clip-rule="evenodd" d="M24.7002 10C16.9682 10 10.7002 16.268 10.7002 24C10.7002 31.732 16.9682 38 24.7002 38C32.4322 38 38.7002 31.732 38.7002 24C38.7002 16.268 32.4322 10 24.7002 10ZM8.7002 24C8.7002 15.1634 15.8636 8 24.7002 8C33.5368 8 40.7002 15.1634 40.7002 24C40.7002 32.8366 33.5368 40 24.7002 40C15.8636 40 8.7002 32.8366 8.7002 24Z" fill="black"></path><path fill-rule="evenodd" clip-rule="evenodd" d="M23.7002 21L23.7002 14C23.7002 13.4477 24.1479 13 24.7002 13C25.2525 13 25.7002 13.4477 25.7002 14L25.7002 21C25.7002 21.5523 25.2525 22 24.7002 22C24.1479 22 23.7002 21.5523 23.7002 21Z" fill="#EF4056"></path><path fill-rule="evenodd" clip-rule="evenodd" d="M23.7002 24C23.7002 24.5523 23.2525 25 22.7002 25L15.2002 25C14.6479 25 14.2002 24.5523 14.2002 24C14.2002 23.4477 14.6479 23 15.2002 23L22.7002 23C23.2525 23 23.7002 23.4477 23.7002 24Z" fill="#EF4056"></path><path fill-rule="evenodd" clip-rule="evenodd" d="M27.0996 14.7741C31.1504 15.801 34.1475 19.4712 34.1475 23.8413C34.1475 29.007 29.9598 33.1947 24.794 33.1947C20.539 33.1947 16.9476 30.3535 15.8135 26.4647L14.7758 26.4647C15.9373 30.9124 19.9824 34.1947 24.794 34.1947C30.5121 34.1947 35.1475 29.5593 35.1475 23.8413C35.1475 18.9157 31.7079 14.7935 27.0996 13.7455L27.0996 14.7741Z" fill="#19BFD3"></path><path fill-rule="evenodd" clip-rule="evenodd" d="M24.7002 23C24.1479 23 23.7002 23.4477 23.7002 24C23.7002 24.5523 24.1479 25 24.7002 25C25.2525 25 25.7002 24.5523 25.7002 24C25.7002 23.4477 25.2525 23 24.7002 23ZM21.7002 24C21.7002 22.3431 23.0433 21 24.7002 21C26.357 21 27.7002 22.3431 27.7002 24C27.7002 25.6569 26.357 27 24.7002 27C23.0433 27 21.7002 25.6569 21.7002 24Z" fill="black"></path></svg>