<svg xmlns="http://www.w3.org/2000/svg" width="49" height="48" viewBox="0 0 49 48" fill="none"><path fill-rule="evenodd" clip-rule="evenodd" d="M21.7143 27C21.7143 25.8954 22.6097 25 23.7143 25H24.7143C25.8189 25 26.7143 25.8954 26.7143 27V29C26.7143 30.1046 25.8189 31 24.7143 31H23.7143C22.6097 31 21.7143 30.1046 21.7143 29V27ZM23.7143 23C21.5052 23 19.7143 24.7909 19.7143 27V29C19.7143 30.6787 20.7484 32.1159 22.2144 32.7093V34H20.6992C20.3887 34 20.0959 33.8558 19.9066 33.6097L15.4951 27.8748L13.9869 26.0649C13.0804 24.9772 11.4703 24.8145 10.3647 25.6991C9.2273 26.609 9.05897 28.2755 9.99142 29.3945L11.4377 31.13L18.4993 40.0746C18.6386 40.2511 18.7144 40.4694 18.7144 40.6943V44H5.71429V46H43.7143V44H29.7144V40.6861C29.7144 40.4638 29.7885 40.2477 29.925 40.0722L36.4934 31.6272L37.9619 29.865C38.8769 28.767 38.7506 27.1399 37.6771 26.1962C36.5385 25.1951 34.7922 25.3581 33.8584 26.5525L32.4204 28.392L28.5144 33.6C28.3255 33.8518 28.0291 34 27.7144 34H26.2144V32.7092C27.6802 32.1158 28.7143 30.6787 28.7143 29V27C28.7143 24.7909 26.9234 23 24.7143 23H23.7143ZM13.6149 30.6602L20.069 38.8353C20.487 39.3648 20.7144 40.0197 20.7144 40.6943V44H27.7144V40.6861C27.7144 40.019 27.9368 39.3709 28.3463 38.8443L34.3194 31.1646L33.3953 30.4254L30.1144 34.8C29.5478 35.5554 28.6587 36 27.7144 36H20.6992C19.7678 36 18.8892 35.5674 18.3213 34.8291L14.5432 29.9175L13.6149 30.6602ZM13.293 28.3564L12.3551 29.1068L11.5279 28.1141C11.3126 27.8557 11.3514 27.4709 11.6141 27.2608C11.8694 27.0566 12.2411 27.0941 12.4504 27.3453L13.293 28.3564ZM34.6112 28.8368L35.5737 29.6068L36.4254 28.5846C36.6465 28.3193 36.616 27.9263 36.3566 27.6983C36.0815 27.4564 35.6597 27.4958 35.4341 27.7844L34.6112 28.8368Z" fill="#232933"></path><path fill-rule="evenodd" clip-rule="evenodd" d="M25.2143 17V9.5H23.2143V17H21.7143C20.9365 17 20.1883 17.1269 19.4894 17.361L14.9213 12.793L13.5071 14.2072L17.6209 18.321C16.3836 19.2143 15.45 20.5021 15.0042 22H9.71429V24H14.7143H16.2143H16.7143C16.7143 21.2386 18.9529 19 21.7143 19H27.7143C29.9234 19 31.7143 20.7909 31.7143 23V24H32.7143H33.7143H39.2143V22H33.6313C33.3349 20.2333 32.2664 18.7283 30.7846 17.844L34.9215 13.7072L33.5073 12.293L28.7168 17.0834C28.3908 17.0285 28.0559 17 27.7143 17H25.2143Z" fill="#19BFD3"></path><path fill-rule="evenodd" clip-rule="evenodd" d="M24.2143 6C23.3859 6 22.7143 6.67157 22.7143 7.5C22.7143 8.32843 23.3859 9 24.2143 9C25.0427 9 25.7143 8.32843 25.7143 7.5C25.7143 6.67157 25.0427 6 24.2143 6ZM20.7143 7.5C20.7143 5.567 22.2813 4 24.2143 4C26.1473 4 27.7143 5.567 27.7143 7.5C27.7143 9.433 26.1473 11 24.2143 11C22.2813 11 20.7143 9.433 20.7143 7.5Z" fill="#EF4056"></path><path fill-rule="evenodd" clip-rule="evenodd" d="M36.2143 10C35.3859 10 34.7143 10.6716 34.7143 11.5C34.7143 12.3284 35.3859 13 36.2143 13C37.0427 13 37.7143 12.3284 37.7143 11.5C37.7143 10.6716 37.0427 10 36.2143 10ZM32.7143 11.5C32.7143 9.567 34.2813 8 36.2143 8C38.1473 8 39.7143 9.567 39.7143 11.5C39.7143 13.433 38.1473 15 36.2143 15C34.2813 15 32.7143 13.433 32.7143 11.5Z" fill="#EF4056"></path><path fill-rule="evenodd" clip-rule="evenodd" d="M41.2143 21C40.3859 21 39.7143 21.6716 39.7143 22.5C39.7143 23.3284 40.3859 24 41.2143 24C42.0427 24 42.7143 23.3284 42.7143 22.5C42.7143 21.6716 42.0427 21 41.2143 21ZM37.7143 22.5C37.7143 20.567 39.2813 19 41.2143 19C43.1473 19 44.7143 20.567 44.7143 22.5C44.7143 24.433 43.1473 26 41.2143 26C39.2813 26 37.7143 24.433 37.7143 22.5Z" fill="#EF4056"></path><path fill-rule="evenodd" clip-rule="evenodd" d="M7.21429 21C6.38587 21 5.71429 21.6716 5.71429 22.5C5.71429 23.3284 6.38587 24 7.21429 24C8.04272 24 8.71429 23.3284 8.71429 22.5C8.71429 21.6716 8.04272 21 7.21429 21ZM3.71429 22.5C3.71429 20.567 5.2813 19 7.21429 19C9.14729 19 10.7143 20.567 10.7143 22.5C10.7143 24.433 9.14729 26 7.21429 26C5.2813 26 3.71429 24.433 3.71429 22.5Z" fill="#EF4056"></path><path fill-rule="evenodd" clip-rule="evenodd" d="M12.2143 10C11.3859 10 10.7143 10.6716 10.7143 11.5C10.7143 12.3284 11.3859 13 12.2143 13C13.0427 13 13.7143 12.3284 13.7143 11.5C13.7143 10.6716 13.0427 10 12.2143 10ZM8.71429 11.5C8.71429 9.567 10.2813 8 12.2143 8C14.1473 8 15.7143 9.567 15.7143 11.5C15.7143 13.433 14.1473 15 12.2143 15C10.2813 15 8.71429 13.433 8.71429 11.5Z" fill="#EF4056"></path></svg>