<svg xmlns="http://www.w3.org/2000/svg" width="49" height="48" viewBox="0 0 49 48" fill="none"><path fill-rule="evenodd" clip-rule="evenodd" d="M31.2006 11.875C27.0453 9.57599 21.9555 9.57599 17.8001 11.875L16.8319 10.125C21.5897 7.49266 27.411 7.49266 32.1689 10.125L31.2006 11.875ZM14.7074 33.793C20.1159 39.2014 28.8848 39.2014 34.2933 33.793L35.7075 35.2072C29.518 41.3967 19.4828 41.3967 13.2932 35.2072L14.7074 33.793Z" fill="#EF4056"></path><path fill-rule="evenodd" clip-rule="evenodd" d="M24.5 17C20.634 17 17.5 20.134 17.5 24C17.5 27.866 20.634 31 24.5 31C28.366 31 31.5 27.866 31.5 24C31.5 20.134 28.366 17 24.5 17ZM15.5 24C15.5 19.0294 19.5294 15 24.5 15C29.4706 15 33.5 19.0294 33.5 24C33.5 28.9706 29.4706 33 24.5 33C19.5294 33 15.5 28.9706 15.5 24Z" fill="#19BFD3"></path><path fill-rule="evenodd" clip-rule="evenodd" d="M35.5 9.5C35.5 6.46243 37.9624 4 41 4C44.0376 4 46.5 6.46243 46.5 9.5V15.222C46.5 15.9726 46.2186 16.6959 45.7115 17.2492L44.0469 19.065C43.8677 19.2606 43.7735 19.5192 43.785 19.7842L44.6296 39.2092C44.7194 41.2756 43.0684 43 41 43C38.9316 43 37.2806 41.2756 37.3704 39.2092L38.215 19.7842C38.2265 19.5192 38.1323 19.2606 37.9531 19.065L36.2885 17.2492C35.7814 16.6959 35.5 15.9726 35.5 15.222V9.5ZM41 6C39.067 6 37.5 7.567 37.5 9.5V15.222C37.5 15.4722 37.5938 15.7133 37.7628 15.8978L39.4274 17.7136C39.965 18.3001 40.2476 19.0762 40.2131 19.8711L39.3685 39.296C39.3281 40.2249 40.0703 41 41 41C41.9297 41 42.6719 40.2249 42.6315 39.296L41.7869 19.8711C41.7524 19.0762 42.035 18.3001 42.5726 17.7136L44.2372 15.8978C44.4062 15.7133 44.5 15.4722 44.5 15.222V9.5C44.5 7.567 42.933 6 41 6Z" fill="#232933"></path><path fill-rule="evenodd" clip-rule="evenodd" d="M3.5 5C4.05228 5 4.5 5.44772 4.5 6V13.0551C4.5 14.0558 4.87514 15.0203 5.55138 15.758L6.4288 16.7152C6.96517 17.3003 7.24778 18.0741 7.21473 18.8672L6.36362 39.294C6.32485 40.2245 7.06872 41 8 41C8.93128 41 9.67515 40.2245 9.63638 39.294L8.78527 18.8672C8.75222 18.0741 9.03483 17.3003 9.5712 16.7152L10.4486 15.758C11.1249 15.0203 11.5 14.0558 11.5 13.0551V6C11.5 5.44772 11.9477 5 12.5 5C13.0523 5 13.5 5.44772 13.5 6V13.0551C13.5 14.5562 12.9373 16.0029 11.9229 17.1094L11.0455 18.0666C10.8667 18.2617 10.7725 18.5196 10.7835 18.784L11.6346 39.2108C11.7208 41.2775 10.0685 43 8 43C5.93148 43 4.27924 41.2775 4.36535 39.2108L5.21647 18.784C5.22748 18.5196 5.13328 18.2617 4.95449 18.0666L4.07708 17.1094C3.06271 16.0029 2.5 14.5562 2.5 13.0551V6C2.5 5.44772 2.94772 5 3.5 5Z" fill="#232933"></path><path fill-rule="evenodd" clip-rule="evenodd" d="M8 5C8.55228 5 9 5.44772 9 6V13.5C9 14.0523 8.55228 14.5 8 14.5C7.44772 14.5 7 14.0523 7 13.5V6C7 5.44772 7.44772 5 8 5Z" fill="#232933"></path></svg>