<svg xmlns="http://www.w3.org/2000/svg" width="49" height="48" viewBox="0 0 49 48" fill="none"><path fill-rule="evenodd" clip-rule="evenodd" d="M14.3847 17.6702C15.1018 17.1218 16.0974 17.1218 16.8145 17.6702L17.3629 18.0896C19.3108 19.5792 21.5161 20.6978 23.8686 21.3897L24.3818 21.5407C24.8074 21.6658 25.0996 22.0564 25.0996 22.5V30.5467C25.0996 33.3499 23.7934 35.993 21.5667 37.6959L17.422 40.8653C16.3463 41.6879 14.8529 41.6879 13.7773 40.8653L9.63256 37.6959C7.40579 35.993 6.09961 33.3499 6.09961 30.5467V22.5C6.09961 22.0564 6.39186 21.6658 6.81744 21.5407L7.3306 21.3897C9.68314 20.6978 11.8884 19.5792 13.8363 18.0896L14.3847 17.6702ZM15.5996 19.2589L15.0512 19.6783C12.9651 21.2736 10.6106 22.4821 8.09961 23.2472V30.5467C8.09961 32.7269 9.11553 34.7827 10.8475 36.1072L14.9922 39.2766C15.3507 39.5508 15.8485 39.5508 16.2071 39.2766L20.3518 36.1072C22.0837 34.7827 23.0996 32.7269 23.0996 30.5467V23.2472C20.5886 22.4821 18.2342 21.2736 16.148 19.6783L15.5996 19.2589Z" fill="#232933"></path><path fill-rule="evenodd" clip-rule="evenodd" d="M21.3068 26.2071L15.3068 32.2071C14.9163 32.5976 14.2831 32.5976 13.8926 32.2071L10.8926 29.2071L12.3068 27.7928L14.5997 30.0857L19.8926 24.7928L21.3068 26.2071Z" fill="#19BFD3"></path><path fill-rule="evenodd" clip-rule="evenodd" d="M20.6337 9C17.025 9 14.0996 11.9254 14.0996 15.5341H12.0996C12.0996 10.8208 15.9205 7 20.6337 7C23.3989 7 25.8556 8.31516 27.4144 10.3516C28.9732 8.31516 31.4299 7 34.195 7C38.9083 7 42.7291 10.8208 42.7291 15.5341C42.7291 18.3936 41.3789 20.3118 39.4188 22.2719L39.399 22.2917L28.2661 32.2455L26.9331 30.7545L38.0241 20.8381C39.8269 19.0316 40.7291 17.6003 40.7291 15.5341C40.7291 11.9254 37.8037 9 34.195 9C31.6102 9 29.374 10.5008 28.3138 12.6831L27.4144 14.5345L26.5149 12.6831C25.4547 10.5008 23.2185 9 20.6337 9Z" fill="#E6123D"></path><path fill-rule="evenodd" clip-rule="evenodd" d="M30.4355 34.7526L39.4355 26.7526L40.7643 28.2474L31.7643 36.2474L30.4355 34.7526Z" fill="#FCB4BC"></path><path fill-rule="evenodd" clip-rule="evenodd" d="M33.9268 38.26L39.4268 33.26L40.7721 34.7399L35.2721 39.7399L33.9268 38.26Z" fill="#FCB4BC"></path></svg>