<svg xmlns="http://www.w3.org/2000/svg" width="1201" height="230" viewBox="0 0 1201 230" fill="none"><g opacity="0.5"><path d="M1177.42 210.161C1177.42 207.764 1175.44 205.821 1173 205.821C1170.56 205.821 1168.58 207.764 1168.58 210.161V218.839C1168.58 221.236 1170.56 223.179 1173 223.179C1175.44 223.179 1177.42 221.236 1177.42 218.839V210.161Z" fill="white"></path><path d="M1177.42 238.125C1177.42 235.728 1175.44 233.786 1173 233.786C1170.56 233.786 1168.58 235.728 1168.58 238.125V246.804C1168.58 249.2 1170.56 251.143 1173 251.143C1175.44 251.143 1177.42 249.2 1177.42 246.804V238.125Z" fill="white"></path><path d="M1178.4 228.482C1178.4 226.086 1180.38 224.143 1182.82 224.143H1191.67C1194.11 224.143 1196.09 226.086 1196.09 228.482C1196.09 230.879 1194.11 232.821 1191.67 232.821H1182.82C1180.38 232.821 1178.4 230.879 1178.4 228.482Z" fill="white"></path><path d="M1154.33 224.143C1151.89 224.143 1149.91 226.086 1149.91 228.482C1149.91 230.879 1151.89 232.821 1154.33 232.821H1163.18C1165.62 232.821 1167.6 230.879 1167.6 228.482C1167.6 226.086 1165.62 224.143 1163.18 224.143H1154.33Z" fill="white"></path></g><g opacity="0.5"><path d="M242.421 135.161C242.421 132.764 240.442 130.821 238 130.821C235.558 130.821 233.579 132.764 233.579 135.161V143.839C233.579 146.236 235.558 148.179 238 148.179C240.442 148.179 242.421 146.236 242.421 143.839V135.161Z" fill="white"></path><path d="M242.421 163.125C242.421 160.728 240.442 158.786 238 158.786C235.558 158.786 233.579 160.728 233.579 163.125V171.804C233.579 174.2 235.558 176.143 238 176.143C240.442 176.143 242.421 174.2 242.421 171.804V163.125Z" fill="white"></path><path d="M243.403 153.482C243.403 151.086 245.383 149.143 247.824 149.143H256.666C259.108 149.143 261.088 151.086 261.088 153.482C261.088 155.879 259.108 157.821 256.666 157.821H247.824C245.383 157.821 243.403 155.879 243.403 153.482Z" fill="white"></path><path d="M219.333 149.143C216.891 149.143 214.912 151.086 214.912 153.482C214.912 155.879 216.891 157.821 219.333 157.821H228.175C230.617 157.821 232.596 155.879 232.596 153.482C232.596 151.086 230.617 149.143 228.175 149.143H219.333Z" fill="white"></path></g><g opacity="0.5"><path d="M969.421 59.1607C969.421 56.7642 967.442 54.8214 965 54.8214C962.558 54.8214 960.579 56.7642 960.579 59.1607V67.8393C960.579 70.2358 962.558 72.1786 965 72.1786C967.442 72.1786 969.421 70.2358 969.421 67.8393V59.1607Z" fill="white"></path><path d="M969.421 87.125C969.421 84.7285 967.442 82.7857 965 82.7857C962.558 82.7857 960.579 84.7285 960.579 87.125V95.8036C960.579 98.2001 962.558 100.143 965 100.143C967.442 100.143 969.421 98.2001 969.421 95.8036V87.125Z" fill="white"></path><path d="M970.403 77.4821C970.403 75.0856 972.383 73.1429 974.824 73.1429H983.666C986.108 73.1429 988.088 75.0856 988.088 77.4821C988.088 79.8787 986.108 81.8214 983.666 81.8214H974.824C972.383 81.8214 970.403 79.8787 970.403 77.4821Z" fill="white"></path><path d="M946.333 73.1429C943.891 73.1429 941.912 75.0856 941.912 77.4821C941.912 79.8787 943.891 81.8214 946.333 81.8214H955.175C957.617 81.8214 959.596 79.8787 959.596 77.4821C959.596 75.0856 957.617 73.1429 955.175 73.1429H946.333Z" fill="white"></path></g><g opacity="0.3"><path d="M136.421 -16.8393C136.421 -19.2358 134.442 -21.1786 132 -21.1786C129.558 -21.1786 127.579 -19.2358 127.579 -16.8393V-8.1607C127.579 -5.76418 129.558 -3.82142 132 -3.82142C134.442 -3.82142 136.421 -5.76418 136.421 -8.1607V-16.8393Z" fill="white"></path><path d="M136.421 11.125C136.421 8.72849 134.442 6.78573 132 6.78573C129.558 6.78573 127.579 8.72849 127.579 11.125V19.8036C127.579 22.2001 129.558 24.1429 132 24.1429C134.442 24.1429 136.421 22.2001 136.421 19.8036V11.125Z" fill="white"></path><path d="M137.403 1.48215C137.403 -0.914366 139.383 -2.85713 141.824 -2.85713H150.666C153.108 -2.85713 155.088 -0.914368 155.088 1.48215C155.088 3.87868 153.108 5.82144 150.666 5.82144H141.824C139.383 5.82144 137.403 3.87868 137.403 1.48215Z" fill="white"></path><path d="M113.333 -2.85713C110.891 -2.85713 108.912 -0.914366 108.912 1.48215C108.912 3.87868 110.891 5.82144 113.333 5.82144H122.175C124.617 5.82144 126.596 3.87868 126.596 1.48215C126.596 -0.914368 124.617 -2.85713 122.175 -2.85713H113.333Z" fill="white"></path></g><path d="M737.828 245.172C736.266 246.734 733.734 246.734 732.172 245.172C730.609 243.609 730.609 241.077 732.172 239.515L733.586 238.1C735.148 236.538 737.681 236.538 739.243 238.1C740.805 239.663 740.805 242.195 739.243 243.757L737.828 245.172Z" fill="white"></path><path d="M747.021 235.979C745.459 237.541 742.926 237.541 741.364 235.979C739.802 234.417 739.802 231.884 741.364 230.322L742.778 228.908C744.34 227.346 746.873 227.346 748.435 228.908C749.997 230.47 749.997 233.003 748.435 234.565L747.021 235.979Z" fill="white"></path><path d="M750.556 226.787C752.118 228.349 754.651 228.349 756.213 226.787L757.627 225.373C759.19 223.81 759.19 221.278 757.627 219.716C756.065 218.154 753.533 218.154 751.971 219.716L750.556 221.13C748.994 222.692 748.994 225.225 750.556 226.787Z" fill="white"></path><path d="M765.406 217.594C763.843 219.156 761.311 219.156 759.749 217.594C758.187 216.032 758.187 213.5 759.749 211.938L761.163 210.523C762.725 208.961 765.258 208.961 766.82 210.523C768.382 212.085 768.382 214.618 766.82 216.18L765.406 217.594Z" fill="white"></path><path d="M1160.83 18.1715C1159.27 19.7336 1156.73 19.7336 1155.17 18.1715C1153.61 16.6094 1153.61 14.0768 1155.17 12.5147L1156.59 11.1005C1158.15 9.53836 1160.68 9.53836 1162.24 11.1005C1163.8 12.6626 1163.8 15.1952 1162.24 16.7573L1160.83 18.1715Z" fill="white"></path><path d="M1170.02 8.97914C1168.46 10.5412 1165.93 10.5412 1164.36 8.97914C1162.8 7.41704 1162.8 4.88438 1164.36 3.32228L1165.78 1.90807C1167.34 0.345973 1169.87 0.345973 1171.44 1.90807C1173 3.47017 1173 6.00283 1171.44 7.56492L1170.02 8.97914Z" fill="white"></path><path d="M1173.56 -0.213251C1175.12 1.34885 1177.65 1.34885 1179.21 -0.213251L1180.63 -1.62746C1182.19 -3.18956 1182.19 -5.72222 1180.63 -7.28432C1179.07 -8.84642 1176.53 -8.84641 1174.97 -7.28432L1173.56 -5.87011C1171.99 -4.30801 1171.99 -1.77535 1173.56 -0.213251Z" fill="white"></path><path d="M1188.41 -9.40564C1186.84 -7.84354 1184.31 -7.84354 1182.75 -9.40564C1181.19 -10.9677 1181.19 -13.5004 1182.75 -15.0625L1184.16 -16.4767C1185.73 -18.0388 1188.26 -18.0388 1189.82 -16.4767C1191.38 -14.9146 1191.38 -12.3819 1189.82 -10.8199L1188.41 -9.40564Z" fill="white"></path><path d="M15.8284 94.1715C14.2663 95.7336 11.7337 95.7336 10.1716 94.1715C8.60948 92.6094 8.60948 90.0768 10.1716 88.5147L11.5858 87.1005C13.1479 85.5384 15.6805 85.5384 17.2426 87.1005C18.8047 88.6626 18.8047 91.1952 17.2426 92.7573L15.8284 94.1715Z" fill="white"></path><path d="M25.0208 84.9791C23.4587 86.5412 20.9261 86.5412 19.364 84.9791C17.8019 83.417 17.8019 80.8844 19.364 79.3223L20.7782 77.9081C22.3403 76.346 24.8729 76.346 26.435 77.9081C27.9971 79.4702 27.9971 82.0028 26.435 83.5649L25.0208 84.9791Z" fill="white"></path><path d="M28.5563 75.7867C30.1184 77.3488 32.6511 77.3488 34.2132 75.7867L35.6274 74.3725C37.1895 72.8104 37.1895 70.2778 35.6274 68.7157C34.0653 67.1536 31.5327 67.1536 29.9706 68.7157L28.5563 70.1299C26.9943 71.692 26.9943 74.2247 28.5563 75.7867Z" fill="white"></path><path d="M43.4056 66.5944C41.8435 68.1565 39.3108 68.1565 37.7487 66.5944C36.1866 65.0323 36.1866 62.4996 37.7487 60.9375L39.1629 59.5233C40.725 57.9612 43.2577 57.9612 44.8198 59.5233C46.3819 61.0854 46.3819 63.6181 44.8198 65.1801L43.4056 66.5944Z" fill="white"></path><path d="M128.828 226.172C127.266 227.734 127.266 230.266 128.828 231.828C130.391 233.39 132.923 233.39 134.485 231.828L135.899 230.414C137.462 228.852 137.462 226.319 135.899 224.757C134.337 223.195 131.805 223.195 130.243 224.757L128.828 226.172Z" fill="white"></path><path d="M437.828 226.172C436.266 227.734 436.266 230.266 437.828 231.828C439.391 233.39 441.923 233.39 443.485 231.828L444.899 230.414C446.462 228.852 446.462 226.319 444.899 224.757C443.337 223.195 440.805 223.195 439.243 224.757L437.828 226.172Z" fill="white"></path><path d="M336.828 75.1715C335.266 76.7336 335.266 79.2663 336.828 80.8284C338.391 82.3905 340.923 82.3905 342.485 80.8284L343.899 79.4142C345.462 77.8521 345.462 75.3194 343.899 73.7573C342.337 72.1952 339.805 72.1952 338.243 73.7573L336.828 75.1715Z" fill="white"></path><path d="M545.828 -0.828458C544.266 0.73364 544.266 3.2663 545.828 4.8284C547.391 6.39049 549.923 6.39049 551.485 4.8284L552.899 3.41418C554.462 1.85209 554.462 -0.680575 552.899 -2.24267C551.337 -3.80477 548.805 -3.80477 547.243 -2.24267L545.828 -0.828458Z" fill="white"></path><path d="M1063.83 151.172C1062.27 152.734 1062.27 155.266 1063.83 156.828C1065.39 158.39 1067.92 158.39 1069.49 156.828L1070.9 155.414C1072.46 153.852 1072.46 151.319 1070.9 149.757C1069.34 148.195 1066.8 148.195 1065.24 149.757L1063.83 151.172Z" fill="white"></path><g opacity="0.2"><path d="M642.828 151.172C641.266 152.734 641.266 155.266 642.828 156.828C644.391 158.39 646.923 158.39 648.485 156.828L649.899 155.414C651.462 153.852 651.462 151.319 649.899 149.757C648.337 148.195 645.805 148.195 644.243 149.757L642.828 151.172Z" fill="white"></path></g></svg>