<svg xmlns="http://www.w3.org/2000/svg" width="49" height="48" viewBox="0 0 49 48" fill="none"><path fill-rule="evenodd" clip-rule="evenodd" d="M14.2998 25C9.88153 25 6.2998 28.5817 6.2998 33C6.2998 37.4183 9.88153 41 14.2998 41C18.7181 41 22.2998 37.4183 22.2998 33C22.2998 28.5817 18.7181 25 14.2998 25ZM4.2998 33C4.2998 27.4772 8.77696 23 14.2998 23C19.8227 23 24.2998 27.4772 24.2998 33C24.2998 38.5228 19.8227 43 14.2998 43C8.77696 43 4.2998 38.5228 4.2998 33Z" fill="#232933"></path><path fill-rule="evenodd" clip-rule="evenodd" d="M12.2998 10C10.643 10 9.2998 11.3431 9.2998 13V15H39.2998V13C39.2998 11.3431 37.9567 10 36.2998 10H35.2998V8H36.2998C39.0612 8 41.2998 10.2386 41.2998 13V36C41.2998 38.7614 39.0612 41 36.2998 41H24.2998V39H36.2998C37.9567 39 39.2998 37.6569 39.2998 36V17H9.2998V23H7.2998V13C7.2998 10.2386 9.53838 8 12.2998 8H13.2998V10H12.2998ZM31.2998 10H17.2998V8H31.2998V10Z" fill="#232933"></path><path fill-rule="evenodd" clip-rule="evenodd" d="M14.2998 13L14.2998 5L16.2998 5L16.2998 13L14.2998 13Z" fill="#232933"></path><path fill-rule="evenodd" clip-rule="evenodd" d="M32.2998 13L32.2998 5L34.2998 5L34.2998 13L32.2998 13Z" fill="#232933"></path><path fill-rule="evenodd" clip-rule="evenodd" d="M15.2998 32V28H13.2998V33C13.2998 33.5523 13.7475 34 14.2998 34H19.2998V32H15.2998Z" fill="#EF4056"></path><path fill-rule="evenodd" clip-rule="evenodd" d="M35.2998 31H37.2998V33H35.2998V31Z" fill="#19BFD3"></path><path fill-rule="evenodd" clip-rule="evenodd" d="M35.2998 35H37.2998V37H35.2998V35Z" fill="#19BFD3"></path><path fill-rule="evenodd" clip-rule="evenodd" d="M35.2998 27H37.2998V29H35.2998V27Z" fill="#19BFD3"></path><path fill-rule="evenodd" clip-rule="evenodd" d="M35.2998 23H37.2998V25H35.2998V23Z" fill="#19BFD3"></path><path fill-rule="evenodd" clip-rule="evenodd" d="M35.2998 19H37.2998V21H35.2998V19Z" fill="#19BFD3"></path><path fill-rule="evenodd" clip-rule="evenodd" d="M31.2998 31H33.2998V33H31.2998V31Z" fill="#EF4056"></path><path fill-rule="evenodd" clip-rule="evenodd" d="M31.2998 35H33.2998V37H31.2998V35Z" fill="#19BFD3"></path><path fill-rule="evenodd" clip-rule="evenodd" d="M31.2998 27H33.2998V29H31.2998V27Z" fill="#19BFD3"></path><path fill-rule="evenodd" clip-rule="evenodd" d="M31.2998 23H33.2998V25H31.2998V23Z" fill="#19BFD3"></path><path fill-rule="evenodd" clip-rule="evenodd" d="M31.2998 19H33.2998V21H31.2998V19Z" fill="#19BFD3"></path><path fill-rule="evenodd" clip-rule="evenodd" d="M27.2998 31H29.2998V33H27.2998V31Z" fill="#19BFD3"></path><path fill-rule="evenodd" clip-rule="evenodd" d="M27.2998 35H29.2998V37H27.2998V35Z" fill="#19BFD3"></path><path fill-rule="evenodd" clip-rule="evenodd" d="M27.2998 27H29.2998V29H27.2998V27Z" fill="#19BFD3"></path><path fill-rule="evenodd" clip-rule="evenodd" d="M27.2998 23H29.2998V25H27.2998V23Z" fill="#19BFD3"></path><path fill-rule="evenodd" clip-rule="evenodd" d="M23.2998 23H25.2998V25H23.2998V23Z" fill="#19BFD3"></path><path fill-rule="evenodd" clip-rule="evenodd" d="M27.2998 19H29.2998V21H27.2998V19Z" fill="#19BFD3"></path><path fill-rule="evenodd" clip-rule="evenodd" d="M23.2998 19H25.2998V21H23.2998V19Z" fill="#19BFD3"></path><path fill-rule="evenodd" clip-rule="evenodd" d="M19.2998 19H21.2998V21H19.2998V19Z" fill="#19BFD3"></path><path fill-rule="evenodd" clip-rule="evenodd" d="M15.2998 19H17.2998V21H15.2998V19Z" fill="#19BFD3"></path><path fill-rule="evenodd" clip-rule="evenodd" d="M11.2998 19H13.2998V21H11.2998V19Z" fill="#19BFD3"></path></svg>