<svg xmlns="http://www.w3.org/2000/svg" width="49" height="48" viewBox="0 0 49 48" fill="none"><path fill-rule="evenodd" clip-rule="evenodd" d="M6.09961 38C6.09961 36.3431 7.44276 35 9.09961 35H13.0996C14.7565 35 16.0996 36.3431 16.0996 38V43H14.0996V38C14.0996 37.4477 13.6519 37 13.0996 37H9.09961C8.54732 37 8.09961 37.4477 8.09961 38V43H6.09961V38Z" fill="#232933"></path><path fill-rule="evenodd" clip-rule="evenodd" d="M19.0996 31C19.0996 29.3431 20.4428 28 22.0996 28H26.0996C27.7565 28 29.0996 29.3431 29.0996 31V43H27.0996V31C27.0996 30.4477 26.6519 30 26.0996 30H22.0996C21.5473 30 21.0996 30.4477 21.0996 31V43H19.0996V31Z" fill="#232933"></path><path fill-rule="evenodd" clip-rule="evenodd" d="M32.0996 23C32.0996 21.3431 33.4428 20 35.0996 20H39.0996C40.7565 20 42.0996 21.3431 42.0996 23V43H40.0996V23C40.0996 22.4477 39.6519 22 39.0996 22H35.0996C34.5473 22 34.0996 22.4477 34.0996 23V43H32.0996V23Z" fill="#232933"></path><path fill-rule="evenodd" clip-rule="evenodd" d="M10.1167 22.4227C10.4909 21.2711 12.1202 21.271 12.4943 22.4227L13.3792 25.1458H16.2424C17.4533 25.1458 17.9568 26.6954 16.9772 27.4071L14.6607 29.0901L15.5455 31.8133C15.9197 32.9649 14.6016 33.9226 13.622 33.2108L11.3055 31.5278L8.98907 33.2108C8.00943 33.9226 6.69133 32.9649 7.06552 31.8133L7.95033 29.0901L5.63388 27.4071C4.65424 26.6954 5.1577 25.1458 6.36861 25.1458H9.2319L10.1167 22.4227ZM11.3055 25.236L10.9656 26.2821C10.7983 26.7971 10.3183 27.1458 9.77681 27.1458H8.67687L9.56674 27.7924C10.0048 28.1107 10.1882 28.6749 10.0208 29.1899L9.68093 30.236L10.5708 29.5895C11.0089 29.2712 11.6021 29.2712 12.0403 29.5895L12.9301 30.236L12.5902 29.1899C12.4229 28.6749 12.6062 28.1107 13.0443 27.7924L13.9342 27.1458H12.8342C12.2927 27.1458 11.8128 26.7971 11.6454 26.2821L11.3055 25.236Z" fill="#62666D"></path><path fill-rule="evenodd" clip-rule="evenodd" d="M23.2046 15.4227C23.5788 14.2711 25.208 14.271 25.5822 15.4227L26.467 18.1458H29.3303C30.5412 18.1458 31.0447 19.6954 30.0651 20.4071L27.7486 22.0901L28.6334 24.8133C29.0076 25.9649 27.6895 26.9226 26.7099 26.2108L24.3934 24.5278L22.077 26.2108C21.0973 26.9226 19.7792 25.9649 20.1534 24.8133L21.0382 22.0901L18.7218 20.4071C17.7421 19.6954 18.2456 18.1458 19.4565 18.1458H22.3198L23.2046 15.4227ZM24.3934 18.236L24.0535 19.2821C23.8862 19.7971 23.4062 20.1458 22.8647 20.1458H21.7648L22.6546 20.7924C23.0927 21.1107 23.2761 21.6749 23.1087 22.1899L22.7688 23.236L23.6587 22.5895C24.0968 22.2712 24.69 22.2712 25.1281 22.5895L26.018 23.236L25.6781 22.1899C25.5108 21.6749 25.6941 21.1107 26.1322 20.7924L27.0221 20.1458H25.9221C25.3806 20.1458 24.9007 19.7971 24.7333 19.2821L24.3934 18.236Z" fill="#19BFD3"></path><path fill-rule="evenodd" clip-rule="evenodd" d="M36.1167 6.42269C36.4909 5.27105 38.1202 5.27105 38.4943 6.42269L39.3792 9.14584H42.2424C43.4533 9.14584 43.9568 10.6954 42.9772 11.4071L40.6607 13.0901L41.5455 15.8133C41.9197 16.9649 40.6016 17.9226 39.622 17.2108L37.3055 15.5278L34.9891 17.2108C34.0094 17.9226 32.6913 16.9649 33.0655 15.8133L33.9503 13.0901L31.6339 11.4071C30.6542 10.6954 31.1577 9.14584 32.3686 9.14584H35.2319L36.1167 6.42269ZM37.3055 9.23601L36.9656 10.2821C36.7983 10.7971 36.3183 11.1458 35.7768 11.1458H34.6769L35.5667 11.7924C36.0048 12.1107 36.1882 12.6749 36.0208 13.1899L35.6809 14.236L36.5708 13.5895C37.0089 13.2712 37.6021 13.2712 38.0403 13.5895L38.9301 14.236L38.5902 13.1899C38.4229 12.6749 38.6062 12.1107 39.0443 11.7924L39.9342 11.1458H38.8342C38.2927 11.1458 37.8128 10.7971 37.6454 10.2821L37.3055 9.23601Z" fill="#E6123D"></path><path fill-rule="evenodd" clip-rule="evenodd" d="M12.0996 7C12.0996 6.44772 11.6519 6 11.0996 6C10.5473 6 10.0996 6.44772 10.0996 7V8.5H8.59961C8.04732 8.5 7.59961 8.94772 7.59961 9.5C7.59961 10.0523 8.04732 10.5 8.59961 10.5H10.0996V12C10.0996 12.5523 10.5473 13 11.0996 13C11.6519 13 12.0996 12.5523 12.0996 12V10.5H13.5996C14.1519 10.5 14.5996 10.0523 14.5996 9.5C14.5996 8.94772 14.1519 8.5 13.5996 8.5H12.0996V7Z" fill="#232933"></path></svg>