<svg xmlns="http://www.w3.org/2000/svg" width="49" height="48" viewBox="0 0 49 48" fill="none"><path fill-rule="evenodd" clip-rule="evenodd" d="M18.8994 12C20.5563 12 21.8994 13.3431 21.8994 15V16C21.8994 17.6569 20.5563 19 18.8994 19C17.2426 19 15.8994 17.6569 15.8994 16V15C15.8994 13.3431 17.2426 12 18.8994 12ZM18.8994 20C22.4284 20 24.5384 21.6156 24.8737 24.6784L24.8994 25C24.8994 25 22.8994 25 22.8967 25.0083C22.7134 22.9441 21.5049 22 18.8994 22C16.3502 22 15.1384 22.9037 14.9155 24.876L14.9036 25.0018C14.8994 25 12.8994 25 12.8994 25L12.9024 24.9232C13.1504 21.7017 15.2775 20 18.8994 20ZM17.8994 15C17.8994 14.4477 18.3471 14 18.8994 14C19.4517 14 19.8994 14.4477 19.8994 15V16C19.8994 16.5523 19.4517 17 18.8994 17C18.3471 17 17.8994 16.5523 17.8994 16V15Z" fill="#EF4056"></path><path fill-rule="evenodd" clip-rule="evenodd" d="M27.2595 7.41804L26.3547 6.45848C25.5653 5.62126 24.2339 5.62126 23.4445 6.45848L22.5397 7.41804C21.1365 8.9061 19.072 9.5769 17.0622 9.19779L15.7662 8.95332C14.6354 8.74003 13.5583 9.52257 13.4117 10.6639L13.2437 11.9721C12.9832 14.0007 11.7073 15.7569 9.85845 16.6315L8.66625 17.1955C7.62606 17.6876 7.21465 18.9538 7.76693 19.9633L8.39993 21.1204C9.38156 22.9147 9.38156 25.0854 8.39993 26.8797L7.76693 28.0368C7.21465 29.0463 7.62606 30.3125 8.66625 30.8046L9.85845 31.3686C11.7073 32.2432 12.9832 33.9994 13.2437 36.028L13.4117 37.3362C13.5583 38.4775 14.6354 39.2601 15.7662 39.0468L17.0622 38.8023C19.072 38.4232 21.1365 39.094 22.5397 40.5821L23.4445 41.5416C24.2339 42.3788 25.5653 42.3788 26.3547 41.5416L27.2595 40.5821C28.6627 39.094 30.7272 38.4232 32.7371 38.8023L34.0331 39.0468C35.1639 39.2601 36.2409 38.4775 36.3875 37.3362L36.5555 36.028C36.816 33.9994 38.092 32.2432 39.9408 31.3686L41.133 30.8046C42.1732 30.3125 42.5846 29.0463 42.0323 28.0368L41.3993 26.8797C40.4177 25.0854 40.4177 22.9147 41.3993 21.1204L42.0323 19.9633C42.5846 18.9538 42.1732 17.6876 41.133 17.1955L39.9408 16.6315C38.092 15.7569 36.816 14.0007 36.5555 11.9721L36.3875 10.6639C36.2409 9.52257 35.1639 8.74003 34.0331 8.95332L32.7371 9.19779C30.7272 9.5769 28.6627 8.9061 27.2595 7.41804ZM27.8099 5.08638C26.231 3.41196 23.5683 3.41196 21.9894 5.08638L21.0846 6.04595C20.1491 7.03799 18.7728 7.48519 17.4329 7.23245L16.1369 6.98798C13.8753 6.56139 11.7212 8.12648 11.428 10.4092L11.26 11.7173C11.0863 13.0697 10.2357 14.2405 9.00317 14.8236L7.81097 15.3876C5.73059 16.3718 4.90777 18.9042 6.01234 20.9232L6.64534 22.0803C7.29976 23.2765 7.29976 24.7236 6.64534 25.9198L6.01234 27.0769C4.90777 29.0959 5.73059 31.6283 7.81096 32.6125L9.00317 33.1765C10.2357 33.7596 11.0863 34.9304 11.26 36.2828L11.428 37.5909C11.7212 39.8736 13.8753 41.4387 16.1369 41.0121L17.4329 40.7677C18.7728 40.5149 20.1491 40.9621 21.0846 41.9542L21.9894 42.9137C23.5683 44.5881 26.231 44.5881 27.8099 42.9137L28.7147 41.9542C29.6501 40.9621 31.0264 40.5149 32.3663 40.7677L33.6624 41.0121C35.9239 41.4387 38.0781 39.8736 38.3712 37.5909L38.5392 36.2828C38.7129 34.9304 39.5635 33.7596 40.7961 33.1765L41.9883 32.6125C44.0686 31.6283 44.8915 29.0959 43.7869 27.0769L43.1539 25.9198C42.4995 24.7236 42.4995 23.2765 43.1539 22.0803L43.7869 20.9232C44.8915 18.9042 44.0686 16.3718 41.9883 15.3876L40.7961 14.8236C39.5635 14.2405 38.7129 13.0697 38.5392 11.7173L38.3712 10.4092C38.0781 8.12648 35.9239 6.56139 33.6624 6.98798L32.3663 7.23245C31.0264 7.48519 29.6501 7.03799 28.7147 6.04595L27.8099 5.08638Z" fill="#62666D"></path><path d="M30.3995 28C34.286 28 36.5965 29.2603 36.8932 31.8878C36.9602 32.4808 36.4963 33 35.8995 33H24.8995C24.3028 33 23.8389 32.4808 23.9059 31.8878C24.2025 29.2603 26.5131 28 30.3995 28Z" fill="#232933"></path><path d="M19.5124 24.2097L19.6066 24.2929L22.6066 27.2929L21.1924 28.7071L19.8994 27.414L19.8995 30C19.8995 30.5523 20.3472 31 20.8995 31H22.8995V33H20.8995C19.2426 33 17.8995 31.6569 17.8995 30L17.8994 27.414L16.6066 28.7071L15.1924 27.2929L18.1924 24.2929C18.5529 23.9324 19.1201 23.9047 19.5124 24.2097Z" fill="#0FABC6"></path><path d="M30.3994 19C32.3324 19 33.8994 20.567 33.8994 22.5V23.5C33.8994 25.433 32.3324 27 30.3994 27C28.4664 27 26.8994 25.433 26.8994 23.5V22.5C26.8994 20.567 28.4664 19 30.3994 19Z" fill="#232933"></path></svg>