<svg xmlns="http://www.w3.org/2000/svg" width="49" height="48" viewBox="0 0 49 48" fill="none"><path fill-rule="evenodd" clip-rule="evenodd" d="M25.0616 21.8182C25.5343 20.7152 26.6189 20 27.819 20H33.93C35.3932 20 36.3612 21.5198 35.7424 22.8458L32.9064 28.9229L31.094 28.0771L33.93 22H27.819C27.419 22 27.0574 22.2384 26.8998 22.6061L25.9193 24.8939L24.0811 24.1061L25.0616 21.8182Z" fill="#EF4056"></path><path fill-rule="evenodd" clip-rule="evenodd" d="M24 27.5H35C36.6569 27.5 38 28.8431 38 30.5V42.5H36V30.5C36 29.9477 35.5523 29.5 35 29.5H24V27.5Z" fill="#19BFD3"></path><path fill-rule="evenodd" clip-rule="evenodd" d="M13 23.5C13 21.2909 14.7909 19.5 17 19.5H17.0504C18.6311 19.5 20.0636 20.4309 20.7056 21.8754L21.6499 24H26.25C27.7688 24 29 25.2312 29 26.75C29 28.2688 27.7688 29.5 26.25 29.5H21V27.5H26.25C26.6642 27.5 27 27.1642 27 26.75C27 26.3358 26.6642 26 26.25 26H20.3501L18.878 22.6877C18.557 21.9655 17.8408 21.5 17.0504 21.5H17C15.8954 21.5 15 22.3954 15 23.5V26H13V23.5Z" fill="#62666D"></path><path fill-rule="evenodd" clip-rule="evenodd" d="M17.5 15C16.9477 15 16.5 15.4477 16.5 16C16.5 16.5523 16.9477 17 17.5 17C18.0523 17 18.5 16.5523 18.5 16C18.5 15.4477 18.0523 15 17.5 15ZM14.5 16C14.5 14.3431 15.8431 13 17.5 13C19.1569 13 20.5 14.3431 20.5 16C20.5 17.6569 19.1569 19 17.5 19C15.8431 19 14.5 17.6569 14.5 16Z" fill="#62666D"></path><path fill-rule="evenodd" clip-rule="evenodd" d="M25.2718 33H21.5V31H25.2718C27.0034 31 28.6117 31.8959 29.5231 33.3682L33.4497 39.7113C34.4734 41.3649 33.284 43.5 31.3392 43.5C30.4673 43.5 29.6593 43.0425 29.2107 42.2949L25.4338 36H21.5V34H25.4338C26.1363 34 26.7873 34.3686 27.1488 34.971L30.9257 41.2659C31.0129 41.4111 31.1698 41.5 31.3392 41.5C31.717 41.5 31.9481 41.0852 31.7492 40.764L27.8226 34.4209C27.2757 33.5376 26.3107 33 25.2718 33Z" fill="#62666D"></path><path fill-rule="evenodd" clip-rule="evenodd" d="M9.71174 27.8123C9.12393 26.4897 10.092 25 11.5394 25H14.8339C15.6413 25 16.3695 25.4855 16.6801 26.2308L18.6673 31H22.0006C23.3813 31 24.5006 32.1193 24.5006 33.5C24.5006 34.8807 23.3813 36 22.0006 36H20.2506V39H23.5006C25.1575 39 26.5006 40.3431 26.5006 42V43H24.5006V42C24.5006 41.4477 24.0529 41 23.5006 41H16.0006C15.4483 41 15.0006 41.4477 15.0006 42V43H13.0006V42C13.0006 40.3431 14.3437 39 16.0006 39H18.2506V36H15.3003C14.1148 36 13.0404 35.3018 12.5589 34.2184L9.71174 27.8123ZM11.5394 27L14.3865 33.4061C14.547 33.7673 14.9052 34 15.3003 34H22.0006C22.2767 34 22.5006 33.7761 22.5006 33.5C22.5006 33.2239 22.2767 33 22.0006 33H17.3339L14.8339 27L11.5394 27Z" fill="#232933"></path><path fill-rule="evenodd" clip-rule="evenodd" d="M24.6734 5.52291C23.9773 5.04337 23.0549 5.05324 22.3692 5.54757L5.65024 17.6008C4.9989 18.0704 5.13868 19.0774 5.89329 19.3518L7.18302 19.8207C7.9734 20.1082 8.49954 20.8593 8.49954 21.7003V42.4999H40.4995V21.6498C40.4995 20.8594 40.965 20.1432 41.6873 19.8222L42.3316 19.5358C43.0456 19.2185 43.1362 18.2417 42.4928 17.7985L24.6734 5.52291ZM42.4995 42.4999V21.6498L43.1439 21.3634C45.2857 20.4115 45.5576 17.4811 43.6274 16.1514L25.808 3.87589C24.4158 2.91681 22.571 2.93656 21.1996 3.92522L4.48063 15.9784C2.52662 17.3871 2.94598 20.4081 5.20981 21.2313L6.49954 21.7003V42.4999H3.99954V44.4999H44.9995V42.4999H42.4995Z" fill="#232933"></path></svg>