<svg xmlns="http://www.w3.org/2000/svg" width="206" height="51" viewBox="0 0 206 51" fill="none"><path d="M0.5 22.5H120" stroke="#A1A3A8" stroke-linecap="round" stroke-dasharray="1 3"></path><path d="M86 22.5H205.5" stroke="#A1A3A8" stroke-linecap="round" stroke-dasharray="1 3"></path><circle cx="103" cy="22" r="21" fill="white"></circle><circle cx="103" cy="22" r="21" fill="#EF4056" fill-opacity="0.15"></circle><circle cx="103" cy="22" r="21" stroke="white" stroke-width="2"></circle><path d="M111 14C112.105 14 113 13.1046 113 12C113 10.8954 112.105 10 111 10C109.895 10 109 10.8954 109 12C109 13.1046 109.895 14 111 14Z" fill="#EF394E"></path><path d="M101.443 20.4302C99.3652 19.2303 98.6532 16.573 99.853 14.4949C101.053 12.4167 103.71 11.7047 105.788 12.9045L106.788 11.1725C103.754 9.42038 99.873 10.4602 98.1209 13.4949C96.3688 16.5296 97.4086 20.4101 100.443 22.1622L101.443 20.4302Z" fill="#EF394E"></path><path d="M102.647 18.2872C103.847 16.209 106.504 15.497 108.582 16.6968C110.66 17.8966 111.372 20.5539 110.172 22.6321L111.905 23.6321C113.657 20.5974 112.617 16.7169 109.582 14.9648C106.547 13.2127 102.667 14.2524 100.915 17.2872L102.647 18.2872Z" fill="#EF394E"></path><path d="M105.957 25.5821C107.157 23.504 106.444 20.8467 104.366 19.6469L105.366 17.9148C108.401 19.6669 109.441 23.5474 107.689 26.5821C105.937 29.6169 102.056 30.6566 99.0214 28.9045L100.021 27.1725C102.1 28.3723 104.757 27.6603 105.957 25.5821Z" fill="#EF394E"></path><path d="M97.4949 22.977C95.4167 21.7772 94.7047 19.1199 95.9045 17.0418L94.1725 16.0418C92.4204 19.0765 93.4601 22.957 96.4949 24.7091C99.5296 26.4612 103.41 25.4214 105.162 22.3867L103.43 21.3867C102.23 23.4648 99.573 24.1768 97.4949 22.977Z" fill="#EF394E"></path><path d="M113 28C113 29.1046 112.105 30 111 30C109.895 30 109 29.1046 109 28C109 26.8954 109.895 26 111 26C112.105 26 113 26.8954 113 28Z" fill="#EF394E"></path><path d="M95 30C96.1046 30 97 29.1046 97 28C97 26.8954 96.1046 26 95 26C93.8954 26 93 26.8954 93 28C93 29.1046 93.8954 30 95 30Z" fill="#EF394E"></path><path d="M97 12C97 13.1046 96.1046 14 95 14C93.8954 14 93 13.1046 93 12C93 10.8954 93.8954 10 95 10C96.1046 10 97 10.8954 97 12Z" fill="#EF394E"></path><rect x="95" y="34" width="16" height="16" rx="8" fill="#E6123D" stroke="white" stroke-width="2"></rect><path d="M104.883 39.0355C104.889 39.0518 104.893 39.0655 104.896 39.0764C104.909 39.12 104.921 39.1623 104.932 39.2032C104.968 39.3286 105.001 39.4527 105.031 39.5755C105.118 39.9518 105.161 40.2641 105.161 40.5123C105.161 41.0823 105.001 41.5405 104.679 41.8868C104.351 42.2441 103.927 42.4227 103.406 42.4227C103.136 42.4227 102.879 42.3695 102.633 42.2632C102.666 42.6695 102.688 43.1032 102.699 43.5641C102.701 43.7386 102.703 43.9309 102.703 44.1409C102.703 44.22 102.701 44.31 102.699 44.4109V45.0655H101.357C101.357 45.0245 101.358 44.9577 101.361 44.865V44.4314C101.364 44.3441 101.365 44.265 101.365 44.1941C101.365 44.0114 101.364 43.8423 101.361 43.6868C101.356 43.2859 101.339 42.9082 101.312 42.5536C101.246 41.6209 101.106 40.7523 100.891 39.9477V39.9436C100.841 39.7609 100.791 39.5918 100.739 39.4364L102.02 39.0314C102.074 39.1977 102.129 39.3859 102.183 39.5959C102.186 39.6068 102.19 39.6205 102.196 39.6368C102.204 39.6586 102.211 39.6805 102.216 39.7023C102.241 39.7677 102.266 39.8332 102.294 39.8986C102.373 40.0923 102.461 40.2695 102.56 40.4305C102.832 40.8641 103.115 41.0809 103.406 41.0809C103.537 41.0809 103.633 41.0468 103.693 40.9786C103.777 40.8886 103.82 40.7332 103.82 40.5123C103.82 40.3814 103.794 40.1973 103.742 39.96C103.698 39.7636 103.651 39.5836 103.599 39.42L104.875 39.0109L104.883 39.0355Z" fill="white"></path></svg>