<svg xmlns="http://www.w3.org/2000/svg" width="205" height="51" viewBox="0 0 205 51" fill="none"><path d="M0.5 22.5H120" stroke="#A1A3A8" stroke-linecap="round" stroke-dasharray="1 3"></path><circle cx="103" cy="22" r="21" fill="white"></circle><circle cx="103" cy="22" r="21" fill="#EF4056" fill-opacity="0.15"></circle><circle cx="103" cy="22" r="21" stroke="white" stroke-width="2"></circle><path fill-rule="evenodd" clip-rule="evenodd" d="M109.994 9.88837L110 10.002V13.002H113C113.813 13.002 114.256 13.9 113.847 14.5356L113.783 14.6245L113.707 14.7091L110.707 17.7091C110.551 17.8654 110.348 17.9646 110.131 17.9933L110 18.002L106.414 18.002L102.707 21.7091C102.317 22.0996 101.683 22.0996 101.293 21.7091C100.932 21.3486 100.905 20.7814 101.21 20.3891L101.293 20.2949L105 16.586V13.002C105 12.781 105.073 12.5675 105.206 12.394L105.293 12.2949L108.293 9.2949C108.868 8.71971 109.816 9.04164 109.977 9.7801L109.994 9.88837ZM103.501 12.1266C103.013 12.0447 102.511 12.002 102 12.002C97.0294 12.002 93 16.0315 93 21.002C93 25.9726 97.0294 30.002 102 30.002C106.971 30.002 111 25.9726 111 21.002C111 20.4912 110.957 19.9902 110.876 19.5026L108.839 19.5021C108.944 19.9853 109 20.4872 109 21.002C109 24.868 105.866 28.002 102 28.002C98.134 28.002 95 24.868 95 21.002C95 17.136 98.134 14.002 102 14.002C102.515 14.002 103.018 14.0577 103.501 14.1634L103.501 12.1266ZM103.296 16.1721C102.881 16.061 102.446 16.002 102 16.002C99.2386 16.002 97 18.2406 97 21.002C97 23.7634 99.2386 26.002 102 26.002C104.761 26.002 107 23.7634 107 21.002L106.991 20.6953C106.972 20.3898 106.926 20.0886 106.853 19.7943L106.829 19.708L104.941 21.5981C104.664 22.9694 103.453 24.002 102 24.002C100.343 24.002 99 22.6589 99 21.002C99 19.5489 100.033 18.3371 101.405 18.061L103.296 16.1721ZM107 13.416L108 12.416V14.002L108.007 14.1186L108.026 14.2313C108.13 14.6731 108.527 15.002 109 15.002H110.584L109.584 16.002H107V13.416Z" fill="#EF394E"></path><rect x="95" y="34" width="16" height="16" rx="8" fill="#E6123D" stroke="white" stroke-width="2"></rect><path d="M102.549 45.0614C102.549 44.9386 102.552 44.7273 102.557 44.4273L102.562 44.1777L102.566 43.9159C102.568 43.815 102.57 43.7195 102.57 43.6295C102.57 43.5368 102.568 43.4482 102.566 43.3636C102.563 42.93 102.548 42.5264 102.521 42.1527C102.444 41.1736 102.274 40.2641 102.009 39.4241L103.286 39.0191C103.58 39.9464 103.768 40.9514 103.85 42.0341C103.883 42.4432 103.901 42.8795 103.903 43.3432C103.906 43.4332 103.907 43.5259 103.907 43.6214C103.907 43.7195 103.906 43.8205 103.903 43.9241C103.903 44.0086 103.902 44.1 103.899 44.1982V44.325L103.895 44.4518C103.89 44.7464 103.887 44.9495 103.887 45.0614H102.549Z" fill="white"></path></svg>