<svg xmlns="http://www.w3.org/2000/svg" width="205" height="51" viewBox="0 0 205 51" fill="none"><path d="M0.5 22.5H120" stroke="#A1A3A8" stroke-linecap="round" stroke-dasharray="1 3"></path><path d="M85 22.5H204.5" stroke="#A1A3A8" stroke-linecap="round" stroke-dasharray="1 3"></path><circle cx="103" cy="22" r="21" fill="white"></circle><circle cx="103" cy="22" r="21" fill="#EF4056" fill-opacity="0.15"></circle><circle cx="103" cy="22" r="21" stroke="white" stroke-width="2"></circle><path d="M104 8V11H102V8H104Z" fill="#EF4056"></path><path d="M94.7929 10.7071L96.9142 12.8284L98.3284 11.4142L96.2071 9.29286L94.7929 10.7071Z" fill="#EF4056"></path><path fill-rule="evenodd" clip-rule="evenodd" d="M97 18C97 20.2224 98.2071 22.1597 100 23.1967V25.5C100 25.7761 100.224 26 100.5 26H105.5C105.776 26 106 25.7761 106 25.5V23.1967C107.793 22.1597 109 20.2224 109 18C109 14.6863 106.314 12 103 12C99.6863 12 97 14.6863 97 18ZM104 24V21.874C105.725 21.4299 107 19.8638 107 18C107 15.7909 105.209 14 103 14C100.791 14 99 15.7909 99 18C99 19.8638 100.275 21.4299 102 21.874V24H104Z" fill="#EF4056"></path><path d="M100.5 27C100.224 27 100 27.2239 100 27.5V28.5C100 28.7761 100.224 29 100.5 29H105.5C105.776 29 106 28.7761 106 28.5V27.5C106 27.2239 105.776 27 105.5 27H100.5Z" fill="#EF4056"></path><path d="M102 31C101.724 31 101.5 30.7761 101.5 30.5C101.5 30.2239 101.724 30 102 30H104C104.276 30 104.5 30.2239 104.5 30.5C104.5 30.7761 104.276 31 104 31H102Z" fill="#EF4056"></path><path d="M110 18H113V16H110V18Z" fill="#EF4056"></path><path d="M109.086 12.8284L111.207 10.7071L109.793 9.29286L107.672 11.4142L109.086 12.8284Z" fill="#EF4056"></path><path d="M93 18H96V16H93V18Z" fill="#EF4056"></path><rect x="95" y="34" width="16" height="16" rx="8" fill="#E6123D" stroke="white" stroke-width="2"></rect><path d="M105.601 39.0968C105.612 39.1323 105.623 39.1718 105.634 39.2155C105.664 39.3355 105.693 39.4582 105.72 39.5836C105.799 39.9518 105.839 40.2586 105.839 40.5041C105.839 41.0441 105.735 41.4723 105.528 41.7886C105.263 42.2059 104.88 42.4145 104.378 42.4145C103.977 42.4145 103.629 42.2823 103.335 42.0177L103.286 41.9727C103.046 42.2264 102.738 42.3764 102.361 42.4227C102.279 42.4336 102.211 42.4391 102.157 42.4391C102.097 42.4391 102.031 42.435 101.96 42.4268C101.985 42.7923 102 43.1823 102.005 43.5968C102.008 43.755 102.009 43.9282 102.009 44.1164C102.009 44.1873 102.008 44.2691 102.005 44.3618V44.5909C102.003 44.6645 102.001 44.7464 102.001 44.8364V45.0573H100.659V44.8241C100.659 44.7341 100.661 44.6523 100.664 44.5786V44.46L100.668 44.3373V44.0836C100.668 43.8873 100.666 43.7059 100.664 43.5395C100.658 43.1005 100.639 42.6886 100.606 42.3041C100.522 41.2814 100.339 40.3282 100.058 39.4445L101.339 39.0395C101.57 39.9368 101.718 40.47 101.78 40.6391C101.892 40.9391 102.027 41.0905 102.185 41.0932C102.215 41.0932 102.241 41.0905 102.263 41.085C102.296 41.0768 102.324 41.0632 102.349 41.0441C102.417 40.9895 102.464 40.8927 102.488 40.7536C102.513 40.6227 102.525 40.4768 102.525 40.3159C102.525 40.2395 102.522 40.1605 102.517 40.0786C102.511 39.9832 102.502 39.8645 102.488 39.7227L102.468 39.5386L102.447 39.3505L103.74 39.1623C103.756 39.3395 103.778 39.5195 103.805 39.7023C103.841 39.945 103.88 40.1591 103.924 40.3445C104.041 40.8491 104.176 41.1027 104.329 41.1055H104.333C104.45 41.1055 104.51 40.9759 104.513 40.7168C104.513 40.4523 104.452 40.0077 104.329 39.3832L105.581 39.0314C105.586 39.045 105.593 39.0668 105.601 39.0968Z" fill="white"></path></svg>