<svg xmlns="http://www.w3.org/2000/svg" width="205" height="51" viewBox="0 0 205 51" fill="none"><path d="M0.5 22.5H120" stroke="#A1A3A8" stroke-linecap="round" stroke-dasharray="1 3"></path><path d="M85 22.5H204.5" stroke="#A1A3A8" stroke-linecap="round" stroke-dasharray="1 3"></path><circle cx="103" cy="22" r="21" fill="white"></circle><circle cx="103" cy="22" r="21" fill="#EF4056" fill-opacity="0.15"></circle><circle cx="103" cy="22" r="21" stroke="white" stroke-width="2"></circle><path d="M104 16H98V14H104V16Z" fill="#EF394E"></path><path d="M98 20H104V18H98V20Z" fill="#EF394E"></path><path d="M104 24H98V22H104V24Z" fill="#EF394E"></path><path fill-rule="evenodd" clip-rule="evenodd" d="M109 10H98C95.7909 10 94 11.7909 94 14V29C94 29.7987 94.8901 30.2751 95.5547 29.8321L98 28.2019L100.445 29.8321C100.781 30.056 101.219 30.056 101.555 29.8321L104 28.2019L106.445 29.8321C107.11 30.2751 108 29.7987 108 29V13.5C108 12.6716 108.672 12 109.5 12C110.328 12 111 12.6716 111 13.5V22H110V24H112C112.552 24 113 23.5523 113 23V13.5C113 11.567 111.433 10 109.5 10C109.33 10 109.163 10.0121 109 10.0354V10ZM106 13.5V27.1315L104.555 26.1679C104.219 25.944 103.781 25.944 103.445 26.1679L101 27.7981L98.5547 26.1679C98.2188 25.944 97.7812 25.944 97.4453 26.1679L96 27.1315V14C96 12.8954 96.8954 12 98 12H106.337C106.121 12.4546 106 12.9632 106 13.5Z" fill="#EF394E"></path><rect x="95" y="34" width="16" height="16" rx="8" fill="#E6123D" stroke="white" stroke-width="2"></rect><path d="M105.627 42.4473C105.625 42.4473 105.614 42.45 105.595 42.4555C105.573 42.4582 105.546 42.4623 105.513 42.4677C105.426 42.4841 105.327 42.4991 105.218 42.5127C104.886 42.5564 104.53 42.5877 104.151 42.6068C104.025 42.6123 103.902 42.615 103.782 42.615C103.182 42.615 102.644 42.5414 102.167 42.3941C102.197 42.7786 102.214 43.1877 102.22 43.6214C102.222 43.7905 102.224 43.9732 102.224 44.1695V45.0655H100.882V44.6564C100.882 44.4955 100.883 44.3659 100.886 44.2677C100.886 44.1177 100.885 43.9786 100.882 43.8505C100.879 43.5205 100.871 43.2095 100.857 42.9177C100.819 42.1623 100.736 41.4532 100.608 40.7905C100.586 40.7032 100.571 40.6364 100.563 40.59H100.567C100.48 40.1836 100.379 39.7991 100.264 39.4364L101.541 39.0314C101.691 39.5032 101.816 39.9914 101.917 40.4959C101.933 40.5505 101.947 40.59 101.958 40.6145V40.545L101.954 40.4714C101.954 40.4305 101.958 40.38 101.966 40.32C101.98 40.2436 101.997 40.1659 102.019 40.0868C102.079 39.8686 102.171 39.6709 102.293 39.4936C102.651 38.9755 103.2 38.7164 103.942 38.7164C104.19 38.7164 104.426 38.7627 104.65 38.8555C104.74 38.8936 104.842 38.9441 104.957 39.0068C104.997 39.0314 105.049 39.0614 105.112 39.0968L105.276 39.195L105.394 39.2686L105.456 39.3055L105.521 39.3423L104.871 40.4591C104.712 40.3691 104.557 40.2955 104.404 40.2382C104.197 40.1645 104.005 40.1277 103.827 40.1277C103.642 40.1277 103.489 40.1741 103.369 40.2668C103.26 40.3514 103.2 40.4564 103.189 40.5818C103.187 40.6064 103.185 40.6295 103.185 40.6514C103.185 40.8505 103.272 41.0086 103.447 41.1259C103.619 41.2432 103.857 41.3018 104.163 41.3018C104.256 41.3018 104.354 41.2964 104.457 41.2855C104.785 41.2527 105.064 41.2077 105.296 41.1505L105.627 42.4473Z" fill="white"></path></svg>