<svg xmlns="http://www.w3.org/2000/svg" width="205" height="51" viewBox="0 0 205 51" fill="none"><path d="M85 22.5H204.5" stroke="#A1A3A8" stroke-linecap="round" stroke-dasharray="1 3"></path><circle cx="103" cy="22" r="21" fill="white"></circle><circle cx="103" cy="22" r="21" fill="#EF4056" fill-opacity="0.15"></circle><circle cx="103" cy="22" r="21" stroke="white" stroke-width="2"></circle><path fill-rule="evenodd" clip-rule="evenodd" d="M97 9C98.6569 9 100 10.3431 100 12V13C100 14.6569 98.6569 16 97 16C95.3431 16 94 14.6569 94 13V12C94 10.3431 95.3431 9 97 9ZM108.5 16C110.433 16 112 17.567 112 19.5V20.5C112 22.433 110.433 24 108.5 24C106.567 24 105 22.433 105 20.5V19.5C105 17.567 106.567 16 108.5 16ZM97.7071 21.2929L97.6129 21.2097C97.2206 20.9047 96.6534 20.9324 96.2929 21.2929L93.2929 24.2929L94.7071 25.7071L95.9999 24.414L96 27C96 28.6569 97.3431 30 99 30H101V28H99C98.4477 28 98 27.5523 98 27L97.9999 24.414L99.2929 25.7071L100.707 24.2929L97.7071 21.2929ZM114.994 28.8878C114.697 26.2603 112.386 25 108.5 25C104.614 25 102.303 26.2603 102.006 28.8878C101.939 29.4808 102.403 30 103 30H114C114.597 30 115.061 29.4808 114.994 28.8878ZM102.974 21.6784C102.639 18.6156 100.529 17 97 17C93.3781 17 91.251 18.7017 91.003 21.9232L91 22C91 22 93 22 93.0041 22.0018L93.0161 21.876C93.2389 19.9037 94.4508 19 97 19C99.6055 19 100.814 19.9441 100.997 22.0083C101 22 103 22 103 22L102.974 21.6784ZM96 12C96 11.4477 96.4477 11 97 11C97.5523 11 98 11.4477 98 12V13C98 13.5523 97.5523 14 97 14C96.4477 14 96 13.5523 96 13V12Z" fill="#EF394E"></path><rect x="95" y="34" width="16" height="16" rx="8" fill="#E6123D" stroke="white" stroke-width="2"></rect><path d="M103.392 40.0541L103.232 40.0909L103.077 40.1236C102.957 40.1509 102.86 40.1755 102.786 40.1973C102.587 40.2573 102.447 40.3323 102.365 40.4223C102.278 40.515 102.234 40.6214 102.234 40.7414C102.234 40.7686 102.237 40.7973 102.242 40.8273C102.261 40.9609 102.313 41.0618 102.398 41.13C102.501 41.2118 102.616 41.2527 102.741 41.2527C103.041 41.2527 103.414 41.0373 103.858 40.6064L104.247 40.2341L105.18 41.1914C105.177 41.1968 105.141 41.2323 105.073 41.2977L105.024 41.3427L104.873 41.4941L104.865 41.5064L104.84 41.5309C104.821 41.5555 104.8 41.5814 104.779 41.6086C104.716 41.6795 104.653 41.7545 104.59 41.8336C104.402 42.0682 104.22 42.3109 104.042 42.5618C103.772 42.9409 103.52 43.3282 103.285 43.7236C102.977 44.2445 102.715 44.7532 102.5 45.2495L101.269 44.7177C101.566 44.025 101.959 43.2941 102.447 42.525C102.286 42.5059 102.124 42.4609 101.96 42.39C101.736 42.2891 101.545 42.1514 101.387 41.9768C101.093 41.655 100.945 41.2677 100.945 40.815C100.945 40.755 100.948 40.695 100.954 40.635C100.997 40.095 101.221 39.6641 101.625 39.3423C101.905 39.1214 102.328 38.9605 102.893 38.8595L103.02 38.835C103.071 38.8268 103.115 38.8186 103.15 38.8105L103.392 40.0541Z" fill="white"></path></svg>