<svg xmlns="http://www.w3.org/2000/svg" width="206" height="51" viewBox="0 0 206 51" fill="none"><path d="M0.5 22.5H80" stroke="#A1A3A8" stroke-linecap="round" stroke-dasharray="1 3"></path><path d="M126 22.5H205.5" stroke="#A1A3A8" stroke-linecap="round" stroke-dasharray="1 3"></path><circle cx="103" cy="22" r="21" fill="white"></circle><circle cx="103" cy="22" r="21" fill="#EF4056" fill-opacity="0.15"></circle><circle cx="103" cy="22" r="21" stroke="white" stroke-width="2"></circle><path fill-rule="evenodd" clip-rule="evenodd" d="M108 11C109.054 11 109.918 11.8159 109.995 12.8507L110 13V15H108V13H107V14C107 15.1046 106.105 16 105 16H99C97.8954 16 97 15.1046 97 14V13H96V29H102V31H96C94.9456 31 94.0818 30.1841 94.0055 29.1493L94 29V13C94 11.9456 94.8159 11.0818 95.8507 11.0055L96 11H99.1707L99.2377 10.8278C99.6942 9.75341 100.759 9 102 9C103.293 9 104.403 9.82061 104.823 11H108ZM102 11C101.487 11 101.064 11.386 101.007 11.8834L100.993 12.1166C100.936 12.614 100.513 13 100 13H99V14H105V13H104C103.462 13 103.02 12.5744 103.001 12.0367L102.997 11.9243C102.959 11.4055 102.524 11 102 11Z" fill="#EF394E"></path><path fill-rule="evenodd" clip-rule="evenodd" d="M112 19C112 17.8954 111.105 17 110 17H106C104.895 17 104 17.8954 104 19V22C104 22.2652 104.105 22.5196 104.293 22.7071L105.586 24L104.293 25.2929C104.105 25.4804 104 25.7348 104 26V29C104 30.1046 104.895 31 106 31H110C111.105 31 112 30.1046 112 29V26C112 25.7348 111.895 25.4804 111.707 25.2929L110.414 24L111.707 22.7071C111.895 22.5196 112 22.2652 112 22V19ZM110 27L108 26L106 27V26.4142L107.707 24.7071C107.87 24.5444 107.965 24.3396 107.992 24.1277L108 24.0001L108.008 24.1277C108.035 24.3396 108.13 24.5444 108.293 24.7071L110 26.4142V27ZM108.293 23.2929C108.098 23.4882 108 23.7441 108 24.0001C108 23.7441 107.902 23.4882 107.707 23.2929L106 21.5858V19H110V21.5858L108.293 23.2929Z" fill="#EF394E"></path><rect x="95" y="34" width="16" height="16" rx="8" fill="#E6123D" stroke="white" stroke-width="2"></rect><path d="M104.018 39.9805C105.063 41.1368 105.585 42.1623 105.585 43.0568C105.585 43.6841 105.454 44.1709 105.192 44.5173C105.045 44.7164 104.853 44.8609 104.615 44.9509C104.435 45.0191 104.225 45.0532 103.985 45.0532C103.794 45.0532 103.609 45.0123 103.429 44.9305C103.246 44.8486 103.1 44.7409 102.991 44.6073C102.749 44.9127 102.432 45.0655 102.042 45.0655C101.75 45.0655 101.484 45.0068 101.244 44.8895C101.007 44.7695 100.814 44.5991 100.664 44.3782C100.432 44.04 100.316 43.5995 100.316 43.0568C100.316 42.6668 100.434 42.2264 100.672 41.7355C100.844 41.3809 101.075 40.9977 101.367 40.5859C101.534 40.3514 101.726 40.1018 101.944 39.8373C101.859 39.7691 101.793 39.7145 101.744 39.6736L102.566 38.6141L102.607 38.6468C102.62 38.6577 102.634 38.67 102.648 38.6836C102.667 38.6973 102.686 38.7123 102.705 38.7286C102.811 38.8186 102.922 38.9127 103.036 39.0109C103.391 39.33 103.718 39.6532 104.018 39.9805ZM104.247 43.5682C104.304 43.4755 104.333 43.32 104.333 43.1018C104.333 42.5945 103.901 41.8595 103.036 40.8968L102.979 40.8314L102.918 40.7659C102.896 40.7932 102.867 40.8273 102.832 40.8682L102.787 40.9255L102.738 40.9827C102.653 41.0836 102.582 41.1682 102.525 41.2364C102.348 41.4545 102.199 41.6509 102.079 41.8255C101.733 42.3273 101.559 42.7377 101.559 43.0568C101.559 43.2559 101.6 43.4141 101.682 43.5314C101.767 43.6595 101.887 43.7236 102.042 43.7236C102.249 43.7236 102.38 43.6445 102.435 43.4864C102.454 43.4291 102.464 43.3527 102.464 43.2573C102.464 43.1836 102.458 43.0991 102.447 43.0036L102.451 43.0077L103.584 42.8359C103.598 42.975 103.612 43.1386 103.625 43.3268V43.3677L103.634 43.425C103.639 43.4768 103.651 43.5218 103.67 43.56C103.719 43.6636 103.811 43.7155 103.944 43.7155H103.985C104.105 43.7045 104.193 43.6555 104.247 43.5682Z" fill="white"></path></svg>