<?xml version="1.0" encoding="UTF-8"?>
<!DOCTYPE svg PUBLIC "-//W3C//DTD SVG 1.1//EN" "http://www.w3.org/Graphics/SVG/1.1/DTD/svg11.dtd">
<svg xmlns="http://www.w3.org/2000/svg" version="1.1" width="400px" height="100px" style="shape-rendering:geometricPrecision; text-rendering:geometricPrecision; image-rendering:optimizeQuality; fill-rule:evenodd; clip-rule:evenodd" xmlns:xlink="http://www.w3.org/1999/xlink">
<g><path style="opacity:0.819" fill="#eaebec" d="M 331.5,10.5 C 343.505,10.3335 355.505,10.5001 367.5,11C 374.333,13.1667 378.833,17.6667 381,24.5C 381.5,36.8288 381.667,49.1622 381.5,61.5C 374.167,61.5 366.833,61.5 359.5,61.5C 359.5,52.1667 359.5,42.8333 359.5,33.5C 350.494,33.6664 341.494,33.4998 332.5,33C 331.519,25.5871 331.186,18.0871 331.5,10.5 Z"/></g>
<g><path style="opacity:1" fill="#243462" d="M 333.5,12.5 C 343.172,12.3335 352.839,12.5002 362.5,13C 370.666,13.6644 376.166,17.8311 379,25.5C 379.5,36.8284 379.667,48.1618 379.5,59.5C 373.833,59.5 368.167,59.5 362.5,59.5C 362.5,49.8333 362.5,40.1667 362.5,30.5C 352.833,30.5 343.167,30.5 333.5,30.5C 333.5,24.5 333.5,18.5 333.5,12.5 Z"/></g>
<g><path style="opacity:0.525" fill="#d60367" d="M 2.5,34.5 C 3.83333,34.5 5.16667,34.5 6.5,34.5C 6.5,41.8333 6.5,49.1667 6.5,56.5C 5.16667,56.5 3.83333,56.5 2.5,56.5C 2.5,49.1667 2.5,41.8333 2.5,34.5 Z"/></g>
<g><path style="opacity:0.52" fill="#d60367" d="M 104.5,34.5 C 105.833,34.5 107.167,34.5 108.5,34.5C 108.666,41.175 108.5,47.8417 108,54.5C 105.493,56.1553 102.659,56.9886 99.5,57C 99.8333,57.3333 100.167,57.6667 100.5,58C 97.4516,63.5285 92.7849,65.6951 86.5,64.5C 86.5,63.1667 86.5,61.8333 86.5,60.5C 89.1873,60.6641 91.854,60.4974 94.5,60C 95.3366,58.9887 95.67,57.8221 95.5,56.5C 86.123,56.3113 84.123,52.3113 89.5,44.5C 96.2183,42.0262 99.885,44.3595 100.5,51.5C 101.833,51.5 103.167,51.5 104.5,51.5C 104.5,45.8333 104.5,40.1667 104.5,34.5 Z M 92.5,47.5 C 94.9118,47.6941 95.9118,49.0274 95.5,51.5C 90.941,51.9909 89.941,50.6576 92.5,47.5 Z"/></g>
<g><path style="opacity:0.531" fill="#d60367" d="M 149.5,34.5 C 150.5,34.5 151.5,34.5 152.5,34.5C 152.5,35.8333 152.5,37.1667 152.5,38.5C 150.436,38.687 148.436,39.187 146.5,40C 145.549,40.7175 145.383,41.5509 146,42.5C 149.167,45 152,47.8333 154.5,51C 157.482,51.498 160.482,51.6646 163.5,51.5C 163.5,49.5 163.5,47.5 163.5,45.5C 166.893,45.3753 168.226,47.042 167.5,50.5C 167.45,52.9231 166.45,54.7564 164.5,56C 159.848,57.1931 155.681,56.3597 152,53.5C 151.5,54.6667 150.667,55.5 149.5,56C 143.78,56.7876 138.114,56.6209 132.5,55.5C 129.557,56.2435 126.557,56.7435 123.5,57C 123.347,59.6095 122.014,61.9429 119.5,64C 116.518,64.498 113.518,64.6646 110.5,64.5C 110.5,63.1667 110.5,61.8333 110.5,60.5C 113.187,60.6641 115.854,60.4974 118.5,60C 119.167,59 119.833,58 120.5,57C 110.471,56.0302 108.471,51.6968 114.5,44C 120.865,42.5368 124.198,45.0368 124.5,51.5C 126.833,51.5 129.167,51.5 131.5,51.5C 131.5,49.5 131.5,47.5 131.5,45.5C 132.5,45.5 133.5,45.5 134.5,45.5C 134.5,47.5 134.5,49.5 134.5,51.5C 139.361,51.9366 144.028,51.4366 148.5,50C 145.777,47.4006 142.943,44.9006 140,42.5C 139.28,40.8876 139.446,39.3876 140.5,38C 143.718,37.0997 146.718,35.933 149.5,34.5 Z M 116.5,47.5 C 122.113,50.0887 121.779,51.422 115.5,51.5C 115.433,50.0413 115.766,48.7079 116.5,47.5 Z"/></g>
<g><path style="opacity:0.605" fill="#223462" d="M 256.5,34.5 C 258.167,34.5 259.833,34.5 261.5,34.5C 261.5,39.8333 261.5,45.1667 261.5,50.5C 263.5,50.5 265.5,50.5 267.5,50.5C 267.5,48.5 267.5,46.5 267.5,44.5C 269.467,44.2606 271.301,44.5939 273,45.5C 274.821,52.9593 271.988,56.626 264.5,56.5C 262.035,56.5223 259.702,56.0223 257.5,55C 256.521,48.2555 256.188,41.4222 256.5,34.5 Z"/></g>
<g><path style="opacity:0.372" fill="#d60367" d="M 81.5,35.5 C 82.5,35.5 83.5,35.5 84.5,35.5C 85.64,38.0248 86.3067,40.6915 86.5,43.5C 83.8333,43.5 81.1667,43.5 78.5,43.5C 78.5,41.8333 78.5,40.1667 78.5,38.5C 79.5,38.5 80.5,38.5 81.5,38.5C 81.5,37.5 81.5,36.5 81.5,35.5 Z"/></g>
<g><path style="opacity:0.499" fill="#223462" d="M 287.5,35.5 C 289.5,35.5 291.5,35.5 293.5,35.5C 293.5,36.8333 293.5,38.1667 293.5,39.5C 291.5,39.5 289.5,39.5 287.5,39.5C 287.5,38.1667 287.5,36.8333 287.5,35.5 Z"/></g>
<g><path style="opacity:0.392" fill="#d60367" d="M 39.5,36.5 C 41.5,36.5 43.5,36.5 45.5,36.5C 45.5,37.5 45.5,38.5 45.5,39.5C 43.5,39.5 41.5,39.5 39.5,39.5C 39.5,38.5 39.5,37.5 39.5,36.5 Z"/></g>
<g><path style="opacity:0.818" fill="#eff0f0" d="M 303.5,36.5 C 310.833,36.5 318.167,36.5 325.5,36.5C 325.5,45.8333 325.5,55.1667 325.5,64.5C 334.506,64.3336 343.506,64.5002 352.5,65C 353.481,72.4129 353.814,79.9129 353.5,87.5C 341.495,87.6665 329.495,87.4999 317.5,87C 310.667,84.8333 306.167,80.3333 304,73.5C 303.5,61.1712 303.333,48.8378 303.5,36.5 Z"/></g>
<g><path style="opacity:0.347" fill="#223462" d="M 266.5,37.5 C 271.5,36.5 273.5,38.5 272.5,43.5C 270.5,43.5 268.5,43.5 266.5,43.5C 266.5,41.5 266.5,39.5 266.5,37.5 Z"/></g>
<g><path style="opacity:0.367" fill="#d60367" d="M 130.5,38.5 C 131.833,38.5 133.167,38.5 134.5,38.5C 134.5,40.1667 134.5,41.8333 134.5,43.5C 133.167,43.5 131.833,43.5 130.5,43.5C 130.5,41.8333 130.5,40.1667 130.5,38.5 Z"/></g>
<g><path style="opacity:0.26" fill="#d60367" d="M 158.5,38.5 C 161.5,38.5 164.5,38.5 167.5,38.5C 167.5,40.1667 167.5,41.8333 167.5,43.5C 164.5,43.5 161.5,43.5 158.5,43.5C 158.5,41.8333 158.5,40.1667 158.5,38.5 Z"/></g>
<g><path style="opacity:0.262" fill="#d60367" d="M 232.5,38.5 C 235.5,38.5 238.5,38.5 241.5,38.5C 241.5,40.1667 241.5,41.8333 241.5,43.5C 238.5,43.5 235.5,43.5 232.5,43.5C 232.5,41.8333 232.5,40.1667 232.5,38.5 Z"/></g>
<g><path style="opacity:1" fill="#243562" d="M 322.5,38.5 C 322.5,48.1667 322.5,57.8333 322.5,67.5C 324.5,67.5 326.5,67.5 328.5,67.5C 336.167,67.5 343.833,67.5 351.5,67.5C 351.5,73.5 351.5,79.5 351.5,85.5C 340.828,85.6665 330.161,85.4998 319.5,85C 311.886,83.0529 307.386,78.2196 306,70.5C 305.5,59.8385 305.333,49.1719 305.5,38.5C 311.167,38.5 316.833,38.5 322.5,38.5 Z"/></g>
<g><path style="opacity:0.93" fill="#f1f2f1" d="M 331.5,39.5 C 338.833,39.5 346.167,39.5 353.5,39.5C 353.5,46.8333 353.5,54.1667 353.5,61.5C 346.167,61.5 338.833,61.5 331.5,61.5C 331.5,54.1667 331.5,46.8333 331.5,39.5 Z"/></g>
<g><path style="opacity:0.487" fill="#d60367" d="M 14.5,40.5 C 17.0641,41.866 19.5641,43.5327 22,45.5C 24.0762,48.2171 24.7429,51.2171 24,54.5C 23.2496,55.1258 22.4162,55.6258 21.5,56C 17.1794,56.499 12.8461,56.6657 8.5,56.5C 8.5,54.8333 8.5,53.1667 8.5,51.5C 12.5138,51.6655 16.5138,51.4988 20.5,51C 17.94,48.0294 15.2733,45.1961 12.5,42.5C 13.2427,41.8182 13.9094,41.1515 14.5,40.5 Z"/></g>
<g><path style="opacity:0.532" fill="#d60367" d="M 182.5,41.5 C 183.919,40.5489 185.585,40.2155 187.5,40.5C 187.5,44.1667 187.5,47.8333 187.5,51.5C 191.167,51.5 194.833,51.5 198.5,51.5C 197.599,47.7593 198.932,45.7593 202.5,45.5C 202.665,48.5184 202.498,51.5184 202,54.5C 201.5,55 201,55.5 200.5,56C 192.187,56.5726 184.187,56.2393 176.5,55C 174.477,51.8169 173.977,48.3169 175,44.5C 178.005,43.141 180.505,42.141 182.5,41.5 Z M 178.5,45.5 C 179.833,45.5 181.167,45.5 182.5,45.5C 182.5,47.1667 182.5,48.8333 182.5,50.5C 180.833,50.5 179.167,50.5 177.5,50.5C 177.629,48.7839 177.962,47.1172 178.5,45.5 Z"/></g>
<g><path style="opacity:0.555" fill="#d60367" d="M 40.5,41.5 C 43.505,41.253 46.005,42.253 48,44.5C 48.6667,47.8333 48.6667,51.1667 48,54.5C 47.2496,55.1258 46.4162,55.6258 45.5,56C 40.8333,56.3333 36.1667,56.6667 31.5,57C 29.8698,62.4821 26.2032,64.9821 20.5,64.5C 20.5,63.1667 20.5,61.8333 20.5,60.5C 23.5468,61.1446 25.7135,60.1446 27,57.5C 27.4988,53.5138 27.6655,49.5138 27.5,45.5C 28.8333,45.5 30.1667,45.5 31.5,45.5C 31.5,47.5 31.5,49.5 31.5,51.5C 33.1992,51.6602 34.8659,51.4935 36.5,51C 35.4086,48.9361 35.2419,46.7695 36,44.5C 37.6516,43.6006 39.1516,42.6006 40.5,41.5 Z M 40.5,45.5 C 43.3213,45.3159 44.9879,46.6493 45.5,49.5C 45.1924,50.3081 44.6924,50.9747 44,51.5C 39.9742,51.0015 38.8075,49.0015 40.5,45.5 Z"/></g>
<g><path style="opacity:0.647" fill="#223462" d="M 287.5,41.5 C 290.249,41.2739 292.916,41.6072 295.5,42.5C 296.66,46.4589 296.827,50.4589 296,54.5C 295.25,55.1258 294.416,55.6258 293.5,56C 289.179,56.499 284.846,56.6657 280.5,56.5C 280.456,60.0897 278.789,62.5897 275.5,64C 273.19,64.4966 270.857,64.6633 268.5,64.5C 268.5,62.8333 268.5,61.1667 268.5,59.5C 271.325,59.8384 273.492,58.8384 275,56.5C 275.333,52.8333 275.667,49.1667 276,45.5C 277.356,44.6198 278.856,44.2865 280.5,44.5C 280.5,46.5 280.5,48.5 280.5,50.5C 281.833,50.5 283.167,50.5 284.5,50.5C 283.925,46.8453 284.925,43.8453 287.5,41.5 Z M 288.5,48.5 C 289.568,47.5655 290.901,47.2322 292.5,47.5C 292.649,48.552 292.483,49.552 292,50.5C 290.887,49.695 289.721,49.0283 288.5,48.5 Z"/></g>
<g><path style="opacity:0.529" fill="#d60367" d="M 75.5,60.5 C 70.4309,64.7442 64.7642,65.5775 58.5,63C 55.8467,58.6011 54.8467,53.7677 55.5,48.5C 56.8333,48.5 58.1667,48.5 59.5,48.5C 57.2966,58.3467 60.9632,62.18 70.5,60C 71.1667,59 71.8333,58 72.5,57C 70.0632,55.6253 67.3965,55.1253 64.5,55.5C 61.4474,45.2568 65.1141,40.9235 75.5,42.5C 75.6567,43.8734 75.49,45.2068 75,46.5C 72.9307,47.2638 70.764,47.7638 68.5,48C 67.6634,49.0113 67.33,50.1779 67.5,51.5C 74.9007,50.5587 77.5674,53.5587 75.5,60.5 Z"/></g>
<g><path style="opacity:0.49" fill="#d60367" d="M 214.5,42.5 C 218.182,42.3347 221.848,42.5014 225.5,43C 229.965,44.7369 230.965,47.4036 228.5,51C 231.146,51.4974 233.813,51.6641 236.5,51.5C 236.34,49.8008 236.506,48.1341 237,46.5C 240.659,44.9799 242.159,46.3132 241.5,50.5C 241.45,52.9231 240.45,54.7564 238.5,56C 234.833,56.6667 231.167,56.6667 227.5,56C 226.069,55.5348 224.903,54.7014 224,53.5C 219.908,56.126 215.408,57.126 210.5,56.5C 209.092,62.2377 205.426,64.9044 199.5,64.5C 199.5,63.1667 199.5,61.8333 199.5,60.5C 201.467,60.7394 203.301,60.4061 205,59.5C 206.309,54.9342 206.809,50.2675 206.5,45.5C 210.068,45.7593 211.401,47.7593 210.5,51.5C 216.026,52.289 221.026,51.1223 225.5,48C 222.167,47.6667 218.833,47.3333 215.5,47C 214.62,45.6439 214.286,44.1439 214.5,42.5 Z"/></g>
<g><path style="opacity:1" fill="#d90a6a" d="M 333.5,41.5 C 339.5,41.5 345.5,41.5 351.5,41.5C 351.5,47.5 351.5,53.5 351.5,59.5C 345.5,59.5 339.5,59.5 333.5,59.5C 333.5,53.5 333.5,47.5 333.5,41.5 Z"/></g>
<g><path style="opacity:0.524" fill="#d60367" d="M 75.5,60.5 C 77.9806,60.6766 79.8139,59.6766 81,57.5C 81.4988,53.5138 81.6655,49.5138 81.5,45.5C 82.8221,45.33 83.9887,45.6634 85,46.5C 85.6667,50.1667 85.6667,53.8333 85,57.5C 83.7732,62.3715 80.6065,64.7049 75.5,64.5C 75.5,63.1667 75.5,61.8333 75.5,60.5 Z"/></g>
<g><path style="opacity:0.473" fill="#223462" d="M 250.5,45.5 C 253.5,45.1667 254.833,46.5 254.5,49.5C 250.5,49.8333 250.5,50.1667 254.5,50.5C 255.445,55.8946 253.445,57.5613 248.5,55.5C 247.284,51.8084 247.951,48.4751 250.5,45.5 Z"/></g>
<g><path style="opacity:0.484" fill="#d60367" d="M 190.5,59.5 C 192.167,59.5 193.833,59.5 195.5,59.5C 195.5,60.5 195.5,61.5 195.5,62.5C 193.833,62.5 192.167,62.5 190.5,62.5C 190.5,61.5 190.5,60.5 190.5,59.5 Z"/></g>
<g><path style="opacity:0.489" fill="#d60367" d="M 218.5,59.5 C 220.167,59.5 221.833,59.5 223.5,59.5C 223.5,60.5 223.5,61.5 223.5,62.5C 221.833,62.5 220.167,62.5 218.5,62.5C 218.5,61.5 218.5,60.5 218.5,59.5 Z"/></g>
<g><path style="opacity:1" fill="#bdc2cd" d="M 322.5,38.5 C 323.494,47.6517 323.827,56.985 323.5,66.5C 325.415,66.2155 327.081,66.5489 328.5,67.5C 326.5,67.5 324.5,67.5 322.5,67.5C 322.5,57.8333 322.5,48.1667 322.5,38.5 Z"/></g>
</svg>
