<?xml version="1.0" encoding="utf-8"?>
<!-- Generator: Adobe Illustrator 22.0.0, SVG Export Plug-In . SVG Version: 6.00 Build 0)  -->
<svg version="1.1" id="Layer_1" xmlns="http://www.w3.org/2000/svg" xmlns:xlink="http://www.w3.org/1999/xlink" x="0px" y="0px"
	 viewBox="0 0 350 540" style="enable-background:new 0 0 350 540;" xml:space="preserve">
<style type="text/css">
	.st0{fill:#F6F7F8;}
	.st1{fill:#F0F0F0;}
	.st2{fill:#424243;}
	.st3{fill:none;}
	.st4{fill:#333333;}
	.st5{fill:#F7F7F6;}
	.st6{fill:#BF1E2D;}
	.st7{fill:#A8A4A4;}
	.st8{fill:#209FDA;}
	.st9{fill:#A5C63A;}
	.st10{fill:#C42329;}
	.st11{fill:#1C1C1C;}
	.st12{fill:#F2F2F3;}
	.st13{fill:none;stroke:#333333;stroke-miterlimit:10;}
	.st14{fill:#E7E8E9;}
	.st15{fill:#3A3B3A;}
	.st16{fill:none;stroke:#D1D3D4;stroke-width:0.75;stroke-miterlimit:10;}
	.st17{fill:none;stroke:#484848;stroke-miterlimit:10;}
	.st18{fill:#8FC741;}
	.st19{fill:#3B3B3B;}
	.st20{display:none;}
	.st21{display:inline;}
	.st22{fill:#EE6E23;}
	.st23{fill:#EE6E23;stroke:#EE6E23;stroke-miterlimit:10;}
	.st24{fill:#E12142;}
	.st25{fill:#030303;}
	.st26{fill:#297130;}
	.st27{fill:#282122;}
	.st28{fill:#EE6B08;}
</style>
<title>samsung-galaxy-a72-4g-128-8gb</title>
<g id="LOCK">
	<path id="background" class="st0" d="M0,0v540h350V0H0z"/>
	<g id="gray_background">
		<rect x="12.4" y="401.4" class="st1" width="90.1" height="40.4"/>
		<rect x="12.4" y="447" class="st1" width="90.1" height="40.4"/>
		<rect x="12.4" y="492.1" class="st1" width="90.1" height="40.4"/>
		<rect x="132.7" y="401.4" class="st1" width="90.1" height="40.4"/>
		<rect x="132.7" y="447" class="st1" width="90.1" height="40.4"/>
		<rect x="132.7" y="492.1" class="st1" width="90.1" height="40.4"/>
		<rect x="246.3" y="401.4" class="st1" width="90.1" height="40.4"/>
		<rect x="246.3" y="447" class="st1" width="90.1" height="40.4"/>
		<rect x="246.3" y="492.1" class="st1" width="90.1" height="40.4"/>
	</g>
	<path class="st2" d="M147.3,429.4h-0.6c-0.5,0-0.9,0-1-0.6s0.3-0.9,0.9-0.8c1,0,2.1-0.2,3.1-0.5c4.6-1.4,7.8-5.6,8-10.4
		c0.1-1-0.5-1.8-1.5-2h-0.1c-1,0-1.7,0.7-1.7,1.9c-0.2,4.3-3.7,7.8-7.6,7.7c-0.5,0-1,0-1-0.7s0.4-0.7,0.9-0.8c4-0.5,5.9-2.5,6.3-6.6
		c0.1-1.7,1.5-3,3.2-3c0.5,0,1.1,0.2,1.5,0.5c1,0.6,1.6,1.7,1.5,2.8C159.1,423.4,153.9,428.9,147.3,429.4z"/>
	<path class="st2" d="M164,418.7c0,0.8,0,1.6,0,2.4c-0.1,0.9,0.6,1.8,1.5,1.9l0,0c0.6,0.1,0.9,0.3,0.9,0.9s-0.6,0.6-1.1,0.6
		c-1.6-0.2-2.8-1.5-2.8-3.1c0.1-1.9,0-3.8-0.1-5.8c-0.5-3.2-3.3-5.6-6.5-5.5c-3.4,0.1-6.1,2.8-6.3,6.2c-0.1,1.9-1.3,3.3-2.9,3.4
		c-0.5,0-0.9,0-1-0.6s0.3-0.8,0.8-0.9c1.3-0.1,1.6-1,1.6-2.1c0.2-3.8,3.1-6.9,6.9-7.4c3.6-0.4,7.1,1.6,8.4,5
		C164,415.4,164.2,417,164,418.7z"/>
	<path class="st2" d="M161.6,418.9c0,0.7,0,1.4,0,2.2c-0.1,2.2,1.5,4.2,3.7,4.4c0.5,0.1,1.1,0,1.1,0.8s-0.7,0.7-1.3,0.7
		c-2.7-0.2-4.8-2.3-5-5c-0.1-1.7,0-3.4-0.1-5.1c0.1-2.2-1.7-4.1-3.9-4.2c-2-0.1-3.8,1.3-4.1,3.3c-0.1,0.8-0.2,1.6-0.3,2.4
		c-0.7,2.2-2.6,3.7-4.9,3.9c-0.5,0-1,0-1.1-0.6s0.4-0.8,0.9-0.8c2.5-0.3,3.7-1.7,3.9-4.4c0.2-3,2.8-5.4,5.8-5.2
		c1.2,0.1,2.4,0.6,3.4,1.4c1.4,1.2,2.1,3,1.9,4.8C161.5,417.9,161.6,418.4,161.6,418.9z"/>
	<path class="st2" d="M166.4,418.4c0,0.9,0,1.8,0,2.6c0,0.5-0.2,1-0.8,1s-0.7-0.5-0.7-1c0.1-1.9,0-3.8-0.1-5.7
		c-0.8-4.8-5.3-8.1-10.1-7.4c-4.1,0.6-7.2,4-7.5,8.1c0,0.3,0,0.6-0.1,0.9s-0.5,0.5-0.8,0.4c-0.4-0.1-0.6-0.4-0.6-0.8
		c0-1.4,0.3-2.9,0.9-4.2c2.3-5.2,8.5-7.5,13.7-5.2c3.7,1.7,6.1,5.3,6.1,9.4L166.4,418.4z"/>
	<path class="st2" d="M156.9,426.9c1-0.1,1.9,0.3,2.6,1c1.4,1.3,3.1,2.1,5,2.4c0.5,0.1,1.1,0.2,1,0.9s-0.8,0.7-1.3,0.6
		c-2-0.3-3.8-1.2-5.4-2.5c-1.4-1.2-2.2-1.2-3.7-0.2c-2.2,1.6-4.8,2.5-7.4,2.7c-0.5,0-1.1,0.1-1.2-0.6s0.6-0.8,1.1-0.9
		c2.4-0.2,4.8-1.1,6.7-2.5C155,427.1,156,426.8,156.9,426.9z"/>
	<path class="st2" d="M156.8,429.2c0.5,0,1,0.2,1.3,0.6c1.4,1.3,3.1,2.2,5,2.6c0.6,0.1,1.1,0.3,1,0.9s-0.9,0.6-1.4,0.5
		c-1.9-0.4-3.6-1.3-5.1-2.5c-0.4-0.5-1-0.5-1.5-0.2l-0.1,0.1c-2.1,1.4-4.4,2.4-6.9,2.7c-0.6,0.1-1.1,0.1-1.2-0.5s0.4-0.9,1-1
		c2.5-0.4,4.9-1.3,6.9-2.8C156.1,429.4,156.5,429.3,156.8,429.2z"/>
	<path class="st2" d="M146.8,427c-0.3,0-0.5,0-0.8-0.1c-0.4-0.1-0.4-0.5-0.3-0.8c0.2-0.6,0.7-0.6,1.2-0.6c3.6-0.2,6.7-2.6,7.9-6
		c0.2-0.8,0.4-1.6,0.5-2.5c0.1-0.6,0-1.3,0.9-1.1s0.7,0.8,0.6,1.3C156.4,422.6,152.1,426.8,146.8,427z"/>
	<path class="st2" d="M160.9,435.8c-1.1-0.3-2.1-0.8-3-1.4c-0.7-0.6-1.7-0.6-2.4,0c-1.3,0.7-2.6,1.2-4,1.6c-0.5,0.1-1,0.2-1.2-0.4
		s0.3-0.9,0.8-1.1c1.8-0.5,3.5-1.2,5.1-2.2c0.4-0.3,0.9-0.3,1.2,0.1c1.2,0.9,2.5,1.6,3.9,2c0.5,0.2,0.8,0.4,0.7,0.9
		S161.5,435.9,160.9,435.8z"/>
	<path class="st2" d="M165.1,429.3c-2.9-0.2-5.5-2-6.8-4.6c-0.2-0.5-0.2-0.9,0.2-1.1s0.8-0.1,1.1,0.4c1.1,2.4,3.4,3.9,6,3.9
		c0.4,0,0.7,0.2,0.8,0.6c0,0.1,0,0.2,0,0.2C166.3,429.2,166.1,429.3,165.1,429.3z"/>
	<path class="st2" d="M156.7,437.5c-0.7,0-1.4,0.1-1.4-0.7s0.6-0.8,1.1-0.8l0.9-0.1c0.5-0.1,1,0.1,1.1,0.6s-0.4,0.8-0.9,0.9
		L156.7,437.5z"/>
	<path class="st3" d="M150.7,523.8c-0.3,0-0.5,0-0.7,0C150.2,523.9,150.5,523.9,150.7,523.8z"/>
	<path class="st3" d="M155,522h-0.1c-0.4,0.1-0.7,0.3-1,0.6l-0.2,0.2C154.1,522.5,154.5,522.2,155,522L155,522z"/>
	<path class="st3" d="M158,503.8L158,503.8c-0.1-0.1-0.2-0.3-0.3-0.5C157.8,503.5,157.9,503.7,158,503.8z"/>
	<path class="st4" d="M162.1,514.8c0.6-3.9,0-4.6-3.8-5.1c0.5,0.1,0.4-4.1,0.3-4.5c-0.3-1.1-1-2.1-2-2.7c-0.6-0.4-1.3-0.8-2-1.2
		c-0.6-0.5-1.1-1-1.6-1.6c-1.2-1.3-2.5-2.3-4.1-3c-0.8-0.6-1.9-0.4-2.4,0.4c-0.1,0.2-0.2,0.3-0.3,0.5c-0.4,0.9-0.6,2-1.3,2.5
		c-1.6,1.2-0.8,1.6,0.4,2c0.4,0,0.9-0.1,1.4-0.1c0.8,0,1.8-0.5,2.2,0.1c0.3,0.8,0.2,1.6-0.2,2.3c-0.6,0.7-1.6,0.8-2.3,0.3
		c-0.3,0.7,0.5,1.4-0.1,2s-1,1-1.7,0.9c-0.8-0.3-1.4-1-1.5-1.9c-0.1-0.4,0.1-0.6,0.6-0.5c1,0.3,0.7-0.1,0.6-0.8s-0.6-1.2-0.2-1.8
		l0,0c-2.1,0-3.9,1.3-4.7,3.3c-0.4,1.5-0.5,3.1-0.5,4.6c0.1,3.5,1.3,6.9,1.8,10.3c0.1,0.9,0.3,1.7,0.4,2.6c0.6,0,1.1-0.1,1.7-0.2
		l2.7-0.3c0.5-0.1,1.1,0,1.2-0.7s0.1-1.3-0.4-1.5c-1.1-0.6-0.7-1.2-0.4-2c0.4-1.1,1.6-2.1,0.7-3.5c-0.3-0.5,0.3-0.3,0.4-0.3
		c0.7,0.3,0.5-0.6,1.1-0.7c-0.4,2.3-0.7,4.6-0.8,7c0,2.2,1.5,2.5,3.4,2.5c1.6,0,5.5-1.5,5-3.7c-0.3-1.2,0.3-1.8,1.2-2.6
		c0.6,1,1.1,1.9,1.7,2.9c0.1,0.2,0.2,0.4,0.2,0.6c-0.1,0.3-0.1,0.7-0.1,1c0.2,0.1,0.4,0.3,0.5,0.5c1.5-0.2,3.1-0.2,4.6,0v-0.1
		c0.1-0.3,0.1-0.7,0.2-1s0.2-0.6,0.3-1c-0.3-1.4-0.9-2.7-1.8-3.8C162.1,516.2,161.9,515.5,162.1,514.8z M155.3,516.5
		c-0.7-1.8-0.7-1.8,1.8-4.3C156.4,514,154.5,514.7,155.3,516.5L155.3,516.5z"/>
	<path class="st5" d="M148.4,502.8c-0.7,0.4-0.9,1.4-2,0.9c-0.4,0.4-0.7,1-1.5,0.6c-0.4-0.3-0.1-0.6,0.1-0.8
		c-0.6,0.1-0.6-0.5-0.9-0.7c0.3,1.1,1.6,2.2-0.3,3.1c-0.3,0.1,0,0.5,0.2,0.7c0.3,0.4,0.7,0.5,1.2,0.4c0.6-0.2,0.9-0.8,0.8-1.4
		c-0.1-0.8,0.2-1.1,1-1c0.2,0,0.4,0,0.7,0c0.8-0.2,0.8-0.8,0.8-1.5s-0.6-0.5-1-0.6c-0.7-0.1-1.5,0.1-2.1-0.3c0,0.1,0,0.1,0,0.2
		C146.2,503,147.2,502.4,148.4,502.8z"/>
	<path class="st5" d="M147.5,502.5c0.4,0,1-0.1,1,0.6s0,1.3-0.8,1.5c-0.2,0-0.4,0-0.7,0c-0.8-0.1-1.1,0.2-1,1
		c0.1,0.6-0.2,1.1-0.8,1.4c-0.4,0.2-0.9,0-1.2-0.4c-0.2-0.2-0.5-0.6-0.2-0.7c1.9-0.9,0.5-2.1,0.3-3.1l0,0c-0.4,0.6,0.1,1.3,0.2,1.8
		s0.4,1.1-0.6,0.8c-0.4-0.1-0.7,0-0.6,0.5c0.1,0.9,0.7,1.6,1.5,1.9c0.7,0.2,1.2-0.4,1.7-0.9s-0.2-1.3,0.1-2c0.7,0.5,1.7,0.4,2.3-0.3
		c0.4-0.7,0.5-1.5,0.2-2.3c-0.4-0.6-1.4-0.1-2.2-0.1c-0.4,0-0.9,0-1.4,0.1C146,502.6,146.8,502.4,147.5,502.5z"/>
	<path class="st4" d="M144,502.7L144,502.7L144,502.7z"/>
	<path class="st4" d="M144,502.7L144,502.7L144,502.7z"/>
	<path class="st4" d="M144,502.7L144,502.7z"/>
	<path class="st6" d="M148.4,502.8c-0.7,0.4-0.9,1.4-2,0.9c0-0.1-0.1-0.1-0.2-0.2c-0.3-0.3-0.7-0.4-1.1-0.2c-0.1,0-0.1,0-0.2,0.1
		c-0.6,0.1-0.6-0.5-0.9-0.7l0,0l0,0c0.2-1,1,0,1.4-0.4C146.2,503,147.2,502.4,148.4,502.8z"/>
	<path class="st4" d="M144,502.7L144,502.7L144,502.7z"/>
	<path class="st4" d="M144,502.7L144,502.7L144,502.7L144,502.7L144,502.7z"/>
	<path class="st7" d="M146.1,503.6c-0.3,0-0.6,0-0.8-0.1C145.4,503.9,145.8,503.7,146.1,503.6z"/>
	<path class="st7" d="M145.2,503.5c-0.1,0-0.2,0-0.3-0.1c-0.1,0.3-0.5,0.6-0.1,0.8c0.7,0.5,1.1-0.2,1.5-0.6c-0.1,0-0.2-0.1-0.3-0.1
		C145.8,503.7,145.4,503.9,145.2,503.5z"/>
	<path class="st7" d="M146.1,503.6l0.2-0.1c-0.3-0.3-0.7-0.4-1.1-0.2c0,0.1,0,0.1,0.1,0.1C145.5,503.6,145.8,503.6,146.1,503.6z"/>
	<path class="st7" d="M146.4,503.7c0-0.1-0.1-0.1-0.2-0.2l-0.2,0.1C146.2,503.6,146.3,503.7,146.4,503.7z"/>
	<path class="st7" d="M145.2,503.5l-0.1-0.1l-0.2,0.1C145,503.5,145.1,503.5,145.2,503.5z"/>
	<path class="st8" d="M66.3,423.6c-0.1,3.9-0.9,7.8-2.5,11.3c-0.4,0.8-1,1.1-1.6,0.8c-0.6-0.3-0.9-1-0.6-1.6c0-0.1,0.1-0.1,0.1-0.2
		c1.5-3.4,2.3-7,2.3-10.7c0-3.1-0.8-6.2-2.2-9c-0.4-0.5-0.3-1.3,0.2-1.7c0.1,0,0.1-0.1,0.2-0.1c0.6-0.3,1.3-0.1,1.5,0.5
		c0,0,0,0.1,0.1,0.1c1.5,2.7,2.3,5.7,2.5,8.8C66.3,422.5,66.3,423,66.3,423.6z"/>
	<path class="st8" d="M61.5,423.4c0,3.2-0.7,6.4-2.1,9.4c-0.2,0.6-0.9,0.9-1.5,0.7c-0.2-0.1-0.4-0.2-0.5-0.4
		c-0.3-0.4-0.3-0.9-0.1-1.3c0.9-1.8,1.4-3.7,1.7-5.6c0.5-3.5,0.3-6.8-1.7-9.9c-0.3-0.6-0.2-1.3,0.4-1.6c0.6-0.3,1.3-0.2,1.6,0.4
		c1.1,1.6,1.7,3.4,2,5.3C61.5,421.4,61.5,422.4,61.5,423.4z"/>
	<path class="st8" d="M56.8,423.8c0,2.4-0.5,4.7-1.5,6.9c-0.4,0.8-1,1-1.6,0.7s-0.8-1-0.4-1.8c1.5-3.2,1.7-6.9,0.5-10.2
		c-0.2-0.3-0.3-0.7-0.5-1c-0.4-0.5-0.2-1.3,0.3-1.6c0,0,0,0,0.1,0c0.6-0.3,1.3-0.1,1.6,0.4l0,0c0.9,1.4,1.4,3,1.5,4.6
		C56.8,422.5,56.9,423.2,56.8,423.8z"/>
	<path class="st8" d="M25.3,423.1c0,1.5,0,2.9,0,4.4c0,0.6-0.3,0.6-0.7,0.6s-0.9,0.2-0.9-0.6c0-2.2,0-4.4,0-6.6
		c0-0.3-0.2-0.7,0.3-0.8s1-0.3,1.4,0.3c0.9,1.4,1.8,2.8,2.8,4.2c0.1,0.2,0.2,0.4,0.4,0.5c0.2-0.1,0.1-0.3,0.1-0.5c0-1.4,0-2.7,0-4
		c0-0.6,0.3-0.6,0.7-0.6s0.8-0.1,0.8,0.5c0,2.3,0,4.6,0,7c0,0.4-0.1,0.5-0.5,0.5c-0.6,0.1-1.2-0.2-1.4-0.7c-0.9-1.5-1.9-2.9-2.8-4.3
		L25.3,423.1z"/>
	<path class="st8" d="M36.9,424.1c-0.1-1.8,1-3.4,2.7-4s3.6-0.2,4.8,1c0.2,0.2,0.2,0.4,0,0.5s-0.3,0.3-0.4,0.4
		c-0.3,0.3-0.5,0.3-0.8,0c-1.1-1.1-2.9-1-3.9,0.1c-1.1,1.1-1,2.9,0.1,3.9c1.1,0.9,2.7,0.9,3.8,0c0.2-0.1,0.3-0.5,0.5-0.3
		c0.3,0.3,0.6,0.6,0.9,0.9c0.1,0.1,0,0.1-0.1,0.2c-1.1,1.2-2.8,1.6-4.3,1.3c-1.5-0.3-2.7-1.4-3.1-2.9
		C36.9,424.9,36.9,424.5,36.9,424.1z"/>
	<path class="st8" d="M52.3,423.8c0,1.7-0.4,3.3-1.2,4.8c-0.2,0.5-0.7,0.8-1.3,0.8c-0.6-0.1-1.1-0.7-1-1.3c0-0.2,0.1-0.4,0.2-0.5
		c0.9-1.7,1.1-3.7,0.6-5.6c-0.1-0.5-0.3-0.9-0.5-1.3c-0.4-0.5-0.3-1.3,0.2-1.7c0,0,0.1,0,0.1-0.1c0.5-0.3,1.3-0.2,1.6,0.4
		c0,0,0,0.1,0.1,0.1C51.9,420.7,52.3,422.2,52.3,423.8z"/>
	<path class="st8" d="M32,424.1c0-1.2,0-2.3,0-3.5c0-0.4,0.1-0.6,0.5-0.6c1,0,2,0,2.9,0c0.7,0,0.5,0.5,0.5,0.9s0,0.7-0.6,0.7
		s-1,0-1.4,0c-0.3,0-0.5,0.1-0.5,0.4c0,1,0,1,1,1c0.3,0,0.6,0,0.8,0c0.5-0.1,0.6,0.1,0.7,0.6c0,0.7-0.2,0.8-0.8,0.8
		c-1.7,0-1.7,0-1.7,1.6c0,0.4,0,0.7,0,1c0,1,0.2,0.9-1,1c-0.4,0-0.6-0.1-0.6-0.6C32,426.4,32,425.2,32,424.1z"/>
	<path class="st4" d="M53.2,507.1h-2.4v2.1H53v0.6h-2.3v2.7H50v-6.2h3.1L53.2,507.1z"/>
	<path class="st4" d="M57,512.7h-0.7V512l0,0c-0.3,0.5-0.8,0.8-1.4,0.8c-0.4,0-0.7-0.1-1-0.3s-0.4-0.6-0.4-0.9
		c0-0.8,0.5-1.3,1.5-1.4l1.3-0.2c0-0.8-0.3-1.1-0.9-1.1c-0.5,0-1,0.2-1.4,0.5v-0.7c0.4-0.3,1-0.4,1.5-0.4c1,0,1.5,0.5,1.5,1.6
		L57,512.7z M56.3,510.4l-1.1,0.1c-0.3,0-0.5,0.1-0.7,0.2c-0.2,0.2-0.3,0.4-0.3,0.6s0.1,0.4,0.2,0.5c0.2,0.1,0.4,0.2,0.6,0.2
		c0.3,0,0.6-0.1,0.9-0.4c0.2-0.3,0.4-0.6,0.3-0.9L56.3,510.4L56.3,510.4z"/>
	<path class="st4" d="M58.1,512.5v-0.8c0.4,0.3,0.8,0.4,1.3,0.4c0.6,0,0.9-0.2,0.9-0.6c0-0.1,0-0.2-0.1-0.3
		c-0.1-0.1-0.1-0.2-0.2-0.3c-0.1-0.1-0.2-0.1-0.3-0.2s-0.3-0.1-0.4-0.2l-0.5-0.2c-0.1-0.1-0.3-0.2-0.4-0.3c-0.1-0.1-0.2-0.2-0.2-0.3
		c-0.1-0.1-0.1-0.3-0.1-0.4c0-0.2,0-0.4,0.1-0.5c0.1-0.2,0.2-0.3,0.4-0.4s0.3-0.2,0.5-0.2c0.2-0.1,0.4-0.1,0.6-0.1
		c0.3,0,0.7,0.1,1,0.2v0.7c-0.3-0.2-0.7-0.3-1.1-0.3c-0.1,0-0.2,0-0.4,0c-0.1,0-0.2,0.1-0.3,0.1c-0.1,0.1-0.1,0.1-0.2,0.2
		c0,0.1-0.1,0.2-0.1,0.3c0,0.1,0,0.2,0.1,0.3c0,0.1,0.1,0.1,0.2,0.2c0.1,0.1,0.2,0.1,0.3,0.2l0.4,0.2c0.2,0.1,0.4,0.1,0.5,0.2
		s0.3,0.2,0.4,0.3c0.1,0.1,0.2,0.2,0.3,0.3c0.1,0.1,0.1,0.3,0.1,0.5s0,0.4-0.2,0.6c-0.1,0.2-0.2,0.3-0.4,0.4
		c-0.2,0.1-0.4,0.2-0.5,0.2c-0.2,0-0.4,0.1-0.7,0.1C58.9,512.7,58.5,512.6,58.1,512.5z"/>
	<path class="st4" d="M64.2,512.6c-0.2,0.1-0.4,0.1-0.7,0.1c-0.8,0-1.2-0.4-1.2-1.3v-2.6h-0.8v-0.6h0.8v-1.1L63,507v1.3h1.1v0.6H63
		v2.5c0,0.2,0,0.4,0.2,0.6c0.1,0.1,0.3,0.2,0.5,0.2s0.3,0,0.5-0.1V512.6z"/>
	<path class="st4" d="M53,521.4c-0.5,0.3-1.1,0.4-1.7,0.4c-0.8,0-1.6-0.3-2.1-0.8c-0.5-0.6-0.8-1.4-0.8-2.2c0-0.9,0.3-1.7,0.9-2.4
		c0.6-0.6,1.4-0.9,2.3-0.9c0.5,0,1,0.1,1.5,0.3v0.8c-0.4-0.3-0.9-0.4-1.5-0.4s-1.3,0.2-1.7,0.7c-0.5,0.5-0.7,1.2-0.7,1.9
		s0.2,1.3,0.6,1.8c0.4,0.4,1,0.7,1.6,0.7s1.1-0.1,1.6-0.4L53,521.4z"/>
	<path class="st4" d="M57.8,521.7h-0.7v-2.5c0-0.9-0.3-1.4-1-1.4c-0.3,0-0.7,0.1-0.9,0.4c-0.2,0.3-0.4,0.6-0.3,1v2.5h-0.7v-6.5h0.7
		v2.9l0,0c0.3-0.5,0.8-0.8,1.4-0.8c1,0,1.5,0.6,1.5,1.8V521.7z"/>
	<path class="st4" d="M62.3,521.7h-0.7V521l0,0c-0.5,0.8-1.4,1-2.2,0.6c-0.1,0-0.1-0.1-0.2-0.1c-0.3-0.2-0.4-0.6-0.4-0.9
		c0-0.8,0.5-1.3,1.5-1.4l1.3-0.2c0-0.7-0.3-1.1-0.9-1.1c-0.5,0-1,0.2-1.4,0.5v-0.7c0.4-0.3,1-0.4,1.5-0.4c1,0,1.5,0.5,1.5,1.6
		L62.3,521.7z M61.6,519.4l-1.1,0.2c-0.3,0-0.5,0.1-0.7,0.2c-0.2,0.2-0.3,0.4-0.3,0.6c0,0.2,0.1,0.4,0.2,0.5
		c0.2,0.1,0.4,0.2,0.6,0.2c0.3,0,0.6-0.1,0.9-0.4c0.2-0.3,0.4-0.6,0.3-0.9L61.6,519.4z"/>
	<path class="st4" d="M65.9,518c-0.4-0.3-1-0.1-1.3,0.3c-0.2,0.3-0.3,0.8-0.3,1.2v2.2h-0.7v-4.4h0.7v0.9l0,0
		c0.1-0.3,0.2-0.5,0.5-0.7c0.2-0.2,0.4-0.3,0.7-0.3c0.1,0,0.3,0,0.4,0.1L65.9,518z"/>
	<path class="st4" d="M70.3,521.3c0,1.6-0.8,2.4-2.3,2.4c-0.5,0-1-0.1-1.4-0.3v-0.7c0.4,0.3,0.9,0.4,1.4,0.4c1.1,0,1.6-0.6,1.6-1.7
		v-0.5l0,0c-0.3,0.5-0.9,0.9-1.5,0.8c-0.5,0-1-0.2-1.3-0.6c-0.4-0.4-0.5-1-0.5-1.6s0.2-1.3,0.5-1.8c0.4-0.4,0.9-0.7,1.5-0.7
		c0.5,0,1,0.2,1.3,0.7l0,0v-0.6h0.7C70.3,517.1,70.3,521.3,70.3,521.3z M69.6,519.7V519c0-0.3-0.1-0.7-0.3-0.9
		c-0.2-0.2-0.5-0.4-0.9-0.4s-0.8,0.2-1,0.5c-0.3,0.4-0.4,0.9-0.4,1.3c0,0.4,0.1,0.8,0.3,1.2c0.2,0.3,0.6,0.4,0.9,0.4
		c0.4,0,0.8-0.1,1-0.4C69.6,520.4,69.7,520,69.6,519.7z"/>
	<path class="st4" d="M75.3,519.6h-3.1c0,0.4,0.1,0.8,0.4,1.1s0.6,0.4,1,0.4c0.5,0,1-0.2,1.4-0.5v0.7c-0.5,0.3-1,0.4-1.5,0.4
		c-0.6,0-1.1-0.2-1.5-0.6c-0.8-1-0.8-2.4,0-3.4c0.4-0.4,0.9-0.7,1.4-0.6c0.5,0,1,0.2,1.3,0.6c0.3,0.4,0.5,1,0.5,1.5L75.3,519.6z
		 M74.6,519c0-0.3-0.1-0.7-0.3-1c-0.2-0.2-0.5-0.4-0.8-0.3c-0.3,0-0.6,0.1-0.8,0.4c-0.2,0.3-0.4,0.6-0.4,0.9L74.6,519z"/>
	<path class="st9" d="M31.2,498.5c-7.9,0-14.3,6.4-14.3,14.3c0,7.9,6.4,14.3,14.3,14.3s14.3-6.4,14.3-14.3l0,0
		C45.5,504.9,39.1,498.5,31.2,498.5z M26.8,521.8l-0.1-0.1c1-2.5,2-5.1,3-7.6c0-0.4-0.3-0.3-0.5-0.3h-2.4c-0.2,0-0.4,0.1-0.5-0.1
		l4-7.8c0.1-0.2,0.2-0.4,0.5-0.4h4.6c-1.2,1.7-2.3,3.3-3.4,4.9h4L26.8,521.8z"/>
	<path class="st10" d="M256.9,483.8c0-0.7-0.1-7.4,0.2-8.1c0.4-1.1,1.4-1.9,2.5-2c0.3,0,0.6,0,1,0h17.9c1,0,2,0.4,2.6,1.2
		c0.3,0.4,0.5,0.9,0.6,1.5c0,0.5,0,6.9,0,7.4h-2c0-0.3,0-6.5,0-6.8c0.1-0.6-0.3-1.2-0.9-1.3c-0.1,0-0.2,0-0.3,0c-1.7,0-3.5,0-5.2,0
		H273c0.3,0.6,0.5,1.3,0.5,2h-8.3c0-0.7,0.2-1.4,0.5-2h-0.1H260c-0.6,0-1,0.4-1.1,0.9v0.1c0,0.3,0,6.7,0,7L256.9,483.8z"/>
	<path class="st10" d="M269,455.1c4,0,7.9,1.3,11,3.7c0.5,0.2,0.7,0.8,0.4,1.3c-0.1,0.2-0.3,0.4-0.4,0.4c-0.4,0.2-0.9,0.2-1.3-0.2
		c-2.9-2.3-6.6-3.4-10.3-3.2c-3.2,0.2-6.2,1.3-8.7,3.2c-0.4,0.4-1,0.4-1.4,0c-0.1-0.1-0.1-0.1-0.1-0.2c-0.3-0.4-0.3-0.9,0.1-1.2
		c0.6-0.5,1.3-1,1.9-1.4c2.1-1.3,4.4-2.1,6.9-2.4C267.8,455.2,268.5,455.1,269,455.1z"/>
	<path class="st10" d="M269,459.3c3.3,0,6.4,1.1,8.9,3.2c0.4,0.3,0.6,0.8,0.3,1.3c-0.2,0.4-0.7,0.7-1.1,0.6
		c-0.2-0.1-0.4-0.2-0.6-0.3c-1.2-1-2.5-1.7-4-2.1c-3.7-1.1-7.6-0.3-10.6,2.2c-0.4,0.4-0.9,0.4-1.3,0.2c-0.5-0.3-0.6-0.9-0.3-1.4
		l0.1-0.1c0.3-0.3,0.6-0.6,1-0.9c1.8-1.3,3.9-2.1,6.1-2.4C268.1,459.3,268.7,459.3,269,459.3z"/>
	<path class="st10" d="M268.9,463.4c1.8-0.1,3.5,0.3,5,1.2c0.7,0.4,1.3,0.9,1.9,1.5c0.4,0.3,0.5,1,0.2,1.4c-0.1,0.2-0.3,0.3-0.4,0.3
		c-0.4,0.2-0.9,0.1-1.2-0.3c-0.6-0.6-1.3-1.1-2.1-1.5c-2.1-1-4.6-0.9-6.6,0.4c-0.5,0.3-1,0.7-1.5,1.2c-0.4,0.4-1,0.4-1.4,0l0,0
		c-0.4-0.4-0.5-1-0.1-1.4l0.1-0.1c1.4-1.4,3.1-2.3,5.1-2.6c0.2,0,0.4-0.1,0.6-0.1C268.5,463.4,268.7,463.4,268.9,463.4z"/>
	<path class="st10" d="M269.5,467.5c1.8,0.1,3.4,1.1,4.3,2.6c0.3,0.4,0.2,1-0.1,1.3c-0.3,0.3-0.9,0.4-1.3,0.1
		c-0.2-0.1-0.3-0.3-0.4-0.5c-0.6-1-1.7-1.6-2.9-1.5c-1,0.1-1.9,0.6-2.4,1.4c-0.2,0.3-0.5,0.6-0.8,0.7c-0.4,0.1-0.8,0-1-0.3
		c-0.3-0.3-0.3-0.7-0.2-1c0.4-0.9,1.1-1.6,2-2.1C267.5,467.7,268.4,467.5,269.5,467.5z"/>
	<path class="st10" d="M286.4,475.8v8h-1.1v-8H286.4z"/>
	<path class="st10" d="M289.4,480.4v3.4h-1.1v-8h3.5c0.8-0.1,1.5,0.2,2.1,0.6c0.5,0.4,0.7,1,0.7,1.7c0,0.6-0.2,1.2-0.6,1.7
		c-0.4,0.3-0.8,0.5-1.3,0.5l2.3,3.5h-1.3l-2.2-3.4L289.4,480.4L289.4,480.4z M289.4,479.5h2.5c0.4,0,0.9-0.1,1.2-0.4
		c0.2-0.3,0.3-0.6,0.3-1s-0.2-0.8-0.5-1.1c-0.3-0.3-0.7-0.4-1.1-0.4h-2.5L289.4,479.5z"/>
	<path class="st8" d="M280.8,510.9c-0.1,0-0.3,0-0.4,0c-0.2,0.5-0.7,0.8-1.2,0.8c-0.1,0-0.2,0-0.3,0c-0.1,0-0.3,0.1-0.4,0.1
		c-0.5,0-0.9-0.2-1.1-0.6c-0.5,0.5,0.2,0.7-0.9,0.4l-1.8-0.5c-0.2,0.3-0.6,0.5-1,0.5h-0.1c-0.5,0.4-1.2,0.3-1.7-0.1
		c0,0.5,0,0.9-0.1,1.4c0,0,0,0.1,0.1,0.1c0.4,0.7,0.2,1.6-0.5,2l0,0c-0.4,0.2-0.8,0.3-1.2,0.1l-0.2,0.1c-0.2,0.5-0.7,0.9-1.3,0.8
		c-0.5,0-1-0.1-1.4-0.1h-0.5c-0.5,0.6-1.4,0.7-2.1,0.2c-0.2-0.2-0.4-0.4-0.5-0.7c-0.3-0.9-0.5-1.9-0.8-2.8v-0.1l-0.1-0.6
		c-0.9,0.1-1.8-0.6-2.7-0.8c-0.7-0.1-1.4-0.2-2.2-0.2c0.2,0.7-0.2,1.4-0.9,1.6s-1.4-0.2-1.6-0.9c-0.1-0.2-0.1-0.5,0-0.7
		c-0.7,0.1-1.3,0.3-1.4,0.7l-0.3,0.8c0.2,1.4,0.5,2.7,0.8,4c0.1,0.7,0.3,1.3,0.4,2c0.1,0.1,0.2,0.2,0.3,0.3c0.4,0.5,0.8,0.9,1.2,1.4
		c0.1,0.2,0.3,0.4,0.4,0.6l0,0c0.2,0.1,0.4,0.3,0.6,0.5h20.3c0.2-0.2,0.4-0.2,0.6-0.3c0.2-0.2,0.4-0.4,0.6-0.5
		c0.1-0.1,0.1-0.2,0.2-0.2c-0.1-0.2-0.2-0.3-0.4-0.4c0-0.6,0.8-0.3,1.1-0.8c-0.1-0.1-0.3-0.3-0.3-0.3c0.5-0.5,0.9-1.1,1.2-1.7
		c0.1-0.6,0.3-1.3,0.4-1.9c0.3-1.3,0.4-2.5,0.8-3.7C282,511,281.4,510.9,280.8,510.9z"/>
	<path class="st8" d="M263.8,510.6l-0.4,0.3c-0.5,0.5-1.2,0.5-1.7,0.1c0,0,0,0-0.1-0.1c-1.5-1.3-2.1-1.3-3.7,0
		c-0.5,0.5-1.2,0.5-1.7,0l0,0c-0.9-0.7-2.2-1.8-2.3-2.4c0,0-0.5,0.5-0.5,0.4c-0.5,0,0.4,0.2,0,0l0.2,1.2c0.5,2,1,0.9,1.3,1.4v-0.1
		c0.2,0.1,0.4,0.3,0.6,0.4c0.8,0.9,2.1,0.9,3,0.1c0.1,0,0.1-0.1,0.1-0.1c1-0.9,1.2-0.9,2.3,0c0.8,0.7,2.6,1.4,3.1,0.2
		c0-0.1,0-0.1,0-0.2C263.9,511.4,263.8,511,263.8,510.6z"/>
	<path class="st8" d="M282.3,509.8c-0.8-0.1-1.5,0.1-2.1,0.7c-0.6,0.5-1.1,1-1.9,0.7c-0.6-0.2-1-0.7-1.5-0.9
		c-1.2-0.3-2.1,0.8-3.2,1.1c-0.3,0.1-0.7,0-1-0.1c-0.1,0-0.2,0-0.3,0c-0.7,0-1.2-0.5-1.3-1.2l0,0c0.1,0.4,0.2,0.8,0.3,1.1
		c0,0.2,0,0.3,0.2,0.4c0.5,0.4,1,0.7,1.6,0.8c0.6,0.1,1.2-0.1,1.7-0.4c1.1-0.5,1-1,2-0.5c2.1,1.1,2.7,1.1,4.2-0.1
		c0,0.1,0.9,1,0.9,1.1c0.3-0.8-0.2-2.1,0.4-2.5C282.3,510,282.3,509.9,282.3,509.8z"/>
	<path class="st11" d="M272.6,512.2l-1.2-0.2c0.1,0.8,0.3,1.6,0.4,2.5l-6.9,1.3c-0.2-1-0.4-2-0.6-3.1c-0.1-0.4-0.2-1.3-0.3-1.7
		c-0.3,0.1-0.5,0.3-0.8,0.4c-0.1,0-0.6-1.9-0.7-1.8c0.2,0,1.3,6.5,1.6,8.5c0.2,1,0.3,1.1,1.3,0.9l7.3-1.4c0.6-0.1,0.9-0.4,0.8-1.1
		C273.1,515.1,272.9,513.6,272.6,512.2z"/>
	<path class="st11" d="M263,512.3c1-0.2,1.2-0.4,1-1.2c-0.2-1.2-1-5-1.2-6.2l6.9-1.3c0.1,0.5,0.2,1,0.3,1.5c0.1,0.8,0.3,1.7,0.5,2.5
		s0.9,5.7,1.5,6.3c0.1,0.2,0.3,0.3,0.5,0.4c0.2,0.1,0.4,0.2,0.6,0.2c-0.3-1.3-1.3-6.5-1.5-7.7c-0.3-1.4-0.5-2.8-0.8-4.2
		c-0.1-0.6-0.4-0.9-1.1-0.8l-7.7,1.5c-0.4,0.1-0.8,0.3-0.7,0.8C261.7,505.8,262.6,510.4,263,512.3z"/>
	<path class="st12" d="M269.3,516.5c0-0.4-0.3-0.7-0.7-0.7c-0.4,0-0.7,0.3-0.7,0.7s0.3,0.7,0.7,0.7l0,0
		C269,517.2,269.3,516.9,269.3,516.5L269.3,516.5z"/>
	<path class="st13" d="M282.6,508c-0.2,1.9-0.5,3.7-0.9,5.5s-0.7,4.5-1.8,6c-0.8,1-1.9,1.5-3.1,1.4c-0.3,0-0.6,0-0.9,0h-15.8
		c-0.3,0-0.6,0-0.9,0c-1.2,0.1-2.4-0.5-3.1-1.4c-1.1-1.5-1.4-4-1.8-6s-0.7-3.8-0.9-5.8"/>
	<path class="st4" d="M169.5,459.2l-5.6-5.6c-0.1-0.1-0.3-0.2-0.4-0.2h-9.4c-1.2,0-2.2,1-2.2,2.2v4c0.4-0.1,0.7-0.1,1.1-0.2v-3.8
		c0-0.6,0.5-1.1,1.1-1.1h9.2l5.2,5.2v15.9c0,0.6-0.5,1.1-1.1,1.1h-3.5c0,0.2-0.1,0.5-0.1,0.7s-0.1,0.3-0.1,0.4h3.7
		c1.2,0,2.2-1,2.2-2.2v-16.1C169.7,459.4,169.6,459.3,169.5,459.2z"/>
	<path class="st4" d="M164.7,462.3h-4.1c0.4,0.3,0.7,0.7,1,1.1h0.3v0.4c0.1,0.2,0.3,0.4,0.4,0.6c0.3,0.4,0.5,0.8,0.7,1.2v-2.2h1.7
		c0.3,0,0.6,0.2,0.6,0.5v1.7H163c0.2,0.4,0.3,0.7,0.5,1.1h1.8v6.1c0,0.3-0.2,0.6-0.6,0.6h-0.4c0,0.4,0,0.7-0.1,1.1h0.5
		c0.9,0,1.7-0.7,1.7-1.7l0,0V464C166.3,463.1,165.6,462.3,164.7,462.3L164.7,462.3z"/>
	<path class="st4" d="M158.4,459.4c-0.1-0.1-0.2-0.2-0.4-0.2h-9.4c-1.2,0-2.2,1-2.2,2.2l0,0v20c0,1.2,1,2.2,2.2,2.2l0,0h13.3
		c1.2,0,2.2-1,2.2-2.2l0,0v-16.1c0-0.1-0.1-0.3-0.2-0.4L158.4,459.4z M163,481.4c0,0.6-0.5,1.1-1.1,1.1h-13.3
		c-0.6,0-1.1-0.5-1.1-1.1v-20c0-0.6,0.5-1.1,1.1-1.1h9.2l5.2,5.2L163,481.4z"/>
	<path class="st4" d="M149.7,469.8v8.9c0,0.9,0.7,1.7,1.7,1.7l0,0h7.8c0.9,0,1.7-0.7,1.7-1.7l0,0v-8.9c0-0.9-0.8-1.7-1.7-1.7h-7.8
		C150.4,468.1,149.7,468.8,149.7,469.8z M153,479.2h-1.7c-0.3,0-0.6-0.3-0.6-0.6V477h2.2v2.2H153z M156.3,479.2h-2.2V477h2.2V479.2z
		 M159.7,478.6c0,0.3-0.3,0.6-0.6,0.6h-1.7v-2.8c0-0.3-0.2-0.6-0.5-0.6l0,0h-6.1v-3.3h8.9L159.7,478.6L159.7,478.6z M157.4,469.2
		h1.7c0.3,0,0.6,0.2,0.6,0.5v1.7h-2.2v-2.2H157.4z M154.1,469.2h2.2v2.2h-2.2V469.2L154.1,469.2z M153,471.4h-2.2v-1.7
		c0-0.3,0.3-0.6,0.6-0.5h1.7v2.2H153z"/>
	<path class="st4" d="M41,455.9H26.9c-1.3,0-2.4,1.1-2.4,2.4v7.5l-2.2,2.2c-0.1,0.1-0.2,0.3-0.2,0.4v1.8c0,0.2,0.1,0.3,0.2,0.4l1,1
		v1.9l-1,1c-0.1,0.1-0.2,0.3-0.2,0.4v7.1c0,1.3,1.1,2.4,2.4,2.4H41c1.3,0,2.4-1.1,2.4-2.4v-23.7C43.4,456.9,42.4,455.9,41,455.9z
		 M42.2,481.9c0,0.7-0.5,1.2-1.2,1.2H24.5c-0.7,0-1.2-0.5-1.2-1.2V475l1-1c0.1-0.1,0.2-0.3,0.2-0.4v-2.4c0-0.2-0.1-0.3-0.2-0.4l-1-1
		v-1.3l2.2-2.2c0.1-0.1,0.2-0.3,0.2-0.4v-7.7c0-0.7,0.5-1.2,1.2-1.2H28v6.5c0,0.3,0.3,0.6,0.6,0.6c0.3,0,0.6-0.3,0.6-0.6V457h2.4
		v6.5c0,0.3,0.3,0.6,0.7,0.5c0.3,0,0.5-0.2,0.5-0.5V457h2.4v6.5c0,0.3,0.3,0.6,0.7,0.5c0.3,0,0.5-0.2,0.5-0.5V457h2.4v6.5
		c0,0.3,0.3,0.6,0.7,0.5c0.3,0,0.5-0.2,0.5-0.5V457h1c0.7,0,1.2,0.5,1.2,1.2L42.2,481.9L42.2,481.9z"/>
	<path class="st4" d="M27.7,476.8v-1c0.1,0.1,0.3,0.2,0.4,0.3c0.2,0.1,0.3,0.2,0.5,0.2c0.2,0.1,0.4,0.1,0.5,0.1c0.2,0,0.3,0,0.5,0
		c0.4,0,0.8-0.1,1.2-0.3c0.3-0.2,0.4-0.5,0.4-0.9c0-0.2,0-0.4-0.1-0.5c-0.1-0.2-0.2-0.3-0.4-0.4c-0.2-0.1-0.4-0.2-0.6-0.4
		c-0.2-0.1-0.4-0.2-0.7-0.4c-0.3-0.1-0.5-0.3-0.7-0.4s-0.4-0.3-0.6-0.5s-0.3-0.4-0.4-0.6s-0.1-0.5-0.1-0.7c0-0.3,0.1-0.6,0.2-0.9
		c0.1-0.2,0.3-0.5,0.6-0.6c0.3-0.2,0.5-0.3,0.8-0.4s0.7-0.1,1-0.1c0.6,0,1.1,0.1,1.6,0.3v1c-0.5-0.3-1.1-0.5-1.7-0.5
		c-0.2,0-0.4,0-0.6,0.1c-0.2,0-0.4,0.1-0.5,0.2s-0.3,0.2-0.4,0.4c-0.1,0.2-0.1,0.3-0.1,0.5s0,0.3,0.1,0.5c0.1,0.1,0.2,0.3,0.3,0.4
		c0.2,0.1,0.3,0.2,0.5,0.3l0.7,0.4c0.3,0.1,0.5,0.3,0.8,0.4c0.2,0.1,0.4,0.3,0.6,0.5s0.3,0.4,0.4,0.6s0.2,0.5,0.2,0.7
		c0,0.3-0.1,0.7-0.2,0.9c-0.1,0.2-0.3,0.5-0.6,0.6c-0.3,0.2-0.5,0.3-0.9,0.4c-0.3,0.1-0.7,0.1-1,0.1H29l-0.5-0.1
		c-0.2,0-0.3-0.1-0.5-0.1C28,477,27.9,476.9,27.7,476.8z"/>
	<path class="st4" d="M33.8,477.1v-7.5h2.1c2.7,0,4,1.2,4,3.7c0,1-0.4,2.1-1.1,2.8c-0.8,0.7-1.9,1.1-3,1H33.8z M34.7,470.4v5.9h1.1
		c0.8,0,1.7-0.2,2.3-0.8c0.6-0.6,0.9-1.4,0.8-2.2c0-1.9-1-2.9-3.1-2.9H34.7z"/>
	<g id="phone">
		<rect x="64.6" y="64.3" class="st14" width="168.6" height="63"/>
		<rect x="64.6" y="141.1" class="st14" width="168.6" height="30.7"/>
		<rect x="64.6" y="180.3" class="st14" width="168.6" height="64.4"/>
		<rect x="67.7" y="253.7" class="st14" width="165.5" height="55.1"/>
		<rect x="65" y="316.5" class="st14" width="170.8" height="29.5"/>
		<path class="st15" d="M237.2,206.3c0.3,45.2,0.6,90.3,0.8,135.5c0.1,19.9-14.6,34.7-34.5,34.9c-35.5,0.2-71,0.4-106.5,0.7
			c-18.6,0.3-34-14.6-34.2-33.3c0-0.2,0-0.3,0-0.5c-0.2-23.1-0.3-46.3-0.4-69.4C62,206.7,61.5,139.3,61.1,72
			c-0.1-17.6,11-31.3,28.3-34.6c1.8-0.3,3.6-0.4,5.4-0.4c35.8-0.2,71.7-0.5,107.5-0.7c18.6-0.2,33.9,14.8,34.1,33.4v0.1
			C236.7,115.3,236.9,160.8,237.2,206.3z M230.8,205.9c-0.3-44.3-0.6-94.8-0.8-139c-0.1-14.5-9.2-22.7-23.1-22.6L90,45
			c-13.3,0.1-23.6,8.4-23.6,22c0.2,57.3,0.4,120.7,0.8,178c0.1,20.3,0.5,42.6,0.7,62.9c0.1,11.6,0.1,21.2,0.2,32.8
			c0.2,13.3,10.6,21.7,23.4,21.6c39.4-0.2,78.9-0.5,118.3-0.8c2.6,0,5.1-0.4,7.6-1.2c8.6-2.9,14.4-10.6,14.3-21.4
			C231.4,294.5,231.1,250.2,230.8,205.9z"/>
		<path class="st12" d="M130.9,374.4h-1.2v-8.9l-2.2,1.8V366l2.3-1.8h1.2L130.9,374.4z"/>
		<path class="st12" d="M139.5,371.1c-0.6,0-1.2-0.1-1.8-0.4c-0.5-0.3-0.9-0.7-1.1-1.2c-0.3-0.6-0.4-1.3-0.4-2s0.2-1.4,0.5-2
			c0.3-0.5,0.8-0.9,1.3-1.1c0.6-0.2,1.2-0.3,1.8-0.3c0.9-0.1,1.7,0.2,2.4,0.7c0.6,0.5,1,1.1,1.2,1.9c0.2,0.9,0.3,1.8,0.3,2.8
			c0,1.2-0.3,2.5-0.9,3.5c-0.7,1-1.8,1.6-3,1.5c-1.4,0-2.4-0.3-2.8-0.9c-0.4-0.5-0.6-1.1-0.7-1.7h1.2c0,0,0,0.1,0.1,0.3
			c0,0.2,0.1,0.4,0.3,0.6s0.4,0.4,0.7,0.5c0.4,0.2,0.8,0.2,1.2,0.2c0.8,0.1,1.6-0.4,2-1.1s0.6-1.5,0.6-2.2c0-0.1,0-0.3,0-0.4
			c-0.2,0.3-0.5,0.6-0.8,0.9C141,371,140.2,371.2,139.5,371.1z M142.2,367.6c0-1.7-0.8-2.6-2.3-2.5c-1.6,0-2.3,0.9-2.3,2.5
			c0,0.7,0.2,1.4,0.6,1.9c0.4,0.5,1.1,0.7,1.7,0.7c0.7,0,1.3-0.2,1.7-0.7C142,369,142.2,368.3,142.2,367.6L142.2,367.6z"/>
		<path class="st12" d="M151.1,374.4l-2.2-4.2l-1.6,1.9v2.4h-1.2v-10.2h1.2v6.5l3.5-3.9h1.2l-2.4,2.7l2.7,4.9L151.1,374.4z"/>
		<path class="st12" d="M158.6,369.7v-0.3c0-0.5-0.1-1-0.4-1.4c-0.4-0.3-0.9-0.5-1.5-0.4c-1.2,0-1.9,0.5-2.1,1.4l-1.1-0.2
			c0.1-0.7,0.5-1.3,1.1-1.6c0.7-0.3,1.4-0.5,2.2-0.5c0.9-0.1,1.7,0.2,2.4,0.7c0.3,0.3,0.4,0.6,0.5,1c0.1,0.5,0.1,1,0.1,1.5v3
			c0,0.5,0,1.1,0.2,1.6h-1.2l-0.2-1.4c-0.5,1-1.5,1.6-2.6,1.5c-0.7,0-1.4-0.2-1.9-0.6s-0.8-1-0.8-1.7c0-0.4,0.1-0.9,0.4-1.3
			c0.2-0.4,0.6-0.7,1-0.9c0.9-0.3,1.9-0.5,2.9-0.4L158.6,369.7z M158.6,370.6h-0.9c-2,0-3.1,0.6-3.1,1.7c0,0.4,0.2,0.8,0.5,1
			s0.7,0.4,1.1,0.4c0.4,0,0.9-0.1,1.2-0.4c0.4-0.2,0.7-0.6,0.9-1s0.3-0.8,0.3-1.3V370.6z"/>
		<path class="st12" d="M161.7,374.4v-10.2h1.2v10.2H161.7z"/>
		<path class="st12" d="M170.2,369.7v-0.3c0.1-0.5-0.1-1-0.4-1.4c-0.4-0.3-0.9-0.5-1.5-0.4c-1.2,0-1.9,0.5-2.1,1.4l-1.1-0.2
			c0.1-0.7,0.5-1.3,1.1-1.6c0.7-0.3,1.4-0.5,2.2-0.5c0.9-0.1,1.7,0.2,2.4,0.7c0.3,0.3,0.4,0.6,0.5,1c0.1,0.5,0.1,1,0.1,1.5v3
			c0,0.5,0,1.1,0.2,1.6h-1.2l-0.2-1.4c-0.5,1-1.5,1.6-2.6,1.5c-0.7,0-1.4-0.2-1.9-0.6s-0.8-1-0.8-1.7c0-0.4,0.1-0.9,0.4-1.3
			c0.2-0.4,0.6-0.7,1-0.9c0.9-0.4,1.9-0.5,2.9-0.4L170.2,369.7z M170.2,370.6h-1c-2,0-3.1,0.6-3.1,1.7c0,0.4,0.2,0.8,0.5,1
			s0.7,0.4,1.1,0.4c0.4,0,0.9-0.1,1.3-0.4c0.4-0.2,0.7-0.6,0.8-1c0.2-0.4,0.3-0.8,0.3-1.3L170.2,370.6z"/>
		<path class="st15" d="M36.5,371.9c0.1,1.6,1.5,2.8,3.1,2.7h6.6c1.6,0.1,3-1.1,3.1-2.7V41.7c-0.1-1.6-1.5-2.8-3.1-2.7h-6.6
			c-1.6-0.1-3,1.1-3.1,2.7V371.9z"/>
		<path class="st16" d="M45,154.5c0.1,1.1-0.8,2.1-1.9,2.2H43c-1.1-0.1-2-1-1.9-2.1v-0.1V94.9c-0.1-1.1,0.7-2.1,1.8-2.2H43h0.1
			c1.1,0.1,1.9,1.1,1.9,2.2V154.5z"/>
		<path class="st16" d="M45,190.5c0,0.5-0.8,0.8-1.9,0.8H43c-1,0-1.9-0.4-1.9-0.8v-22.6c0-0.4,0.8-0.8,1.9-0.8h0.1
			c1,0,1.9,0.4,1.9,0.8V190.5z"/>
		<path class="st17" d="M246.7,245.3v131.1"/>
		<path class="st17" d="M246.7,41.7v133.9"/>
		<path class="st17" d="M183.7,388h52.1"/>
		<path class="st17" d="M70.4,388h52.2"/>
	</g>
	<g id="Battry">
		<path class="st15" d="M155,262.5c-0.7,0-1.5,0-2.2,0c-0.2,0-0.6,0.1-0.6-0.2c0-1.1-0.7-1-1.4-0.9c-1.1,0.1-1.6-0.2-1.4-1.3
			c0.1-0.7-0.1-1-0.9-1c-1.8,0-3.6,0.1-5.4,0c-0.8,0-1.1,0.3-1,1c0.2,1.1-0.3,1.5-1.3,1.3c-0.3,0-0.6,0-0.8,0
			c-0.3,0-0.5,0.1-0.5,0.4c0.1,0.7-0.4,0.7-0.8,0.7s-0.8,0-1.3,0c-2,0-2.2,0.2-2.2,2.1V298c0,1.8,0.3,2.1,2.1,2.1h16.9
			c0.3,0,0.6,0,0.8,0c0.7,0,1.3-0.6,1.3-1.3v-0.1c0-11.6,0-23.2,0-34.8c0.1-0.7-0.3-1.4-1-1.5C155.2,262.5,155.1,262.5,155,262.5z
			 M155.3,297.1c0,1.4-0.4,1.8-1.8,1.8h-15.3c-1.4,0-1.8-0.3-1.8-1.8v-31.8c0-1.4,0.3-1.7,1.7-1.7h15.6c1.4,0,1.7,0.4,1.7,1.8
			C155.4,276,155.4,286.6,155.3,297.1L155.3,297.1z"/>
		<path class="st18" d="M145.8,289.1h-7.1c-1.2,0-1.5-0.3-1.5-1.5s0-2.7,0-4c0-1,0.4-1.5,1.4-1.5H153c0.7-0.1,1.3,0.4,1.4,1.1
			c0,0.1,0,0.2,0,0.4c0,1.4,0,2.8,0,4.2c0,0.9-0.5,1.3-1.4,1.3C150.6,289.1,148.2,289.1,145.8,289.1z"/>
		<path class="st18" d="M145.8,280.5h-7.1c-1.2,0-1.5-0.3-1.5-1.5s0-2.7,0-4c0-1,0.4-1.5,1.4-1.5H153c0.7-0.1,1.3,0.4,1.4,1.1
			c0,0.1,0,0.2,0,0.4c0,1.4,0,2.8,0,4.2c0.1,0.7-0.4,1.2-1,1.3c-0.1,0-0.2,0-0.3,0C150.7,280.4,148.2,280.5,145.8,280.5z"/>
		<path class="st18" d="M145.8,272h-7.1c-1.2,0-1.5-0.3-1.5-1.5s0-2.7,0-4c0-1,0.4-1.5,1.4-1.5H153c0.7-0.1,1.3,0.4,1.4,1.1
			c0,0.1,0,0.2,0,0.4c0,1.4,0,2.8,0,4.2c0.1,0.6-0.4,1.2-1,1.3c-0.1,0-0.2,0-0.4,0C150.7,272,148.2,272,145.8,272z"/>
		<path class="st18" d="M145.8,297.7h-7.1c-1.2,0-1.5-0.3-1.5-1.5s0-2.7,0-4c0-1,0.4-1.5,1.4-1.5H153c0.7-0.1,1.3,0.4,1.4,1.1
			c0,0.1,0,0.2,0,0.4c0,1.4,0,2.8,0,4.2c0,0.9-0.5,1.3-1.4,1.3C150.6,297.7,148.2,297.7,145.8,297.7z"/>
		<path class="st15" d="M177.1,293.6H176v-4c0-0.6-0.1-1.2-0.4-1.7c-0.3-0.4-0.7-0.6-1.2-0.5c-0.5,0-0.9,0.2-1.2,0.6
			c-0.3,0.5-0.5,1-0.5,1.6v4h-1.1v-4.1c0-1.4-0.5-2-1.6-2c-0.5,0-0.9,0.2-1.2,0.6c-0.3,0.5-0.5,1-0.5,1.6v4h-1.1v-6.9h1.1v1.1l0,0
			c0.4-0.8,1.3-1.3,2.1-1.3c0.4,0,0.9,0.1,1.2,0.4c0.3,0.2,0.6,0.6,0.7,1c0.4-0.9,1.3-1.5,2.3-1.4c1.5,0,2.3,0.9,2.3,2.8
			L177.1,293.6z"/>
		<path class="st15" d="M186.9,293.6h-1.3l-1-2.7h-4.1l-1,2.7h-1.3l3.7-9.7h1.2L186.9,293.6z M184.2,289.9l-1.5-4.1
			c-0.1-0.2-0.1-0.4-0.1-0.6l0,0c0,0.2-0.1,0.4-0.1,0.6l-1.5,4.1H184.2z"/>
		<path class="st15" d="M193.9,293.6h-1.1v-4c0-1.4-0.5-2.2-1.6-2.2c-0.5,0-1,0.2-1.4,0.6s-0.6,1-0.6,1.6v3.9h-1.1v-10.2h1.1v4.5
			l0,0c0.5-0.8,1.3-1.3,2.3-1.3c1.6,0,2.3,0.9,2.3,2.8L193.9,293.6z"/>
	</g>
	<g id="Camera">
		<path class="st15" d="M147.3,209.7h-12.6c-1.1,0.1-2.1-0.7-2.4-1.8c-0.1-0.2-0.1-0.5-0.1-0.8v-16c-0.1-1.3,0.9-2.4,2.2-2.5
			c0.1,0,0.2,0,0.4,0h5.4c0.7,0.1,1.3-0.3,1.4-1c0-0.1,0-0.2,0-0.3c0.1-1.2,1.1-2.2,2.3-2.2c2.3,0,4.6,0,7,0c1.3,0,2.3,1,2.3,2.2
			c0,0,0,0,0,0.1c0,0.7,0.5,1.2,1.2,1.2h0.1h5.6c1.1-0.1,2.1,0.7,2.4,1.8c0,0.2,0.1,0.5,0.1,0.8v15.9c0.1,1.3-0.9,2.4-2.2,2.5
			c-0.1,0-0.2,0-0.4,0L147.3,209.7z M147.3,208.6h12.6c0.7,0.1,1.2-0.4,1.3-1.1c0-0.1,0-0.2,0-0.3v-16c0.1-0.7-0.4-1.3-1.1-1.3
			c-0.1,0-0.2,0-0.3,0h-5.6c-1.3,0.1-2.3-0.9-2.4-2.2c0,0,0,0,0-0.1c0-0.7-0.5-1.2-1.1-1.3c-0.1,0-0.1,0-0.2,0H144
			c-0.7-0.1-1.3,0.4-1.3,1.1c0,0.1,0,0.1,0,0.2c0,1.3-1.1,2.3-2.3,2.2c0,0,0,0-0.1,0h-5.6c-0.7-0.1-1.3,0.4-1.3,1c0,0.1,0,0.2,0,0.3
			v16c-0.1,0.7,0.4,1.2,1,1.3c0.1,0,0.2,0,0.3,0h12.6L147.3,208.6L147.3,208.6z"/>
		<path class="st15" d="M147.3,191.1c4.2,0,7.6,3.4,7.6,7.6c0,4.2-3.4,7.6-7.6,7.6c-4.2,0-7.6-3.4-7.6-7.6S143.1,191.1,147.3,191.1
			L147.3,191.1z M147.3,192.3c-3.5,0-6.4,2.8-6.4,6.4c0,3.5,2.8,6.4,6.4,6.4c3.5,0,6.4-2.8,6.4-6.3
			C153.7,195.2,150.9,192.3,147.3,192.3C147.4,192.3,147.3,192.3,147.3,192.3L147.3,192.3z"/>
		<path class="st15" d="M160.1,193.4c0,1.3-1,2.3-2.3,2.3s-2.3-1-2.3-2.3s1-2.3,2.3-2.3C159,191.1,160.1,192.1,160.1,193.4
			L160.1,193.4z M157.8,192.3c-0.6,0-1.2,0.5-1.1,1.2s0.5,1.2,1.2,1.1c0.6,0,1.1-0.5,1.2-1.2C158.9,192.8,158.4,192.3,157.8,192.3
			L157.8,192.3z"/>
	</g>
	<g id="MP">
		<path class="st15" d="M155.1,224H154v-6.4c0-0.3,0-0.5,0-0.9s0-0.7,0.1-1l0,0c0,0.1-0.1,0.2-0.1,0.4c-0.1,0.1-0.1,0.3-0.2,0.4
			s-0.1,0.2-0.2,0.3c0,0.1-0.1,0.1-0.1,0.2l-2.4,4.5h-0.5l-2.4-4.5c0-0.1-0.1-0.2-0.1-0.2c0-0.1-0.1-0.2-0.2-0.3s-0.1-0.2-0.2-0.4
			c0-0.1-0.1-0.2-0.1-0.4l0,0c0,0.2,0,0.4,0,0.8s0,0.7,0,1.1v6.3h-1.1v-9.5h1.4l2.5,4.5c0.1,0.2,0.2,0.4,0.3,0.6
			c0.1,0.1,0.1,0.3,0.2,0.4l0,0c0-0.1,0.1-0.3,0.2-0.5s0.2-0.4,0.3-0.6l2.5-4.5h1.4L155.1,224z"/>
		<path class="st15" d="M158.8,220.4v3.6h-1.1v-9.5h2.6c0.9-0.1,1.7,0.2,2.4,0.7c0.6,0.5,0.9,1.3,0.8,2.1c0,0.8-0.3,1.7-0.9,2.2
			c-0.7,0.6-1.6,0.9-2.5,0.9H158.8z M158.8,215.5v3.9h1.2c0.6,0,1.3-0.1,1.8-0.5c0.4-0.4,0.6-0.9,0.6-1.5c0-1.3-0.8-1.9-2.2-1.9
			H158.8z"/>
		<path class="st15" d="M154.5,240.3h-1.1v-6.4c0-0.3,0-0.5,0-0.9s0-0.7,0.1-1l0,0c0,0.1-0.1,0.2-0.1,0.4c-0.1,0.1-0.1,0.3-0.2,0.4
			l-0.2,0.3c0,0.1-0.1,0.1-0.1,0.2l-2.4,4.5H150l-2.4-4.5c0-0.1-0.1-0.2-0.1-0.2l-0.2-0.3c-0.1-0.1-0.1-0.3-0.2-0.4
			c-0.1-0.1-0.1-0.2-0.1-0.4l0,0c0,0.2,0,0.4,0,0.8s0,0.7,0,1.1v6.4h-1.1v-9.5h1.4l2.5,4.5l0.3,0.6c0.1,0.1,0.1,0.3,0.2,0.4l0,0
			l0.2-0.5c0.1-0.2,0.2-0.4,0.3-0.6l2.5-4.5h1.4L154.5,240.3z"/>
		<path class="st15" d="M158.1,236.7v3.6H157v-9.5h2.6c0.9-0.1,1.7,0.2,2.4,0.8c0.6,0.5,0.9,1.3,0.8,2.1c0,0.8-0.3,1.6-0.9,2.2
			c-0.7,0.6-1.6,0.9-2.5,0.9L158.1,236.7z M158.1,231.8v3.9h1.2c0.6,0,1.3-0.1,1.8-0.5c0.4-0.4,0.6-0.9,0.6-1.5
			c0-1.3-0.7-1.9-2.2-1.9H158.1z"/>
	</g>
	<path class="st4" d="M302,509.7h-0.2c-0.7,0-1.3,0.2-1.8,0.7s-0.8,1.2-0.8,1.9c0.4-0.5,1-0.8,1.7-0.7c0.6,0,1.2,0.2,1.6,0.7
		s0.6,1.2,0.6,1.8c0,0.7-0.2,1.4-0.6,1.9s-1.1,0.7-1.7,0.7c-0.7,0-1.3-0.3-1.8-0.8c-0.5-0.6-0.7-1.4-0.7-2.2v-0.4
		c-0.1-1.1,0.2-2.3,0.9-3.2c0.7-0.8,1.6-1.2,2.6-1.2h0.1L302,509.7L302,509.7z M299.8,512.6c-0.3,0.2-0.5,0.5-0.6,0.8v0.4
		c0,0.5,0.1,1.1,0.4,1.5c0.2,0.4,0.7,0.6,1.1,0.6s0.8-0.2,1-0.5c0.3-0.4,0.4-0.8,0.4-1.3s-0.1-0.9-0.4-1.3c-0.2-0.3-0.6-0.5-1-0.5
		C300.4,512.3,300.1,512.4,299.8,512.6L299.8,512.6z"/>
	<path class="st4" d="M308.5,511.9c-0.2,0.3-0.5,0.6-0.8,0.7c0.4,0.2,0.7,0.4,1,0.8c0.2,0.3,0.3,0.7,0.3,1.1c0,0.6-0.2,1.2-0.7,1.6
		c-0.5,0.4-1.1,0.6-1.8,0.6c-0.6,0-1.3-0.2-1.8-0.6c-0.4-0.4-0.7-1-0.6-1.6c0-0.4,0.1-0.8,0.3-1.1c0.3-0.3,0.6-0.6,1-0.8
		c-0.3-0.2-0.6-0.4-0.8-0.7c-0.2-0.3-0.3-0.6-0.3-1c0-0.6,0.2-1.1,0.6-1.5s1-0.6,1.6-0.6s1.2,0.2,1.6,0.6s0.6,0.9,0.6,1.5
		C308.9,511.3,308.7,511.6,308.5,511.9z M307.7,513.4c-0.6-0.5-1.6-0.5-2.2,0c-0.3,0.3-0.4,0.7-0.4,1.1c0,0.4,0.1,0.7,0.4,1
		s0.7,0.4,1.1,0.4s0.8-0.1,1.1-0.4C308.2,514.9,308.2,513.9,307.7,513.4L307.7,513.4z M305.7,509.9c-0.2,0.3-0.4,0.6-0.4,1
		s0.1,0.7,0.4,1c0.5,0.5,1.4,0.5,1.9,0c0.5-0.6,0.5-1.4,0-1.9c-0.3-0.3-0.6-0.4-1-0.4S305.9,509.7,305.7,509.9L305.7,509.9z"/>
	<g id="IP">
		<g id="IP-2">
			<path class="st4" d="M288.8,517h-0.9v-8h0.9V517z"/>
			<path class="st4" d="M291.8,514v3h-0.9v-8h2.1c0.7,0,1.4,0.2,2,0.6c0.5,0.5,0.7,1.1,0.7,1.8s-0.3,1.4-0.8,1.8
				c-0.6,0.5-1.3,0.8-2.1,0.7L291.8,514z M291.8,509.9v3.3h1c0.5,0,1-0.1,1.5-0.4c0.3-0.3,0.5-0.8,0.5-1.2c0-1-0.6-1.6-1.9-1.6
				L291.8,509.9z"/>
		</g>
	</g>
</g>
<g id="OS">
	<path class="st19" d="M102.2,338.6h-1.4v-1.8c-1,1.3-2.6,2.1-4.3,2.1c-1.5,0-2.9-0.6-3.9-1.7s-1.6-2.5-1.6-4c0-3,2.4-5.5,5.4-5.5
		h0.1c1.7,0,3.3,0.8,4.2,2.2v-2h1.4L102.2,338.6L102.2,338.6z M100.9,333.3c0-1.1-0.4-2.3-1.2-3.1c-0.8-0.8-1.9-1.2-3-1.2
		c-1.5-0.1-2.9,0.8-3.6,2.1c-0.4,0.6-0.6,1.4-0.6,2.1s0.2,1.5,0.6,2.1s0.9,1.2,1.5,1.6s1.4,0.6,2.1,0.6s1.5-0.2,2.1-0.6
		c0.6-0.3,1.2-0.9,1.5-1.5C100.8,334.8,101,334,100.9,333.3z"/>
	<path class="st19" d="M113.1,338.6h-1.4v-5.1c0-0.8,0-1.6-0.2-2.4c-0.2-1.3-1.4-2.2-2.7-2.1c-0.8,0-1.6,0.3-2.2,0.8s-1.1,1.2-1.3,2
		c-0.2,1-0.2,1.9-0.2,2.9v3.9h-1.4v-10.7h1.4v1.9c0.9-1.4,2.4-2.2,4-2.2c0.7,0,1.5,0.2,2.1,0.6s1.1,0.9,1.4,1.6
		c0.3,1,0.5,2.1,0.4,3.2L113.1,338.6L113.1,338.6z"/>
	<path class="st19" d="M125.1,338.6h-1.4v-1.8c-1,1.3-2.6,2.1-4.3,2.1c-1.5,0-2.9-0.6-3.9-1.7s-1.6-2.5-1.6-4c0-3,2.4-5.5,5.4-5.5
		h0.1c1.7,0,3.3,0.8,4.2,2.2v-6.1h1.4L125.1,338.6L125.1,338.6z M123.8,333.3c0-1.1-0.4-2.3-1.2-3.1c-0.8-0.8-1.9-1.2-3-1.2
		c-1.5-0.1-2.9,0.8-3.6,2.1c-0.4,0.6-0.6,1.4-0.6,2.1s0.2,1.5,0.6,2.1s0.9,1.2,1.5,1.6s1.4,0.6,2.1,0.6s1.5-0.2,2.1-0.6
		c0.6-0.3,1.2-0.9,1.5-1.5C123.6,334.8,123.8,334,123.8,333.3z"/>
	<path class="st19" d="M131.4,328l-0.7,1.2c-0.2-0.1-0.5-0.2-0.7-0.2c-1.1,0-1.8,0.8-2.3,2.3c-0.3,1.2-0.4,2.5-0.3,3.7v3.6H126
		v-10.7h1.4v1.6c0.5-1.1,1.6-1.7,2.8-1.8C130.6,327.7,131.1,327.8,131.4,328z"/>
	<path class="st19" d="M141.7,333.2c0.1,1.5-0.5,2.9-1.6,4c-1,1.1-2.4,1.6-3.9,1.6c-1.5,0.1-2.9-0.5-3.9-1.6s-1.6-2.5-1.6-4
		c0-1.4,0.5-2.8,1.5-3.8c1-1.2,2.5-1.8,4.1-1.8s3.1,0.6,4.1,1.8C141.2,330.5,141.7,331.8,141.7,333.2z M140.3,333.3
		c0-2.3-1.8-4.2-4.1-4.3c-1.1,0-2.2,0.5-2.9,1.3c-0.8,0.8-1.2,1.9-1.2,3c0,1.5,0.7,2.9,2,3.7c0.6,0.4,1.4,0.5,2.1,0.5
		c1.5,0.1,2.9-0.8,3.6-2.1C140.1,334.7,140.3,334,140.3,333.3z"/>
	<path class="st19" d="M144.2,324.7c0,0.6-0.5,1-1.1,0.9c-0.6,0-1-0.5-0.9-1.1c0-0.6,0.5-1,1.1-0.9c0.2,0,0.4,0.1,0.6,0.3
		C144.1,324.1,144.2,324.4,144.2,324.7z M143.8,338.6h-1.4v-10.7h1.4V338.6z"/>
	<path class="st19" d="M155.7,338.6h-1.4v-1.8c-1,1.3-2.6,2.1-4.3,2.1c-1.5,0-2.9-0.6-3.9-1.7s-1.6-2.5-1.6-4c0-3,2.4-5.5,5.4-5.5
		h0.1c1.7,0,3.3,0.8,4.2,2.2v-6.1h1.4v14.9L155.7,338.6z M154.4,333.3c0-1.1-0.4-2.3-1.2-3.1c-0.8-0.8-1.9-1.2-3-1.2
		c-1.5-0.1-2.9,0.8-3.6,2.1c-0.4,0.6-0.6,1.4-0.6,2.1s0.2,1.5,0.6,2.1c0.4,0.6,0.9,1.2,1.5,1.6s1.4,0.6,2.1,0.6
		c0.7,0,1.5-0.2,2.1-0.6c0.6-0.3,1.2-0.9,1.5-1.5C154.3,334.8,154.5,334,154.4,333.3z"/>
</g>
<g id="AMOLED" class="st20">
	<g id="Super_AMOLED" class="st21">
		<path class="st4" d="M280.5,90.6l-0.9,0.1c0-0.9-0.6-1.3-1.6-1.3c-0.4,0-0.7,0.1-1.1,0.3c-0.3,0.2-0.4,0.4-0.4,0.7
			c0,0.5,0.4,0.8,1.1,1l1.5,0.3c0.9,0.1,1.6,0.8,1.6,1.8c0,0.6-0.3,1.1-0.7,1.4c-0.5,0.4-1.2,0.6-1.9,0.6c-0.5,0-0.9-0.1-1.4-0.3
			c-0.4-0.1-0.7-0.4-1-0.7c-0.3-0.4-0.4-0.8-0.4-1.3l1-0.1c0,0.4,0.1,0.7,0.3,1c0.4,0.5,0.9,0.7,1.5,0.7c0.4,0,0.8-0.1,1.2-0.3
			c0.3-0.2,0.4-0.6,0.4-0.9c0-0.5-0.4-0.9-1-1l-1.1-0.3c-0.5-0.1-0.9-0.3-1.3-0.5c-0.4-0.3-0.6-0.7-0.5-1.2c0-0.5,0.2-1,0.7-1.3
			c0.5-0.4,1.1-0.5,1.8-0.5c0.8-0.1,1.5,0.2,2,0.8C280.3,89.8,280.4,90.2,280.5,90.6z"/>
		<path class="st4" d="M285.9,88.8h0.9V93c0,0.6-0.1,1.1-0.5,1.6c-0.5,0.6-1.2,0.9-2,0.8c-0.8,0.1-1.6-0.3-2.1-0.9
			c-0.3-0.4-0.4-0.9-0.4-1.4v-4.2h0.9v3.6c0,0.3,0,0.6,0,0.9s0.1,0.6,0.3,0.8c0.3,0.3,0.8,0.5,1.2,0.5c0.5,0,1-0.2,1.3-0.6
			c0.3-0.5,0.4-1.1,0.3-1.6L285.9,88.8z"/>
		<path class="st4" d="M289,92.5v2.7h-0.9v-6.4h3c0.5,0,1,0.1,1.4,0.4c0.4,0.4,0.6,0.9,0.6,1.4s-0.2,1.1-0.5,1.4
			c-0.4,0.3-1,0.5-1.5,0.4L289,92.5z M289,91.7h2c0.3,0,0.7-0.1,0.9-0.3c0.2-0.2,0.3-0.5,0.3-0.8c0-0.7-0.4-1.1-1.2-1.1h-2L289,91.7
			z"/>
		<path class="st4" d="M298.6,88.8v0.8h-3.7v2h3.2v0.8h-3.2v2.2h3.8v0.8H294V89h4.6V88.8z"/>
		<path class="st4" d="M300.7,92.5v2.7h-0.9v-6.4h2.8c0.6,0,1.2,0.1,1.7,0.5c0.4,0.3,0.6,0.8,0.5,1.3c0,0.5-0.2,1-0.5,1.3
			c-0.3,0.2-0.6,0.4-1,0.4l1.8,2.8h-1l-1.7-2.7L300.7,92.5L300.7,92.5z M300.7,91.8h2c0.4,0,0.7-0.1,1-0.3c0.2-0.2,0.3-0.5,0.3-0.8
			s-0.1-0.7-0.4-0.9c-0.3-0.2-0.6-0.3-0.9-0.3h-2V91.8z"/>
		<path class="st4" d="M280.2,105.5h-3.7l-1.1,3H274l3.8-9.8h1.4l3.6,9.8h-1.4L280.2,105.5z M279.8,104.3l-1.4-4l-1.5,4H279.8z"/>
		<path class="st4" d="M293.3,98.6v9.8H292v-7.7l-2.8,7.7h-1.1l-2.8-7.7v7.7H284v-9.8h1.8l2.9,8l2.9-8H293.3z"/>
		<path class="st22" d="M300.2,98.4c1.4,0,2.7,0.5,3.6,1.5s1.5,2.4,1.4,3.8c0,1.4-0.5,2.7-1.4,3.6c-2,1.9-5.1,1.9-7.1,0
			c-1.9-2.1-1.9-5.3,0-7.4C297.6,98.9,298.8,98.3,300.2,98.4z M300.2,99.5c-1,0-1.9,0.4-2.5,1.1c-1.3,1.8-1.3,4.1,0,5.9
			c1.2,1.4,3.3,1.5,4.7,0.3c0.1-0.1,0.2-0.2,0.3-0.3c0.7-0.8,1-1.8,1-2.9s-0.3-2.2-1-3C302,99.9,301.1,99.5,300.2,99.5L300.2,99.5z"
			/>
		<path class="st4" d="M308.5,98.6v8.7h4.9v1.2h-6.3v-9.8L308.5,98.6L308.5,98.6z"/>
		<path class="st4" d="M321.7,98.6v1.2H316v3h4.9v1.2H316v3.3h5.9v1.2h-7.2v-9.8L321.7,98.6L321.7,98.6z"/>
		<path class="st4" d="M323.5,108.5v-9.8h3.7c1.3-0.1,2.6,0.4,3.5,1.4c0.8,1,1.2,2.3,1.1,3.6c0.1,1.4-0.4,2.7-1.3,3.8
			c-0.9,0.8-2.1,1.2-3.3,1.2L323.5,108.5z M324.9,107.3h2.2c0.5,0,1-0.1,1.5-0.2c0.4-0.2,0.7-0.4,1-0.8c0.6-0.8,0.9-1.8,0.8-2.8
			c0.1-1.1-0.3-2.2-1-3c-0.6-0.6-1.5-0.9-2.4-0.8h-2.2L324.9,107.3z"/>
	</g>
</g>
<g id="red_cros_2_">
	<g id="IR_2_">
		<path class="st23" d="M87.4,467.7l0.2,0.2l5,5c0.1,0.1,0.1,0.1,0.1,0.2s0,0.2-0.1,0.3s-0.2,0-0.3,0s-0.1-0.1-0.1-0.1
			c-1.6-1.7-3.3-3.3-5-5l-0.1-0.1l-0.2,0.1l-5,5c-0.2,0.2-0.3,0.2-0.4,0.1s-0.1-0.2,0-0.3l0,0c0-0.1,0.1-0.1,0.1-0.1
			c1.7-1.7,3.3-3.3,5-5l0.1-0.1l-0.1-0.1c-1.7-1.7-3.3-3.3-5-5c-0.2-0.2-0.2-0.3-0.1-0.5s0.3-0.1,0.5,0.1l5,5
			c0.1,0.1,0.1,0.1,0.2,0.2c0-0.1,0.1-0.1,0.1-0.2l5-5c0-0.1,0.1-0.1,0.1-0.1c0.1-0.1,0.2-0.1,0.3,0l0,0c0.1,0.1,0.1,0.2,0,0.3
			l-0.1,0.1l-5,5C87.5,467.6,87.4,467.6,87.4,467.7z"/>
	</g>
</g>
<g id="Green_cheak">
	<g id="_4G_LTE">
		<path class="st18" d="M318.7,425.7l2.4-3.6c1.7-2.6,3.5-5.2,5.2-7.9c0.1-0.1,0.1-0.2,0.2-0.2c0.2-0.3,0.6-0.4,0.9-0.2l0,0
			c0.3,0.2,0.4,0.5,0.3,0.8l0,0c-0.1,0.1-0.2,0.3-0.2,0.4l-7.8,11.7c-0.5,0.8-0.9,0.8-1.5,0.1c-1.7-1.7-3.4-3.5-5.2-5.2
			c-0.3-0.2-0.4-0.6-0.2-0.9c0.1-0.3,0.5-0.4,0.8-0.3c0.2,0.1,0.3,0.2,0.5,0.4l4.3,4.3C318.4,425.4,318.5,425.6,318.7,425.7z"/>
	</g>
	<g id="_4G_LTE_2_">
		<path class="st18" d="M318.7,472.4l2.4-3.6c1.7-2.6,3.5-5.2,5.2-7.9c0.1-0.1,0.1-0.2,0.2-0.2c0.2-0.3,0.6-0.4,0.9-0.2l0,0
			c0.3,0.2,0.4,0.5,0.3,0.8l0,0c-0.1,0.1-0.2,0.3-0.2,0.4l-7.8,11.7c-0.5,0.8-0.9,0.8-1.5,0.1c-1.7-1.7-3.4-3.5-5.2-5.2
			c-0.3-0.2-0.4-0.6-0.2-0.9c0.1-0.3,0.5-0.4,0.8-0.3c0.2,0.1,0.3,0.2,0.5,0.4l4.3,4.3C318.4,472.1,318.5,472.3,318.7,472.4z"/>
	</g>
	<g id="Sim_Card">
		<path class="st18" d="M208,471.7l2.4-3.6l5.2-7.9c0-0.1,0.1-0.2,0.2-0.2c0.2-0.3,0.6-0.4,0.9-0.2l0,0c0.3,0.2,0.4,0.5,0.2,0.8l0,0
			c-0.1,0.1-0.2,0.3-0.3,0.4c-2.6,3.9-5.2,7.8-7.8,11.7c-0.5,0.8-0.8,0.8-1.5,0.1l-5.2-5.2c-0.3-0.2-0.4-0.6-0.2-0.9
			c0.1-0.3,0.5-0.4,0.8-0.3c0.2,0.1,0.4,0.2,0.5,0.4c1.4,1.4,2.9,2.9,4.3,4.3C207.7,471.3,207.8,471.5,208,471.7z"/>
	</g>
	<g id="Sim_Card_1_">
		<path class="st18" d="M208,517.7l2.4-3.6l5.2-7.9c0-0.1,0.1-0.2,0.2-0.2c0.2-0.3,0.6-0.4,0.9-0.2l0,0c0.3,0.2,0.4,0.5,0.2,0.8l0,0
			c-0.1,0.1-0.2,0.3-0.3,0.4c-2.6,3.9-5.2,7.8-7.8,11.7c-0.5,0.8-0.8,0.8-1.5,0.1l-5.2-5.2c-0.3-0.2-0.4-0.6-0.2-0.9
			c0.1-0.3,0.5-0.4,0.8-0.3c0.2,0.1,0.4,0.2,0.5,0.4c1.4,1.4,2.9,2.9,4.3,4.3C207.7,517.3,207.8,517.5,208,517.7z"/>
	</g>
	<g id="Finger_Print">
		<path class="st18" d="M208,424.7l2.4-3.6l5.2-7.9c0-0.1,0.1-0.2,0.2-0.2c0.2-0.3,0.6-0.4,0.9-0.2l0,0c0.3,0.2,0.4,0.5,0.2,0.8l0,0
			c-0.1,0.1-0.2,0.3-0.3,0.4c-2.6,3.9-5.2,7.8-7.8,11.7c-0.5,0.8-0.8,0.8-1.5,0.1l-5.2-5.2c-0.3-0.2-0.4-0.6-0.2-0.9
			c0.1-0.3,0.5-0.4,0.8-0.3c0.2,0.1,0.4,0.2,0.5,0.4l4.3,4.3C207.7,424.4,207.8,424.5,208,424.7z"/>
	</g>
	<g id="SD_1_">
		<path class="st18" d="M86.4,427.2l2.4-3.6l5.2-7.9c0-0.1,0.1-0.2,0.2-0.2c0.2-0.3,0.6-0.4,0.9-0.2l0,0c0.3,0.2,0.4,0.5,0.2,0.8
			l0,0c-0.1,0.1-0.2,0.3-0.2,0.4l-7.8,11.7c-0.5,0.8-0.8,0.8-1.5,0.1l-5.2-5.2c-0.3-0.2-0.4-0.6-0.2-0.9c0.1-0.3,0.5-0.4,0.8-0.3
			c0.2,0.1,0.4,0.2,0.5,0.4l4.3,4.3C86.2,426.8,86.3,427,86.4,427.2z"/>
	</g>
	<g id="Gorilaa_Glass-2">
		<path class="st18" d="M88.3,519.3c0.8-1.3,1.6-2.4,2.4-3.6l5.2-7.9c0-0.1,0.1-0.2,0.2-0.2c0.2-0.3,0.6-0.4,0.9-0.2
			c0.3,0.2,0.4,0.5,0.2,0.8l0,0c-0.1,0.1-0.2,0.3-0.2,0.4l-7.8,11.7c-0.5,0.8-0.8,0.8-1.5,0.1l-5.2-5.2c-0.3-0.2-0.4-0.6-0.2-0.9
			c0.1-0.3,0.5-0.4,0.8-0.3c0.2,0.1,0.4,0.2,0.5,0.4c1.4,1.4,2.9,2.9,4.3,4.3C88,519,88.1,519.2,88.3,519.3z"/>
	</g>
</g>
<g id="chipset">
	<g id="qualcomm">
		<path class="st24" d="M129.8,115.4c-1,0.1-2,0.2-3,0.1c-9.2-0.1-17.5-5.3-21.6-13.5c-0.8-1.6-1.4-3.3-1.9-5.1v-0.2
			c0.2,0.2,0.4,0.4,0.6,0.5c1.9,1.5,4,2.7,6.2,3.6c1.7,0.7,3.5,1.3,5.2,2.1c1.3,0.6,2.5,1.3,3.5,2.2c1.2,1.1,1.9,2.7,1.9,4.3
			c0,1.1-0.2,2.2-0.6,3.3c-0.1,0.1-0.1,0.3-0.1,0.4s0,0.2,0.1,0.2s0.2,0,0.2-0.1s0.1-0.2,0.2-0.2c0.9-1.3,1.5-2.8,1.8-4.4
			c0.4-1.8,0.2-3.7-0.4-5.5c-0.5-1.3-1.3-2.5-2.3-3.5c-1.5-1.4-3.1-2.7-4.8-3.8c-1.9-1.2-3.8-2.4-5.5-3.7c-1.3-1-2.5-2.1-3.4-3.5
			c-1.2-1.9-1.7-4.1-1.2-6.3c0.5-2.1,1.3-4.1,2.6-5.9c1.7-2.3,3.7-4.4,6.1-6c0.1,0,0.1-0.1,0.2-0.1c0,0.1,0,0.2-0.1,0.3
			c-0.6,1.4-0.9,3-1,4.5v0.6c0,0.2,0.1,0.3,0.3,0.4s0.2-0.2,0.3-0.3c1.5-3.3,4.1-6.1,7.3-7.8c1.2-0.6,2.4-1.1,3.7-1.4
			c0.1,0,0.1,0,0.1,0.1s-0.2,0.2-0.3,0.2c-1,0.6-1.8,1.4-2.2,2.5c-0.4,0.9-0.6,1.9-0.7,2.9c0,0.4-0.1,0.8-0.1,1.2
			c0,0.9,0.1,1.8,0.4,2.7c0.5,1.8,1.5,3.5,2.7,5c0.9,1.1,2,2,3,3l4.1,3.5c1,0.9,2,1.8,2.9,2.8c1.1,1.2,2.1,2.5,2.9,3.9
			c0.8,1.5,1.3,3.2,1.6,4.9c0.1,0.9,0.2,1.8,0.1,2.7c-0.1,2.4-0.7,4.8-1.8,6.9c-0.8,1.6-1.9,3-3.3,4.1c-0.8,0.7-1.7,1.3-2.6,1.9
			C130.6,115.1,130.2,115.3,129.8,115.4z"/>
		<path class="st0" d="M129.8,115.4c6.7-3.2,10.1-10.7,8.3-17.9c-0.6-2.2-1.7-4.2-3.2-5.9c-1.3-1.5-2.8-2.9-4.4-4.2
			c-1.7-1.4-3.4-2.8-5-4.3c-1.7-1.5-3-3.3-3.9-5.3c-0.6-1.3-0.9-2.7-0.8-4.2c0-1.3,0.2-2.6,0.7-3.8c0.5-1.2,1.4-2.2,2.6-2.8
			c0-0.1,0.1,0,0.2-0.1c1.1-0.4,2.3-0.5,3.5-0.5c1.5,0.1,3.1,0.3,4.6,0.6c1.8,0.4,3.5,1,5.1,1.8c2,1,3.9,2.1,5.6,3.5
			c0.7,0.6,1.4,1.2,2.1,1.9c1.5,1.5,2.8,3.2,3.8,5.1c0.7,1.3,1.3,2.7,1.8,4.2c0.4,1.4,0.8,2.8,1,4.2c0.1,0.8,0.2,1.6,0.2,2.4v1
			c-0.1,1.7-0.3,3.5-0.6,5.2c-0.5,2.1-1.2,4.1-2.2,6c-0.7,1.4-1.6,2.7-2.6,3.9c-0.6,0.8-1.3,1.6-2.1,2.3c-1.3,1.3-2.8,2.4-4.4,3.4
			c-1.1,0.6-2.2,1.2-3.3,1.7c-1,0.5-2.1,0.9-3.2,1.2c-1.1,0.4-2.3,0.6-3.5,0.6C130.1,115.5,130,115.5,129.8,115.4
			C129.9,115.4,129.8,115.4,129.8,115.4z"/>
		<path class="st24" d="M132.8,119.8v-1.2c-0.1-0.4-0.5-0.7-0.9-0.7c-0.3,0.1-0.6,0.3-0.7,0.7c0,0.1,0,0.2-0.1,0.3
			c-0.1,0-0.2-0.1-0.2-0.2c-1.4-1.2-3.5-1.1-4.7,0.3c-0.3,0.4-0.5,0.8-0.7,1.2c-0.6,1.7,0.3,3.5,1.9,4.1c1.2,0.4,2.6,0.1,3.5-0.8
			l0.2-0.2c0.1,0.2,0.1,0.5,0,0.7c0,0.9-0.6,1.7-1.5,1.8c-0.5,0.1-1.1,0.1-1.6,0c-0.4-0.1-0.8-0.2-1.2-0.4c-0.3-0.2-0.7-0.1-1,0.2
			v0.1c-0.2,0.4,0,0.7,0.4,0.9c0,0,0.1,0,0.1,0.1c1.2,0.5,2.4,0.7,3.7,0.5c1.5-0.1,2.8-1.4,2.8-2.9
			C132.9,122.6,132.8,121.2,132.8,119.8z M129,123c-1,0.1-1.9-0.7-2-1.7c0-0.1,0-0.1,0-0.2c0-1.1,0.9-1.9,1.9-1.9c0,0,0,0,0.1,0
			c1.1-0.1,2,0.8,2.1,1.9l0,0c0,1.1-0.9,1.9-2,1.9C129.1,123,129,123,129,123z"/>
		<path class="st24" d="M111.6,115.9c-0.1-0.5-0.5-0.8-0.9-0.7c0,0,0,0-0.1,0c-0.4,0.1-0.7,0.4-0.7,0.8v2.9
			c-0.3-0.3-0.5-0.6-0.8-0.7c-1.5-0.9-3.5-0.4-4.4,1.2c0,0,0,0.1-0.1,0.1c-0.4,0.8-0.6,1.8-0.4,2.7c0.1,1.3,1,2.3,2.2,2.7
			c1.1,0.5,2.5,0.2,3.3-0.7c0.1-0.1,0.2-0.2,0.3-0.2v0.3c0,0.4,0.3,0.7,0.8,0.8c0.4,0,0.8-0.3,0.9-0.7v-8
			C111.7,116.2,111.6,116.1,111.6,115.9z M109.1,123.2c-0.9,0.7-2.1,0.6-2.8-0.3l-0.1-0.1c-0.6-0.8-0.6-1.9,0-2.7
			c0.3-0.7,1.1-1,1.8-0.9c0.8,0,1.5,0.5,1.8,1.3c0.1,0.3,0.2,0.6,0.2,0.9C110,122.1,109.7,122.7,109.1,123.2z"/>
		<path class="st24" d="M97.5,118.7l-0.3,0.3v-0.3c0-0.5-0.4-0.9-0.9-0.9l0,0c-0.5,0-0.8,0.3-0.8,0.9v7.5c0,0.5,0.3,0.9,0.7,0.9
			c0,0,0,0,0.1,0c0.5,0,0.8-0.3,0.8-0.9v-2.3l0,0c1,1.2,2.8,1.5,4.1,0.6c1-0.6,1.6-1.7,1.6-2.9c0.2-1.1-0.2-2.3-1.1-3
			C100.5,117.5,98.7,117.5,97.5,118.7z M101.1,122.6c-0.3,0.7-1,1.1-1.8,1.1c-1.2,0-2.1-1-2.1-2.2c0-0.1,0-0.2,0-0.3
			c0.1-0.5,0.3-1,0.7-1.4c0.8-0.7,2.1-0.7,2.8,0.1c0.1,0.1,0.2,0.2,0.3,0.4C101.5,121,101.6,121.9,101.1,122.6z"/>
		<path class="st24" d="M137.9,117.8c-2-0.2-3.7,1.3-3.9,3.3s1.3,3.7,3.3,3.9c0.2,0,0.4,0,0.5,0c2.1,0.1,3.8-1.5,3.9-3.6v-0.1
			C141.6,119.3,140,117.7,137.9,117.8z M140,121.6c-0.1,0.9-0.7,1.7-1.5,2c-1.2,0.3-2.4-0.4-2.7-1.6s0.4-2.4,1.6-2.7
			c0.2,0,0.3-0.1,0.5-0.1c1.1,0,2.1,0.9,2.1,2.1C140,121.4,140,121.5,140,121.6L140,121.6z"/>
		<path class="st24" d="M92.2,118.1c-0.4-0.2-0.9-0.3-1.4-0.2c-0.8,0-1.6,0.1-2.4,0.4c-0.4,0.1-0.5,0.5-0.4,0.9
			c0.1,0.3,0.5,0.5,0.8,0.4c0.2-0.1,0.5-0.1,0.7-0.1c0.5-0.1,1-0.2,1.5-0.1c0.7,0.1,1.2,0.6,1.2,1.3c0,0.4,0,0.4-0.3,0.3
			c-1-0.3-2.2-0.3-3.2,0.1c-0.8,0.2-1.3,0.9-1.4,1.7c-0.1,0.8,0.2,1.5,0.9,1.9c1.1,0.7,2.5,0.6,3.6-0.1c0.1-0.1,0.2-0.2,0.4-0.3v0.1
			c0,0.5,0.3,0.8,0.9,0.7c0.4,0,0.8-0.3,0.8-0.7v-0.1v-3.7C94.1,119.5,93.3,118.4,92.2,118.1z M90.5,123.9c-0.2,0-0.5,0-0.7-0.1
			c-0.4-0.1-0.7-0.5-0.7-0.9s0.3-0.8,0.7-1c0.5-0.2,1-0.2,1.5-0.1c0.3,0,0.6,0.1,0.8,0.1c0.1,0,0.3,0.1,0.3,0.2c0,0,0,0,0,0.1
			C92.4,123.2,91.5,123.9,90.5,123.9L90.5,123.9z"/>
		<path class="st24" d="M122.7,118.2c-1.3-0.5-2.8-0.5-4.1,0.1c-0.3,0.1-0.4,0.6-0.3,0.9s0.5,0.4,0.8,0.4c0.1,0,0.2-0.1,0.3-0.1
			c0.6-0.2,1.2-0.3,1.8-0.2c0.7,0,1.3,0.6,1.3,1.3c0,0.4,0,0.4-0.3,0.3c-1-0.2-2.1-0.2-3.1,0c-0.9,0.2-1.5,1-1.5,1.9
			c-0.1,0.9,0.4,1.7,1.3,2c1,0.4,2.2,0.3,3.1-0.4c0.1-0.1,0.3-0.2,0.4-0.3c0,0.1,0.1,0.2,0.1,0.3c0.1,0.2,0.3,0.4,0.5,0.5
			c0.6,0.1,1.1-0.2,1.1-0.8v-3.9C124.1,119.3,123.6,118.5,122.7,118.2z M122.5,122.5c-0.1,0.9-0.9,1.5-1.8,1.4c-0.2,0-0.5,0-0.7-0.1
			c-0.6,0-1-0.4-1-1s0.4-1,1-1c0.7-0.1,1.3-0.1,2,0C122.6,121.9,122.6,122,122.5,122.5z"/>
		<path class="st24" d="M84.8,118c-1.2-0.4-2.5,0-3.4,0.9v-0.1c0-0.5-0.3-0.9-0.8-0.9h-0.1c-0.5,0-0.8,0.4-0.8,0.8c0,0,0,0,0,0.1
			v5.4c-0.1,0.4,0.2,0.8,0.6,0.8c0.1,0,0.2,0,0.3,0c0.4,0,0.7-0.4,0.7-0.9l0,0v-3c0-0.3,0-0.6,0.1-0.9c0.2-0.6,0.8-1,1.5-0.9
			c0.7-0.1,1.3,0.4,1.4,1.1c0.1,0.2,0.1,0.5,0.1,0.7v3.1c0,0.3,0.2,0.7,0.5,0.8c0.4,0.2,0.8,0,1-0.4c0.1-0.1,0.1-0.3,0.1-0.4v-3.9
			C86.3,119.3,85.8,118.4,84.8,118z"/>
		<path class="st24" d="M149.3,119.5c-0.5-2-3.1-2.1-4.2-1.2c-0.2,0.1-0.3,0.3-0.5,0.4c0-0.4-0.2-0.7-0.5-0.9
			c-0.4-0.2-0.9-0.1-1.1,0.3c-0.1,0.1-0.1,0.3-0.1,0.5v5.4c0,0.5,0.3,0.8,0.6,0.8c0.4,0.1,0.9-0.2,1-0.6c0-0.1,0-0.1,0-0.2v-3.1
			c0-0.2,0-0.5,0.1-0.7c0.2-0.7,0.8-1.1,1.5-1.1c0.6-0.1,1.2,0.3,1.4,0.9c0.1,0.3,0.1,0.6,0.1,0.9v3c0,0.1,0,0.3,0.1,0.4
			c0.1,0.4,0.5,0.6,0.9,0.5l0,0c0.4-0.1,0.6-0.3,0.6-0.7v-4.3C149.3,119.8,149.3,119.7,149.3,119.5z"/>
		<path class="st24" d="M76.8,121c-0.6-0.2-1.2-0.4-1.8-0.7c-0.2-0.1-0.4-0.3-0.3-0.5s0.2-0.4,0.4-0.5c0.3-0.1,0.7-0.1,1,0
			c0.4,0.1,0.9,0.3,1.3,0.4c0.4,0.2,0.8,0,1-0.3c0.2-0.4,0-0.7-0.4-0.9c-0.5-0.2-1-0.4-1.5-0.5c-0.8-0.2-1.6,0-2.3,0.4
			c-0.7,0.4-1,1.1-1,1.9c0,0.7,0.5,1.3,1.1,1.5c0.1,0.1,0.3,0.1,0.5,0.2l1.8,0.6c0.4,0.1,0.5,0.3,0.5,0.6s-0.2,0.5-0.6,0.6
			c-0.5,0.1-1,0.1-1.5-0.1c-0.4-0.1-0.8-0.3-1.1-0.5c-0.2-0.2-0.6-0.2-0.8,0c-0.4,0.3-0.3,0.8,0.2,1.1c0.8,0.5,1.7,0.8,2.6,0.8h0.6
			c1,0,1.9-0.7,2.1-1.7c0.2-0.6,0-1.4-0.5-1.8C77.7,121.3,77.3,121.1,76.8,121z"/>
		<path class="st24" d="M116.4,117.9c-0.4,0.1-0.8,0.4-1,0.7c-0.2,0.2-0.3,0.4-0.5,0.6v-0.8c-0.1-0.4-0.5-0.6-0.9-0.6
			s-0.7,0.4-0.7,0.8v5.6c0,0.4,0.3,0.8,0.8,0.8l0,0c0.4,0,0.8-0.4,0.8-0.8c0,0,0,0,0-0.1V122c0-0.3,0-0.6,0.1-0.9
			c0.2-0.9,0.9-1.5,1.8-1.6c0.4,0,0.8-0.4,0.7-0.8c0-0.1,0-0.1,0-0.2C117.4,118,117,117.8,116.4,117.9
			C116.5,117.9,116.5,117.9,116.4,117.9z"/>
		<path class="st25" d="M78.1,115.9c0.3-0.1,0.6-0.3,0.9,0.1l0,0c0.2,0.1,0.4,0.1,0.5-0.1c0.1-0.1,0.2-0.3,0-0.5l0,0l-0.2-0.2
			c-0.1-0.1-0.1-0.1,0-0.2c0.2-0.4,0.4-0.8,0.4-1.3c0-0.2,0-0.3-0.1-0.5c-0.1-1-1-1.8-2.1-1.8c-1.3-0.2-2.5,0.7-2.7,2s0.7,2.5,2,2.7
			C77.2,116.1,77.7,116.1,78.1,115.9z M76.8,112.2c0.6-0.2,1.2,0,1.6,0.5s0.5,1.1,0.2,1.7c-0.1,0.1-0.1,0.1-0.2,0L78,114
			c-0.1-0.2-0.4-0.2-0.5-0.1l-0.1,0.1c-0.2,0.2-0.1,0.4,0.1,0.6s0.2,0.1,0.2,0.2s0.2,0.1,0.3,0.2c-0.8,0.4-1.7,0.1-2.1-0.6
			c-0.1-0.1-0.1-0.3-0.2-0.4C75.5,113.2,76,112.4,76.8,112.2z"/>
		<path class="st25" d="M105.5,113.3c0.4,0,0.6,0.3,0.6,0.7v1.5c0,0.1,0,0.2,0.1,0.3c0.1,0.2,0.2,0.2,0.4,0.2c0.1,0,0.3-0.1,0.3-0.2
			c0,0,0,0,0-0.1v-1.8c0-0.4,0.3-0.7,0.7-0.7c0.2,0,0.3,0,0.4,0.1c0.3,0.2,0.3,0.5,0.4,0.8v1.5c0,0.3,0.1,0.4,0.4,0.4
			s0.4-0.1,0.4-0.4v-2.2c0-0.4-0.3-0.7-0.7-0.8c-0.6-0.2-1.3-0.1-1.7,0.4c-0.5-0.6-1.3-0.7-1.9-0.3c-0.1,0-0.1,0.1-0.2,0.2
			c0-0.1,0-0.1-0.1-0.2c-0.1-0.2-0.3-0.2-0.5-0.2s-0.3,0.1-0.3,0.3v2.8c0,0.1,0.1,0.3,0.2,0.3h0.1c0.3,0,0.5-0.1,0.5-0.4V114
			c0-0.1,0-0.3,0.1-0.4C104.9,113.3,105.2,113.2,105.5,113.3z"/>
		<path class="st25" d="M98.1,116c0.3,0,0.4-0.1,0.4-0.4V114c0-0.4,0.3-0.7,0.7-0.7l0,0c0.4,0,0.6,0.2,0.7,0.7v1.7
			c0,0.3,0.2,0.4,0.5,0.4s0.3-0.2,0.3-0.4v-1.6c0-0.2,0.1-0.4,0.2-0.6c0.2-0.2,0.5-0.2,0.8-0.1s0.4,0.4,0.4,0.7v1.6
			c0,0.2,0.1,0.4,0.3,0.4c0,0,0,0,0.1,0c0.3,0,0.4-0.1,0.4-0.4v-2c0-0.5-0.3-0.9-0.8-1s-1,0-1.4,0.3c-0.1,0.1-0.2,0.1-0.2,0.1
			s0,0-0.1-0.1c-0.4-0.4-0.9-0.5-1.4-0.2c-0.2,0.1-0.3,0.2-0.5,0.3c0,0,0-0.1-0.1-0.1c-0.1-0.2-0.3-0.3-0.5-0.3s-0.3,0.2-0.3,0.4
			v2.7C97.8,115.9,98,116,98.1,116z"/>
		<path class="st25" d="M95.1,112.5c-1,0-1.8,0.8-1.8,1.8l0,0c0,1,0.8,1.7,1.8,1.7h0.1c1,0,1.9-0.7,1.9-1.7c0,0,0,0,0-0.1
			C97,113.2,96.1,112.5,95.1,112.5z M95.1,115.4c-0.6,0-1.1-0.5-1.1-1.1c-0.1-0.5,0.3-1,0.9-1.1H95c0.6,0,1.1,0.5,1.1,1.1
			C96.2,114.8,95.8,115.3,95.1,115.4C95.2,115.4,95.2,115.4,95.1,115.4z"/>
		<path class="st25" d="M86.3,114c-0.4-0.1-0.8-0.1-1.2,0c-0.5,0.1-0.8,0.4-0.9,0.9c0,0.7,0.2,1,0.8,1.2c0.5,0.1,0.9,0,1.3-0.3
			c0.1,0,0.1-0.2,0.2,0s0.2,0.3,0.5,0.2s0.3-0.2,0.3-0.4v-0.9l0,0v-1c0-0.4-0.2-0.7-0.6-0.9c-0.7-0.2-1.4-0.2-2.1,0
			c-0.2,0.1-0.2,0.2-0.2,0.4s0.2,0.2,0.3,0.2h0.2c0.3-0.1,0.5-0.1,0.8-0.1s0.6,0.3,0.7,0.6C86.5,114,86.5,114,86.3,114z M86.6,114.7
			c0,0.4-0.4,0.7-1,0.8c-0.2,0-0.4-0.1-0.6-0.3c-0.2-0.2-0.1-0.5,0.2-0.7c0.4-0.1,0.8-0.1,1.2,0C86.5,114.5,86.6,114.6,86.6,114.7
			L86.6,114.7z"/>
		<path class="st25" d="M82.7,115.5c0,0.2,0.1,0.4,0.3,0.5c0.2,0.1,0.5,0,0.6-0.2v-0.1v-2.5c0-0.2-0.1-0.5-0.4-0.5l0,0
			c-0.3,0-0.4,0.1-0.4,0.5v1.6c0,0.4-0.3,0.7-0.7,0.7l0,0c-0.3,0-0.7-0.2-0.7-0.6v-0.1V113c0-0.3-0.2-0.4-0.5-0.4s-0.3,0.2-0.3,0.4
			v2c0,0.6,0.5,1.1,1.1,1.1C82,116.1,82.3,115.9,82.7,115.5z"/>
		<path class="st25" d="M91.4,116.1h0.3c0.4,0,0.7-0.2,1-0.5c0.1-0.1,0.2-0.3,0-0.5l0,0c-0.1-0.2-0.3-0.1-0.4-0.1s-0.2,0.1-0.3,0.2
			c-0.5,0.3-1.2,0.2-1.5-0.3c-0.1-0.1-0.1-0.2-0.1-0.4c-0.1-0.5,0.2-1.1,0.7-1.2c0.1,0,0.3,0,0.5,0s0.4,0.2,0.6,0.3s0.4,0.1,0.5-0.1
			c0.1-0.1,0.1-0.3,0-0.4c0,0-0.1-0.1-0.2-0.1c-0.2-0.1-0.3-0.2-0.5-0.2c-1-0.4-2,0.1-2.4,1.1c-0.1,0.1-0.1,0.3-0.1,0.4
			C89.6,115.3,90.4,116,91.4,116.1z"/>
		<path class="st25" d="M89,111.6c0-0.2-0.2-0.3-0.4-0.3c-0.2,0-0.4,0.1-0.4,0.3c0,0,0,0,0,0.1v3.8c0,0.3,0.1,0.4,0.4,0.4
			s0.4-0.1,0.4-0.4V111.6z"/>
	</g>
</g>
<g>
	<path class="st15" d="M267.9,418h-6c-0.3,1-0.7,2.3-0.9,3c0.7-0.5,1.5-0.7,2.6-0.7c2.6,0,4.2,1.9,4.2,4.4c0,3.5-2.2,6.3-6.3,6.3
		c-3.2,0-5.1-1.7-5.2-4.6h3.2c0.1,1.1,0.7,2,2.2,2c1.7,0,2.8-1.4,2.8-3.2c0-1.4-0.6-2.3-2.1-2.3c-1.3,0-2,0.6-2.5,1.5l-2.6-0.6
		c0.7-2.1,1.9-6.4,2.5-8.5h9.2L267.9,418L267.9,418z M278.6,430.5h-2.3l0.1-1.1c-0.7,1-1.7,1.6-3.1,1.6c-3.2,0-5-2.1-5-4.6
		c0-3.2,2.6-7.5,6.7-7.5c2.6,0,4.6,1.4,4.6,4.3h-3.3c0-0.3,0-1.6-1.2-1.6c-2.4,0-3.4,1.8-3.4,3.9s1.6,2.5,2.1,2.5
		c1.5,0,2.1-0.7,2.2-1.3h0.5h-2.4l0.8-2.4h4.7L278.6,430.5L278.6,430.5z"/>
</g>
<path class="st26" d="M280.9,418.7l2-1.3c0,0-5.1-5.8-12.6,1.3C273.5,415.9,279.4,416.3,280.9,418.7z"/>
<path class="st26" d="M284.3,416.7l3-2.1c0,0-8-6.5-16.2,2.3C275.6,412.8,280.5,413.9,284.3,416.7L284.3,416.7z"/>
<path class="st26" d="M288.8,414l4.7-2.9c0,0-10.9-8.8-21.9,4.5C275.7,410.5,283.5,409.7,288.8,414L288.8,414z"/>
<polygon class="st27" points="152.1,156.8 152.1,157.6 148.9,157.6 148.9,160.9 148,160.9 148,157.6 144.8,157.6 144.8,156.8 
	148,156.8 148,153.5 148.9,153.5 148.9,156.8 "/>
<g>
	<path class="st3" d="M185.8,99.9c0,0.2,0,0.4-0.1,0.5c-0.1,0.2-0.2,0.3-0.4,0.4s-0.4,0.2-0.6,0.3c-0.2,0.1-0.5,0.1-0.9,0.1h-0.3
		c-0.1,0-0.2,0-0.3,0s-0.3,0-0.5-0.1c0.2-0.2,0.3-0.3,0.5-0.5c0.1-0.2,0.3-0.4,0.4-0.6c0.1-0.2,0.2-0.4,0.2-0.6s0.1-0.4,0.1-0.6
		v-0.1c0-0.1,0-0.2,0-0.4c0-0.2-0.1-0.3-0.2-0.5c0.3,0.1,0.6,0.3,0.9,0.5c0.3,0.2,0.5,0.4,0.7,0.5c0.2,0.2,0.3,0.4,0.4,0.6
		C185.7,99.6,185.8,99.7,185.8,99.9z"/>
	<path class="st3" d="M194.6,97.1c0.8-0.3,1.4-0.8,1.4-1.6c0-0.7-0.4-1.5-1.5-1.5c-1,0-1.6,0.7-1.6,1.4
		C192.9,96.4,193.6,96.8,194.6,97.1z"/>
	<path class="st3" d="M182.8,98.8c0,0.2,0,0.4-0.1,0.6c0,0.2-0.1,0.4-0.2,0.6c-0.1,0.2-0.2,0.3-0.4,0.5c-0.2,0.1-0.4,0.3-0.6,0.4
		c-0.2-0.1-0.3-0.2-0.4-0.3c-0.1-0.1-0.3-0.2-0.4-0.4c-0.1-0.1-0.2-0.3-0.3-0.4s-0.1-0.3-0.2-0.5c0-0.2,0-0.4,0-0.6
		c0.1-0.2,0.2-0.4,0.3-0.5c0.2-0.2,0.3-0.3,0.5-0.4s0.4-0.2,0.7-0.2h0.1h0.1l0,0c0.1,0,0.2,0.1,0.3,0.1c0.1,0.1,0.2,0.2,0.3,0.3
		c0.1,0.1,0.1,0.3,0.2,0.4C182.8,98.5,182.8,98.6,182.8,98.8z"/>
	<path class="st3" d="M194.3,98c-1,0.3-1.6,1-1.6,1.8c0,0.9,0.6,1.7,1.8,1.7c1.1,0,1.8-0.7,1.8-1.6C196.2,98.8,195.5,98.3,194.3,98z
		"/>
	<path class="st3" d="M159.7,100.3c-0.1,0-0.3,0-0.5,0.1c-0.2,0-0.4,0-0.6,0c-0.2,0-0.3,0-0.5,0s-0.3-0.1-0.5-0.1
		c-0.1-0.1-0.2-0.1-0.3-0.2s-0.1-0.2-0.1-0.4s0-0.3,0.1-0.4s0.2-0.3,0.3-0.4s0.2-0.2,0.4-0.3c0.1-0.1,0.3-0.2,0.4-0.3
		c0.1-0.1,0.3-0.2,0.4-0.2c0.1-0.1,0.3-0.1,0.4-0.1l0.2-0.1c0.1,0.5,0.1,1,0.2,1.4C159.6,99.7,159.7,100,159.7,100.3z"/>
	<path class="st3" d="M224.2,96.3c-1.2,0-1.8,1.1-1.9,2h3.5C225.9,97.5,225.5,96.3,224.2,96.3z"/>
	<path class="st3" d="M212.5,96.4c-1.4,0-2,1.3-2,2.6c0,1.5,0.8,2.6,2,2.6s2-1.1,2-2.6C214.5,97.8,213.9,96.4,212.5,96.4z"/>
	
		<rect x="162.9" y="95.5" transform="matrix(0.7071 -0.7071 0.7071 0.7071 -20.0628 143.7539)" class="st15" width="1.2" height="1.2"/>
	
		<rect x="165" y="95.5" transform="matrix(0.7095 -0.7048 0.7048 0.7095 -19.6116 144.6335)" class="st15" width="1.2" height="1.2"/>
	<path class="st19" d="M186.1,98.5c-0.1-0.2-0.3-0.3-0.5-0.5s-0.5-0.3-0.8-0.5s-0.6-0.3-1-0.5s-0.7-0.3-1.1-0.5
		c-0.2-0.1-0.3-0.1-0.5-0.2s-0.3-0.1-0.5-0.2c-0.1-0.1-0.3-0.1-0.5-0.2s-0.3-0.1-0.5-0.2l-0.5,0.9l0.6,0.2c-0.3,0.1-0.5,0.2-0.7,0.4
		c-0.2,0.2-0.4,0.4-0.5,0.6s-0.2,0.4-0.3,0.7c-0.1,0.2-0.1,0.4-0.1,0.7c0,0.3,0.1,0.6,0.3,1c0.2,0.3,0.4,0.7,0.8,1
		c-0.1,0-0.3,0-0.4,0c-0.1,0-0.3,0-0.5,0s-0.4,0-0.6,0c-0.2,0-0.5,0-0.7,0H178c-0.3,0-0.6-0.1-0.8-0.4s-0.4-0.6-0.6-1.2
		c-0.1-0.3-0.2-0.7-0.2-0.9c0-0.3-0.1-0.5-0.1-0.8l-1,0.1c0,0.1,0,0.2,0,0.3s0,0.2,0,0.3v0.2c0,0.1,0,0.2,0,0.2
		c0,0.4-0.1,0.8-0.2,1.1c-0.1,0.3-0.2,0.5-0.3,0.7c-0.2,0.2-0.4,0.3-0.6,0.3c-0.2,0-0.3,0-0.4-0.1c-0.1,0-0.2-0.1-0.2-0.2
		c-0.1-0.1-0.2-0.3-0.2-0.5s-0.1-0.5-0.1-0.8v-0.3c0-0.2,0-0.3,0-0.5s0-0.4,0.1-0.6l-0.9-0.2c0,0.2-0.1,0.4-0.1,0.6
		s-0.1,0.4-0.2,0.6c-0.1,0.4-0.3,0.8-0.5,1.1c-0.2,0.3-0.4,0.5-0.6,0.7c-0.1,0.1-0.2,0.1-0.3,0.1s-0.2,0-0.3,0
		c-0.2,0-0.3-0.1-0.4-0.2c-0.1-0.1-0.1-0.2-0.1-0.4c0-0.1,0-0.3-0.1-0.4c0-0.1,0-0.3,0-0.4s0-0.3,0-0.4c0-0.2,0.1-0.4,0.1-0.6
		s0.1-0.3,0.1-0.4l0,0c-0.2,0-0.3-0.1-0.5-0.1s-0.3-0.1-0.5-0.1l0,0c0,0.1,0,0.2-0.1,0.3c0,0.1-0.1,0.2-0.1,0.4
		c-0.1,0.1-0.1,0.3-0.2,0.5c-0.1,0.2-0.1,0.3-0.2,0.5c-0.1,0.2-0.2,0.3-0.3,0.5s-0.3,0.3-0.4,0.5c-0.1,0.1-0.3,0.3-0.5,0.4
		s-0.3,0.1-0.5,0.1l0,0l0,0l0,0c-0.2,0-0.4,0-0.5-0.1s-0.2-0.2-0.3-0.3c-0.1-0.1-0.1-0.3-0.2-0.4c0-0.2-0.1-0.3-0.1-0.5s0-0.3,0-0.4
		s0-0.3,0-0.4s0-0.3-0.1-0.4c0-0.1-0.1-0.3-0.1-0.5c-0.2,0-0.3,0.1-0.4,0.1c-0.1,0-0.3,0.1-0.5,0.1c0,0.2,0.1,0.3,0.1,0.4
		s0,0.2,0.1,0.3c0,0.1,0,0.2,0,0.3c0,0.1,0,0.2,0,0.3c0,0.3-0.1,0.6-0.2,0.8c-0.1,0.2-0.3,0.3-0.6,0.4c-0.2,0.1-0.5,0.2-0.8,0.2
		s-0.7,0.1-1,0.1H162c-0.2,0-0.3,0-0.4,0c-0.1,0-0.2-0.1-0.3-0.1s-0.2-0.1-0.2-0.2c-0.1-0.1-0.1-0.2-0.2-0.3c0,0,0-0.1-0.1-0.2
		c0-0.1-0.1-0.2-0.1-0.4c0-0.2-0.1-0.4-0.1-0.8c-0.1-0.3-0.1-0.8-0.2-1.3c0,0,0-0.1,0-0.2s0-0.2,0-0.4c0-0.1,0-0.3-0.1-0.4
		c0-0.2,0-0.3,0-0.5c0-0.1,0-0.3,0-0.4s0-0.2,0-0.2l-0.9,0.2l0.1,0.9c-0.1,0-0.3,0.1-0.4,0.2c-0.1,0.1-0.3,0.1-0.5,0.2
		s-0.3,0.2-0.5,0.3c-0.2,0.1-0.4,0.3-0.5,0.4c-0.2,0.1-0.3,0.3-0.5,0.5s-0.3,0.4-0.4,0.6c0,0.1-0.1,0.2-0.1,0.3c0,0.1,0,0.2,0,0.4
		c0,0.1,0,0.3,0.1,0.4c0,0.2,0.1,0.3,0.2,0.4c0.4,0.5,1.1,0.7,2.1,0.7c0.4,0,0.8,0,1.4-0.1c0.2,0.4,0.5,0.6,0.8,0.8
		c0.2,0.1,0.4,0.2,0.6,0.2c0.2,0,0.4,0,0.5,0l0,0h0.5c0.3,0,0.6,0,0.9,0c0.3,0,0.6-0.1,0.8-0.2c0.3-0.1,0.5-0.2,0.8-0.3
		c0.2-0.1,0.4-0.2,0.6-0.4c0.1,0.1,0.2,0.2,0.3,0.3c0.1,0.1,0.2,0.2,0.4,0.3c0.1,0.1,0.3,0.1,0.4,0.2c0.2,0,0.3,0.1,0.5,0.1l0,0l0,0
		l0,0c0.6,0,1.1-0.2,1.5-0.7c0.1-0.1,0.3-0.3,0.5-0.6c0.1,0.2,0.2,0.4,0.3,0.5c0.1,0.2,0.2,0.3,0.3,0.4s0.3,0.2,0.4,0.3
		c0.2,0.1,0.3,0.1,0.6,0.1c0.2,0,0.4,0,0.5-0.1c0.2-0.1,0.3-0.2,0.5-0.3c0.3-0.2,0.5-0.5,0.8-1c0.1,0.2,0.1,0.3,0.2,0.4
		c0.1,0.1,0.1,0.2,0.2,0.3c0.2,0.2,0.3,0.4,0.6,0.5c0.2,0.1,0.5,0.2,0.8,0.2s0.5,0,0.7-0.2c0.2-0.1,0.4-0.2,0.6-0.4
		c0.1-0.1,0.2-0.2,0.2-0.3c0.1-0.1,0.2-0.3,0.2-0.5c0.1,0.1,0.2,0.3,0.2,0.4c0.1,0.1,0.1,0.2,0.2,0.3c0.2,0.3,0.5,0.4,0.7,0.6
		c0.3,0.1,0.5,0.2,0.9,0.2h0.1c0.3,0,0.6,0,0.9,0c0.3,0,0.6,0,0.9-0.1c0.3,0,0.6-0.1,0.8-0.1c0.3,0,0.5-0.1,0.7-0.2
		c0.3,0.1,0.7,0.2,1,0.3c0.3,0,0.7,0.1,1,0.1c0.1,0,0.3,0,0.5,0s0.3,0,0.5-0.1c0.2,0,0.3-0.1,0.5-0.1s0.3-0.1,0.4-0.2
		c0.4-0.2,0.7-0.5,0.9-0.8s0.3-0.7,0.3-1C186.6,99.5,186.5,99,186.1,98.5z M159.2,100.3c-0.2,0-0.4,0-0.6,0c-0.2,0-0.3,0-0.5,0
		s-0.3-0.1-0.5-0.1c-0.1-0.1-0.2-0.1-0.3-0.2s-0.1-0.2-0.1-0.4s0-0.3,0.1-0.4s0.2-0.3,0.3-0.4s0.2-0.2,0.4-0.3
		c0.1-0.1,0.3-0.2,0.4-0.3c0.1-0.1,0.3-0.2,0.4-0.2c0.1-0.1,0.3-0.1,0.4-0.1l0.2-0.1c0.1,0.5,0.1,1,0.2,1.4c0,0.4,0.1,0.7,0.2,1
		C159.6,100.3,159.4,100.3,159.2,100.3z M182.5,99.9c-0.1,0.2-0.2,0.3-0.4,0.5c-0.2,0.1-0.4,0.3-0.6,0.4c-0.2-0.1-0.3-0.2-0.4-0.3
		c-0.1-0.1-0.3-0.2-0.4-0.4c-0.1-0.1-0.2-0.3-0.3-0.4s-0.1-0.3-0.2-0.5c0-0.2,0-0.4,0-0.6c0.1-0.2,0.2-0.4,0.3-0.5
		c0.2-0.2,0.3-0.3,0.5-0.4s0.4-0.2,0.7-0.2h0.1h0.1l0,0c0.1,0,0.2,0.1,0.3,0.1c0.1,0.1,0.2,0.2,0.3,0.3c0.1,0.1,0.1,0.3,0.2,0.4
		c0,0.1,0.1,0.3,0.1,0.5s0,0.4-0.1,0.6C182.7,99.5,182.6,99.7,182.5,99.9z M185.6,100.4c-0.1,0.2-0.2,0.3-0.4,0.4s-0.4,0.2-0.6,0.3
		c-0.2,0.1-0.5,0.1-0.9,0.1h-0.3c-0.1,0-0.2,0-0.3,0s-0.3,0-0.5-0.1c0.2-0.2,0.3-0.3,0.5-0.5c0.1-0.2,0.3-0.4,0.4-0.6
		c0.1-0.2,0.2-0.4,0.2-0.6s0.1-0.4,0.1-0.6v-0.1c0-0.1,0-0.2,0-0.4c0-0.2-0.1-0.3-0.2-0.5c0.3,0.1,0.6,0.3,0.9,0.5
		c0.3,0.2,0.5,0.4,0.7,0.5c0.2,0.2,0.3,0.4,0.4,0.6c0.1,0.2,0.1,0.4,0.1,0.5C185.8,100.1,185.7,100.3,185.6,100.4z"/>
	<path class="st28" d="M195.7,97.5L195.7,97.5c1.1-0.6,1.5-1.4,1.5-2.1c0-1.1-0.9-2.2-2.6-2.2c-1.6,0-2.8,1-2.8,2.4
		c0,0.8,0.4,1.5,1.4,2l0,0c-1.1,0.5-1.8,1.3-1.8,2.4c0,1.3,1.1,2.4,3,2.4c1.7,0,3-1,3-2.6C197.5,98.7,196.8,97.9,195.7,97.5z
		 M192.9,95.5c0-0.8,0.5-1.4,1.6-1.4s1.5,0.7,1.5,1.5s-0.6,1.4-1.4,1.6C193.6,96.8,192.9,96.4,192.9,95.5z M194.4,101.5
		c-1.1,0-1.8-0.8-1.8-1.7c0-0.9,0.6-1.5,1.6-1.8c1.2,0.3,2,0.9,2,2C196.2,100.8,195.5,101.5,194.4,101.5z"/>
	<path class="st15" d="M206.3,93.8c0.8,0,1.4,0.2,1.9,0.4l0.3-1c-0.3-0.2-1-0.4-2.2-0.4c-2.9,0-4.8,2-4.8,4.9c0,3,2,4.7,4.6,4.7
		c1.1,0,2-0.2,2.4-0.4l-0.2-0.9c-0.5,0.2-1.2,0.4-2,0.4c-2.3,0-3.6-1.5-3.6-3.7C202.6,95.2,204.1,93.8,206.3,93.8z"/>
	<path class="st15" d="M212.5,95.4c-1.8,0-3.3,1.3-3.3,3.5c0,2.1,1.4,3.4,3.2,3.4c1.6,0,3.3-1.1,3.3-3.5
		C215.7,96.8,214.4,95.4,212.5,95.4z M212.5,101.5c-1.2,0-2-1.1-2-2.6c0-1.3,0.6-2.6,2-2.6s2,1.4,2,2.6
		C214.5,100.4,213.6,101.5,212.5,101.5z"/>
	<path class="st15" d="M218.4,96.9L218.4,96.9l-0.1-1.3h-1.1c0,0.6,0.1,1.3,0.1,2.1v4.6h1.2v-3.5c0-0.2,0-0.4,0.1-0.6
		c0.2-0.9,0.8-1.6,1.6-1.6c0.2,0,0.3,0,0.4,0v-1.1c-0.1,0-0.2,0-0.3,0C219.4,95.4,218.7,96,218.4,96.9z"/>
	<path class="st15" d="M227,98.6c0-1.2-0.6-3.1-2.7-3.1c-1.9,0-3.1,1.6-3.1,3.6s1.2,3.4,3.3,3.4c1.1,0,1.8-0.2,2.2-0.4l-0.2-0.9
		c-0.5,0.2-1,0.3-1.8,0.3c-1.2,0-2.3-0.7-2.3-2.3h4.7C227,99,227,98.8,227,98.6z M222.3,98.3c0.1-0.8,0.6-2,1.9-2
		c1.4,0,1.7,1.2,1.7,2H222.3z"/>
</g>
<g>
	<path class="st15" d="M199.3,121c-0.5,0.2-1.6,0.5-2.8,0.5c-1.4,0-2.6-0.4-3.5-1.2c-0.8-0.8-1.3-2-1.3-3.5c0-2.8,1.9-4.8,5-4.8
		c1.1,0,1.9,0.2,2.3,0.4l-0.3,1c-0.5-0.2-1.1-0.4-2-0.4c-2.3,0-3.7,1.4-3.7,3.7c0,2.4,1.4,3.7,3.6,3.7c0.8,0,1.3-0.1,1.6-0.2v-2.8
		h-1.9v-1h3.1v4.6C199.4,121,199.3,121,199.3,121z"/>
	<path class="st15" d="M202.3,112.2v3.9h4.5v-3.9h1.2v9.3h-1.2v-4.3h-4.5v4.3h-1.2v-9.3H202.3z"/>
	<path class="st15" d="M209.5,120.7l3-3.9c0.3-0.4,0.6-0.7,0.9-1l0,0h-3.6v-1h5.1v0.8l-3,3.9c-0.3,0.4-0.5,0.7-0.9,1l0,0h3.9v1h-5.4
		V120.7z"/>
</g>
<g>
	<path class="st15" d="M270.9,60.9c-0.4,0-0.9,0-1.5,0.1c-3,0.5-4.6,2.7-5,5.1h0.1c0.7-0.9,1.9-1.7,3.5-1.7c2.5,0,4.3,1.8,4.3,4.6
		c0,2.6-1.8,5-4.8,5c-3.1,0-5.1-2.4-5.1-6.1c0-2.8,1-5,2.4-6.4c1.2-1.2,2.8-1.9,4.6-2.1c0.6-0.1,1.1-0.1,1.4-0.1v1.6H270.9z
		 M270.3,69.1c0-2-1.2-3.3-2.9-3.3c-1.2,0-2.2,0.7-2.8,1.8c-0.1,0.2-0.2,0.5-0.2,0.9c0,2.4,1.1,4.1,3.1,4.1
		C269.2,72.5,270.3,71.2,270.3,69.1z"/>
	<path class="st15" d="M287.3,60.9c-0.4,0-0.9,0-1.5,0.1c-3,0.5-4.6,2.7-5,5.1h0.1c0.7-0.9,1.9-1.7,3.5-1.7c2.5,0,4.3,1.8,4.3,4.6
		c0,2.6-1.8,5-4.8,5c-3.1,0-5.1-2.4-5.1-6.1c0-2.8,1-5,2.4-6.4c1.2-1.2,2.8-1.9,4.6-2.1c0.6-0.1,1.1-0.1,1.4-0.1v1.6H287.3z
		 M286.7,69.1c0-2-1.2-3.3-2.9-3.3c-1.2,0-2.2,0.7-2.8,1.8c-0.1,0.2-0.2,0.5-0.2,0.9c0,2.4,1.1,4.1,3.1,4.1
		C285.6,72.5,286.7,71.2,286.7,69.1z"/>
	<path class="st15" d="M274.2,72.7c0-0.8,0.5-1.4,1.3-1.4s1.3,0.6,1.3,1.4s-0.5,1.4-1.3,1.4C274.7,74,274.2,73.4,274.2,72.7z"/>
	<path class="st15" d="M305.7,58.7c-0.5,1.8-1.5,4.2-2.1,5.2l-1.2,0.2c0.5-1.3,1.1-3.6,1.3-5.2L305.7,58.7z"/>
	<path class="st15" d="M309,58.7c-0.5,1.8-1.5,4.2-2.1,5.2l-1.2,0.2c0.5-1.3,1.1-3.6,1.3-5.2L309,58.7z"/>
</g>
<g>
	<path class="st15" d="M174.1,326.1L174.1,326.1l-2.6,1.4l-0.4-1.5l3.2-1.7h1.7v14.6h-1.9V326.1z"/>
</g>
<g>
	<path class="st15" d="M107.5,11.2c0.8-0.1,1.9-0.3,3.3-0.3c1.7,0,3,0.4,3.8,1.1c0.7,0.6,1.2,1.6,1.2,2.8s-0.4,2.2-1,2.9
		c-0.9,1-2.4,1.5-4.1,1.5c-0.5,0-1,0-1.4-0.1v5.4h-1.7V11.2H107.5z M109.2,17.7c0.4,0.1,0.9,0.1,1.4,0.1c2.1,0,3.4-1,3.4-2.9
		c0-1.8-1.3-2.6-3.2-2.6c-0.8,0-1.3,0.1-1.6,0.1C109.2,12.4,109.2,17.7,109.2,17.7z"/>
	<path class="st15" d="M126.3,19.6c0,3.6-2.5,5.1-4.8,5.1c-2.6,0-4.6-1.9-4.6-5c0-3.2,2.1-5.1,4.8-5.1
		C124.5,14.6,126.3,16.6,126.3,19.6z M118.7,19.7c0,2.1,1.2,3.7,2.9,3.7s2.9-1.6,2.9-3.8c0-1.6-0.8-3.7-2.9-3.7
		C119.6,15.9,118.7,17.8,118.7,19.7z"/>
	<path class="st15" d="M135.5,24.1c-0.5,0.2-1.5,0.6-2.8,0.6c-2.9,0-4.8-2-4.8-4.9c0-3,2-5.1,5.2-5.1c1,0,2,0.3,2.4,0.5l-0.4,1.4
		c-0.4-0.2-1.1-0.5-2-0.5c-2.2,0-3.4,1.6-3.4,3.7c0,2.2,1.4,3.6,3.4,3.6c1,0,1.7-0.3,2.2-0.5L135.5,24.1z"/>
	<path class="st15" d="M146.2,19.6c0,3.6-2.5,5.1-4.8,5.1c-2.6,0-4.6-1.9-4.6-5c0-3.2,2.1-5.1,4.8-5.1
		C144.3,14.6,146.2,16.6,146.2,19.6z M138.5,19.7c0,2.1,1.2,3.7,2.9,3.7s2.9-1.6,2.9-3.8c0-1.6-0.8-3.7-2.9-3.7
		C139.4,15.9,138.5,17.8,138.5,19.7z"/>
	<path class="st15" d="M152.7,11h7.3v1.5h-5.5V17h5.1v1.4h-5.1v6.1h-1.7V11H152.7z"/>
	<path class="st15" d="M167.2,24.5V21h-6v-1.2l5.8-8.3h1.9v8.1h1.8V21h-1.8v3.5H167.2z M167.2,19.6v-4.3c0-0.7,0-1.4,0.1-2h-0.1
		c-0.4,0.8-0.7,1.3-1.1,1.9l-3.2,4.4l0,0H167.2z"/>
</g>
<g>
	<path class="st15" d="M190.8,160.5c-0.5,0.2-1.6,0.5-2.9,0.5c-1.4,0-2.6-0.4-3.5-1.2c-0.8-0.8-1.3-2-1.3-3.5c0-2.8,1.9-4.9,5.1-4.9
		c1.1,0,1.9,0.2,2.4,0.4l-0.3,1c-0.5-0.2-1.1-0.4-2.1-0.4c-2.3,0-3.8,1.4-3.8,3.8c0,2.4,1.4,3.8,3.6,3.8c0.8,0,1.3-0.1,1.6-0.3v-2.8
		h-1.9v-1h3.1L190.8,160.5L190.8,160.5z"/>
	<path class="st15" d="M192.7,151.6c0.5-0.1,1.4-0.2,2.2-0.2c1.2,0,2,0.2,2.6,0.7c0.5,0.4,0.8,0.9,0.8,1.7c0,0.9-0.6,1.7-1.6,2.1
		l0,0c0.9,0.2,1.9,1,1.9,2.4c0,0.8-0.3,1.4-0.8,1.9c-0.7,0.6-1.7,0.9-3.3,0.9c-0.8,0-1.5-0.1-1.9-0.1v-9.4L192.7,151.6L192.7,151.6z
		 M193.9,155.5h1.1c1.3,0,2-0.7,2-1.6c0-1.1-0.8-1.5-2.1-1.5c-0.6,0-0.9,0-1.1,0.1v3H193.9z M193.9,160c0.2,0,0.6,0.1,1,0.1
		c1.3,0,2.4-0.5,2.4-1.8s-1.1-1.8-2.4-1.8h-1V160z"/>
</g>
<g>
	<path class="st15" d="M170.5,215.7h-2.9v-1h7v1h-2.9v8.4h-1.2L170.5,215.7L170.5,215.7z"/>
	<path class="st15" d="M175,219.4c0-0.8,0-1.5-0.1-2.1h1.1v1.3h0.1c0.3-0.9,1-1.5,1.9-1.5c0.1,0,0.2,0,0.3,0v1.2c-0.1,0-0.3,0-0.4,0
		c-0.9,0-1.5,0.7-1.7,1.6c0,0.2-0.1,0.4-0.1,0.6v3.6H175V219.4z"/>
	<path class="st15" d="M181,215.4c0,0.4-0.3,0.8-0.8,0.8c-0.4,0-0.7-0.3-0.7-0.8c0-0.4,0.3-0.8,0.8-0.8
		C180.7,214.6,181,215,181,215.4z M179.7,224.1v-6.8h1.2v6.8H179.7z"/>
	<path class="st15" d="M182.9,219.5c0-0.9,0-1.6-0.1-2.2h1.1l0.1,1.2l0,0c0.5-0.8,1.3-1.3,2.4-1.3c1.6,0,2.9,1.4,2.9,3.4
		c0,2.4-1.5,3.6-3.1,3.6c-0.9,0-1.7-0.4-2.1-1.1l0,0v3.7h-1.2L182.9,219.5L182.9,219.5z M184.1,221.3c0,0.2,0,0.4,0.1,0.5
		c0.2,0.9,1,1.4,1.8,1.4c1.3,0,2.1-1.1,2.1-2.6c0-1.4-0.7-2.5-2-2.5c-0.8,0-1.6,0.6-1.9,1.5c0,0.2-0.1,0.3-0.1,0.5L184.1,221.3
		L184.1,221.3z"/>
	<path class="st15" d="M190.9,214.2h1.2v9.9h-1.2V214.2z"/>
	<path class="st15" d="M194.9,220.9c0,1.7,1.1,2.4,2.3,2.4c0.9,0,1.4-0.2,1.9-0.4l0.2,0.9c-0.4,0.2-1.2,0.4-2.3,0.4
		c-2.1,0-3.3-1.4-3.3-3.4s1.2-3.7,3.2-3.7c2.2,0,2.8,1.9,2.8,3.2c0,0.3,0,0.4,0,0.6H194.9z M198.5,220.1c0-0.8-0.3-2-1.7-2
		c-1.2,0-1.8,1.1-1.9,2H198.5z"/>
</g>
<g>
	<path class="st15" d="M132.4,214.8c-0.3,0-0.6,0-0.9,0.1c-1.9,0.3-3,1.7-3.2,3.2l0,0c0.4-0.6,1.2-1.1,2.2-1.1
		c1.6,0,2.7,1.2,2.7,2.9s-1.1,3.2-3,3.2s-3.2-1.5-3.2-3.9c0-1.8,0.6-3.2,1.5-4.1c0.8-0.7,1.8-1.2,2.9-1.3c0.4-0.1,0.7-0.1,0.9-0.1
		v1.1L132.4,214.8L132.4,214.8z M132.1,220c0-1.3-0.7-2.1-1.9-2.1c-0.7,0-1.4,0.5-1.8,1.1c-0.1,0.1-0.1,0.3-0.1,0.5
		c0,1.5,0.7,2.6,2,2.6C131.3,222.2,132.1,221.3,132.1,220z"/>
	<path class="st15" d="M138.2,223v-2.5H134v-0.8l4.1-5.8h1.3v5.7h1.3v1h-1.3v2.5L138.2,223L138.2,223z M138.2,219.6v-3
		c0-0.5,0-1,0-1.4l0,0c-0.3,0.5-0.5,0.9-0.8,1.3l-2.2,3.1l0,0L138.2,219.6L138.2,219.6z"/>
</g>
<g>
	<path class="st15" d="M265.4,90.3l-1.1,3.4h-1.4l3.7-10.8h1.7l3.7,10.8h-1.5l-1.2-3.4H265.4z M268.9,89.2l-1.1-3.1
		c-0.2-0.7-0.4-1.3-0.6-2l0,0c-0.2,0.6-0.3,1.3-0.5,2l-1.1,3.1H268.9z"/>
	<path class="st15" d="M282.4,89c-0.1-1.5-0.2-3.3-0.2-4.7l0,0c-0.4,1.3-0.8,2.6-1.4,4.1l-1.9,5.2h-1.1l-1.7-5.1
		c-0.5-1.5-0.9-2.9-1.2-4.2l0,0c0,1.3-0.1,3.2-0.2,4.8l-0.3,4.6h-1.3l0.8-10.8h1.8l1.8,5.2c0.4,1.3,0.8,2.5,1.1,3.6l0,0
		c0.3-1.1,0.7-2.3,1.1-3.6l1.9-5.2h1.8l0.7,10.8h-1.4L282.4,89z"/>
	<path class="st28" d="M295.4,88.2c0,3.7-2.3,5.7-5,5.7c-2.8,0-4.8-2.2-4.8-5.5c0-3.4,2.1-5.7,5-5.7S295.4,85,295.4,88.2z
		 M287.1,88.4c0,2.3,1.2,4.4,3.4,4.4c2.2,0,3.5-2,3.5-4.5c0-2.1-1.1-4.4-3.4-4.4C288.2,83.9,287.1,86,287.1,88.4z"/>
	<path class="st15" d="M297.2,82.9h1.4v9.6h4.6v1.2h-6V82.9z"/>
	<path class="st15" d="M310.4,88.6h-4.2v3.9h4.7v1.2h-6.1V82.9h5.8v1.2h-4.4v3.4h4.2V88.6z"/>
	<path class="st15" d="M312.7,83.1c0.8-0.1,1.9-0.2,3-0.2c2,0,3.4,0.5,4.4,1.3c1,0.9,1.5,2.1,1.5,3.9s-0.5,3.2-1.6,4.2
		c-1,1-2.7,1.6-4.8,1.6c-1,0-1.8,0-2.5-0.1V83.1z M314,92.6c0.4,0.1,0.9,0.1,1.4,0.1c3,0,4.6-1.7,4.6-4.6c0-2.5-1.4-4.2-4.4-4.2
		c-0.7,0-1.3,0.1-1.6,0.1V92.6z"/>
</g>
<g>
	<path class="st15" d="M171.2,275.4v-2.5H167v-0.8l4.1-5.8h1.3v5.7h1.3v1h-1.3v2.5h-1.2L171.2,275.4L171.2,275.4z M171.2,271.9v-3
		c0-0.5,0-1,0-1.4l0,0c-0.3,0.5-0.5,0.9-0.8,1.3l-2.2,3.1l0,0H171.2z"/>
	<path class="st15" d="M180,267.3h-3.5l-0.4,2.3c0.2,0,0.4-0.1,0.7-0.1c0.7,0,1.4,0.2,2,0.5c0.7,0.4,1.3,1.2,1.3,2.3
		c0,1.8-1.4,3.1-3.4,3.1c-1,0-1.8-0.3-2.3-0.6l0.3-0.9c0.4,0.2,1.1,0.5,1.9,0.5c1.2,0,2.2-0.8,2.2-2s-0.8-2-2.6-2
		c-0.5,0-0.9,0.1-1.3,0.1l0.6-4.4h4.4v1.2H180z"/>
	<path class="st15" d="M187.8,270.7c0,3.1-1.1,4.8-3.2,4.8c-1.8,0-3-1.7-3-4.7c0-3.1,1.3-4.7,3.2-4.7
		C186.7,266.1,187.8,267.8,187.8,270.7z M182.9,270.9c0,2.4,0.7,3.7,1.8,3.7c1.3,0,1.9-1.5,1.9-3.8c0-2.2-0.6-3.7-1.8-3.7
		C183.7,267.1,182.9,268.4,182.9,270.9z"/>
	<path class="st15" d="M195,270.7c0,3.1-1.1,4.8-3.2,4.8c-1.8,0-3-1.7-3-4.7c0-3.1,1.3-4.7,3.2-4.7C193.9,266.1,195,267.8,195,270.7
		z M190.1,270.9c0,2.4,0.7,3.7,1.8,3.7c1.3,0,1.9-1.5,1.9-3.8c0-2.2-0.6-3.7-1.8-3.7S190.1,268.4,190.1,270.9z"/>
</g>
<g id="red_cros_1_">
	<g id="IR_1_">
		<path class="st23" d="M322.3,512.1l0.2,0.2l5,5c0.1,0.1,0.1,0.1,0.1,0.2c0,0.1,0,0.2-0.1,0.3s-0.2,0-0.3,0s-0.1-0.1-0.1-0.1
			c-1.6-1.7-3.3-3.3-5-5l-0.1-0.1l-0.2,0.1l-5,5c-0.2,0.2-0.3,0.2-0.4,0.1c-0.1-0.1-0.1-0.2,0-0.3l0,0c0-0.1,0.1-0.1,0.1-0.1
			c1.7-1.7,3.3-3.3,5-5l0.1-0.1l-0.1-0.1c-1.7-1.7-3.3-3.3-5-5c-0.2-0.2-0.2-0.3-0.1-0.5s0.3-0.1,0.5,0.1l5,5
			c0.1,0.1,0.1,0.1,0.2,0.2c0-0.1,0.1-0.1,0.1-0.2l5-5c0-0.1,0.1-0.1,0.1-0.1c0.1-0.1,0.2-0.1,0.3,0l0,0c0.1,0.1,0.1,0.2,0,0.3
			l-0.1,0.1l-5,5C322.4,512,322.3,512,322.3,512.1z"/>
	</g>
</g>
<g>
	<path class="st15" d="M157.1,82.4c0-1,0.6-1.7,1.5-2.1l0,0c-0.9-0.4-1.2-1.1-1.2-1.8c0-1.2,1-2.1,2.4-2.1c1.5,0,2.3,0.9,2.3,1.9
		c0,0.7-0.3,1.4-1.3,1.8l0,0c1,0.4,1.6,1.1,1.6,2c0,1.4-1.2,2.3-2.7,2.3C158.1,84.5,157.1,83.5,157.1,82.4z M161.3,82.3
		c0-0.9-0.7-1.4-1.7-1.7c-0.9,0.3-1.4,0.9-1.4,1.6c0,0.8,0.6,1.5,1.6,1.5C160.7,83.7,161.3,83.1,161.3,82.3z M158.4,78.4
		c0,0.8,0.6,1.2,1.5,1.4c0.7-0.2,1.2-0.7,1.2-1.4c0-0.6-0.4-1.3-1.3-1.3C158.9,77.2,158.4,77.7,158.4,78.4z"/>
	<path class="st15" d="M168.4,76.5v0.7l-3.4,7.1h-1.1l3.4-6.9l0,0h-3.8v-0.9C163.5,76.5,168.4,76.5,168.4,76.5z"/>
	<path class="st15" d="M174.7,80.4c0,2.7-1,4.1-2.7,4.1c-1.5,0-2.6-1.4-2.6-4s1.1-4.1,2.7-4.1C173.8,76.4,174.7,77.9,174.7,80.4z
		 M170.5,80.5c0,2,0.6,3.2,1.6,3.2c1.1,0,1.6-1.3,1.6-3.3c0-1.9-0.5-3.2-1.6-3.2C171.1,77.2,170.5,78.3,170.5,80.5z"/>
	<path class="st15" d="M182.9,77.4h-3l-0.3,2c0.2,0,0.3,0,0.6,0c0.6,0,1.2,0.1,1.7,0.4c0.6,0.3,1.1,1,1.1,2c0,1.5-1.2,2.7-2.9,2.7
		c-0.9,0-1.6-0.2-1.9-0.5l0.3-0.8c0.3,0.2,1,0.4,1.7,0.4c1,0,1.8-0.6,1.8-1.7c0-1-0.7-1.7-2.2-1.7c-0.4,0-0.8,0-1.1,0.1l0.5-3.7h3.7
		L182.9,77.4L182.9,77.4z"/>
	<path class="st15" d="M190.9,84c-0.5,0.2-1.4,0.4-2.5,0.4c-1.2,0-2.2-0.3-3-1.1c-0.7-0.7-1.1-1.8-1.1-3c0-2.4,1.7-4.2,4.4-4.2
		c0.9,0,1.7,0.2,2,0.4l-0.3,0.9c-0.4-0.2-1-0.3-1.8-0.3c-2,0-3.3,1.2-3.3,3.3c0,2.1,1.2,3.3,3.1,3.3c0.7,0,1.2-0.1,1.4-0.2v-2.4
		h-1.6v-0.8h2.7L190.9,84L190.9,84z"/>
	<path class="st15" d="M197.3,76c-0.9,1.2-1.5,2.7-1.5,4.9c0,2.1,0.7,3.7,1.5,4.9h-0.8c-0.8-1-1.6-2.5-1.6-4.9s0.8-3.9,1.6-4.9
		H197.3z"/>
	<path class="st15" d="M203.1,76.5v0.7l-3.4,7.1h-1.1l3.4-6.9l0,0h-3.8v-0.9C198.2,76.5,203.1,76.5,203.1,76.5z"/>
	<path class="st15" d="M207.1,80.1c0-0.6,0-1.1,0-1.6h0.9l0.1,1l0,0c0.3-0.6,1-1.1,1.9-1.1c0.8,0,2.1,0.5,2.1,2.5v3.5H211V81
		c0-0.9-0.3-1.7-1.3-1.7c-0.7,0-1.2,0.5-1.4,1.1c0,0.1-0.1,0.3-0.1,0.5v3.5h-1.1L207.1,80.1L207.1,80.1z"/>
	<path class="st15" d="M213.8,80.1c0-0.6,0-1.1,0-1.6h0.9v0.9l0,0c0.3-0.6,0.9-1.1,1.8-1.1c0.8,0,1.4,0.5,1.6,1.2l0,0
		c0.2-0.3,0.4-0.6,0.6-0.8c0.3-0.3,0.7-0.4,1.3-0.4c0.8,0,1.9,0.5,1.9,2.5v3.4h-1V81c0-1.1-0.4-1.8-1.3-1.8c-0.6,0-1.1,0.4-1.2,1
		c0,0.1-0.1,0.3-0.1,0.5v3.6h-1v-3.5c0-0.9-0.4-1.6-1.2-1.6c-0.7,0-1.1,0.5-1.3,1.1c-0.1,0.2-0.1,0.3-0.1,0.5v3.5h-1v-4.2H213.8z"/>
	<path class="st15" d="M223.1,85.8c0.9-1.2,1.5-2.7,1.5-4.9c0-2.1-0.6-3.7-1.5-4.9h0.8c0.8,1,1.6,2.5,1.6,4.9s-0.8,3.9-1.6,4.9
		H223.1z"/>
</g>
<g>
	<path class="st15" d="M300.8,59.3v1.3L294.4,74h-2.1l6.4-13l0,0h-7.2v-1.6h9.3L300.8,59.3L300.8,59.3z"/>
</g>
<g>
	<path class="st15" d="M167.8,120.1c0.3,0.2,1.1,0.5,1.9,0.5c1.5,0,1.9-0.9,1.9-1.7c0-1.2-1.1-1.7-2.2-1.7h-0.6v-0.9h0.6
		c0.8,0,1.9-0.4,1.9-1.4c0-0.7-0.4-1.3-1.5-1.3c-0.7,0-1.3,0.3-1.7,0.6l-0.3-0.8c0.4-0.3,1.3-0.7,2.2-0.7c1.7,0,2.4,1,2.4,2
		c0,0.9-0.5,1.6-1.6,2l0,0c1.1,0.2,1.9,1,1.9,2.2c0,1.4-1.1,2.6-3.1,2.6c-1,0-1.8-0.3-2.2-0.6L167.8,120.1z"/>
	<path class="st15" d="M174.3,120.7c0-0.5,0.3-0.8,0.8-0.8s0.8,0.3,0.8,0.8s-0.3,0.8-0.8,0.8S174.3,121.2,174.3,120.7z"/>
	<path class="st15" d="M176.9,121.4v-0.7l0.9-0.9c2.2-2.1,3.2-3.2,3.2-4.5c0-0.9-0.4-1.7-1.7-1.7c-0.8,0-1.4,0.4-1.8,0.7l-0.4-0.8
		c0.6-0.5,1.4-0.9,2.4-0.9c1.8,0,2.6,1.3,2.6,2.5c0,1.6-1.1,2.9-2.9,4.6l-0.7,0.6l0,0h3.8v1h-5.4L176.9,121.4L176.9,121.4z"/>
</g>
<g>
	<path class="st15" d="M127.2,240.3v-0.8l1-0.9c2.3-2.2,3.4-3.4,3.4-4.8c0-0.9-0.4-1.8-1.8-1.8c-0.8,0-1.5,0.4-1.9,0.8l-0.4-0.9
		c0.6-0.5,1.5-0.9,2.6-0.9c2,0,2.8,1.3,2.8,2.6c0,1.7-1.2,3-3.1,4.9l-0.7,0.7l0,0h4.1v1L127.2,240.3L127.2,240.3z"/>
	<path class="st15" d="M140.4,235.6c0,3.1-1.1,4.8-3.2,4.8c-1.8,0-3-1.7-3-4.7c0-3.1,1.3-4.7,3.2-4.7
		C139.3,231,140.4,232.7,140.4,235.6z M135.5,235.8c0,2.4,0.7,3.7,1.8,3.7c1.3,0,1.9-1.5,1.9-3.8c0-2.2-0.6-3.7-1.8-3.7
		C136.3,232,135.5,233.3,135.5,235.8z"/>
</g>
<g>
	<path class="st15" d="M186.5,338.9v-1.3l1.6-1.6c3.9-3.7,5.6-5.6,5.6-7.9c0-1.5-0.7-3-3-3c-1.4,0-2.5,0.7-3.2,1.3l-0.7-1.4
		c1-0.9,2.5-1.5,4.3-1.5c3.3,0,4.6,2.2,4.6,4.4c0,2.8-2,5.1-5.2,8.1l-1.2,1.1l0,0h6.8v1.7L186.5,338.9L186.5,338.9z"/>
</g>
<g>
	<path class="st15" d="M130.4,161.1c-0.5,0.2-1.6,0.5-2.9,0.5c-1.4,0-2.6-0.4-3.5-1.2c-0.8-0.8-1.3-2-1.3-3.5c0-2.8,1.9-4.9,5.1-4.9
		c1.1,0,1.9,0.2,2.4,0.4l-0.3,1c-0.5-0.2-1.1-0.4-2.1-0.4c-2.3,0-3.8,1.4-3.8,3.8c0,2.4,1.4,3.8,3.6,3.8c0.8,0,1.3-0.1,1.6-0.3v-2.8
		h-1.9v-1h3.1L130.4,161.1L130.4,161.1z"/>
	<path class="st15" d="M132.3,152.2c0.5-0.1,1.4-0.2,2.2-0.2c1.2,0,2,0.2,2.6,0.7c0.5,0.4,0.8,0.9,0.8,1.7c0,0.9-0.6,1.7-1.6,2.1
		l0,0c0.9,0.2,1.9,1,1.9,2.4c0,0.8-0.3,1.4-0.8,1.9c-0.7,0.6-1.7,0.9-3.3,0.9c-0.8,0-1.5-0.1-1.9-0.1v-9.4L132.3,152.2L132.3,152.2z
		 M133.5,156.1h1.1c1.3,0,2-0.7,2-1.6c0-1.1-0.8-1.5-2.1-1.5c-0.6,0-0.9,0-1.1,0.1v3H133.5z M133.5,160.6c0.2,0,0.6,0.1,1,0.1
		c1.3,0,2.4-0.5,2.4-1.8s-1.1-1.8-2.4-1.8h-1V160.6z"/>
</g>
<g>
	<path class="st15" d="M252.3,183.6L252.3,183.6l-0.9-1.6l0.9-0.2l1.1,2v1h-9.1v-1.2H252.3z"/>
	<path class="st15" d="M252.6,193.3c0-0.3,0-0.6-0.1-0.9c-0.3-1.9-1.7-3-3.2-3.2l0,0c0.6,0.4,1.1,1.2,1.1,2.2c0,1.6-1.2,2.7-2.9,2.7
		s-3.2-1.1-3.2-3s1.5-3.2,3.9-3.2c1.8,0,3.2,0.6,4.1,1.5c0.7,0.8,1.2,1.8,1.3,2.9c0.1,0.4,0.1,0.7,0.1,0.9h-1.1L252.6,193.3
		L252.6,193.3z M247.3,193c1.3,0,2.1-0.7,2.1-1.9c0-0.7-0.5-1.4-1.1-1.8c-0.1-0.1-0.3-0.1-0.5-0.1c-1.5,0-2.6,0.7-2.6,2
		C245.2,192.2,246,193,247.3,193z"/>
	<path class="st15" d="M245.8,195.6c-0.2,0.3-0.6,1.2-0.6,2c0,1.6,1,2.1,1.8,2.1c1.3,0,1.8-1.2,1.8-2.4v-0.7h0.9v0.7
		c0,0.9,0.5,2,1.5,2c0.7,0,1.4-0.5,1.4-1.6c0-0.7-0.3-1.4-0.6-1.8l0.9-0.3c0.4,0.5,0.7,1.4,0.7,2.4c0,1.8-1.1,2.6-2.2,2.6
		c-0.9,0-1.7-0.6-2.1-1.7l0,0c-0.2,1.1-1.1,2-2.3,2c-1.5,0-2.7-1.1-2.7-3.3c0-1,0.3-1.9,0.6-2.4L245.8,195.6z"/>
	<path class="st15" d="M245.1,202.6c0.5,0,0.9,0.3,0.9,0.8s-0.4,0.8-0.9,0.8s-0.9-0.3-0.9-0.8C244.2,202.9,244.6,202.6,245.1,202.6z
		"/>
	<path class="st15" d="M244.4,205.4h0.8l0.9,1c2.2,2.3,3.4,3.4,4.8,3.4c0.9,0,1.8-0.4,1.8-1.8c0-0.8-0.4-1.5-0.8-1.9l0.9-0.4
		c0.5,0.6,0.9,1.5,0.9,2.6c0,2-1.3,2.8-2.6,2.8c-1.7,0-3-1.2-4.9-3.1l-0.7-0.7l0,0v4.1h-1L244.4,205.4L244.4,205.4z"/>
	<path class="st15" d="M249.3,215.9c0.7,0,1.3,0,1.8-0.1v1.1L250,217l0,0c0.6,0.4,1.2,1,1.2,2.1c0,0.9-0.6,1.6-1.4,1.9l0,0
		c0.4,0.2,0.7,0.5,0.9,0.8c0.3,0.4,0.5,0.9,0.5,1.5c0,0.9-0.6,2.2-2.9,2.2h-4v-1.2h3.8c1.3,0,2.1-0.5,2.1-1.5c0-0.7-0.5-1.2-1.1-1.5
		c-0.2-0.1-0.4-0.1-0.6-0.1h-4.2V220h4.1c1.1,0,1.9-0.5,1.9-1.4c0-0.8-0.6-1.3-1.2-1.5c-0.2-0.1-0.4-0.1-0.6-0.1h-4.1v-1.2
		L249.3,215.9L249.3,215.9z"/>
	<path class="st15" d="M249.3,227.6c0.7,0,1.3,0,1.8-0.1v1.1l-1.1,0.1l0,0c0.6,0.4,1.2,1,1.2,2.1c0,0.9-0.6,1.6-1.4,1.9l0,0
		c0.4,0.2,0.7,0.5,0.9,0.8c0.3,0.4,0.5,0.9,0.5,1.5c0,0.9-0.6,2.2-2.9,2.2h-4V236h3.8c1.3,0,2.1-0.5,2.1-1.5c0-0.7-0.5-1.2-1.1-1.5
		c-0.2-0.1-0.4-0.1-0.6-0.1h-4.2v-1.2h4.1c1.1,0,1.9-0.5,1.9-1.4c0-0.8-0.6-1.3-1.2-1.5c-0.2-0.1-0.4-0.1-0.6-0.1h-4.1v-1.2
		L249.3,227.6L249.3,227.6z"/>
</g>
<g>
	<path class="st15" d="M140.2,381.1v0.8l-4,8.3H135l4-8.1l0,0h-4.5v-1L140.2,381.1L140.2,381.1z"/>
	<path class="st15" d="M146.7,381.9c-0.3,0-0.6,0-0.9,0.1c-1.9,0.3-3,1.7-3.2,3.2l0,0c0.4-0.6,1.2-1.1,2.2-1.1
		c1.6,0,2.7,1.2,2.7,2.9c0,1.7-1.1,3.2-3,3.2s-3.2-1.5-3.2-3.9c0-1.8,0.6-3.2,1.5-4.1c0.8-0.7,1.8-1.2,2.9-1.3
		c0.4-0.1,0.7-0.1,0.9-0.1v1.1L146.7,381.9L146.7,381.9z M146.4,387.2c0-1.3-0.7-2.1-1.9-2.1c-0.7,0-1.4,0.5-1.8,1.1
		c-0.1,0.1-0.1,0.3-0.1,0.5c0,1.5,0.7,2.6,2,2.6C145.6,389.4,146.4,388.5,146.4,387.2z"/>
	<path class="st15" d="M152.1,385.2c0-0.7,0-1.3-0.1-1.8h1.1l0.1,1.1l0,0c0.4-0.6,1-1.2,2.1-1.2c0.9,0,1.6,0.6,1.9,1.4l0,0
		c0.2-0.4,0.5-0.7,0.8-0.9c0.4-0.3,0.9-0.5,1.5-0.5c0.9,0,2.2,0.6,2.2,2.9v4h-1.2v-3.8c0-1.3-0.5-2.1-1.5-2.1
		c-0.7,0-1.2,0.5-1.5,1.1c-0.1,0.2-0.1,0.4-0.1,0.6v4.2h-1.2v-4.1c0-1.1-0.5-1.9-1.4-1.9c-0.8,0-1.3,0.6-1.5,1.2
		c-0.1,0.2-0.1,0.4-0.1,0.6v4.1H152L152.1,385.2L152.1,385.2z"/>
	<path class="st15" d="M163.7,385.2c0-0.7,0-1.3-0.1-1.8h1.1l0.1,1.1l0,0c0.4-0.6,1-1.2,2.1-1.2c0.9,0,1.6,0.6,1.9,1.4l0,0
		c0.2-0.4,0.5-0.7,0.8-0.9c0.4-0.3,0.9-0.5,1.5-0.5c0.9,0,2.2,0.6,2.2,2.9v4h-1.2v-3.8c0-1.3-0.5-2.1-1.5-2.1
		c-0.7,0-1.2,0.5-1.5,1.1c-0.1,0.2-0.1,0.4-0.1,0.6v4.2h-1v-4.1c0-1.1-0.5-1.9-1.4-1.9c-0.8,0-1.3,0.6-1.5,1.2
		c-0.1,0.2-0.1,0.4-0.1,0.6v4.1h-1.2v-4.9L163.7,385.2L163.7,385.2z"/>
</g>
<g>
	<path class="st15" d="M26.2,381.1v0.8l-4,8.3H21l4-8.1l0,0h-4.5v-1L26.2,381.1L26.2,381.1z"/>
	<path class="st15" d="M27.6,389.4c0-0.5,0.4-0.9,0.8-0.9s0.8,0.4,0.8,0.9s-0.3,0.9-0.8,0.9S27.6,389.9,27.6,389.4z"/>
	<path class="st15" d="M36.3,381.1v0.8l-4,8.3H31l4-8.1l0,0h-4.5v-1L36.3,381.1L36.3,381.1z"/>
	<path class="st15" d="M40.9,385.2c0-0.7,0-1.3-0.1-1.8h1.1l0.1,1.1l0,0c0.4-0.6,1-1.2,2.1-1.2c0.9,0,1.6,0.6,1.9,1.4l0,0
		c0.2-0.4,0.5-0.7,0.8-0.9c0.4-0.3,0.9-0.5,1.5-0.5c0.9,0,2.2,0.6,2.2,2.9v4h-1.2v-3.8c0-1.3-0.5-2.1-1.5-2.1
		c-0.7,0-1.2,0.5-1.5,1.1c-0.1,0.2-0.1,0.4-0.1,0.6v4.2H45v-4.1c0-1.1-0.5-1.9-1.4-1.9c-0.8,0-1.3,0.6-1.5,1.2
		c-0.1,0.2-0.1,0.4-0.1,0.6v4.1h-1.2v-4.9L40.9,385.2L40.9,385.2z"/>
	<path class="st15" d="M52.6,385.2c0-0.7,0-1.3-0.1-1.8h1.1l0.1,1.1l0,0c0.4-0.6,1-1.2,2.1-1.2c0.9,0,1.6,0.6,1.9,1.4l0,0
		c0.2-0.4,0.5-0.7,0.8-0.9c0.4-0.3,0.9-0.5,1.5-0.5c0.9,0,2.2,0.6,2.2,2.9v4H61v-3.8c0-1.3-0.5-2.1-1.5-2.1c-0.7,0-1.2,0.5-1.5,1.1
		c-0.1,0.2-0.1,0.4-0.1,0.6v4.2h-1.2v-4.1c0-1.1-0.5-1.9-1.4-1.9c-0.8,0-1.3,0.6-1.5,1.2c-0.1,0.2-0.1,0.4-0.1,0.6v4.1h-1.2
		L52.6,385.2L52.6,385.2L52.6,385.2z"/>
</g>
<g>
	<path class="st15" d="M161.1,153L161.1,153l-1.6,0.9l-0.2-0.9l2-1.1h1.1v9.1h-1.2V153z"/>
	<path class="st15" d="M165.6,161v-0.8l1-0.9c2.3-2.2,3.4-3.4,3.4-4.8c0-0.9-0.4-1.8-1.8-1.8c-0.8,0-1.5,0.4-1.9,0.8l-0.4-0.9
		c0.6-0.5,1.5-0.9,2.6-0.9c2,0,2.8,1.3,2.8,2.6c0,1.7-1.2,3-3.1,4.9l-0.7,0.7v0h4.1v1H165.6z"/>
	<path class="st15" d="M172.6,158.7c0-1.1,0.7-2,1.8-2.4l0,0c-1-0.5-1.4-1.3-1.4-2c0-1.4,1.2-2.4,2.8-2.4c1.8,0,2.6,1.1,2.6,2.2
		c0,0.8-0.4,1.6-1.5,2.1v0c1.1,0.4,1.8,1.2,1.8,2.4c0,1.6-1.4,2.6-3.1,2.6C173.8,161.2,172.6,160,172.6,158.7z M177.5,158.6
		c0-1.1-0.8-1.6-2-2c-1.1,0.3-1.6,1-1.6,1.9c0,0.9,0.7,1.7,1.8,1.7C176.8,160.3,177.5,159.6,177.5,158.6z M174.1,154.1
		c0,0.9,0.7,1.4,1.7,1.7c0.8-0.3,1.4-0.8,1.4-1.7c0-0.7-0.4-1.5-1.5-1.5C174.7,152.6,174.1,153.3,174.1,154.1z"/>
</g>
<g>
	<path class="st15" d="M115.8,152.8c-0.3,0-0.6,0-0.9,0.1c-1.9,0.3-3,1.7-3.2,3.2h0c0.4-0.6,1.2-1.1,2.2-1.1c1.6,0,2.7,1.2,2.7,2.9
		c0,1.7-1.1,3.2-3,3.2c-1.9,0-3.2-1.5-3.2-3.9c0-1.8,0.6-3.2,1.5-4.1c0.8-0.7,1.8-1.2,2.9-1.3c0.4-0.1,0.7-0.1,0.9-0.1V152.8z
		 M115.5,158c0-1.3-0.7-2.1-1.9-2.1c-0.7,0-1.4,0.5-1.8,1.1c-0.1,0.1-0.1,0.3-0.1,0.5c0,1.5,0.7,2.6,2,2.6
		C114.8,160.2,115.5,159.3,115.5,158z"/>
</g>
<g>
	<path class="st15" d="M184.3,13.5h-4.7l-0.5,3.2c0.3,0,0.6-0.1,1-0.1c1,0,1.9,0.2,2.7,0.7c1,0.6,1.8,1.6,1.8,3.2
		c0,2.4-1.9,4.2-4.6,4.2c-1.4,0-2.5-0.4-3.1-0.8l0.4-1.3c0.5,0.3,1.5,0.7,2.7,0.7c1.6,0,2.9-1,2.9-2.7c0-1.6-1.1-2.7-3.6-2.7
		c-0.7,0-1.3,0.1-1.7,0.1l0.8-6h5.9V13.5z"/>
	<path class="st15" d="M197.1,23.9c-0.7,0.3-2.2,0.7-3.9,0.7c-1.9,0-3.5-0.5-4.8-1.7c-1.1-1.1-1.8-2.8-1.8-4.8c0-3.8,2.7-6.6,7-6.6
		c1.5,0,2.7,0.3,3.2,0.6l-0.4,1.4c-0.7-0.3-1.5-0.6-2.8-0.6c-3.1,0-5.2,1.9-5.2,5.2c0,3.3,2,5.2,5,5.2c1.1,0,1.8-0.2,2.2-0.3v-3.8
		h-2.6v-1.3h4.2V23.9z"/>
</g>
</svg>
