<svg width="328" height="124" viewBox="0 0 328 124" fill="none" xmlns="http://www.w3.org/2000/svg">
<path d="M163.993 104.47C221.434 104.47 267.998 103.637 267.998 102.61C267.998 101.583 221.434 100.75 163.993 100.75C106.553 100.75 59.9883 101.583 59.9883 102.61C59.9883 103.637 106.553 104.47 163.993 104.47Z" fill="#D7DEE0"/>
<path d="M112.449 62.8223H68.3594V102.225H112.449V62.8223Z" fill="#F5F5F5"/>
<path d="M83.706 62.8223H68.3594V102.225H83.706V62.8223Z" fill="#EBEBEB"/>
<path d="M121.219 24.2285H77.1289V63.6312H121.219V24.2285Z" fill="#EBEBEB"/>
<path d="M92.4755 24.2285H77.1289V63.6312H92.4755V24.2285Z" fill="#E0E0E0"/>
<path d="M160.43 62.8574H116.34V102.26H160.43V62.8574Z" fill="#EBEBEB"/>
<path d="M131.686 62.8574H116.34V102.26H131.686V62.8574Z" fill="#E0E0E0"/>
<path d="M165.309 38.9844H121.219V63.665H165.309V38.9844Z" fill="#F5F5F5"/>
<path d="M136.565 38.9844H121.219V63.665H136.565V38.9844Z" fill="#E6E6E6"/>
<path d="M146.286 0H117.801V39.4027H146.286V0Z" fill="#EBEBEB"/>
<path d="M127.716 0H117.801V39.4027H127.716V0Z" fill="#E0E0E0"/>
<path d="M211.348 102.293H255.438V62.8903L211.348 62.8903V102.293Z" fill="#F5F5F5"/>
<path d="M240.091 102.293H255.438V62.8903H240.091V102.293Z" fill="#E6E6E6"/>
<path d="M202.574 63.7051L246.664 63.7051V31.6295L202.574 31.6295V63.7051Z" fill="#EBEBEB"/>
<path d="M231.317 63.7051H246.664V31.6295H231.317V63.7051Z" fill="#E0E0E0"/>
<path d="M212.918 31.625L255.438 31.625V15.924L212.918 15.924V31.625Z" fill="#F5F5F5"/>
<path d="M240.64 31.625L255.438 31.625V15.924L240.64 15.924V31.625Z" fill="#E6E6E6"/>
<path d="M164 124C254.575 124 328 121.538 328 118.5C328 115.462 254.575 113 164 113C73.4253 113 0 115.462 0 118.5C0 121.538 73.4253 124 164 124Z" fill="#F5F5F5"/>
<path d="M119.476 104.488V38.0445C119.477 35.1686 118.591 32.3619 116.938 30.005L114.613 26.6758H155.99L158.319 30.005C159.969 32.3635 160.853 35.1695 160.853 38.0445V103.838" stroke="#364242" stroke-width="6" stroke-linecap="round" stroke-linejoin="round"/>
<path d="M207.393 119.031C209.759 119.031 211.677 117.119 211.677 114.762C211.677 112.404 209.759 110.492 207.393 110.492C205.027 110.492 203.109 112.404 203.109 114.762C203.109 117.119 205.027 119.031 207.393 119.031Z" fill="#263238"/>
<path opacity="0.4" d="M209.539 114.758C209.539 114.336 209.413 113.922 209.177 113.571C208.942 113.219 208.607 112.946 208.215 112.784C207.823 112.622 207.392 112.58 206.976 112.662C206.56 112.745 206.178 112.948 205.878 113.247C205.578 113.546 205.374 113.927 205.291 114.341C205.208 114.756 205.251 115.185 205.413 115.576C205.576 115.966 205.85 116.3 206.203 116.535C206.556 116.77 206.97 116.895 207.394 116.895C207.676 116.896 207.955 116.841 208.216 116.734C208.476 116.627 208.713 116.469 208.912 116.271C209.111 116.072 209.269 115.836 209.377 115.577C209.484 115.317 209.54 115.039 209.539 114.758Z" fill="white"/>
<path d="M206.879 115.715C206.545 115.714 206.22 115.612 205.947 115.421C205.674 115.23 205.466 114.961 205.352 114.649L202.828 107.758H208.513V114.087C208.513 114.301 208.471 114.513 208.39 114.711C208.308 114.908 208.187 115.088 208.035 115.239C207.884 115.391 207.703 115.511 207.505 115.592C207.306 115.674 207.093 115.716 206.879 115.715Z" fill="#263238"/>
<path opacity="0.2" d="M206.879 115.715C206.545 115.714 206.22 115.612 205.947 115.421C205.674 115.23 205.466 114.961 205.352 114.649L202.828 107.758H208.513V114.087C208.513 114.301 208.471 114.513 208.39 114.711C208.308 114.908 208.187 115.088 208.035 115.239C207.884 115.391 207.703 115.511 207.505 115.592C207.306 115.674 207.093 115.716 206.879 115.715Z" fill="white"/>
<path d="M159.741 119.031C162.107 119.031 164.025 117.119 164.025 114.762C164.025 112.404 162.107 110.492 159.741 110.492C157.375 110.492 155.457 112.404 155.457 114.762C155.457 117.119 157.375 119.031 159.741 119.031Z" fill="#263238"/>
<path opacity="0.4" d="M161.883 114.758C161.883 114.336 161.757 113.922 161.521 113.571C161.286 113.219 160.951 112.946 160.559 112.784C160.167 112.622 159.736 112.58 159.32 112.662C158.904 112.745 158.522 112.948 158.222 113.247C157.922 113.546 157.718 113.927 157.635 114.341C157.552 114.756 157.595 115.185 157.757 115.576C157.919 115.966 158.194 116.3 158.547 116.535C158.899 116.77 159.314 116.895 159.738 116.895C160.02 116.896 160.299 116.841 160.56 116.734C160.82 116.627 161.057 116.469 161.256 116.271C161.455 116.072 161.613 115.836 161.721 115.577C161.828 115.317 161.883 115.039 161.883 114.758Z" fill="white"/>
<path d="M159.222 115.715C158.889 115.714 158.564 115.612 158.291 115.421C158.018 115.23 157.81 114.961 157.696 114.649L155.172 107.758H160.856V114.087C160.857 114.301 160.815 114.513 160.733 114.711C160.651 114.908 160.531 115.088 160.379 115.239C160.227 115.391 160.047 115.511 159.849 115.592C159.65 115.674 159.437 115.716 159.222 115.715Z" fill="#263238"/>
<path opacity="0.2" d="M159.222 115.715C158.889 115.714 158.564 115.612 158.291 115.421C158.018 115.23 157.81 114.961 157.696 114.649L155.172 107.758H160.856V114.087C160.857 114.301 160.815 114.513 160.733 114.711C160.651 114.908 160.531 115.088 160.379 115.239C160.227 115.391 160.047 115.511 159.849 115.592C159.65 115.674 159.437 115.716 159.222 115.715Z" fill="white"/>
<path d="M214.762 102.783V106.815C214.762 106.994 214.727 107.171 214.658 107.336C214.59 107.501 214.489 107.651 214.362 107.778C214.235 107.904 214.085 108.005 213.919 108.073C213.753 108.142 213.575 108.177 213.396 108.177H117.635C117.273 108.176 116.927 108.031 116.672 107.776C116.417 107.521 116.273 107.175 116.273 106.815V102.783H214.762Z" fill="#263238"/>
<path d="M214.762 102.783V106.815C214.762 106.994 214.727 107.171 214.658 107.336C214.59 107.501 214.489 107.651 214.362 107.778C214.235 107.904 214.085 108.005 213.919 108.073C213.753 108.142 213.575 108.177 213.396 108.177H117.635C117.273 108.176 116.927 108.031 116.672 107.776C116.417 107.521 116.273 107.175 116.273 106.815V102.783H214.762Z" fill="#B84D2D"/>
<path d="M180.723 102.783V106.815C180.723 107.176 180.58 107.523 180.323 107.778C180.067 108.033 179.719 108.177 179.357 108.177H117.635C117.273 108.176 116.927 108.031 116.672 107.776C116.417 107.521 116.273 107.175 116.273 106.815V102.783H180.723Z" fill="#EA6A13"/>
<path d="M172.87 119.031C175.236 119.031 177.154 117.119 177.154 114.762C177.154 112.404 175.236 110.492 172.87 110.492C170.504 110.492 168.586 112.404 168.586 114.762C168.586 117.119 170.504 119.031 172.87 119.031Z" fill="#263238"/>
<path opacity="0.6" d="M175.012 114.758C175.012 114.336 174.886 113.922 174.65 113.571C174.415 113.219 174.08 112.946 173.688 112.784C173.296 112.622 172.865 112.58 172.449 112.662C172.033 112.745 171.651 112.948 171.351 113.247C171.051 113.546 170.847 113.927 170.764 114.341C170.681 114.756 170.724 115.185 170.886 115.576C171.048 115.966 171.323 116.3 171.676 116.535C172.028 116.77 172.443 116.895 172.867 116.895C173.149 116.896 173.428 116.841 173.689 116.734C173.949 116.627 174.186 116.469 174.385 116.271C174.584 116.072 174.742 115.836 174.85 115.577C174.957 115.317 175.012 115.039 175.012 114.758Z" fill="white"/>
<path d="M172.351 115.715C172.018 115.714 171.693 115.612 171.42 115.421C171.147 115.23 170.939 114.961 170.825 114.649L168.301 107.758H173.985V114.087C173.986 114.301 173.944 114.513 173.862 114.711C173.78 114.908 173.66 115.088 173.508 115.239C173.356 115.391 173.176 115.511 172.977 115.592C172.779 115.674 172.566 115.716 172.351 115.715Z" fill="#263238"/>
<path opacity="0.4" d="M172.351 115.715C172.018 115.714 171.693 115.612 171.42 115.421C171.147 115.23 170.939 114.961 170.825 114.649L168.301 107.758H173.985V114.087C173.986 114.301 173.944 114.513 173.862 114.711C173.78 114.908 173.66 115.088 173.508 115.239C173.356 115.391 173.176 115.511 172.977 115.592C172.779 115.674 172.566 115.716 172.351 115.715Z" fill="white"/>
<path d="M125.214 119.031C127.58 119.031 129.498 117.119 129.498 114.762C129.498 112.404 127.58 110.492 125.214 110.492C122.848 110.492 120.93 112.404 120.93 114.762C120.93 117.119 122.848 119.031 125.214 119.031Z" fill="#263238"/>
<path opacity="0.6" d="M127.359 114.758C127.359 114.336 127.233 113.922 126.998 113.571C126.762 113.219 126.427 112.946 126.035 112.784C125.644 112.622 125.212 112.58 124.796 112.662C124.38 112.745 123.998 112.948 123.698 113.247C123.399 113.546 123.194 113.927 123.112 114.341C123.029 114.756 123.071 115.185 123.234 115.576C123.396 115.966 123.671 116.3 124.023 116.535C124.376 116.77 124.791 116.895 125.215 116.895C125.497 116.896 125.776 116.841 126.036 116.734C126.297 116.627 126.533 116.469 126.733 116.271C126.932 116.072 127.09 115.836 127.197 115.577C127.305 115.317 127.36 115.039 127.359 114.758Z" fill="white"/>
<path d="M124.699 115.715C124.366 115.714 124.04 115.612 123.767 115.421C123.494 115.23 123.287 114.961 123.172 114.649L120.648 107.758H126.333V114.087C126.334 114.301 126.292 114.513 126.21 114.711C126.128 114.908 126.008 115.088 125.856 115.239C125.704 115.391 125.524 115.511 125.325 115.592C125.127 115.674 124.914 115.716 124.699 115.715Z" fill="#263238"/>
<path opacity="0.4" d="M124.699 115.715C124.366 115.714 124.04 115.612 123.767 115.421C123.494 115.23 123.287 114.961 123.172 114.649L120.648 107.758H126.333V114.087C126.334 114.301 126.292 114.513 126.21 114.711C126.128 114.908 126.008 115.088 125.856 115.239C125.704 115.391 125.524 115.511 125.325 115.592C125.127 115.674 124.914 115.716 124.699 115.715Z" fill="white"/>
<path d="M173.473 71.5039H128.129V102.785H173.473V71.5039Z" fill="#407BFF"/>
<path d="M173.473 71.5039H128.129V102.785H173.473V71.5039Z" fill="#D98851"/>
<path d="M149.17 71.5039H128.129V102.785H149.17V71.5039Z" fill="#FFD18D"/>
<path opacity="0.2" d="M147.18 96.1699H144.549C144.302 96.1699 144.102 96.3695 144.102 96.6158V100.197C144.102 100.443 144.302 100.643 144.549 100.643H147.18C147.427 100.643 147.627 100.443 147.627 100.197V96.6158C147.627 96.3695 147.427 96.1699 147.18 96.1699Z" fill="black"/>
<path opacity="0.2" d="M142.437 96.1699H139.807C139.56 96.1699 139.359 96.3695 139.359 96.6158V100.197C139.359 100.443 139.56 100.643 139.807 100.643H142.437C142.685 100.643 142.885 100.443 142.885 100.197V96.6158C142.885 96.3695 142.685 96.1699 142.437 96.1699Z" fill="black"/>
<path opacity="0.4" d="M163.723 71.5039H161.16V74.7652H163.723V71.5039Z" fill="black"/>
<path opacity="0.2" d="M170.73 84.8613H153.078V88.9513H170.73V84.8613Z" fill="black"/>
<path d="M178.102 40.2227H132.758V71.5035H178.102V40.2227Z" fill="#407BFF"/>
<path d="M178.102 40.2227H132.758V71.5035H178.102V40.2227Z" fill="#D98851"/>
<path d="M153.799 40.2227H132.758V71.5035H153.799V40.2227Z" fill="#FFD18D"/>
<path opacity="0.2" d="M151.812 64.8906H149.182C148.935 64.8906 148.734 65.0902 148.734 65.3365V68.9176C148.734 69.1639 148.935 69.3635 149.182 69.3635H151.812C152.06 69.3635 152.26 69.1639 152.26 68.9176V65.3365C152.26 65.0902 152.06 64.8906 151.812 64.8906Z" fill="black"/>
<path opacity="0.2" d="M147.066 64.8906H144.436C144.189 64.8906 143.988 65.0902 143.988 65.3365V68.9176C143.988 69.1639 144.189 69.3635 144.436 69.3635H147.066C147.313 69.3635 147.514 69.1639 147.514 68.9176V65.3365C147.514 65.0902 147.313 64.8906 147.066 64.8906Z" fill="black"/>
<path opacity="0.4" d="M168.352 40.2227H165.789V43.484H168.352V40.2227Z" fill="black"/>
<path opacity="0.2" d="M175.359 53.5801H157.707V57.6701H175.359V53.5801Z" fill="black"/>
<path d="M205.86 40.2227H160.516V71.5035H205.86V40.2227Z" fill="#407BFF"/>
<path d="M205.996 40.0742H160.426V71.5938H205.996V40.0742Z" fill="#D98851"/>
<path d="M181.556 40.2227H160.516V71.5035H181.556V40.2227Z" fill="#FFD18D"/>
<path opacity="0.2" d="M179.566 64.8906H176.936C176.689 64.8906 176.488 65.0902 176.488 65.3365V68.9176C176.488 69.1639 176.689 69.3635 176.936 69.3635H179.566C179.813 69.3635 180.014 69.1639 180.014 68.9176V65.3365C180.014 65.0902 179.813 64.8906 179.566 64.8906Z" fill="black"/>
<path opacity="0.2" d="M174.824 64.8906H172.193C171.946 64.8906 171.746 65.0902 171.746 65.3365V68.9176C171.746 69.1639 171.946 69.3635 172.193 69.3635H174.824C175.071 69.3635 175.272 69.1639 175.272 68.9176V65.3365C175.272 65.0902 175.071 64.8906 174.824 64.8906Z" fill="black"/>
<path opacity="0.4" d="M196.113 40.2227H193.551V43.484H196.113V40.2227Z" fill="black"/>
<path opacity="0.2" d="M203.205 53.6719H185.535V57.6891H203.205V53.6719Z" fill="black"/>
<path opacity="0.4" fill-rule="evenodd" clip-rule="evenodd" d="M200.065 56.1682C200.072 56.2573 200.08 56.3465 200.107 56.4332C200.115 56.4577 200.105 56.4622 200.08 56.4619C199.854 56.4617 199.628 56.4617 199.402 56.4619C199.361 56.462 199.358 56.4393 199.355 56.4178L199.353 56.4084C199.339 56.328 199.328 56.2474 199.329 56.154C199.307 56.1746 199.286 56.1948 199.266 56.2144L199.266 56.2144C199.217 56.2627 199.171 56.3076 199.117 56.3472C198.967 56.4574 198.786 56.5028 198.59 56.5152C198.463 56.5233 198.336 56.5168 198.211 56.4875C198.17 56.4777 198.141 56.4617 198.123 56.4284C198.066 56.3239 198.007 56.2199 197.949 56.1158L197.949 56.1158L197.949 56.1157L197.949 56.1157L197.949 56.1156L197.949 56.1156L197.949 56.1154L197.875 55.9832L197.875 55.9785C197.875 55.968 197.876 55.9577 197.862 55.9514L197.861 55.9508L197.853 55.9405L197.849 55.9283C197.818 55.8888 197.795 55.8463 197.772 55.8038L197.772 55.8038L197.772 55.8038C197.761 55.7819 197.749 55.76 197.736 55.7385C197.718 55.7088 197.731 55.6819 197.744 55.6549C197.846 55.4517 198.042 55.3335 198.289 55.2662C198.542 55.1973 198.806 55.1745 199.07 55.1547C199.086 55.1535 199.102 55.1518 199.118 55.1501L199.118 55.1501C199.131 55.1488 199.144 55.1474 199.156 55.1463L199.157 55.1463C199.302 55.1338 199.302 55.1337 199.297 55.0124C199.296 54.9902 199.293 54.968 199.289 54.9458C199.288 54.9357 199.287 54.9255 199.285 54.9154C199.227 54.7503 199.08 54.7068 198.882 54.7141C198.754 54.7188 198.635 54.7463 198.553 54.837C198.516 54.8781 198.492 54.9259 198.482 54.9762C198.475 55.0107 198.457 55.0172 198.42 55.0143C198.303 55.0051 198.185 54.9969 198.067 54.9891C198.04 54.9873 198.025 54.9779 198.026 54.9554C198.034 54.8532 197.995 54.7591 197.953 54.6653C197.922 54.6395 197.925 54.6156 197.956 54.59C197.964 54.5831 197.972 54.5761 197.981 54.569C198.017 54.538 198.053 54.5069 198.102 54.4882C198.241 54.4042 198.401 54.3571 198.567 54.3292C198.943 54.2663 199.313 54.2747 199.671 54.4026C199.741 54.4281 199.805 54.4653 199.856 54.5119C199.858 54.512 199.86 54.5127 199.862 54.5138C199.863 54.5149 199.864 54.5164 199.865 54.518L199.869 54.5186L199.869 54.5219L199.879 54.5295L199.882 54.5322C199.884 54.5326 199.886 54.5336 199.887 54.5349C199.889 54.5362 199.89 54.5378 199.89 54.5395L199.903 54.5547C199.934 54.5746 199.958 54.601 199.971 54.6312L200.01 54.6995C200.058 54.7692 200.059 54.8479 200.06 54.9227L200.061 54.9313C200.065 55.2412 200.064 55.5512 200.064 55.8611V55.8613L200.064 56.1475L200.065 56.1682ZM199.311 55.0178C199.307 55.064 199.322 55.0813 199.384 55.0803C199.322 55.0813 199.307 55.064 199.311 55.0178ZM198.42 55.8874C198.412 55.8867 198.404 55.8862 198.396 55.8862V55.8864C198.404 55.8865 198.412 55.8869 198.42 55.8874ZM198.531 55.9946C198.588 56.0936 198.754 56.1416 198.892 56.1207V56.1209C199.056 56.0957 199.157 56.0088 199.234 55.8971C199.304 55.7686 199.302 55.6327 199.299 55.4966C199.298 55.4722 199.293 55.4594 199.257 55.464L199.2 55.4712C199.089 55.485 198.977 55.4988 198.871 55.5295C198.642 55.5958 198.484 55.6806 198.494 55.8967C198.495 55.8979 198.495 55.8993 198.495 55.9007C198.495 55.9021 198.495 55.9035 198.494 55.9048L198.494 55.9086C198.492 55.9203 198.49 55.9319 198.506 55.9399L198.506 55.9408L198.506 55.9444C198.505 55.9553 198.505 55.9659 198.519 55.9727L198.52 55.9733C198.519 55.9774 198.519 55.9815 198.521 55.9853C198.523 55.9891 198.527 55.9924 198.531 55.9946ZM199.711 55.8856C199.611 55.8842 199.51 55.8828 199.41 55.8859V55.8861C199.509 55.883 199.609 55.8844 199.709 55.8857C199.792 55.8868 199.874 55.8879 199.957 55.8865C199.875 55.8878 199.793 55.8867 199.711 55.8856ZM197.689 56.0708L197.69 56.0734L197.738 56.1644C197.785 56.2517 197.831 56.3389 197.879 56.4254C197.894 56.4537 197.889 56.4645 197.849 56.4645C197.65 56.464 197.452 56.464 197.253 56.4645C197.224 56.4646 197.209 56.4562 197.198 56.4339C197.168 56.3668 197.136 56.3001 197.104 56.2334L197.068 56.156L197.056 56.1354C197.055 56.1337 197.055 56.1319 197.055 56.1301L197.044 56.1061L197.043 56.1052C197.032 56.1003 197.031 56.092 197.033 56.0821L197.029 56.0738C197.025 56.0716 197.021 56.0682 197.019 56.0642C197.017 56.0602 197.016 56.0557 197.017 56.0514L197.017 56.0505C197.013 56.0483 197.009 56.0452 197.007 56.0415C197.005 56.0379 197.005 56.0338 197.005 56.0298C197.004 56.0284 197.003 56.0268 197.003 56.0251C197.002 56.0234 197.002 56.0216 197.002 56.0199C196.986 55.9881 196.97 55.9563 196.954 55.9245C196.913 55.8444 196.872 55.7642 196.835 55.6829C196.816 55.6423 196.791 55.6315 196.741 55.6328C196.643 55.6356 196.544 55.6357 196.446 55.6328C196.396 55.6314 196.381 55.6436 196.382 55.6848C196.383 55.7912 196.383 55.8977 196.383 56.0042C196.383 56.1373 196.383 56.2704 196.385 56.4035C196.386 56.4548 196.367 56.4675 196.306 56.4663C196.145 56.463 195.984 56.4639 195.823 56.4659C195.774 56.4665 195.753 56.4591 195.753 56.4128C195.755 56.0982 195.755 55.7836 195.755 55.469C195.755 55.2791 195.755 55.0891 195.756 54.8991C195.756 54.8956 195.755 54.8916 195.754 54.8875C195.751 54.8724 195.748 54.8555 195.781 54.8531H196.358C196.39 54.8556 196.387 54.8724 196.384 54.8874C196.383 54.8916 196.382 54.8956 196.382 54.8991C196.384 55.0077 196.384 55.1163 196.382 55.2249C196.381 55.2586 196.395 55.2689 196.436 55.2678C196.495 55.2661 196.555 55.2664 196.615 55.2667C196.72 55.2672 196.825 55.2677 196.93 55.2579C197.126 55.2396 197.258 55.1015 197.223 54.9449C197.221 54.9365 197.221 54.9278 197.22 54.9193L197.219 54.9072L197.219 54.9055C197.214 54.9036 197.211 54.9007 197.209 54.8971C197.207 54.8936 197.206 54.8896 197.207 54.8857L197.169 54.8304C197.228 54.8305 197.286 54.8304 197.344 54.8303H197.344H197.344H197.344H197.344H197.344H197.344C197.433 54.8302 197.521 54.8301 197.609 54.8306C197.503 54.83 197.397 54.8301 197.292 54.8302L197.169 54.8303C197.098 54.7522 196.995 54.7335 196.885 54.7319C196.755 54.7297 196.625 54.7297 196.495 54.7297H196.495L195.868 54.7298C195.354 54.7299 194.84 54.73 194.326 54.7286C194.23 54.7283 194.151 54.7497 194.086 54.8057C194.044 54.8673 194.028 54.93 194.073 54.9953C194.082 54.9952 194.085 54.9996 194.085 55.0057L194.086 55.0083C194.163 55.0807 194.27 55.1019 194.376 55.1229L194.395 55.1266C194.431 55.1339 194.468 55.141 194.504 55.148L194.504 55.148C194.661 55.1782 194.818 55.2084 194.968 55.257C195.344 55.3786 195.535 55.6896 195.428 56.0051C195.425 56.0099 195.421 56.0143 195.417 56.0182L195.416 56.0196L195.416 56.0197C195.417 56.0317 195.418 56.0436 195.404 56.0519V56.0523C195.404 56.0637 195.402 56.0754 195.39 56.0835C195.314 56.2299 195.19 56.3389 195.016 56.4138C194.647 56.5729 194.267 56.5653 193.881 56.4643C193.778 56.4371 193.687 56.3886 193.598 56.3351C193.433 56.2355 193.393 56.1027 193.416 55.947C193.419 55.9259 193.432 55.9186 193.452 55.9148C193.517 55.9025 193.581 55.8905 193.646 55.8785C193.714 55.8658 193.782 55.853 193.851 55.84C193.875 55.8353 193.889 55.8415 193.895 55.8613C193.976 56.1064 194.265 56.1595 194.515 56.1365C194.644 56.1246 194.751 56.0831 194.816 55.9865L194.816 55.9852C194.814 55.9741 194.813 55.963 194.827 55.9556L194.828 55.9538C194.827 55.8204 194.787 55.7749 194.624 55.726C194.538 55.7 194.448 55.6828 194.359 55.6655C194.298 55.6539 194.238 55.6423 194.179 55.628C194.048 55.5963 193.92 55.5592 193.799 55.5072C193.562 55.4055 193.455 55.2416 193.446 55.0296C193.446 55.0223 193.446 55.0149 193.445 55.0075V55.0075V55.0075V55.0075V55.0075V55.0075V55.0075V55.0075C193.443 54.9842 193.442 54.9608 193.447 54.9378C193.451 54.9227 193.453 54.9074 193.455 54.8921C193.457 54.8667 193.468 54.8427 193.478 54.8187L193.478 54.8186C193.481 54.8118 193.484 54.8049 193.487 54.798L193.625 54.7981H193.625H193.625H193.625H193.625H193.625H193.625C193.755 54.7982 193.885 54.7983 194.014 54.7988C193.839 54.798 193.663 54.798 193.487 54.798C193.582 54.5594 193.789 54.4202 194.079 54.3528C194.124 54.3426 194.171 54.3376 194.218 54.338C195.127 54.3384 196.035 54.3385 196.943 54.3383C197.103 54.3382 197.262 54.3472 197.411 54.3955C197.622 54.4635 197.757 54.5894 197.818 54.7666L197.817 54.7679L197.817 54.7679L197.817 54.7679C197.816 54.769 197.814 54.7701 197.815 54.7704C197.817 54.7727 197.819 54.7748 197.822 54.7767L197.823 54.7774L197.826 54.7844L197.826 54.7844C197.841 54.8164 197.855 54.8485 197.851 54.884C197.9 55.0073 197.862 55.1246 197.806 55.2378C197.745 55.3603 197.631 55.448 197.489 55.5086C197.434 55.532 197.414 55.5493 197.445 55.6016C197.495 55.6857 197.539 55.7721 197.583 55.8585C197.598 55.8878 197.613 55.917 197.628 55.9462C197.636 55.9631 197.643 55.9802 197.648 55.9976C197.653 55.9996 197.657 56.0028 197.659 56.0067C197.661 56.0106 197.662 56.015 197.661 56.0193V56.0198L197.673 56.0412L197.674 56.0428C197.687 56.0496 197.688 56.0602 197.689 56.0708ZM191.104 56.4254C191.026 56.293 190.949 56.1603 190.872 56.0275L190.791 55.8883C190.786 55.8862 190.783 55.8832 190.781 55.8797C190.778 55.8761 190.778 55.8721 190.778 55.8681L190.777 55.8669C190.774 55.8565 190.77 55.8463 190.766 55.8363C190.73 55.7749 190.695 55.7134 190.66 55.652L190.66 55.6518C190.576 55.5069 190.493 55.3619 190.412 55.2164C190.405 55.2047 190.397 55.1933 190.39 55.1818L190.39 55.1818C190.369 55.1506 190.348 55.1192 190.348 55.0814C190.42 55.0044 190.487 54.9241 190.548 54.8409L190.549 54.8385C190.554 54.837 190.558 54.8345 190.56 54.8312C190.563 54.8279 190.564 54.8241 190.564 54.8202L190.972 54.338H190.401C190.38 54.338 190.369 54.3466 190.358 54.3597C190.239 54.5067 190.12 54.6537 190 54.8004C189.914 54.8951 189.835 54.9942 189.758 55.0942L189.566 55.317V55.2481C189.567 54.9647 189.567 54.6814 189.566 54.3981C189.566 54.3935 189.567 54.3887 189.568 54.3838C189.57 54.3692 189.572 54.354 189.555 54.3421C189.551 54.3397 189.547 54.3383 189.542 54.3382L188.964 54.3397H188.964H188.964L188.964 54.3397C188.948 54.3474 188.949 54.3592 188.95 54.3706C188.95 54.3734 188.95 54.3762 188.95 54.3789C188.95 55.0592 188.95 55.7395 188.95 56.4198C188.95 56.455 188.962 56.4674 189.006 56.4669C189.174 56.4653 189.342 56.465 189.509 56.4669C189.558 56.4675 189.57 56.4536 189.569 56.4166C189.568 56.3004 189.569 56.1843 189.569 56.0682L189.57 55.9649L189.58 55.953C189.582 55.9502 189.584 55.9472 189.585 55.9441L189.596 55.9327L189.64 55.8816L189.64 55.8816C189.676 55.8395 189.712 55.7973 189.748 55.7554C189.751 55.7525 189.753 55.7491 189.756 55.7458C189.764 55.7337 189.773 55.7214 189.797 55.7257C189.798 55.7329 189.8 55.7399 189.803 55.7467L190.193 56.4385C190.204 56.4568 190.217 56.4674 190.244 56.4661C190.267 56.465 190.29 56.4652 190.313 56.4655L190.343 56.4657C190.343 56.4623 190.343 56.4596 190.343 56.4575V56.4575C190.343 56.4541 190.344 56.452 190.343 56.4502C190.188 56.1793 190.032 55.9084 189.877 55.6375C189.869 55.605 189.885 55.5715 189.917 55.5654C189.943 55.5603 189.952 55.5815 189.959 55.6013C189.962 55.608 189.964 55.6146 189.967 55.6198C190.01 55.6915 190.051 55.7639 190.092 55.8362L190.134 55.909L190.201 56.0295C190.277 56.1633 190.352 56.2972 190.427 56.4315C190.44 56.4551 190.455 56.4647 190.486 56.4646C190.68 56.4638 190.875 56.4638 191.069 56.4646C191.107 56.4648 191.125 56.4609 191.104 56.4254ZM188.964 54.7431L188.965 54.571C188.965 54.6283 188.965 54.6857 188.964 54.7431ZM193.31 56.404L193.317 56.4267C193.326 56.4576 193.311 56.4644 193.277 56.4641C193.06 56.4634 192.843 56.4629 192.626 56.4645C192.584 56.4651 192.572 56.4494 192.567 56.4205C192.55 56.3367 192.54 56.2525 192.544 56.1674C192.523 56.1657 192.517 56.1749 192.512 56.1833C192.51 56.1857 192.508 56.188 192.507 56.19C192.253 56.4683 191.913 56.5623 191.5 56.5041C191.416 56.492 191.349 56.4711 191.313 56.3951C191.27 56.3035 191.219 56.2143 191.169 56.1249L191.169 56.1248C191.147 56.0863 191.125 56.0477 191.103 56.0089C191.105 55.9995 191.103 55.991 191.092 55.9858L191.091 55.9845L190.951 55.7448C190.935 55.7183 190.94 55.6927 190.952 55.666C191.045 55.4681 191.231 55.3504 191.465 55.2781C191.672 55.2142 191.892 55.192 192.11 55.1699L192.113 55.1697C192.23 55.1581 192.348 55.1486 192.466 55.14C192.498 55.1376 192.505 55.1251 192.506 55.1016C192.509 55.0286 192.5 54.9568 192.487 54.885V54.8847L192.466 54.8515C192.388 54.7322 192.25 54.7092 192.105 54.7158C191.854 54.727 191.762 54.7928 191.693 54.9917C191.685 55.0123 191.673 55.0181 191.65 55.0164L191.009 54.9691C190.981 54.9671 190.97 54.9558 190.977 54.9325C191.012 54.8076 191.06 54.6879 191.171 54.5918C191.27 54.4898 191.406 54.4316 191.551 54.3875C191.975 54.2587 192.402 54.2604 192.827 54.3833C192.96 54.4217 193.07 54.4895 193.147 54.5878C193.197 54.6318 193.225 54.6849 193.24 54.7426C193.274 54.8127 193.274 54.8874 193.275 54.9596L193.275 54.9621C193.279 55.2819 193.279 55.6015 193.279 55.921V55.9212L193.279 56.2475C193.277 56.3014 193.293 56.3527 193.31 56.404ZM191.732 55.9748C191.777 56.0826 191.946 56.1488 192.106 56.1222C192.236 56.1005 192.336 56.0426 192.408 55.9531L192.419 55.9415V55.941C192.509 55.8047 192.517 55.6571 192.511 55.5075C192.511 55.5043 192.511 55.5008 192.511 55.4972L192.511 55.4972C192.512 55.4795 192.514 55.461 192.474 55.4657L192.472 55.466C192.292 55.4875 192.111 55.509 191.946 55.578C191.751 55.6599 191.684 55.7686 191.719 55.9426C191.72 55.944 191.721 55.9456 191.722 55.9473C191.722 55.949 191.722 55.9508 191.722 55.9525C191.726 55.955 191.729 55.9585 191.731 55.9624C191.733 55.9664 191.733 55.9707 191.732 55.9748ZM191.403 56.7598H191.694C191.843 56.7598 191.945 56.8275 191.945 56.9398C191.945 57.0616 191.836 57.1243 191.689 57.1243H191.516V57.3711H191.403V56.7598ZM191.516 57.0491H191.68C191.778 57.0491 191.83 57.0115 191.83 56.942C191.83 56.8697 191.769 56.8351 191.684 56.8351H191.515L191.516 57.0491ZM193.123 57.3711L193.2 57.1958H193.496L193.575 57.3711H193.694L193.416 56.7598H193.278L193.012 57.3711H193.123ZM193.438 57.0505L193.468 57.119H193.227L193.231 57.1098L193.231 57.1098L193.231 57.1098C193.285 56.982 193.326 56.8835 193.344 56.8313H193.345C193.359 56.8718 193.388 56.9383 193.438 57.0505ZM195.013 57.1065V57.3711H194.903V56.7598H195.204C195.361 56.7598 195.444 56.8292 195.444 56.9242C195.444 57.0041 195.388 57.0516 195.319 57.0681C195.376 57.0811 195.43 57.1173 195.43 57.224V57.2509L195.43 57.2656V57.2656C195.43 57.3044 195.43 57.348 195.441 57.371H195.333C195.319 57.3452 195.319 57.2994 195.319 57.2423V57.2386V57.2263C195.319 57.1431 195.291 57.1064 195.158 57.1064L195.013 57.1065ZM195.013 57.0313H195.172C195.282 57.0313 195.33 56.9976 195.33 56.9323C195.33 56.8702 195.28 56.8351 195.182 56.8351H195.013V57.0313ZM196.926 57.3089C196.821 57.3089 196.761 57.2717 196.741 57.2007L196.628 57.2007C196.644 57.2978 196.729 57.3804 196.919 57.3804C197.106 57.3804 197.198 57.3032 197.198 57.2022C197.198 57.1222 197.159 57.0547 196.943 57.0124C196.813 56.9871 196.772 56.9653 196.772 56.9108C196.772 56.8554 196.822 56.824 196.909 56.824C197.016 56.824 197.055 56.868 197.067 56.9192H197.181C197.17 56.8372 197.095 56.7524 196.912 56.7524C196.742 56.7524 196.657 56.8261 196.657 56.9199C196.657 57.0052 196.716 57.0566 196.899 57.0924C197.046 57.1211 197.083 57.153 197.083 57.2121C197.083 57.2674 197.038 57.3089 196.926 57.3089Z" fill="white"/>
<path d="M190.173 8.94336H144.828V40.2242H190.173V8.94336Z" fill="#D98851"/>
<path d="M165.869 8.94336H144.828V40.2242H165.869V8.94336Z" fill="#FFD18D"/>
<path opacity="0.2" d="M163.883 33.6094H161.252C161.005 33.6094 160.805 33.809 160.805 34.0552V37.6364C160.805 37.8826 161.005 38.0822 161.252 38.0822H163.883C164.13 38.0822 164.33 37.8826 164.33 37.6364V34.0552C164.33 33.809 164.13 33.6094 163.883 33.6094Z" fill="black"/>
<path opacity="0.2" d="M159.141 33.6094H156.51C156.263 33.6094 156.062 33.809 156.062 34.0552V37.6364C156.062 37.8826 156.263 38.0822 156.51 38.0822H159.141C159.388 38.0822 159.588 37.8826 159.588 37.6364V34.0552C159.588 33.809 159.388 33.6094 159.141 33.6094Z" fill="black"/>
<path opacity="0.4" d="M180.422 8.94336H177.859V12.2047H180.422V8.94336Z" fill="black"/>
<path d="M202.325 71.5039H156.98V102.785H202.325V71.5039Z" fill="#263238"/>
<path opacity="0.4" fill-rule="evenodd" clip-rule="evenodd" d="M167.511 87.6877C167.518 87.7768 167.525 87.866 167.553 87.9528C167.56 87.9772 167.55 87.9817 167.525 87.9814C167.299 87.9812 167.073 87.9812 166.847 87.9814C166.806 87.9815 166.803 87.9588 166.8 87.9373L166.799 87.9279C166.784 87.8475 166.773 87.7669 166.774 87.6736C166.752 87.6941 166.732 87.7143 166.712 87.7339L166.712 87.734L166.712 87.734L166.712 87.734C166.662 87.7822 166.616 87.8272 166.562 87.8667C166.412 87.9769 166.231 88.0224 166.036 88.0347C165.908 88.0428 165.781 88.0364 165.657 88.007C165.615 87.9972 165.586 87.9812 165.568 87.9479C165.511 87.8434 165.453 87.7394 165.394 87.6354L165.394 87.6353L165.394 87.6353L165.394 87.6352L165.394 87.6352L165.394 87.6351L165.394 87.6349L165.32 87.5027L165.321 87.498C165.321 87.4876 165.321 87.4773 165.307 87.4709L165.306 87.4703L165.298 87.46L165.294 87.4478C165.263 87.4083 165.241 87.3658 165.218 87.3233L165.218 87.3233L165.218 87.3233C165.206 87.3014 165.194 87.2795 165.181 87.2581C165.164 87.2283 165.176 87.2015 165.19 87.1745C165.291 86.9712 165.487 86.853 165.734 86.7857C165.987 86.7168 166.251 86.6941 166.515 86.6743C166.531 86.673 166.547 86.6713 166.563 86.6696L166.564 86.6696C166.576 86.6683 166.589 86.667 166.602 86.6658L166.602 86.6658C166.747 86.6533 166.748 86.6533 166.742 86.5319C166.741 86.5097 166.738 86.4875 166.735 86.4654C166.733 86.4552 166.732 86.445 166.731 86.4349C166.672 86.2698 166.525 86.2263 166.327 86.2336C166.199 86.2383 166.08 86.2659 165.998 86.3565C165.961 86.3976 165.937 86.4454 165.927 86.4957C165.92 86.5302 165.903 86.5367 165.865 86.5338C165.748 86.5246 165.63 86.5164 165.512 86.5086C165.485 86.5068 165.47 86.4974 165.472 86.4749C165.48 86.3727 165.44 86.2786 165.398 86.1849C165.367 86.1591 165.371 86.1351 165.401 86.1095C165.409 86.1026 165.418 86.0956 165.426 86.0886C165.462 86.0575 165.498 86.0265 165.548 86.0078C165.686 85.9237 165.846 85.8766 166.012 85.8487C166.388 85.7859 166.759 85.7942 167.116 85.9221C167.187 85.9476 167.25 85.9848 167.302 86.0314C167.304 86.0316 167.306 86.0323 167.307 86.0334C167.309 86.0344 167.31 86.0359 167.31 86.0375L167.314 86.0382L167.315 86.0414L167.324 86.0491L167.327 86.0517C167.329 86.0522 167.331 86.0531 167.333 86.0544C167.334 86.0557 167.335 86.0573 167.335 86.059L167.349 86.0742C167.38 86.0941 167.403 86.1206 167.416 86.1507L167.456 86.219C167.504 86.2887 167.505 86.3675 167.506 86.4422L167.506 86.4508C167.51 86.7608 167.51 87.0708 167.509 87.3808L167.509 87.667L167.511 87.6877ZM166.756 86.5373C166.753 86.5835 166.767 86.6009 166.829 86.5998C166.767 86.6009 166.752 86.5835 166.756 86.5373ZM165.865 87.407C165.857 87.4063 165.849 87.4058 165.841 87.4058V87.406C165.849 87.406 165.857 87.4065 165.865 87.407ZM165.976 87.5142C166.033 87.6131 166.199 87.6612 166.337 87.6402V87.6404C166.502 87.6152 166.602 87.5283 166.68 87.4166C166.749 87.2882 166.747 87.1522 166.744 87.0162C166.744 86.9917 166.738 86.979 166.702 86.9835L166.645 86.9907C166.534 87.0045 166.423 87.0183 166.317 87.049C166.088 87.1153 165.929 87.2001 165.939 87.4162C165.94 87.4175 165.941 87.4188 165.941 87.4203C165.941 87.4217 165.94 87.4231 165.939 87.4243L165.939 87.4281C165.937 87.4398 165.935 87.4515 165.951 87.4594L165.952 87.4603L165.951 87.464C165.951 87.4748 165.95 87.4855 165.965 87.4922L165.965 87.4928C165.964 87.4969 165.965 87.5011 165.967 87.5049C165.969 87.5086 165.972 87.5119 165.976 87.5142ZM167.156 87.4051C167.056 87.4037 166.956 87.4023 166.855 87.4055V87.4057C166.955 87.4025 167.055 87.4039 167.154 87.4052C167.237 87.4063 167.319 87.4075 167.402 87.406C167.32 87.4074 167.238 87.4062 167.156 87.4051ZM165.135 87.5904L165.135 87.593L165.184 87.684C165.23 87.7713 165.277 87.8585 165.324 87.9449C165.339 87.9732 165.334 87.9841 165.294 87.9841C165.095 87.9836 164.897 87.9836 164.698 87.9841C164.67 87.9842 164.654 87.9757 164.644 87.9534C164.613 87.8864 164.581 87.8196 164.55 87.7529L164.513 87.6756L164.501 87.655C164.5 87.6533 164.5 87.6514 164.501 87.6496L164.489 87.6256L164.489 87.6247C164.477 87.6198 164.476 87.6116 164.479 87.6017L164.475 87.5933C164.47 87.5911 164.466 87.5877 164.464 87.5837C164.462 87.5797 164.461 87.5752 164.463 87.5709L164.462 87.57C164.458 87.5679 164.455 87.5647 164.453 87.5611C164.451 87.5574 164.45 87.5533 164.451 87.5493C164.449 87.5479 164.448 87.5463 164.448 87.5446C164.447 87.5429 164.447 87.5412 164.447 87.5394C164.431 87.5076 164.415 87.4758 164.399 87.4441C164.358 87.3639 164.317 87.2837 164.28 87.2024C164.261 87.1619 164.236 87.151 164.187 87.1524C164.088 87.1551 163.99 87.1552 163.892 87.1524C163.842 87.1509 163.826 87.1632 163.827 87.2043C163.828 87.3107 163.828 87.4172 163.828 87.5236V87.5237C163.828 87.6568 163.828 87.7899 163.83 87.923C163.831 87.9744 163.812 87.987 163.752 87.9858C163.591 87.9826 163.43 87.9835 163.268 87.9854C163.219 87.986 163.199 87.9786 163.199 87.9323C163.2 87.6178 163.2 87.3032 163.2 86.9886C163.2 86.7986 163.2 86.6087 163.201 86.4187C163.201 86.4152 163.2 86.4111 163.199 86.407C163.196 86.392 163.193 86.375 163.226 86.3727H163.803C163.836 86.3751 163.832 86.3919 163.829 86.4069C163.829 86.4111 163.828 86.4151 163.828 86.4186C163.829 86.5272 163.83 86.6358 163.827 86.7444C163.826 86.7781 163.84 86.7884 163.881 86.7873C163.941 86.7857 164.001 86.7859 164.061 86.7862C164.165 86.7867 164.27 86.7872 164.375 86.7774C164.571 86.7591 164.703 86.6211 164.669 86.4644C164.667 86.456 164.666 86.4474 164.666 86.4388V86.4388L164.665 86.4268L164.664 86.4251C164.66 86.4232 164.656 86.4202 164.654 86.4167C164.652 86.4131 164.652 86.4091 164.652 86.4053L164.615 86.3499C164.673 86.35 164.731 86.3499 164.789 86.3499H164.789H164.789H164.789H164.789H164.789H164.789H164.789C164.878 86.3498 164.966 86.3497 165.055 86.3501C164.949 86.3496 164.843 86.3497 164.737 86.3498L164.615 86.3498C164.544 86.2717 164.441 86.253 164.33 86.2514C164.2 86.2493 164.07 86.2493 163.941 86.2493H163.941L163.313 86.2493C162.799 86.2494 162.285 86.2495 161.771 86.2481C161.675 86.2478 161.596 86.2693 161.531 86.3252C161.49 86.3868 161.473 86.4495 161.519 86.5148C161.528 86.5147 161.53 86.5192 161.53 86.5252L161.532 86.5278C161.608 86.6002 161.715 86.6214 161.822 86.6425L161.84 86.6462C161.877 86.6535 161.913 86.6605 161.95 86.6675L161.95 86.6675C162.106 86.6977 162.263 86.7279 162.413 86.7765C162.79 86.8981 162.981 87.2092 162.873 87.5246C162.87 87.5294 162.867 87.5339 162.862 87.5377L162.862 87.5391L162.862 87.5393C162.862 87.5512 162.863 87.5632 162.849 87.5715V87.5718C162.849 87.5832 162.848 87.5949 162.835 87.6031C162.759 87.7494 162.636 87.8584 162.462 87.9333C162.092 88.0924 161.712 88.0848 161.327 87.9838C161.223 87.9567 161.132 87.9081 161.044 87.8547C160.879 87.755 160.838 87.6222 160.861 87.4666C160.865 87.4454 160.877 87.4382 160.898 87.4343C160.962 87.4221 161.026 87.4101 161.091 87.3981L161.091 87.3981C161.159 87.3853 161.228 87.3726 161.296 87.3596C161.321 87.3549 161.334 87.361 161.341 87.3809C161.421 87.6259 161.71 87.679 161.96 87.656C162.089 87.6441 162.196 87.6027 162.261 87.506L162.261 87.5047C162.26 87.4936 162.259 87.4825 162.273 87.4751L162.273 87.4733C162.272 87.34 162.232 87.2944 162.07 87.2455C161.983 87.2195 161.894 87.2023 161.804 87.1851C161.744 87.1734 161.683 87.1618 161.624 87.1475C161.493 87.1159 161.366 87.0787 161.245 87.0267C161.008 86.925 160.9 86.7611 160.892 86.5492C160.891 86.5418 160.891 86.5345 160.89 86.5271V86.5271V86.5271V86.527V86.527V86.527V86.527V86.527C160.889 86.5038 160.887 86.4803 160.893 86.4574C160.896 86.4422 160.899 86.427 160.9 86.4116C160.902 86.3863 160.913 86.3622 160.923 86.3382L160.923 86.3382C160.927 86.3313 160.93 86.3244 160.932 86.3175L161.07 86.3176C161.2 86.3177 161.33 86.3178 161.46 86.3184C161.284 86.3175 161.108 86.3175 160.932 86.3175C161.027 86.0789 161.235 85.9397 161.524 85.8724C161.57 85.8621 161.616 85.8571 161.663 85.8575C162.572 85.8579 163.48 85.858 164.389 85.8578C164.548 85.8578 164.707 85.8667 164.857 85.9151C165.067 85.9831 165.202 86.1089 165.263 86.2861L165.262 86.2874L165.262 86.2874L165.262 86.2874C165.261 86.2885 165.26 86.2896 165.26 86.29C165.262 86.2922 165.265 86.2943 165.267 86.2962L165.268 86.2969L165.271 86.3039L165.271 86.3039C165.286 86.336 165.301 86.368 165.296 86.4035C165.346 86.5268 165.307 86.6441 165.251 86.7573C165.19 86.8799 165.077 86.9675 164.934 87.0281C164.879 87.0515 164.859 87.0688 164.891 87.1212C164.941 87.2052 164.985 87.2916 165.029 87.378L165.029 87.378L165.029 87.3782L165.029 87.3785C165.044 87.4076 165.059 87.4367 165.074 87.4657C165.081 87.4826 165.088 87.4997 165.094 87.5171C165.098 87.5191 165.102 87.5223 165.104 87.5263C165.107 87.5302 165.107 87.5346 165.106 87.5388V87.5393L165.118 87.5607L165.119 87.5623C165.132 87.5691 165.133 87.5797 165.135 87.5904ZM158.549 87.9449C158.471 87.8126 158.394 87.6798 158.317 87.5471L158.236 87.4078C158.232 87.4058 158.228 87.4028 158.226 87.3992C158.224 87.3956 158.223 87.3916 158.223 87.3876L158.223 87.3864C158.219 87.376 158.216 87.3658 158.211 87.3559C158.176 87.2944 158.14 87.233 158.105 87.1715L158.105 87.1714C158.022 87.0264 157.938 86.8815 157.857 86.7359C157.85 86.7242 157.843 86.7128 157.835 86.7014L157.835 86.7014C157.814 86.6702 157.793 86.6387 157.794 86.6009C157.866 86.5239 157.932 86.4436 157.993 86.3604L157.995 86.358C157.999 86.3565 158.003 86.354 158.006 86.3507C158.008 86.3475 158.01 86.3436 158.01 86.3397L158.417 85.8575H157.846C157.825 85.8575 157.814 85.8662 157.803 85.8792C157.684 86.0263 157.565 86.1732 157.445 86.32C157.359 86.4146 157.281 86.5137 157.204 86.6137L157.012 86.8365V86.7676C157.012 86.4843 157.012 86.2009 157.012 85.9176C157.012 85.913 157.012 85.9082 157.013 85.9034C157.015 85.8887 157.017 85.8736 157 85.8616C156.997 85.8592 156.992 85.8578 156.988 85.8577L156.409 85.8592H156.409H156.409L156.409 85.8592C156.393 85.8669 156.394 85.8787 156.395 85.8901C156.395 85.8929 156.396 85.8957 156.396 85.8984C156.396 86.5787 156.395 87.259 156.395 87.9393C156.395 87.9745 156.407 87.9869 156.452 87.9865C156.619 87.9848 156.787 87.9845 156.955 87.9865C157.003 87.9871 157.015 87.9731 157.015 87.9361C157.013 87.82 157.014 87.7038 157.015 87.5877L157.015 87.4844L157.026 87.4725C157.028 87.4697 157.029 87.4667 157.031 87.4636L157.042 87.4522L157.085 87.4011L157.085 87.4011C157.121 87.359 157.157 87.3169 157.194 87.275C157.196 87.272 157.199 87.2687 157.201 87.2653C157.209 87.2532 157.218 87.2409 157.242 87.2453C157.243 87.2524 157.245 87.2594 157.248 87.2662L157.639 87.958C157.649 87.9763 157.662 87.987 157.689 87.9856C157.712 87.9845 157.735 87.9847 157.758 87.985L157.788 87.9852C157.788 87.9818 157.788 87.9792 157.788 87.977V87.977C157.789 87.9737 157.789 87.9715 157.788 87.9698C157.633 87.6988 157.478 87.4279 157.322 87.157C157.314 87.1246 157.331 87.091 157.363 87.0849C157.389 87.0799 157.397 87.1011 157.404 87.1208C157.407 87.1275 157.409 87.1341 157.413 87.1394C157.455 87.2111 157.496 87.2834 157.537 87.3557L157.579 87.4286L157.647 87.549C157.722 87.6829 157.798 87.8167 157.872 87.9511C157.885 87.9746 157.9 87.9842 157.932 87.9841C158.126 87.9834 158.32 87.9834 158.514 87.9841C158.553 87.9843 158.57 87.9804 158.549 87.9449ZM156.41 86.2626L156.41 86.0905C156.41 86.1479 156.41 86.2052 156.41 86.2626ZM160.755 87.9235L160.762 87.9463C160.772 87.9771 160.756 87.9839 160.722 87.9836C160.505 87.983 160.288 87.9824 160.072 87.984C160.03 87.9846 160.018 87.9689 160.012 87.94C159.996 87.8562 159.985 87.772 159.989 87.6869C159.969 87.6852 159.963 87.6944 159.957 87.7029C159.955 87.7052 159.954 87.7075 159.952 87.7095C159.699 87.9879 159.358 88.0818 158.945 88.0236C158.861 88.0116 158.794 87.9907 158.758 87.9147C158.715 87.8231 158.665 87.7338 158.614 87.6444L158.614 87.6444C158.592 87.6058 158.57 87.5672 158.549 87.5284C158.55 87.5191 158.549 87.5105 158.537 87.5053L158.536 87.504L158.396 87.2644C158.381 87.2378 158.386 87.2123 158.398 87.1855C158.49 86.9876 158.676 86.8699 158.911 86.7976C159.118 86.7338 159.337 86.7116 159.556 86.6895L159.558 86.6892C159.675 86.6776 159.793 86.6681 159.911 86.6595C159.944 86.6571 159.95 86.6446 159.951 86.6212C159.955 86.5481 159.945 86.4764 159.933 86.4045V86.4043L159.911 86.3711C159.833 86.2517 159.696 86.2288 159.551 86.2353C159.3 86.2466 159.207 86.3123 159.138 86.5112C159.13 86.5318 159.118 86.5377 159.095 86.536L158.455 86.4886C158.426 86.4867 158.416 86.4753 158.422 86.452C158.457 86.3271 158.505 86.2075 158.617 86.1113C158.716 86.0093 158.851 85.9511 158.996 85.9071C159.421 85.7783 159.847 85.7799 160.273 85.9028C160.405 85.9412 160.515 86.009 160.593 86.1073C160.643 86.1514 160.67 86.2044 160.685 86.2622C160.719 86.3323 160.72 86.4069 160.721 86.4791L160.721 86.4817C160.724 86.8014 160.724 87.121 160.724 87.4406V87.4407L160.725 87.767C160.722 87.8209 160.739 87.8723 160.755 87.9235ZM159.178 87.4943C159.223 87.6021 159.391 87.6683 159.551 87.6418C159.682 87.62 159.781 87.5621 159.854 87.4727L159.864 87.461V87.4606C159.954 87.3242 159.962 87.1766 159.956 87.0271C159.956 87.0238 159.956 87.0203 159.957 87.0168L159.957 87.0168C159.958 86.999 159.959 86.9805 159.92 86.9852L159.917 86.9855C159.737 87.007 159.556 87.0285 159.392 87.0975C159.197 87.1794 159.129 87.2881 159.164 87.4622C159.166 87.4635 159.167 87.4651 159.167 87.4668C159.168 87.4685 159.168 87.4703 159.167 87.4721C159.172 87.4746 159.175 87.478 159.177 87.4819C159.178 87.4859 159.179 87.4902 159.178 87.4943ZM158.849 88.2794H159.14C159.289 88.2794 159.391 88.3471 159.391 88.4594C159.391 88.5811 159.281 88.6439 159.134 88.6439H158.961V88.8907H158.849V88.2794ZM158.961 88.5686H159.126C159.223 88.5686 159.276 88.531 159.276 88.4616C159.276 88.3892 159.215 88.3546 159.13 88.3546H158.961L158.961 88.5686ZM160.568 88.8907L160.645 88.7153H160.941L161.02 88.8907H161.139L160.862 88.2794H160.723L160.457 88.8907H160.568ZM160.883 88.5701L160.914 88.6385H160.673L160.676 88.6294L160.676 88.6293L160.676 88.6293C160.73 88.5015 160.771 88.403 160.789 88.3508H160.79C160.804 88.3914 160.834 88.4578 160.883 88.5701ZM162.458 88.6261V88.8907H162.348V88.2794H162.649C162.806 88.2794 162.89 88.3487 162.89 88.4437C162.89 88.5237 162.834 88.5711 162.765 88.5877C162.822 88.6006 162.876 88.6368 162.876 88.7435V88.7704L162.876 88.7852V88.7852C162.875 88.8239 162.875 88.8675 162.886 88.8906H162.778C162.765 88.8647 162.765 88.8189 162.765 88.7619V88.7581V88.7459C162.765 88.6626 162.736 88.626 162.604 88.626L162.458 88.6261ZM162.458 88.5509H162.617C162.727 88.5509 162.775 88.5172 162.775 88.4518C162.775 88.3897 162.725 88.3546 162.627 88.3546H162.458V88.5509ZM164.371 88.8285C164.266 88.8285 164.206 88.7913 164.186 88.7202L164.073 88.7203C164.089 88.8174 164.174 88.9 164.364 88.9C164.551 88.9 164.644 88.8228 164.644 88.7217C164.644 88.6418 164.604 88.5743 164.388 88.532C164.258 88.5066 164.218 88.4849 164.218 88.4304C164.218 88.375 164.267 88.3436 164.354 88.3436C164.461 88.3436 164.5 88.3875 164.513 88.4387H164.626C164.616 88.3567 164.541 88.272 164.357 88.272C164.187 88.272 164.102 88.3457 164.102 88.4394C164.102 88.5247 164.161 88.5762 164.344 88.612C164.491 88.6406 164.528 88.6725 164.528 88.7317C164.528 88.7869 164.483 88.8285 164.371 88.8285Z" fill="white"/>
<path d="M202.325 71.5039H156.98V102.785H202.325V71.5039Z" fill="#D98851"/>
<path d="M178.021 71.5039H156.98V102.785H178.021V71.5039Z" fill="#FFD18D"/>
<path opacity="0.2" d="M176.035 96.1699H173.404C173.157 96.1699 172.957 96.3695 172.957 96.6158V100.197C172.957 100.443 173.157 100.643 173.404 100.643H176.035C176.282 100.643 176.482 100.443 176.482 100.197V96.6158C176.482 96.3695 176.282 96.1699 176.035 96.1699Z" fill="black"/>
<path opacity="0.2" d="M171.293 96.1699H168.662C168.415 96.1699 168.215 96.3695 168.215 96.6158V100.197C168.215 100.443 168.415 100.643 168.662 100.643H171.293C171.54 100.643 171.74 100.443 171.74 100.197V96.6158C171.74 96.3695 171.54 96.1699 171.293 96.1699Z" fill="black"/>
<path opacity="0.4" d="M192.578 71.5039H190.016V74.7652H192.578V71.5039Z" fill="black"/>
<path opacity="0.2" d="M199.174 85.5H181.504V89.5172H199.174V85.5Z" fill="black"/>
<path opacity="0.2" d="M187.084 22.4609H169.414V26.4781H187.084V22.4609Z" fill="black"/>
<path opacity="0.4" fill-rule="evenodd" clip-rule="evenodd" d="M196.034 87.9983C196.041 88.0874 196.048 88.1766 196.076 88.2633C196.084 88.2877 196.074 88.2922 196.049 88.292C195.823 88.2918 195.597 88.2918 195.371 88.292C195.33 88.292 195.327 88.2694 195.324 88.2478L195.322 88.2385C195.308 88.1581 195.296 88.0775 195.298 87.9841C195.276 88.0047 195.255 88.0248 195.235 88.0445L195.235 88.0445C195.186 88.0927 195.14 88.1377 195.086 88.1773C194.935 88.2875 194.755 88.3329 194.559 88.3453C194.432 88.3534 194.305 88.3469 194.18 88.3175C194.139 88.3077 194.11 88.2918 194.091 88.2585C194.034 88.154 193.976 88.05 193.918 87.9459L193.918 87.9459L193.918 87.9458L193.918 87.9458L193.918 87.9457L193.918 87.9456L193.918 87.9455L193.844 87.8132L193.844 87.8086C193.844 87.7981 193.844 87.7878 193.83 87.7814L193.83 87.7808L193.822 87.7705L193.817 87.7584C193.787 87.7189 193.764 87.6764 193.741 87.6339L193.741 87.6339L193.741 87.6339C193.729 87.612 193.718 87.5901 193.705 87.5686C193.687 87.5388 193.7 87.512 193.713 87.485C193.815 87.2817 194.01 87.1635 194.257 87.0962C194.51 87.0273 194.775 87.0046 195.039 86.9848C195.055 86.9836 195.071 86.9819 195.087 86.9802L195.087 86.9802C195.1 86.9788 195.112 86.9775 195.125 86.9764L195.125 86.9764C195.27 86.9639 195.271 86.9638 195.265 86.8424C195.264 86.8202 195.261 86.7981 195.258 86.7759C195.257 86.7658 195.255 86.7556 195.254 86.7454C195.195 86.5803 195.049 86.5369 194.851 86.5441C194.723 86.5488 194.603 86.5764 194.522 86.6671C194.485 86.7082 194.46 86.7559 194.451 86.8063C194.444 86.8408 194.426 86.8473 194.389 86.8444C194.271 86.8352 194.153 86.827 194.036 86.8192C194.008 86.8174 193.993 86.808 193.995 86.7855C194.003 86.6833 193.964 86.5891 193.922 86.4954C193.891 86.4696 193.894 86.4456 193.925 86.4201C193.933 86.4132 193.941 86.4062 193.949 86.3991C193.986 86.368 194.022 86.337 194.071 86.3183C194.21 86.2343 194.369 86.1871 194.536 86.1593C194.912 86.0964 195.282 86.1048 195.639 86.2326C195.71 86.2582 195.773 86.2954 195.825 86.3419C195.827 86.3421 195.829 86.3428 195.831 86.3439C195.832 86.345 195.833 86.3464 195.833 86.348L195.837 86.3487L195.838 86.3519L195.847 86.3596L195.851 86.3623C195.853 86.3627 195.855 86.3636 195.856 86.3649C195.857 86.3662 195.858 86.3679 195.859 86.3696L195.872 86.3848C195.903 86.4046 195.927 86.4311 195.94 86.4612L195.979 86.5296C196.027 86.5993 196.028 86.678 196.029 86.7528L196.029 86.7614C196.033 87.0713 196.033 87.3813 196.033 87.6912V87.6914L196.032 87.9776L196.034 87.9983ZM195.28 86.8479C195.276 86.894 195.291 86.9114 195.353 86.9103C195.291 86.9114 195.276 86.894 195.28 86.8479ZM194.389 87.7175C194.381 87.7168 194.373 87.7163 194.364 87.7163V87.7165C194.373 87.7166 194.381 87.717 194.389 87.7175ZM194.5 87.8247C194.556 87.9237 194.723 87.9717 194.86 87.9508V87.9509C195.025 87.9258 195.125 87.8389 195.203 87.7272C195.272 87.5987 195.27 87.4628 195.268 87.3267C195.267 87.3023 195.261 87.2895 195.226 87.2941L195.168 87.3013C195.057 87.3151 194.946 87.3289 194.84 87.3596C194.611 87.4259 194.453 87.5107 194.463 87.7268C194.464 87.728 194.464 87.7294 194.464 87.7308C194.464 87.7322 194.464 87.7336 194.463 87.7348L194.462 87.7387C194.461 87.7504 194.459 87.762 194.474 87.77L194.475 87.7708L194.475 87.7745C194.474 87.7854 194.474 87.796 194.488 87.8027L194.488 87.8034C194.488 87.8074 194.488 87.8116 194.49 87.8154C194.492 87.8192 194.496 87.8224 194.5 87.8247ZM195.68 87.7156C195.579 87.7143 195.479 87.7129 195.379 87.716V87.7162C195.478 87.7131 195.578 87.7144 195.678 87.7158C195.76 87.7169 195.843 87.718 195.925 87.7166C195.844 87.7179 195.762 87.7168 195.68 87.7156ZM193.658 87.9009L193.658 87.9035L193.707 87.9946C193.754 88.0818 193.8 88.169 193.847 88.2555C193.863 88.2838 193.857 88.2946 193.817 88.2946C193.619 88.2941 193.42 88.2941 193.222 88.2946C193.193 88.2947 193.177 88.2862 193.167 88.264C193.137 88.1969 193.105 88.1302 193.073 88.0635L193.037 87.9861L193.025 87.9655C193.024 87.9638 193.024 87.962 193.024 87.9602L193.013 87.9362L193.012 87.9352C193 87.9303 193 87.9221 193.002 87.9122L192.998 87.9039C192.994 87.9016 192.99 87.8983 192.988 87.8943C192.985 87.8902 192.985 87.8858 192.986 87.8815L192.986 87.8806C192.981 87.8784 192.978 87.8753 192.976 87.8716C192.974 87.8679 192.973 87.8639 192.974 87.8599C192.973 87.8585 192.972 87.8569 192.971 87.8552C192.971 87.8535 192.971 87.8517 192.971 87.85C192.955 87.8181 192.939 87.7864 192.922 87.7546C192.881 87.6745 192.84 87.5943 192.803 87.5129C192.785 87.4724 192.759 87.4616 192.71 87.4629C192.612 87.4656 192.513 87.4658 192.415 87.4629C192.365 87.4615 192.35 87.4737 192.35 87.5149C192.351 87.6213 192.351 87.7277 192.351 87.8341V87.8343C192.351 87.9674 192.351 88.1005 192.354 88.2336C192.354 88.2849 192.336 88.2975 192.275 88.2963C192.114 88.2931 191.953 88.294 191.792 88.296C191.743 88.2966 191.722 88.2892 191.722 88.2429C191.723 87.9283 191.724 87.6137 191.724 87.2991C191.724 87.1092 191.724 86.9192 191.724 86.7292C191.724 86.7257 191.723 86.7217 191.723 86.7175C191.72 86.7025 191.716 86.6856 191.749 86.6832H192.326C192.359 86.6857 192.356 86.7025 192.353 86.7175C192.352 86.7216 192.351 86.7257 192.351 86.7292C192.353 86.8378 192.353 86.9464 192.351 87.055C192.35 87.0887 192.364 87.099 192.404 87.0979C192.464 87.0962 192.524 87.0965 192.584 87.0968C192.689 87.0973 192.794 87.0978 192.899 87.088C193.094 87.0697 193.226 86.9316 193.192 86.7749C193.19 86.7665 193.19 86.7579 193.189 86.7493V86.7493L193.188 86.7373L193.187 86.7356C193.183 86.7337 193.18 86.7308 193.178 86.7272C193.176 86.7237 193.175 86.7197 193.176 86.7158L193.138 86.6604C193.196 86.6605 193.255 86.6605 193.313 86.6604H193.313H193.313H193.313H193.313H193.313H193.313H193.313C193.401 86.6603 193.49 86.6602 193.578 86.6607C193.472 86.6601 193.366 86.6602 193.26 86.6603L193.138 86.6604C193.067 86.5823 192.964 86.5635 192.853 86.5619C192.724 86.5598 192.594 86.5598 192.464 86.5598H192.464L191.837 86.5598C191.323 86.5599 190.809 86.5601 190.295 86.5587C190.198 86.5584 190.12 86.5798 190.054 86.6357C190.013 86.6974 189.996 86.7601 190.042 86.8253C190.051 86.8252 190.053 86.8297 190.053 86.8357L190.055 86.8384C190.132 86.9108 190.239 86.9319 190.345 86.953L190.364 86.9567C190.4 86.964 190.437 86.971 190.473 86.9781L190.473 86.9781C190.63 87.0083 190.787 87.0385 190.937 87.0871C191.313 87.2086 191.504 87.5197 191.397 87.8352C191.394 87.84 191.39 87.8444 191.386 87.8483L191.385 87.8497L191.385 87.8498C191.386 87.8618 191.387 87.8737 191.373 87.882V87.8824C191.372 87.8938 191.371 87.9055 191.359 87.9136C191.283 88.0599 191.159 88.169 190.985 88.2439C190.616 88.403 190.236 88.3953 189.85 88.2944C189.747 88.2672 189.656 88.2186 189.567 88.1652C189.402 88.0655 189.362 87.9328 189.385 87.7771C189.388 87.756 189.401 87.7487 189.421 87.7448C189.486 87.7326 189.55 87.7206 189.614 87.7086L189.614 87.7086C189.683 87.6959 189.751 87.6831 189.819 87.6701C189.844 87.6654 189.858 87.6716 189.864 87.6914C189.944 87.9365 190.233 87.9896 190.484 87.9665C190.613 87.9547 190.72 87.9132 190.785 87.8165L190.784 87.8153C190.783 87.8042 190.782 87.793 190.796 87.7856L190.797 87.7839C190.796 87.6505 190.756 87.6049 190.593 87.5561C190.506 87.5301 190.417 87.5128 190.328 87.4956C190.267 87.484 190.207 87.4724 190.148 87.4581C190.017 87.4264 189.889 87.3892 189.768 87.3373C189.531 87.2356 189.423 87.0717 189.415 86.8597C189.415 86.8524 189.414 86.845 189.414 86.8376V86.8376V86.8376V86.8376V86.8376V86.8376V86.8376V86.8376C189.412 86.8143 189.41 86.7909 189.416 86.7679C189.42 86.7528 189.422 86.7375 189.423 86.7221C189.426 86.6968 189.436 86.6728 189.447 86.6487L189.447 86.6487C189.45 86.6418 189.453 86.635 189.456 86.6281L189.593 86.6282C189.723 86.6283 189.853 86.6284 189.983 86.6289C189.807 86.6281 189.632 86.6281 189.456 86.6281C189.55 86.3895 189.758 86.2503 190.048 86.1829C190.093 86.1727 190.14 86.1677 190.187 86.1681C191.095 86.1685 192.004 86.1686 192.912 86.1684C193.072 86.1683 193.231 86.1773 193.38 86.2256C193.59 86.2936 193.725 86.4195 193.786 86.5967L193.785 86.598L193.785 86.598L193.785 86.598C193.784 86.5991 193.783 86.6002 193.784 86.6005C193.786 86.6028 193.788 86.6049 193.791 86.6068L193.791 86.6075L193.795 86.6145L193.795 86.6145C193.809 86.6465 193.824 86.6786 193.819 86.7141C193.869 86.8373 193.83 86.9547 193.774 87.0678C193.714 87.1904 193.6 87.2781 193.458 87.3387C193.403 87.3621 193.383 87.3793 193.414 87.4317C193.464 87.5157 193.508 87.6022 193.552 87.6885L193.552 87.6885L193.552 87.6888L193.552 87.689C193.567 87.7181 193.582 87.7473 193.597 87.7763C193.605 87.7931 193.611 87.8103 193.617 87.8277C193.622 87.8297 193.626 87.8329 193.628 87.8368C193.63 87.8407 193.631 87.8451 193.63 87.8494V87.8499L193.642 87.8713L193.643 87.8729C193.655 87.8797 193.657 87.8903 193.658 87.9009ZM187.073 88.2555C186.994 88.1231 186.917 87.9904 186.84 87.8576L186.759 87.7184C186.755 87.7163 186.752 87.7133 186.749 87.7097C186.747 87.7062 186.746 87.7022 186.747 87.6982L186.746 87.6969C186.743 87.6866 186.739 87.6764 186.734 87.6664C186.699 87.6049 186.664 87.5435 186.628 87.4821L186.628 87.4819C186.545 87.337 186.462 87.192 186.38 87.0464C186.374 87.0348 186.366 87.0234 186.358 87.0119L186.358 87.0119C186.337 86.9807 186.316 86.9493 186.317 86.9115C186.389 86.8345 186.456 86.7542 186.516 86.671L186.518 86.6686C186.523 86.6671 186.526 86.6645 186.529 86.6613C186.532 86.658 186.533 86.6542 186.533 86.6503L186.94 86.168H186.369C186.348 86.168 186.337 86.1767 186.327 86.1898C186.208 86.3368 186.088 86.4837 185.969 86.6305C185.882 86.7252 185.804 86.8243 185.727 86.9243L185.535 87.1471V87.0782C185.535 86.7948 185.535 86.5115 185.535 86.2282C185.535 86.2235 185.536 86.2188 185.536 86.2139C185.539 86.1992 185.541 86.1841 185.523 86.1722C185.52 86.1698 185.516 86.1684 185.511 86.1683L184.933 86.1697H184.932H184.932L184.932 86.1698C184.916 86.1774 184.917 86.1893 184.918 86.2007C184.919 86.2035 184.919 86.2063 184.919 86.2089C184.919 86.8893 184.919 87.5696 184.918 88.2499C184.918 88.2851 184.931 88.2975 184.975 88.297C185.143 88.2953 185.311 88.2951 185.478 88.297C185.526 88.2976 185.538 88.2837 185.538 88.2467C185.537 88.1305 185.537 88.0144 185.538 87.8982L185.539 87.795L185.549 87.7831C185.551 87.7803 185.553 87.7773 185.554 87.7741L185.565 87.7627L185.609 87.7117L185.609 87.7117C185.645 87.6695 185.681 87.6274 185.717 87.5855C185.72 87.5825 185.722 87.5792 185.724 87.5759C185.733 87.5638 185.742 87.5515 185.765 87.5558C185.767 87.5629 185.769 87.57 185.771 87.5768L186.162 88.2685C186.172 88.2869 186.186 88.2975 186.213 88.2962C186.236 88.295 186.258 88.2953 186.281 88.2956L186.311 88.2958C186.311 88.2924 186.312 88.2897 186.312 88.2875V88.2875C186.312 88.2842 186.312 88.2821 186.311 88.2803C186.156 88.0094 186.001 87.7384 185.846 87.4676C185.837 87.4351 185.854 87.4015 185.886 87.3955C185.912 87.3904 185.92 87.4116 185.928 87.4314C185.93 87.4381 185.933 87.4446 185.936 87.4499C185.979 87.5216 186.02 87.5939 186.061 87.6663L186.102 87.7391L186.17 87.8595C186.246 87.9934 186.321 88.1273 186.395 88.2616C186.408 88.2852 186.424 88.2947 186.455 88.2946C186.649 88.2939 186.843 88.2939 187.038 88.2946C187.076 88.2948 187.093 88.291 187.073 88.2555ZM184.933 86.5732L184.933 86.401C184.933 86.4584 184.933 86.5158 184.933 86.5732ZM189.279 88.2341L189.286 88.2568C189.295 88.2877 189.28 88.2945 189.246 88.2941C189.029 88.2935 188.812 88.293 188.595 88.2945C188.553 88.2951 188.541 88.2794 188.535 88.2506C188.519 88.1667 188.509 88.0825 188.513 87.9975C188.492 87.9958 188.486 88.005 188.48 88.0134C188.479 88.0158 188.477 88.0181 188.475 88.0201C188.222 88.2984 187.882 88.3924 187.469 88.3342C187.384 88.3221 187.318 88.3012 187.282 88.2252C187.239 88.1336 187.188 88.0443 187.137 87.9549L187.137 87.9549C187.115 87.9163 187.093 87.8778 187.072 87.839C187.073 87.8296 187.072 87.8211 187.061 87.8158L187.06 87.8146L186.92 87.5749C186.904 87.5484 186.909 87.5228 186.921 87.4961C187.014 87.2982 187.199 87.1805 187.434 87.1082C187.641 87.0443 187.861 87.0221 188.079 87L188.081 86.9998C188.199 86.9882 188.317 86.9786 188.434 86.9701C188.467 86.9676 188.474 86.9552 188.475 86.9317C188.478 86.8587 188.469 86.7869 188.456 86.715V86.7148L188.435 86.6816C188.357 86.5623 188.219 86.5393 188.074 86.5458C187.823 86.5571 187.73 86.6229 187.661 86.8218C187.654 86.8424 187.641 86.8482 187.619 86.8465L186.978 86.7991C186.95 86.7972 186.939 86.7859 186.946 86.7625C186.98 86.6376 187.029 86.518 187.14 86.4218C187.239 86.3199 187.375 86.2617 187.52 86.2176C187.944 86.0888 188.371 86.0904 188.796 86.2134C188.929 86.2518 189.039 86.3195 189.116 86.4179C189.166 86.4619 189.193 86.5149 189.209 86.5727C189.242 86.6428 189.243 86.7175 189.244 86.7897L189.244 86.7922C189.247 87.112 189.248 87.4315 189.248 87.7511V87.7512L189.248 88.0775C189.246 88.1314 189.262 88.1828 189.279 88.2341ZM187.701 87.8048C187.746 87.9127 187.915 87.9789 188.074 87.9523C188.205 87.9306 188.305 87.8727 188.377 87.7832L188.388 87.7716V87.7711C188.478 87.6347 188.486 87.4872 188.48 87.3376C188.48 87.3343 188.48 87.3308 188.48 87.3273L188.48 87.3273C188.481 87.3096 188.483 87.2911 188.443 87.2958L188.441 87.296C188.26 87.3175 188.08 87.339 187.915 87.4081C187.72 87.4899 187.652 87.5987 187.688 87.7727C187.689 87.774 187.69 87.7756 187.691 87.7773C187.691 87.7791 187.691 87.7809 187.691 87.7826C187.695 87.7851 187.698 87.7885 187.7 87.7925C187.702 87.7964 187.702 87.8007 187.701 87.8048ZM187.372 88.5899H187.663C187.812 88.5899 187.914 88.6576 187.914 88.7699C187.914 88.8916 187.805 88.9544 187.657 88.9544H187.484V89.2012H187.372V88.5899ZM187.484 88.8792H187.649C187.747 88.8792 187.799 88.8416 187.799 88.7721C187.799 88.6998 187.738 88.6651 187.653 88.6651H187.484L187.484 88.8792ZM189.092 89.2012L189.169 89.0258H189.465L189.544 89.2012H189.663L189.385 88.5899H189.247L188.981 89.2012H189.092ZM189.407 88.8806L189.437 88.949H189.196L189.2 88.9399L189.2 88.9399L189.2 88.9398C189.253 88.812 189.294 88.7136 189.312 88.6614H189.314C189.328 88.7019 189.357 88.7684 189.407 88.8806ZM190.982 88.9366V89.2012H190.871V88.5899H191.173C191.329 88.5899 191.413 88.6592 191.413 88.7543C191.413 88.8342 191.357 88.8816 191.288 88.8982C191.345 88.9112 191.399 88.9474 191.399 89.0541V89.081L191.399 89.0957V89.0957C191.399 89.1345 191.399 89.178 191.409 89.2011H191.301C191.288 89.1753 191.288 89.1294 191.288 89.0724V89.0686V89.0564C191.288 88.9732 191.26 88.9365 191.127 88.9365L190.982 88.9366ZM190.982 88.8614H191.141C191.251 88.8614 191.298 88.8277 191.298 88.7623C191.298 88.7003 191.248 88.6651 191.15 88.6651H190.982V88.8614ZM192.895 89.139C192.79 89.139 192.729 89.1018 192.71 89.0308L192.596 89.0308C192.612 89.1279 192.698 89.2105 192.887 89.2105C193.075 89.2105 193.167 89.1333 193.167 89.0322C193.167 88.9523 193.127 88.8848 192.912 88.8425C192.782 88.8171 192.741 88.7954 192.741 88.7409C192.741 88.6855 192.79 88.6541 192.877 88.6541C192.985 88.6541 193.024 88.698 193.036 88.7492H193.149C193.139 88.6672 193.064 88.5825 192.881 88.5825C192.711 88.5825 192.625 88.6562 192.625 88.75C192.625 88.8353 192.685 88.8867 192.868 88.9225C193.014 88.9511 193.051 88.9831 193.051 89.0422C193.051 89.0975 193.007 89.139 192.895 89.139Z" fill="white"/>
<path opacity="0.4" fill-rule="evenodd" clip-rule="evenodd" d="M183.94 24.9553C183.947 25.0444 183.955 25.1336 183.982 25.2204C183.99 25.2448 183.98 25.2493 183.955 25.249C183.729 25.2488 183.503 25.2488 183.277 25.249C183.236 25.2491 183.233 25.2264 183.23 25.2049L183.228 25.1955C183.214 25.1151 183.203 25.0345 183.204 24.9412C183.182 24.9617 183.161 24.9819 183.141 25.0015L183.141 25.0015L183.141 25.0016L183.141 25.0016C183.092 25.0498 183.046 25.0947 182.992 25.1343C182.842 25.2445 182.661 25.2899 182.465 25.3023C182.338 25.3104 182.211 25.3039 182.086 25.2746C182.045 25.2648 182.016 25.2488 181.998 25.2155C181.941 25.111 181.882 25.007 181.824 24.9029L181.824 24.9029L181.824 24.9029L181.824 24.9028L181.824 24.9027L181.824 24.9027L181.824 24.9025L181.75 24.7703L181.75 24.7656C181.75 24.7551 181.751 24.7449 181.737 24.7385L181.736 24.7379L181.728 24.7276L181.724 24.7154C181.693 24.6759 181.67 24.6334 181.647 24.5909L181.647 24.5909L181.647 24.5909C181.636 24.569 181.624 24.5471 181.611 24.5256C181.593 24.4959 181.606 24.469 181.619 24.442C181.721 24.2388 181.917 24.1206 182.164 24.0533C182.417 23.9844 182.681 23.9617 182.945 23.9418C182.961 23.9406 182.977 23.9389 182.993 23.9372L182.993 23.9372C183.006 23.9359 183.019 23.9345 183.031 23.9334L183.032 23.9334C183.177 23.9209 183.177 23.9208 183.172 23.7995C183.171 23.7773 183.168 23.7551 183.164 23.7329C183.163 23.7228 183.162 23.7126 183.16 23.7025C183.102 23.5374 182.955 23.4939 182.757 23.5012C182.629 23.5059 182.51 23.5334 182.428 23.6241C182.391 23.6652 182.367 23.713 182.357 23.7633C182.35 23.7978 182.332 23.8043 182.295 23.8014C182.178 23.7922 182.06 23.784 181.942 23.7762C181.915 23.7744 181.9 23.765 181.901 23.7425C181.909 23.6403 181.87 23.5462 181.828 23.4524C181.797 23.4266 181.8 23.4027 181.831 23.3771C181.839 23.3702 181.847 23.3632 181.856 23.3562C181.892 23.3251 181.928 23.2941 181.977 23.2754C182.116 23.1913 182.276 23.1442 182.442 23.1163C182.818 23.0535 183.188 23.0618 183.546 23.1897C183.616 23.2152 183.68 23.2524 183.731 23.299C183.733 23.2991 183.735 23.2998 183.737 23.3009C183.738 23.302 183.739 23.3035 183.74 23.3051L183.744 23.3058L183.744 23.309L183.754 23.3167L183.757 23.3193C183.759 23.3197 183.761 23.3207 183.762 23.322C183.764 23.3233 183.765 23.3249 183.765 23.3266L183.778 23.3418C183.809 23.3617 183.833 23.3882 183.846 23.4183L183.885 23.4866C183.933 23.5563 183.934 23.635 183.935 23.7098L183.936 23.7184C183.94 24.0284 183.939 24.3384 183.939 24.6484L183.939 24.9346L183.94 24.9553ZM183.186 23.8049C183.182 23.8511 183.197 23.8685 183.259 23.8674C183.197 23.8685 183.182 23.8511 183.186 23.8049ZM182.295 24.6745C182.287 24.6738 182.279 24.6734 182.271 24.6734V24.6736C182.279 24.6736 182.287 24.674 182.295 24.6745ZM182.406 24.7818C182.463 24.8807 182.629 24.9287 182.767 24.9078V24.908C182.931 24.8828 183.032 24.7959 183.109 24.6842C183.179 24.5557 183.177 24.4198 183.174 24.2837C183.173 24.2593 183.168 24.2465 183.132 24.2511L183.075 24.2583C182.964 24.2721 182.852 24.2859 182.746 24.3166C182.517 24.3829 182.359 24.4677 182.369 24.6838C182.37 24.685 182.37 24.6864 182.37 24.6878C182.37 24.6893 182.37 24.6906 182.369 24.6919L182.369 24.6957C182.367 24.7074 182.365 24.719 182.381 24.727L182.381 24.7279L182.381 24.7315C182.38 24.7424 182.38 24.753 182.394 24.7598L182.395 24.7604C182.394 24.7645 182.394 24.7687 182.396 24.7724C182.398 24.7762 182.402 24.7795 182.406 24.7818ZM183.586 24.6727C183.486 24.6713 183.385 24.6699 183.285 24.6731V24.6733C183.384 24.6701 183.484 24.6715 183.584 24.6728C183.667 24.6739 183.749 24.675 183.832 24.6736C183.75 24.6749 183.668 24.6738 183.586 24.6727ZM181.564 24.8579L181.565 24.8605L181.613 24.9516C181.66 25.0389 181.706 25.1261 181.754 25.2125C181.769 25.2408 181.764 25.2517 181.724 25.2517C181.525 25.2512 181.327 25.2512 181.128 25.2517C181.099 25.2518 181.084 25.2433 181.073 25.221C181.043 25.154 181.011 25.0872 180.979 25.0205L180.943 24.9431L180.931 24.9225C180.93 24.9209 180.93 24.919 180.93 24.9172L180.919 24.8932L180.918 24.8923C180.907 24.8874 180.906 24.8792 180.908 24.8693L180.904 24.8609C180.9 24.8587 180.896 24.8553 180.894 24.8513C180.892 24.8473 180.891 24.8428 180.892 24.8385L180.892 24.8376C180.888 24.8355 180.884 24.8323 180.882 24.8287C180.88 24.825 180.88 24.8209 180.88 24.8169C180.879 24.8155 180.878 24.8139 180.878 24.8122C180.877 24.8105 180.877 24.8088 180.877 24.807C180.861 24.7752 180.845 24.7434 180.829 24.7116C180.788 24.6315 180.747 24.5513 180.71 24.47C180.691 24.4295 180.666 24.4186 180.616 24.42C180.518 24.4227 180.419 24.4228 180.321 24.42C180.271 24.4185 180.256 24.4308 180.257 24.4719C180.258 24.5783 180.258 24.6848 180.258 24.7912V24.7913C180.258 24.9244 180.258 25.0575 180.26 25.1906C180.261 25.242 180.242 25.2546 180.181 25.2534C180.02 25.2502 179.859 25.2511 179.698 25.253C179.649 25.2536 179.628 25.2462 179.628 25.1999C179.63 24.8854 179.63 24.5708 179.63 24.2562C179.63 24.0662 179.63 23.8762 179.631 23.6863C179.631 23.6828 179.63 23.6787 179.629 23.6746C179.626 23.6595 179.623 23.6426 179.656 23.6403H180.233C180.265 23.6427 180.262 23.6595 180.259 23.6745C180.258 23.6787 180.257 23.6827 180.257 23.6862C180.259 23.7948 180.259 23.9034 180.257 24.012C180.256 24.0457 180.27 24.056 180.311 24.0549C180.37 24.0533 180.43 24.0535 180.49 24.0538C180.595 24.0543 180.7 24.0548 180.805 24.045C181.001 24.0267 181.133 23.8887 181.098 23.732C181.096 23.7236 181.096 23.715 181.095 23.7064V23.7064L181.094 23.6943L181.094 23.6927C181.089 23.6908 181.086 23.6878 181.084 23.6843C181.082 23.6807 181.081 23.6767 181.082 23.6729L181.044 23.6175C181.103 23.6176 181.161 23.6175 181.219 23.6175H181.219H181.219H181.219H181.219H181.219H181.219H181.219C181.308 23.6174 181.396 23.6173 181.484 23.6177C181.378 23.6172 181.272 23.6173 181.167 23.6174L181.044 23.6174C180.973 23.5393 180.87 23.5206 180.76 23.519C180.63 23.5169 180.5 23.5169 180.37 23.5169H180.37L179.743 23.5169C179.229 23.517 178.715 23.5171 178.201 23.5157C178.105 23.5154 178.026 23.5369 177.961 23.5928C177.919 23.6544 177.903 23.7171 177.948 23.7824C177.957 23.7823 177.96 23.7868 177.96 23.7928L177.961 23.7954C178.038 23.8678 178.145 23.889 178.251 23.9101L178.27 23.9138C178.306 23.921 178.343 23.9281 178.379 23.9351C178.536 23.9653 178.693 23.9955 178.843 24.0441C179.219 24.1657 179.41 24.4768 179.303 24.7922C179.3 24.797 179.296 24.8015 179.292 24.8053L179.291 24.8067L179.291 24.8069C179.292 24.8188 179.293 24.8308 179.279 24.8391V24.8394C179.279 24.8508 179.277 24.8625 179.265 24.8706C179.189 25.017 179.065 25.126 178.891 25.2009C178.522 25.36 178.142 25.3524 177.756 25.2514C177.653 25.2243 177.562 25.1757 177.473 25.1223C177.308 25.0226 177.268 24.8898 177.291 24.7342C177.294 24.713 177.307 24.7057 177.327 24.7019C177.392 24.6897 177.456 24.6777 177.521 24.6657L177.521 24.6657C177.589 24.6529 177.657 24.6402 177.726 24.6272C177.75 24.6225 177.764 24.6286 177.77 24.6485C177.851 24.8935 178.14 24.9466 178.39 24.9236C178.519 24.9117 178.626 24.8703 178.691 24.7736L178.691 24.7723C178.689 24.7612 178.688 24.7501 178.702 24.7427L178.703 24.7409C178.702 24.6075 178.662 24.562 178.499 24.5131C178.413 24.4871 178.323 24.4699 178.234 24.4526C178.173 24.441 178.113 24.4294 178.054 24.4151C177.923 24.3835 177.795 24.3463 177.674 24.2943C177.437 24.1926 177.33 24.0287 177.321 23.8168C177.321 23.8094 177.321 23.8021 177.32 23.7947V23.7946V23.7946V23.7946V23.7946V23.7946V23.7946V23.7946C177.318 23.7714 177.317 23.7479 177.322 23.7249C177.326 23.7098 177.328 23.6946 177.33 23.6792C177.332 23.6539 177.343 23.6298 177.353 23.6058L177.353 23.6058C177.356 23.5989 177.359 23.592 177.362 23.5851L177.5 23.5852H177.5H177.5H177.5H177.5H177.5H177.5C177.63 23.5853 177.76 23.5854 177.889 23.5859C177.714 23.5851 177.538 23.5851 177.362 23.5851C177.457 23.3465 177.664 23.2073 177.954 23.14C177.999 23.1297 178.046 23.1247 178.093 23.1251C179.002 23.1255 179.91 23.1256 180.818 23.1254C180.978 23.1254 181.137 23.1343 181.286 23.1827C181.497 23.2506 181.632 23.3765 181.693 23.5537L181.692 23.555L181.692 23.555L181.692 23.555C181.691 23.5561 181.689 23.5572 181.69 23.5576C181.692 23.5598 181.694 23.5619 181.697 23.5638L181.698 23.5645L181.701 23.5715L181.701 23.5715C181.716 23.6036 181.73 23.6356 181.726 23.6711C181.775 23.7944 181.737 23.9117 181.681 24.0249C181.62 24.1475 181.506 24.2351 181.364 24.2957C181.309 24.3191 181.289 24.3364 181.32 24.3888C181.37 24.4728 181.414 24.5592 181.458 24.6456L181.458 24.6456L181.459 24.6458L181.459 24.6461C181.473 24.6752 181.488 24.7043 181.503 24.7333C181.511 24.7502 181.518 24.7673 181.523 24.7847C181.528 24.7867 181.532 24.7899 181.534 24.7938C181.536 24.7978 181.537 24.8022 181.536 24.8064V24.8069L181.548 24.8283L181.549 24.8299C181.562 24.8367 181.563 24.8473 181.564 24.8579ZM174.979 25.2125C174.901 25.0802 174.824 24.9474 174.747 24.8147L174.666 24.6754C174.661 24.6734 174.658 24.6704 174.656 24.6668C174.653 24.6632 174.653 24.6592 174.653 24.6552L174.652 24.654C174.649 24.6436 174.645 24.6334 174.641 24.6235C174.605 24.562 174.57 24.5005 174.535 24.4391L174.535 24.439L174.535 24.439L174.535 24.4389C174.451 24.294 174.368 24.1491 174.287 24.0035C174.28 23.9918 174.272 23.9804 174.265 23.969L174.265 23.969C174.244 23.9378 174.223 23.9063 174.223 23.8685C174.295 23.7915 174.362 23.7112 174.423 23.628L174.424 23.6256C174.429 23.6241 174.433 23.6216 174.435 23.6183C174.438 23.6151 174.439 23.6112 174.439 23.6073L174.847 23.1251H174.276C174.255 23.1251 174.244 23.1338 174.233 23.1468C174.114 23.2939 173.995 23.4408 173.875 23.5876C173.789 23.6822 173.71 23.7813 173.633 23.8813L173.441 24.1041V24.0352C173.442 23.7519 173.442 23.4685 173.441 23.1852C173.441 23.1806 173.442 23.1758 173.443 23.171C173.445 23.1563 173.447 23.1412 173.43 23.1292C173.426 23.1268 173.422 23.1254 173.417 23.1253L172.839 23.1268H172.839H172.839L172.839 23.1268C172.823 23.1345 172.824 23.1463 172.825 23.1577C172.825 23.1605 172.825 23.1633 172.825 23.166C172.825 23.8463 172.825 24.5266 172.825 25.2069C172.825 25.2421 172.837 25.2545 172.881 25.2541C173.049 25.2524 173.217 25.2521 173.384 25.2541C173.433 25.2547 173.445 25.2407 173.444 25.2037C173.443 25.0876 173.444 24.9714 173.444 24.8553L173.445 24.752L173.455 24.7401C173.457 24.7373 173.459 24.7343 173.46 24.7312L173.471 24.7198L173.515 24.6687L173.515 24.6687C173.551 24.6266 173.587 24.5844 173.623 24.5426C173.626 24.5396 173.628 24.5363 173.631 24.5329C173.639 24.5208 173.648 24.5085 173.672 24.5128C173.673 24.52 173.675 24.527 173.678 24.5338L174.068 25.2256C174.079 25.2439 174.092 25.2546 174.119 25.2532C174.142 25.2521 174.165 25.2523 174.188 25.2526L174.218 25.2528C174.218 25.2494 174.218 25.2468 174.218 25.2446V25.2446C174.218 25.2413 174.219 25.2391 174.218 25.2374C174.063 24.9664 173.907 24.6955 173.752 24.4246C173.744 24.3922 173.76 24.3586 173.792 24.3525C173.818 24.3475 173.827 24.3687 173.834 24.3884C173.837 24.3951 173.839 24.4017 173.842 24.407C173.885 24.4787 173.926 24.551 173.967 24.6233L174.009 24.6962L174.076 24.8166C174.152 24.9505 174.227 25.0843 174.302 25.2187C174.315 25.2422 174.33 25.2518 174.361 25.2517C174.555 25.251 174.75 25.251 174.944 25.2517C174.982 25.2519 175 25.248 174.979 25.2125ZM172.839 23.5302L172.84 23.3581C172.84 23.4155 172.84 23.4728 172.839 23.5302ZM177.185 25.1911L177.192 25.2138C177.201 25.2447 177.186 25.2515 177.152 25.2512C176.935 25.2505 176.718 25.25 176.501 25.2516C176.459 25.2522 176.447 25.2365 176.442 25.2076C176.425 25.1238 176.415 25.0396 176.419 24.9545C176.398 24.9528 176.392 24.962 176.387 24.9704C176.385 24.9728 176.383 24.9751 176.382 24.9771C176.128 25.2554 175.788 25.3494 175.375 25.2912C175.291 25.2792 175.224 25.2583 175.188 25.1822C175.145 25.0906 175.094 25.0014 175.044 24.912L175.044 24.912L175.044 24.912L175.044 24.912L175.044 24.912C175.022 24.8734 175 24.8348 174.978 24.796C174.98 24.7866 174.978 24.7781 174.967 24.7729L174.966 24.7716L174.826 24.5319C174.81 24.5054 174.815 24.4799 174.827 24.4531C174.92 24.2552 175.106 24.1375 175.34 24.0652C175.547 24.0014 175.767 23.9792 175.985 23.957L175.988 23.9568C176.105 23.9452 176.223 23.9357 176.341 23.9271C176.373 23.9247 176.38 23.9122 176.381 23.8887C176.384 23.8157 176.375 23.7439 176.362 23.6721V23.6718L176.341 23.6387C176.263 23.5193 176.125 23.4963 175.98 23.5029C175.729 23.5142 175.637 23.5799 175.568 23.7788C175.56 23.7994 175.548 23.8052 175.525 23.8036L174.884 23.7562C174.856 23.7542 174.845 23.7429 174.852 23.7196C174.887 23.5947 174.935 23.475 175.046 23.3789C175.145 23.2769 175.281 23.2187 175.426 23.1746C175.85 23.0458 176.277 23.0475 176.702 23.1704C176.835 23.2088 176.945 23.2766 177.022 23.3749C177.072 23.4189 177.1 23.472 177.115 23.5298C177.149 23.5999 177.149 23.6745 177.15 23.7467L177.15 23.7492C177.154 24.069 177.154 24.3886 177.154 24.7082V24.7083L177.154 25.0346C177.152 25.0885 177.168 25.1398 177.185 25.1911ZM175.607 24.7619C175.652 24.8697 175.821 24.9359 175.981 24.9093C176.111 24.8876 176.211 24.8297 176.283 24.7402L176.294 24.7286V24.7281C176.384 24.5918 176.392 24.4442 176.386 24.2946C176.386 24.2914 176.386 24.2879 176.386 24.2843L176.386 24.2843C176.387 24.2666 176.389 24.2481 176.349 24.2528L176.347 24.2531C176.167 24.2746 175.986 24.2961 175.821 24.3651C175.626 24.447 175.559 24.5557 175.594 24.7297C175.595 24.7311 175.596 24.7327 175.597 24.7344C175.597 24.7361 175.597 24.7379 175.597 24.7396C175.601 24.7421 175.604 24.7456 175.606 24.7495C175.608 24.7535 175.608 24.7578 175.607 24.7619ZM175.278 25.547H175.569C175.718 25.547 175.82 25.6147 175.82 25.727C175.82 25.8487 175.711 25.9114 175.564 25.9114H175.391V26.1582H175.278V25.547ZM175.391 25.8362H175.555C175.653 25.8362 175.705 25.7986 175.705 25.7292C175.705 25.6568 175.644 25.6222 175.559 25.6222H175.39L175.391 25.8362ZM176.998 26.1582L177.075 25.9829H177.371L177.45 26.1582H177.569L177.291 25.547H177.153L176.887 26.1582H176.998ZM177.313 25.8377L177.343 25.9061H177.102L177.106 25.897L177.106 25.8969L177.106 25.8969C177.16 25.7691 177.201 25.6706 177.219 25.6184H177.22C177.234 25.6589 177.263 25.7254 177.313 25.8377ZM178.888 25.8937V26.1582H178.778V25.547H179.079C179.236 25.547 179.319 25.6163 179.319 25.7113C179.319 25.7912 179.263 25.8387 179.194 25.8552C179.251 25.8682 179.305 25.9044 179.305 26.0111V26.038L179.305 26.0527V26.0527C179.305 26.0915 179.305 26.1351 179.316 26.1581H179.208C179.194 26.1323 179.194 26.0865 179.194 26.0295V26.0257V26.0134C179.194 25.9302 179.166 25.8936 179.033 25.8936L178.888 25.8937ZM178.888 25.8184H179.047C179.157 25.8184 179.205 25.7848 179.205 25.7194C179.205 25.6573 179.155 25.6222 179.057 25.6222H178.888V25.8184ZM180.801 26.0961C180.696 26.0961 180.636 26.0589 180.616 25.9878L180.503 25.9879C180.519 26.085 180.604 26.1676 180.794 26.1676C180.981 26.1676 181.073 26.0904 181.073 25.9893C181.073 25.9094 181.034 25.8419 180.818 25.7995C180.688 25.7742 180.647 25.7524 180.647 25.698C180.647 25.6426 180.697 25.6112 180.784 25.6112C180.891 25.6112 180.93 25.6551 180.942 25.7063H181.056C181.045 25.6243 180.97 25.5396 180.787 25.5396C180.617 25.5396 180.532 25.6132 180.532 25.707C180.532 25.7923 180.591 25.8438 180.774 25.8796C180.921 25.9082 180.958 25.9401 180.958 25.9992C180.958 26.0545 180.913 26.0961 180.801 26.0961Z" fill="white"/>
<rect x="126.637" y="70.6719" width="27.59" height="0.927045" fill="#E49D5D"/>
<rect x="154.227" y="70.6719" width="45.57" height="0.927045" fill="#E49D5D"/>
<div xmlns="" id="divScriptsUsed" style="display: none"/><script xmlns="" id="globalVarsDetection" src="moz-extension://ed313b70-294c-48e5-8f81-e021425ce826/js/wrs_env.js"/></svg>