<svg width="1560" height="400" viewBox="0 0 1560 400" fill="none" xmlns="http://www.w3.org/2000/svg">
<path d="M335.5 337C520.792 337 671 334.314 671 331C671 327.686 520.792 325 335.5 325C150.208 325 0 327.686 0 331C0 334.314 150.208 337 335.5 337Z" fill="#D7DEE0"/>
<path d="M169.226 202.656H27V329.761H169.226V202.656Z" fill="#F5F5F5"/>
<path d="M76.5052 202.656H27V329.761H76.5052V202.656Z" fill="#EBEBEB"/>
<path d="M197.523 78.1602H55.2979V205.265H197.523V78.1602Z" fill="#EBEBEB"/>
<path d="M104.803 78.1602H55.2979V205.265H104.803V78.1602Z" fill="#E0E0E0"/>
<path d="M324 202.766H181.774V329.871H324V202.766Z" fill="#EBEBEB"/>
<path d="M231.28 202.766H181.774V329.871H231.28V202.766Z" fill="#E0E0E0"/>
<path d="M339.749 125.762H197.523V205.376H339.749V125.762Z" fill="#F5F5F5"/>
<path d="M247.029 125.762H197.523V205.376H247.029V125.762Z" fill="#E6E6E6"/>
<path d="M278.369 0H186.48V127.105H278.369V0Z" fill="#EBEBEB"/>
<path d="M218.464 0H186.48V127.105H218.464V0Z" fill="#E0E0E0"/>
<path d="M488.265 329.979H630.49V202.873H488.265V329.979Z" fill="#F5F5F5"/>
<path d="M580.969 329.979H630.475V202.873H580.969V329.979Z" fill="#E6E6E6"/>
<path d="M459.951 205.502L602.177 205.502V102.033L459.951 102.033V205.502Z" fill="#EBEBEB"/>
<path d="M552.672 205.502H602.177V102.033H552.672V205.502Z" fill="#E0E0E0"/>
<path d="M493.316 102.016L630.475 102.016V51.3674L493.316 51.3674V102.016Z" fill="#F5F5F5"/>
<path d="M582.758 102.016H630.49V51.3674L582.758 51.3674V102.016Z" fill="#E6E6E6"/>
<path d="M790 400C1215.26 400 1560 392.165 1560 382.5C1560 372.835 1215.26 365 790 365C364.741 365 20 372.835 20 382.5C20 392.165 364.741 400 790 400Z" fill="#F5F5F5"/>
<path d="M191.904 337.063V122.73C191.908 113.453 189.05 104.399 183.716 96.796L176.218 86.0566H309.691L317.204 96.796C322.526 104.404 325.379 113.456 325.377 122.73V334.968" stroke="#364242" stroke-width="6" stroke-linecap="round" stroke-linejoin="round"/>
<path d="M475.508 383.974C483.14 383.974 489.327 377.808 489.327 370.202C489.327 362.596 483.14 356.43 475.508 356.43C467.876 356.43 461.688 362.596 461.688 370.202C461.688 377.808 467.876 383.974 475.508 383.974Z" fill="#263238"/>
<path opacity="0.4" d="M482.426 370.202C482.426 368.839 482.02 367.506 481.26 366.372C480.5 365.239 479.42 364.355 478.156 363.833C476.892 363.312 475.501 363.175 474.159 363.441C472.817 363.707 471.584 364.364 470.617 365.328C469.65 366.292 468.991 367.52 468.724 368.858C468.457 370.195 468.594 371.581 469.117 372.841C469.641 374.1 470.528 375.177 471.665 375.934C472.803 376.692 474.14 377.096 475.508 377.096C476.417 377.098 477.318 376.921 478.158 376.576C478.998 376.23 479.762 375.722 480.404 375.082C481.047 374.441 481.557 373.68 481.904 372.843C482.25 372.006 482.428 371.108 482.426 370.202Z" fill="white"/>
<path d="M473.846 373.281C472.77 373.279 471.721 372.948 470.841 372.333C469.96 371.718 469.29 370.849 468.92 369.842L460.779 347.613H479.116V368.029C479.118 368.719 478.983 369.403 478.719 370.041C478.455 370.68 478.067 371.259 477.577 371.748C477.087 372.236 476.506 372.622 475.865 372.886C475.225 373.149 474.538 373.283 473.846 373.281Z" fill="#263238"/>
<path opacity="0.2" d="M473.846 373.281C472.77 373.279 471.721 372.948 470.841 372.333C469.96 371.718 469.29 370.849 468.92 369.842L460.779 347.613H479.116V368.029C479.118 368.719 478.983 369.403 478.719 370.041C478.455 370.68 478.067 371.259 477.577 371.748C477.087 372.236 476.506 372.622 475.865 372.886C475.225 373.149 474.538 373.283 473.846 373.281Z" fill="white"/>
<path d="M321.784 383.974C329.417 383.974 335.604 377.808 335.604 370.202C335.604 362.596 329.417 356.43 321.784 356.43C314.152 356.43 307.965 362.596 307.965 370.202C307.965 377.808 314.152 383.974 321.784 383.974Z" fill="#263238"/>
<path opacity="0.4" d="M328.702 370.202C328.702 368.839 328.297 367.506 327.536 366.372C326.776 365.239 325.696 364.355 324.432 363.833C323.168 363.312 321.777 363.175 320.435 363.441C319.093 363.707 317.861 364.364 316.893 365.328C315.926 366.292 315.267 367.52 315 368.858C314.733 370.195 314.87 371.581 315.394 372.841C315.917 374.1 316.804 375.177 317.942 375.934C319.079 376.692 320.417 377.096 321.785 377.096C322.694 377.098 323.594 376.921 324.434 376.576C325.275 376.23 326.038 375.722 326.681 375.082C327.324 374.441 327.833 373.68 328.18 372.843C328.527 372.006 328.704 371.108 328.702 370.202Z" fill="white"/>
<path d="M320.122 373.281C319.047 373.279 317.998 372.948 317.117 372.333C316.236 371.718 315.566 370.849 315.197 369.842L307.056 347.613H325.393V368.029C325.395 368.719 325.26 369.403 324.996 370.041C324.732 370.68 324.343 371.259 323.854 371.748C323.364 372.236 322.782 372.622 322.142 372.886C321.501 373.149 320.815 373.283 320.122 373.281Z" fill="#263238"/>
<path opacity="0.2" d="M320.122 373.281C319.047 373.279 317.998 372.948 317.117 372.333C316.236 371.718 315.566 370.849 315.197 369.842L307.056 347.613H325.393V368.029C325.395 368.719 325.26 369.403 324.996 370.041C324.732 370.68 324.343 371.259 323.854 371.748C323.364 372.236 322.782 372.622 322.142 372.886C321.501 373.149 320.815 373.283 320.122 373.281Z" fill="white"/>
<path d="M499.272 331.574V344.58C499.272 345.157 499.158 345.728 498.937 346.261C498.715 346.794 498.391 347.278 497.981 347.686C497.572 348.094 497.086 348.418 496.551 348.638C496.016 348.859 495.443 348.973 494.864 348.973H185.959C184.792 348.969 183.675 348.504 182.852 347.681C182.029 346.857 181.566 345.743 181.566 344.58V331.574H499.272Z" fill="#263238"/>
<path d="M499.272 331.574V344.58C499.272 345.157 499.158 345.728 498.937 346.261C498.715 346.794 498.391 347.278 497.981 347.686C497.572 348.094 497.086 348.418 496.551 348.638C496.016 348.859 495.443 348.973 494.864 348.973H185.959C184.792 348.969 183.675 348.504 182.852 347.681C182.029 346.857 181.566 345.743 181.566 344.58V331.574H499.272Z" fill="#B84D2D"/>
<path d="M389.47 331.574V344.58C389.47 345.745 389.005 346.862 388.179 347.686C387.352 348.51 386.231 348.973 385.062 348.973H185.959C184.792 348.969 183.675 348.504 182.852 347.681C182.029 346.857 181.566 345.743 181.566 344.58V331.574H389.47Z" fill="#EA6A13"/>
<path d="M364.137 383.974C371.769 383.974 377.956 377.808 377.956 370.202C377.956 362.596 371.769 356.43 364.137 356.43C356.505 356.43 350.317 362.596 350.317 370.202C350.317 377.808 356.505 383.974 364.137 383.974Z" fill="#263238"/>
<path opacity="0.6" d="M371.055 370.202C371.055 368.839 370.649 367.506 369.889 366.372C369.129 365.239 368.049 364.355 366.785 363.833C365.521 363.312 364.13 363.175 362.788 363.441C361.446 363.707 360.213 364.364 359.246 365.328C358.278 366.292 357.62 367.52 357.353 368.858C357.086 370.195 357.223 371.581 357.746 372.841C358.27 374.1 359.157 375.177 360.294 375.934C361.432 376.692 362.769 377.096 364.137 377.096C365.046 377.098 365.947 376.921 366.787 376.576C367.627 376.23 368.391 375.722 369.033 375.082C369.676 374.441 370.186 373.68 370.532 372.843C370.879 372.006 371.057 371.108 371.055 370.202Z" fill="white"/>
<path d="M362.475 373.281C361.399 373.279 360.35 372.948 359.469 372.333C358.589 371.718 357.918 370.849 357.549 369.842L349.408 347.613H367.745V368.029C367.747 368.719 367.612 369.403 367.348 370.041C367.084 370.68 366.696 371.259 366.206 371.748C365.716 372.236 365.134 372.622 364.494 372.886C363.854 373.149 363.167 373.283 362.475 373.281Z" fill="#263238"/>
<path opacity="0.4" d="M362.475 373.281C361.399 373.279 360.35 372.948 359.469 372.333C358.589 371.718 357.918 370.849 357.549 369.842L349.408 347.613H367.745V368.029C367.747 368.719 367.612 369.403 367.348 370.041C367.084 370.68 366.696 371.259 366.206 371.748C365.716 372.236 365.134 372.622 364.494 372.886C363.854 373.149 363.167 373.283 362.475 373.281Z" fill="white"/>
<path d="M210.413 383.974C218.045 383.974 224.233 377.808 224.233 370.202C224.233 362.596 218.045 356.43 210.413 356.43C202.781 356.43 196.594 362.596 196.594 370.202C196.594 377.808 202.781 383.974 210.413 383.974Z" fill="#263238"/>
<path opacity="0.6" d="M217.331 370.202C217.331 368.839 216.926 367.506 216.165 366.372C215.405 365.239 214.325 364.355 213.061 363.833C211.797 363.312 210.406 363.175 209.064 363.441C207.722 363.707 206.49 364.364 205.522 365.328C204.555 366.292 203.896 367.52 203.629 368.858C203.362 370.195 203.499 371.581 204.023 372.841C204.546 374.1 205.433 375.177 206.57 375.934C207.708 376.692 209.045 377.096 210.414 377.096C211.323 377.098 212.223 376.921 213.063 376.576C213.904 376.23 214.667 375.722 215.31 375.082C215.952 374.441 216.462 373.68 216.809 372.843C217.156 372.006 217.333 371.108 217.331 370.202Z" fill="white"/>
<path d="M208.751 373.281C207.676 373.279 206.627 372.948 205.746 372.333C204.865 371.718 204.195 370.849 203.826 369.842L195.685 347.613H214.022V368.029C214.024 368.719 213.889 369.403 213.625 370.041C213.36 370.68 212.972 371.259 212.483 371.748C211.993 372.236 211.411 372.622 210.77 372.886C210.13 373.149 209.444 373.283 208.751 373.281Z" fill="#263238"/>
<path opacity="0.4" d="M208.751 373.281C207.676 373.279 206.627 372.948 205.746 372.333C204.865 371.718 204.195 370.849 203.826 369.842L195.685 347.613H214.022V368.029C214.024 368.719 213.889 369.403 213.625 370.041C213.36 370.68 212.972 371.259 212.483 371.748C211.993 372.236 211.411 372.622 210.77 372.886C210.13 373.149 209.444 373.283 208.751 373.281Z" fill="white"/>
<path d="M366.082 230.668H219.81V331.574H366.082V230.668Z" fill="#407BFF"/>
<path d="M366.082 230.668H219.81V331.574H366.082V230.668Z" fill="#D98851"/>
<path d="M287.683 230.668H219.81V331.574H287.683V230.668Z" fill="#FFD18D"/>
<path opacity="0.2" d="M281.267 310.238H272.781C271.984 310.238 271.338 310.882 271.338 311.676V323.229C271.338 324.023 271.984 324.667 272.781 324.667H281.267C282.064 324.667 282.71 324.023 282.71 323.229V311.676C282.71 310.882 282.064 310.238 281.267 310.238Z" fill="black"/>
<path opacity="0.2" d="M265.973 310.238H257.487C256.69 310.238 256.044 310.882 256.044 311.676V323.229C256.044 324.023 256.69 324.667 257.487 324.667H265.973C266.77 324.667 267.416 324.023 267.416 323.229V311.676C267.416 310.882 266.77 310.238 265.973 310.238Z" fill="black"/>
<path opacity="0.4" d="M334.632 230.668H326.365V241.188H334.632V230.668Z" fill="black"/>
<path opacity="0.2" d="M357.235 273.75H300.295V286.944H357.235V273.75Z" fill="black"/>
<path d="M381.015 129.762H234.742V230.667H381.015V129.762Z" fill="#407BFF"/>
<path d="M381.015 129.762H234.742V230.667H381.015V129.762Z" fill="#D98851"/>
<path d="M302.616 129.762H234.742V230.667H302.616V129.762Z" fill="#FFD18D"/>
<path opacity="0.2" d="M296.216 209.33H287.73C286.933 209.33 286.287 209.974 286.287 210.768V222.32C286.287 223.115 286.933 223.759 287.73 223.759H296.216C297.013 223.759 297.66 223.115 297.66 222.32V210.768C297.66 209.974 297.013 209.33 296.216 209.33Z" fill="black"/>
<path opacity="0.2" d="M280.907 209.33H272.421C271.624 209.33 270.978 209.974 270.978 210.768V222.32C270.978 223.115 271.624 223.759 272.421 223.759H280.907C281.704 223.759 282.35 223.115 282.35 222.32V210.768C282.35 209.974 281.704 209.33 280.907 209.33Z" fill="black"/>
<path opacity="0.4" d="M349.564 129.762H341.298V140.282H349.564V129.762Z" fill="black"/>
<path opacity="0.2" d="M372.168 172.846H315.228V186.039H372.168V172.846Z" fill="black"/>
<path d="M470.567 129.762H324.294V230.667H470.567V129.762Z" fill="#407BFF"/>
<path d="M471 129.283H324V230.959H471V129.283Z" fill="#D98851"/>
<path d="M392.168 129.762H324.294V230.667H392.168V129.762Z" fill="#FFD18D"/>
<path opacity="0.2" d="M385.753 209.33H377.266C376.469 209.33 375.823 209.974 375.823 210.768V222.32C375.823 223.115 376.469 223.759 377.266 223.759H385.753C386.55 223.759 387.196 223.115 387.196 222.32V210.768C387.196 209.974 386.55 209.33 385.753 209.33Z" fill="black"/>
<path opacity="0.2" d="M370.443 209.33H361.957C361.16 209.33 360.514 209.974 360.514 210.768V222.32C360.514 223.115 361.16 223.759 361.957 223.759H370.443C371.24 223.759 371.886 223.115 371.886 222.32V210.768C371.886 209.974 371.24 209.33 370.443 209.33Z" fill="black"/>
<path opacity="0.4" d="M439.116 129.762H430.85V140.282H439.116V129.762Z" fill="black"/>
<path opacity="0.2" d="M462 173.143H405V186.101H462V173.143Z" fill="black"/>
<path opacity="0.4" fill-rule="evenodd" clip-rule="evenodd" d="M451.856 181.192C451.88 181.48 451.903 181.767 451.992 182.047C452.017 182.126 451.985 182.14 451.904 182.14C451.175 182.139 450.446 182.139 449.716 182.14C449.584 182.14 449.574 182.067 449.565 181.997C449.563 181.987 449.562 181.977 449.56 181.967C449.513 181.708 449.477 181.448 449.481 181.146C449.411 181.213 449.344 181.278 449.279 181.341C449.12 181.497 448.971 181.642 448.797 181.769C448.312 182.125 447.73 182.272 447.099 182.312C446.688 182.338 446.277 182.317 445.876 182.222C445.743 182.19 445.649 182.139 445.59 182.031C445.405 181.694 445.217 181.358 445.029 181.021C444.95 180.88 444.871 180.737 444.791 180.595C444.791 180.59 444.791 180.585 444.792 180.58C444.792 180.546 444.793 180.513 444.748 180.493L444.746 180.491L444.727 180.467L444.72 180.458L444.706 180.418C444.607 180.291 444.534 180.154 444.46 180.017C444.422 179.946 444.384 179.875 444.343 179.806C444.286 179.71 444.326 179.624 444.369 179.536C444.697 178.881 445.329 178.499 446.126 178.282C446.941 178.06 447.793 177.987 448.646 177.923C448.698 177.919 448.75 177.913 448.801 177.908C448.842 177.904 448.883 177.899 448.924 177.896L448.925 177.896C449.393 177.855 449.395 177.855 449.377 177.464C449.374 177.392 449.364 177.321 449.354 177.249C449.349 177.216 449.344 177.183 449.34 177.151C449.151 176.618 448.678 176.478 448.039 176.501C447.626 176.517 447.242 176.606 446.978 176.898C446.859 177.031 446.78 177.185 446.749 177.347C446.727 177.458 446.669 177.479 446.549 177.47C446.17 177.44 445.79 177.414 445.41 177.389C445.322 177.383 445.274 177.352 445.279 177.28C445.305 176.95 445.177 176.647 445.042 176.344C444.942 176.261 444.953 176.184 445.052 176.101C445.079 176.079 445.105 176.056 445.132 176.034C445.249 175.933 445.365 175.833 445.524 175.773C445.972 175.502 446.486 175.35 447.023 175.26C448.235 175.057 449.431 175.084 450.583 175.497C450.811 175.579 451.016 175.699 451.183 175.849C451.189 175.85 451.195 175.852 451.2 175.855C451.205 175.859 451.208 175.864 451.209 175.869L451.222 175.871L451.225 175.881L451.255 175.906L451.265 175.915C451.271 175.916 451.277 175.919 451.282 175.923C451.284 175.925 451.285 175.927 451.286 175.928L451.288 175.932C451.289 175.934 451.29 175.936 451.29 175.938L451.334 175.987C451.434 176.051 451.51 176.137 451.552 176.234L451.679 176.454C451.834 176.679 451.837 176.933 451.841 177.174L451.841 177.202C451.855 178.202 451.853 179.202 451.852 180.202C451.851 180.51 451.851 180.818 451.851 181.125L451.856 181.192ZM446.549 180.286C446.523 180.284 446.497 180.283 446.471 180.283V180.283C446.497 180.283 446.523 180.285 446.549 180.286ZM446.907 180.632C447.09 180.951 447.626 181.106 448.07 181.039V181.039C448.601 180.958 448.925 180.678 449.176 180.318C449.399 179.903 449.393 179.465 449.384 179.026C449.383 178.947 449.364 178.906 449.249 178.92C449.187 178.928 449.126 178.936 449.064 178.944C448.706 178.988 448.347 179.033 448.005 179.132C447.266 179.346 446.756 179.619 446.788 180.316C446.791 180.32 446.793 180.325 446.793 180.329C446.793 180.334 446.791 180.338 446.788 180.342L446.787 180.355C446.781 180.392 446.775 180.43 446.825 180.456L446.827 180.458L446.826 180.47C446.824 180.505 446.822 180.54 446.869 180.561L446.871 180.563C446.868 180.577 446.87 180.59 446.876 180.602C446.883 180.614 446.893 180.625 446.907 180.632ZM450.714 180.28C450.39 180.276 450.066 180.271 449.742 180.282V180.282C450.063 180.272 450.385 180.277 450.707 180.281C450.973 180.284 451.24 180.288 451.506 180.283C451.242 180.288 450.978 180.284 450.714 180.28ZM444.187 180.877L444.188 180.885L444.345 181.179L444.346 181.18C444.496 181.461 444.645 181.742 444.798 182.02C444.848 182.112 444.83 182.147 444.701 182.147C444.061 182.145 443.42 182.145 442.78 182.147C442.688 182.147 442.637 182.12 442.604 182.048C442.505 181.832 442.403 181.616 442.301 181.401L442.301 181.401L442.241 181.274L442.182 181.151L442.144 181.085C442.141 181.08 442.141 181.074 442.142 181.068L442.106 180.99L442.104 180.987C442.066 180.972 442.063 180.945 442.071 180.913L442.059 180.886C442.044 180.879 442.032 180.868 442.025 180.855C442.018 180.842 442.016 180.828 442.019 180.814L442.018 180.811C442.004 180.804 441.994 180.794 441.987 180.782C441.981 180.77 441.978 180.757 441.981 180.744C441.977 180.74 441.974 180.735 441.972 180.729C441.97 180.724 441.97 180.718 441.971 180.712C441.919 180.61 441.867 180.508 441.815 180.405L441.815 180.405L441.814 180.405C441.682 180.146 441.55 179.888 441.43 179.625C441.371 179.494 441.288 179.459 441.129 179.464C440.812 179.473 440.494 179.473 440.177 179.464C440.017 179.459 439.967 179.499 439.969 179.631C439.972 179.975 439.972 180.318 439.972 180.662C439.972 181.091 439.973 181.52 439.979 181.95C439.982 182.115 439.921 182.156 439.726 182.152C439.207 182.142 438.687 182.145 438.168 182.151C438.008 182.153 437.942 182.129 437.942 181.98C437.947 180.965 437.947 179.95 437.948 178.935C437.948 178.323 437.948 177.71 437.949 177.097C437.949 177.091 437.949 177.085 437.948 177.079C437.947 177.073 437.945 177.066 437.944 177.059C437.934 177.011 437.924 176.956 438.03 176.949H439.892C439.997 176.957 439.987 177.011 439.977 177.059C439.974 177.073 439.971 177.086 439.971 177.097C439.976 177.447 439.978 177.798 439.97 178.148C439.967 178.257 440.012 178.29 440.143 178.286C440.336 178.281 440.529 178.282 440.723 178.283H440.723C441.061 178.284 441.399 178.286 441.738 178.254C442.369 178.195 442.795 177.75 442.684 177.245C442.678 177.217 442.676 177.19 442.674 177.162C442.673 177.149 442.672 177.136 442.671 177.123L442.669 177.118C442.655 177.112 442.644 177.102 442.638 177.091C442.631 177.079 442.629 177.066 442.632 177.054L442.51 176.875C442.698 176.876 442.886 176.875 443.073 176.875H443.075H443.075H443.076H443.076H443.076C443.361 176.875 443.645 176.874 443.929 176.876C443.588 176.874 443.247 176.874 442.906 176.875H442.904L442.51 176.875C442.281 176.623 441.949 176.563 441.592 176.557C441.173 176.551 440.754 176.551 440.335 176.551C439.66 176.55 438.986 176.551 438.311 176.551H438.307C436.65 176.551 434.994 176.551 433.338 176.547C433.027 176.546 432.774 176.615 432.563 176.795C432.429 176.994 432.376 177.197 432.523 177.407C432.552 177.407 432.559 177.421 432.559 177.441L432.565 177.449C432.812 177.683 433.157 177.751 433.5 177.819L433.56 177.831C433.678 177.854 433.795 177.877 433.913 177.9L433.913 177.9L433.914 177.9L433.914 177.9C434.419 177.997 434.924 178.095 435.409 178.251C436.623 178.644 437.239 179.647 436.892 180.665C436.883 180.68 436.872 180.694 436.857 180.707L436.855 180.711L436.855 180.712C436.858 180.75 436.86 180.789 436.816 180.816V180.817C436.814 180.854 436.81 180.891 436.77 180.918C436.525 181.39 436.126 181.741 435.565 181.983C434.373 182.496 433.147 182.472 431.904 182.146C431.57 182.058 431.276 181.902 430.99 181.729C430.458 181.408 430.328 180.979 430.402 180.477C430.413 180.409 430.454 180.386 430.52 180.373C430.727 180.334 430.935 180.295 431.143 180.256C431.363 180.215 431.584 180.174 431.805 180.132C431.885 180.117 431.928 180.137 431.949 180.201C432.208 180.991 433.14 181.163 433.947 181.088C434.364 181.05 434.708 180.916 434.918 180.605L434.917 180.6C434.914 180.565 434.91 180.529 434.955 180.505L434.958 180.499C434.954 180.069 434.824 179.922 434.3 179.764C434.021 179.68 433.732 179.625 433.444 179.569C433.249 179.532 433.055 179.494 432.863 179.448C432.441 179.346 432.029 179.226 431.639 179.059C430.875 178.73 430.527 178.202 430.501 177.518C430.5 177.494 430.498 177.47 430.496 177.447C430.491 177.372 430.485 177.296 430.504 177.222C430.516 177.173 430.523 177.124 430.527 177.074C430.535 176.992 430.569 176.915 430.603 176.837L430.617 176.806C430.622 176.794 430.627 176.782 430.632 176.771L431.076 176.771C431.495 176.771 431.914 176.772 432.333 176.773C431.766 176.771 431.199 176.771 430.632 176.771C430.936 176.001 431.607 175.552 432.542 175.335C432.687 175.302 432.838 175.286 432.99 175.287C435.92 175.288 438.851 175.288 441.781 175.288C442.296 175.288 442.809 175.317 443.291 175.472C443.969 175.692 444.405 176.098 444.602 176.669L444.598 176.674C444.594 176.677 444.591 176.681 444.592 176.682C444.599 176.689 444.607 176.696 444.615 176.702L444.617 176.704L444.627 176.727C444.675 176.83 444.723 176.934 444.707 177.048C444.868 177.446 444.743 177.824 444.563 178.189C444.366 178.585 444 178.867 443.541 179.063C443.363 179.139 443.299 179.194 443.4 179.363C443.562 179.634 443.704 179.913 443.846 180.192C443.894 180.286 443.942 180.381 443.991 180.475C444.016 180.529 444.037 180.584 444.055 180.64C444.07 180.647 444.082 180.657 444.09 180.67C444.097 180.682 444.1 180.697 444.096 180.71V180.712L444.134 180.781L444.138 180.786C444.179 180.808 444.183 180.842 444.187 180.877ZM422.951 182.02C422.699 181.594 422.45 181.165 422.201 180.737C422.114 180.587 422.027 180.438 421.94 180.288C421.926 180.281 421.915 180.272 421.908 180.26C421.901 180.248 421.898 180.236 421.899 180.223L421.897 180.219C421.887 180.185 421.874 180.152 421.859 180.12C421.746 179.922 421.632 179.724 421.518 179.525L421.517 179.525C421.249 179.058 420.98 178.59 420.717 178.12C420.696 178.083 420.671 178.046 420.647 178.009C420.579 177.908 420.511 177.807 420.513 177.685C420.746 177.437 420.96 177.178 421.156 176.909L421.162 176.901C421.176 176.897 421.189 176.888 421.197 176.878C421.206 176.867 421.211 176.855 421.21 176.842L422.524 175.287H420.682C420.614 175.287 420.579 175.315 420.544 175.357C420.16 175.831 419.776 176.305 419.39 176.779C419.111 177.084 418.858 177.404 418.61 177.726L417.99 178.445V178.223C417.991 177.309 417.991 176.395 417.99 175.481C417.99 175.466 417.993 175.45 417.995 175.435C418.002 175.387 418.009 175.339 417.953 175.3C417.942 175.292 417.928 175.288 417.914 175.288L416.048 175.292H416.046H416.046L416.046 175.292C415.995 175.317 415.998 175.355 416.002 175.392C416.003 175.401 416.003 175.41 416.003 175.419C416.003 177.613 416.003 179.808 416.001 182.002C416.001 182.116 416.041 182.156 416.184 182.154C416.725 182.149 417.267 182.148 417.807 182.154C417.962 182.156 418.002 182.111 418 181.992C417.996 181.617 417.998 181.243 418.001 180.868V180.868V180.868C418.001 180.757 418.002 180.646 418.002 180.535L418.013 180.522L418.036 180.497C418.042 180.488 418.048 180.478 418.052 180.468L418.088 180.431L418.229 180.266L418.229 180.266L418.229 180.266L418.229 180.266C418.345 180.13 418.461 179.994 418.578 179.859C418.586 179.85 418.594 179.839 418.601 179.828C418.629 179.789 418.657 179.749 418.734 179.763C418.737 179.786 418.744 179.809 418.753 179.831L420.013 182.063C420.047 182.122 420.089 182.156 420.177 182.152C420.25 182.148 420.324 182.149 420.398 182.15C420.431 182.15 420.463 182.15 420.495 182.15C420.495 182.14 420.496 182.131 420.496 182.124C420.497 182.113 420.498 182.106 420.495 182.101C419.995 181.227 419.494 180.353 418.993 179.479C418.966 179.374 419.02 179.266 419.123 179.246C419.207 179.23 419.233 179.298 419.258 179.362C419.266 179.384 419.274 179.405 419.284 179.422C419.422 179.653 419.554 179.886 419.687 180.12L419.687 180.12C419.731 180.198 419.776 180.277 419.821 180.355L420.039 180.743C420.283 181.175 420.527 181.607 420.766 182.04C420.808 182.116 420.857 182.147 420.958 182.147C421.585 182.144 422.211 182.144 422.838 182.147C422.962 182.147 423.017 182.135 422.951 182.02ZM416.048 176.594L416.05 176.038C416.05 176.223 416.049 176.409 416.048 176.594ZM430.064 181.953L430.071 181.975L430.087 182.026C430.117 182.126 430.067 182.148 429.958 182.147C429.258 182.144 428.558 182.143 427.859 182.148C427.724 182.15 427.685 182.099 427.667 182.006C427.614 181.736 427.58 181.464 427.594 181.19C427.527 181.184 427.507 181.214 427.489 181.241C427.484 181.249 427.479 181.256 427.473 181.262C426.656 182.16 425.558 182.463 424.226 182.276C423.954 182.237 423.738 182.169 423.623 181.924C423.484 181.629 423.32 181.341 423.157 181.052L423.157 181.052C423.086 180.928 423.015 180.803 422.947 180.678C422.951 180.648 422.946 180.621 422.91 180.604L422.907 180.6L422.454 179.826C422.404 179.741 422.42 179.658 422.46 179.572C422.757 178.934 423.356 178.554 424.114 178.321C424.782 178.115 425.49 178.043 426.195 177.972L426.202 177.971C426.58 177.934 426.96 177.903 427.34 177.875C427.447 177.868 427.468 177.827 427.471 177.752C427.482 177.516 427.452 177.284 427.411 177.053V177.052L427.341 176.945C427.091 176.56 426.646 176.486 426.178 176.507C425.369 176.543 425.07 176.755 424.847 177.397C424.823 177.463 424.783 177.482 424.709 177.477L422.643 177.324C422.551 177.318 422.517 177.281 422.538 177.206C422.651 176.803 422.807 176.417 423.166 176.107C423.485 175.778 423.923 175.59 424.391 175.448C425.759 175.033 427.135 175.038 428.507 175.434C428.936 175.558 429.29 175.777 429.54 176.094C429.701 176.236 429.789 176.407 429.839 176.594C429.947 176.82 429.95 177.06 429.952 177.293L429.952 177.302C429.964 178.333 429.964 179.364 429.965 180.395V180.395C429.965 180.746 429.965 181.097 429.966 181.448C429.958 181.622 430.011 181.787 430.064 181.953ZM424.975 180.568C425.12 180.916 425.664 181.129 426.179 181.044C426.601 180.974 426.922 180.787 427.156 180.498L427.19 180.461V180.459C427.481 180.019 427.506 179.543 427.487 179.061C427.486 179.057 427.487 179.053 427.487 179.049C427.487 179.042 427.487 179.035 427.488 179.028C427.492 178.971 427.496 178.911 427.368 178.926L427.361 178.927H427.361C426.779 178.996 426.197 179.066 425.665 179.288C425.037 179.552 424.818 179.903 424.932 180.464C424.936 180.469 424.94 180.474 424.942 180.479C424.943 180.485 424.944 180.491 424.942 180.496C424.956 180.504 424.966 180.516 424.972 180.528C424.978 180.541 424.979 180.555 424.975 180.568ZM423.912 183.108H424.851C425.332 183.108 425.661 183.326 425.661 183.688C425.661 184.081 425.309 184.283 424.833 184.283H424.275V185.079H423.912V183.108ZM424.275 184.041H424.806C425.121 184.041 425.29 183.919 425.29 183.695C425.29 183.462 425.093 183.35 424.819 183.35H424.274L424.275 184.041ZM429.465 185.079L429.713 184.514H430.668L430.924 185.079H431.307L430.412 183.108H429.965L429.107 185.079H429.465ZM430.482 184.045L430.579 184.266H429.802L429.814 184.236C429.986 183.824 430.119 183.506 430.177 183.338H430.181C430.226 183.469 430.321 183.683 430.482 184.045L430.482 184.045L430.482 184.045ZM435.558 184.226V185.079H435.201V183.108H436.173C436.679 183.108 436.948 183.331 436.948 183.638C436.948 183.896 436.768 184.049 436.546 184.102C436.729 184.144 436.904 184.261 436.904 184.605V184.692L436.903 184.739V184.739C436.903 184.864 436.902 185.005 436.937 185.079H436.588C436.545 184.996 436.545 184.848 436.545 184.664V184.652V184.612C436.545 184.344 436.453 184.226 436.026 184.226L435.558 184.226ZM435.558 183.983H436.069C436.425 183.983 436.578 183.875 436.578 183.664C436.578 183.464 436.417 183.35 436.101 183.35H435.558V183.983ZM441.737 184.874C441.398 184.874 441.203 184.754 441.139 184.524L440.773 184.525C440.825 184.838 441.1 185.104 441.712 185.104C442.316 185.104 442.615 184.855 442.615 184.529C442.615 184.271 442.487 184.054 441.791 183.917C441.371 183.835 441.24 183.765 441.24 183.589C441.24 183.411 441.4 183.309 441.68 183.309C442.026 183.309 442.152 183.451 442.192 183.616H442.558C442.525 183.352 442.282 183.078 441.691 183.078C441.143 183.078 440.867 183.316 440.867 183.619C440.867 183.894 441.059 184.06 441.648 184.175C442.122 184.267 442.242 184.371 442.242 184.561C442.242 184.74 442.097 184.874 441.737 184.874Z" fill="white"/>
<path d="M419.964 28.8574H273.691V129.763H419.964V28.8574Z" fill="#D98851"/>
<path d="M341.565 28.8574H273.691V129.763H341.565V28.8574Z" fill="#FFD18D"/>
<path opacity="0.2" d="M335.149 108.426H326.663C325.866 108.426 325.22 109.07 325.22 109.864V121.416C325.22 122.21 325.866 122.854 326.663 122.854H335.149C335.946 122.854 336.592 122.21 336.592 121.416V109.864C336.592 109.07 335.946 108.426 335.149 108.426Z" fill="black"/>
<path opacity="0.2" d="M319.855 108.426H311.369C310.572 108.426 309.926 109.07 309.926 109.864V121.416C309.926 122.21 310.572 122.854 311.369 122.854H319.855C320.652 122.854 321.298 122.21 321.298 121.416V109.864C321.298 109.07 320.652 108.426 319.855 108.426Z" fill="black"/>
<path opacity="0.4" d="M388.513 28.8574H380.246V39.3779H388.513V28.8574Z" fill="black"/>
<path d="M459.163 230.668H312.891V331.574H459.163V230.668Z" fill="#263238"/>
<path opacity="0.4" fill-rule="evenodd" clip-rule="evenodd" d="M325.064 283.627L325.064 283.627L325.064 283.627L325.064 283.627C325.072 283.651 325.079 283.676 325.087 283.7C325.117 283.799 325.067 283.822 324.958 283.82C324.258 283.818 323.558 283.817 322.859 283.822C322.724 283.824 322.685 283.773 322.667 283.68C322.614 283.409 322.58 283.138 322.594 282.863C322.527 282.858 322.507 282.888 322.489 282.915L322.489 282.915C322.484 282.922 322.479 282.93 322.473 282.936C321.656 283.834 320.558 284.137 319.226 283.949C318.954 283.911 318.738 283.843 318.623 283.598C318.484 283.303 318.32 283.015 318.157 282.726L318.157 282.726C318.086 282.602 318.015 282.477 317.947 282.352C317.951 282.322 317.946 282.294 317.91 282.277L317.907 282.273L317.454 281.5C317.404 281.415 317.42 281.332 317.46 281.246C317.757 280.608 318.356 280.228 319.114 279.995C319.782 279.789 320.49 279.717 321.195 279.646L321.202 279.645C321.58 279.608 321.96 279.577 322.34 279.549C322.447 279.541 322.468 279.501 322.471 279.425C322.482 279.19 322.452 278.958 322.411 278.727V278.726L322.341 278.619C322.091 278.234 321.646 278.16 321.178 278.181C320.369 278.217 320.07 278.429 319.847 279.071C319.823 279.137 319.783 279.156 319.709 279.151L317.643 278.998C317.551 278.992 317.517 278.955 317.538 278.88C317.651 278.477 317.807 278.091 318.166 277.781C318.485 277.452 318.923 277.264 319.391 277.122C320.759 276.706 322.135 276.712 323.507 277.108C323.936 277.232 324.29 277.451 324.54 277.768C324.701 277.91 324.789 278.081 324.839 278.267C324.947 278.494 324.95 278.734 324.952 278.967L324.952 278.975C324.964 280.007 324.964 281.038 324.965 282.069V282.069V282.069V282.069V282.069V282.069C324.965 282.42 324.965 282.771 324.966 283.122C324.958 283.296 325.011 283.461 325.064 283.627ZM319.975 282.242C320.12 282.59 320.664 282.803 321.179 282.718C321.601 282.648 321.922 282.461 322.156 282.172L322.19 282.135V282.133C322.481 281.693 322.506 281.217 322.487 280.735C322.486 280.724 322.487 280.713 322.488 280.702C322.492 280.644 322.496 280.585 322.368 280.6L322.361 280.601C321.779 280.67 321.197 280.739 320.665 280.962C320.037 281.226 319.818 281.577 319.932 282.138C319.936 282.143 319.94 282.148 319.942 282.153C319.943 282.159 319.944 282.165 319.942 282.17C319.956 282.178 319.966 282.189 319.972 282.202C319.978 282.215 319.979 282.229 319.975 282.242ZM346.856 282.866C346.88 283.153 346.903 283.441 346.992 283.721C347.017 283.8 346.985 283.814 346.904 283.813C346.175 283.813 345.446 283.813 344.716 283.813C344.584 283.814 344.574 283.74 344.565 283.671L344.565 283.671V283.671C344.563 283.661 344.562 283.651 344.56 283.641C344.513 283.382 344.477 283.121 344.481 282.82C344.411 282.887 344.344 282.952 344.279 283.015C344.12 283.171 343.971 283.316 343.797 283.443C343.312 283.799 342.73 283.945 342.099 283.985C341.688 284.011 341.277 283.991 340.876 283.896C340.743 283.864 340.649 283.813 340.59 283.705C340.405 283.368 340.218 283.032 340.03 282.696L340.029 282.695L340.029 282.695L340.029 282.695L340.029 282.695L340.029 282.694L340.028 282.694L340.028 282.693C339.949 282.552 339.87 282.411 339.791 282.269C339.791 282.264 339.791 282.259 339.792 282.254C339.792 282.22 339.793 282.187 339.748 282.167L339.746 282.165C339.737 282.154 339.728 282.143 339.72 282.131L339.706 282.092C339.607 281.965 339.534 281.828 339.46 281.691L339.46 281.69L339.46 281.69C339.422 281.62 339.384 281.549 339.343 281.48C339.286 281.384 339.326 281.297 339.369 281.21C339.697 280.555 340.329 280.173 341.126 279.956C341.941 279.734 342.793 279.661 343.646 279.597C343.698 279.593 343.749 279.587 343.801 279.582L343.801 279.582C343.842 279.577 343.883 279.573 343.924 279.57L343.925 279.57C344.393 279.529 344.395 279.529 344.377 279.137C344.374 279.066 344.364 278.994 344.354 278.923C344.349 278.89 344.344 278.857 344.34 278.825C344.151 278.292 343.678 278.152 343.039 278.175C342.626 278.19 342.242 278.279 341.978 278.572C341.859 278.704 341.78 278.858 341.749 279.021C341.727 279.132 341.669 279.153 341.549 279.144C341.17 279.114 340.79 279.088 340.41 279.062C340.322 279.057 340.274 279.026 340.279 278.954C340.305 278.624 340.177 278.32 340.042 278.018C339.942 277.935 339.953 277.857 340.052 277.775C340.079 277.753 340.105 277.73 340.132 277.707L340.132 277.707C340.249 277.607 340.365 277.507 340.524 277.447C340.972 277.176 341.486 277.024 342.023 276.934C343.235 276.731 344.431 276.758 345.583 277.17C345.811 277.253 346.016 277.373 346.183 277.523C346.189 277.524 346.195 277.526 346.2 277.529C346.205 277.533 346.208 277.537 346.209 277.543L346.222 277.545L346.225 277.555L346.255 277.58L346.265 277.589C346.271 277.59 346.277 277.593 346.282 277.597C346.287 277.601 346.289 277.607 346.29 277.612L346.334 277.661C346.434 277.725 346.51 277.811 346.552 277.908L346.679 278.128C346.834 278.353 346.837 278.607 346.841 278.848L346.841 278.876C346.855 279.876 346.853 280.876 346.852 281.876C346.851 282.184 346.851 282.491 346.851 282.799L346.856 282.866ZM341.549 281.96C341.523 281.958 341.497 281.956 341.471 281.956V281.957C341.497 281.957 341.523 281.959 341.549 281.96ZM341.907 282.306C342.09 282.625 342.626 282.78 343.07 282.713V282.713C343.601 282.632 343.925 282.352 344.176 281.991C344.399 281.577 344.393 281.139 344.384 280.7C344.383 280.621 344.364 280.58 344.249 280.594C344.187 280.602 344.126 280.61 344.064 280.618C343.706 280.662 343.347 280.707 343.005 280.806C342.266 281.02 341.756 281.293 341.788 281.99C341.791 281.994 341.793 281.999 341.793 282.003C341.793 282.008 341.791 282.012 341.788 282.016L341.787 282.029C341.781 282.066 341.775 282.104 341.825 282.129L341.827 282.132L341.826 282.144C341.824 282.179 341.822 282.214 341.869 282.235L341.871 282.237C341.868 282.25 341.87 282.264 341.876 282.276C341.883 282.288 341.893 282.299 341.907 282.306ZM345.714 281.954C345.39 281.95 345.066 281.945 344.742 281.955V281.956C345.063 281.946 345.385 281.95 345.707 281.955H345.707C345.973 281.958 346.24 281.962 346.506 281.957C346.242 281.962 345.978 281.958 345.714 281.954ZM339.187 282.55L339.188 282.559L339.345 282.852L339.345 282.853C339.495 283.134 339.645 283.415 339.798 283.694C339.848 283.785 339.83 283.82 339.701 283.82C339.061 283.819 338.42 283.819 337.78 283.82C337.688 283.821 337.637 283.793 337.604 283.721C337.505 283.505 337.403 283.29 337.301 283.075L337.3 283.074L337.3 283.073L337.299 283.072C337.26 282.99 337.221 282.907 337.182 282.825L337.144 282.759C337.141 282.753 337.141 282.747 337.142 282.741L337.106 282.664L337.104 282.661C337.066 282.645 337.063 282.619 337.071 282.587L337.059 282.56C337.044 282.553 337.032 282.542 337.025 282.529C337.018 282.516 337.016 282.501 337.019 282.488L337.018 282.485C337.004 282.478 336.994 282.468 336.987 282.456C336.981 282.444 336.978 282.431 336.981 282.418C336.977 282.413 336.974 282.408 336.972 282.403C336.97 282.397 336.97 282.392 336.971 282.386C336.919 282.283 336.867 282.181 336.814 282.078C336.682 281.82 336.55 281.561 336.43 281.299C336.371 281.168 336.288 281.133 336.129 281.137C335.812 281.146 335.494 281.147 335.177 281.137C335.017 281.133 334.967 281.172 334.969 281.305C334.972 281.648 334.972 281.992 334.972 282.335C334.972 282.765 334.973 283.194 334.979 283.623C334.982 283.789 334.921 283.83 334.726 283.826C334.207 283.816 333.687 283.818 333.168 283.825C333.008 283.827 332.942 283.803 332.942 283.653C332.947 282.639 332.947 281.624 332.948 280.609C332.948 279.996 332.948 279.384 332.949 278.771C332.949 278.759 332.947 278.746 332.944 278.733L332.944 278.733C332.934 278.684 332.924 278.63 333.03 278.622H334.892C334.997 278.63 334.987 278.684 334.977 278.733C334.974 278.746 334.971 278.759 334.971 278.771C334.976 279.121 334.978 279.471 334.97 279.821C334.967 279.93 335.012 279.964 335.143 279.96C335.336 279.955 335.529 279.955 335.723 279.956C336.061 279.958 336.399 279.96 336.738 279.928C337.369 279.869 337.795 279.424 337.684 278.918C337.678 278.891 337.676 278.863 337.674 278.836C337.673 278.823 337.672 278.81 337.671 278.797L337.669 278.791C337.655 278.785 337.644 278.776 337.638 278.764C337.631 278.753 337.629 278.74 337.632 278.727L337.51 278.549C337.698 278.549 337.886 278.549 338.073 278.549H338.073H338.073H338.073H338.073H338.073H338.073C338.359 278.548 338.644 278.548 338.929 278.55C338.588 278.548 338.246 278.548 337.904 278.548L337.51 278.549C337.281 278.297 336.949 278.236 336.592 278.231C336.173 278.224 335.754 278.224 335.335 278.224H335.335C334.661 278.224 333.987 278.224 333.312 278.224H333.312H333.312H333.312H333.312H333.312H333.312C331.654 278.225 329.996 278.225 328.338 278.221C328.027 278.22 327.774 278.289 327.563 278.469C327.429 278.668 327.376 278.87 327.523 279.081C327.552 279.08 327.559 279.095 327.559 279.114L327.565 279.123C327.812 279.356 328.157 279.425 328.5 279.493L328.56 279.505C328.678 279.528 328.796 279.551 328.914 279.573C329.419 279.671 329.924 279.768 330.409 279.925C331.623 280.317 332.239 281.321 331.892 282.338C331.883 282.354 331.872 282.368 331.857 282.381L331.855 282.385L331.855 282.386C331.858 282.424 331.86 282.463 331.816 282.489V282.49C331.814 282.527 331.81 282.565 331.77 282.591C331.525 283.063 331.126 283.415 330.565 283.657C329.373 284.17 328.147 284.145 326.904 283.82C326.57 283.732 326.276 283.575 325.99 283.403C325.458 283.081 325.328 282.653 325.402 282.151C325.413 282.083 325.454 282.059 325.52 282.047C325.728 282.007 325.935 281.969 326.143 281.93C326.364 281.889 326.584 281.848 326.805 281.806C326.885 281.791 326.928 281.811 326.949 281.875C327.208 282.665 328.14 282.836 328.947 282.762C329.364 282.724 329.708 282.59 329.918 282.278L329.917 282.274C329.914 282.238 329.91 282.202 329.955 282.178L329.958 282.173C329.954 281.743 329.824 281.596 329.3 281.438C329.021 281.354 328.732 281.298 328.444 281.243C328.249 281.205 328.055 281.168 327.863 281.122C327.441 281.02 327.029 280.9 326.639 280.732C325.875 280.404 325.527 279.875 325.501 279.192C325.5 279.168 325.498 279.144 325.496 279.12C325.491 279.045 325.485 278.97 325.504 278.895C325.516 278.847 325.523 278.797 325.527 278.748C325.535 278.666 325.569 278.589 325.603 278.511L325.603 278.511C325.613 278.489 325.623 278.467 325.632 278.444L326.075 278.445C326.495 278.445 326.914 278.445 327.333 278.447C326.766 278.444 326.199 278.444 325.632 278.444C325.936 277.675 326.607 277.226 327.542 277.008C327.687 276.975 327.838 276.959 327.99 276.961C330.92 276.962 333.851 276.962 336.781 276.961C337.296 276.961 337.809 276.99 338.291 277.146C338.969 277.365 339.405 277.772 339.602 278.343L339.598 278.347L339.598 278.347C339.594 278.351 339.591 278.354 339.592 278.356C339.599 278.363 339.607 278.37 339.615 278.376L339.617 278.378L339.627 278.4C339.675 278.504 339.723 278.607 339.707 278.722C339.868 279.119 339.743 279.498 339.563 279.863C339.366 280.258 339 280.541 338.541 280.737C338.363 280.812 338.299 280.868 338.4 281.037C338.562 281.308 338.704 281.587 338.846 281.865L338.846 281.866L338.846 281.866C338.894 281.96 338.942 282.054 338.991 282.148C339.016 282.203 339.037 282.258 339.055 282.314C339.07 282.321 339.082 282.331 339.09 282.344C339.097 282.356 339.1 282.37 339.096 282.384V282.386L339.134 282.455L339.138 282.46C339.179 282.482 339.183 282.516 339.187 282.55ZM317.951 283.694C317.698 283.267 317.45 282.839 317.201 282.411C317.114 282.261 317.027 282.111 316.94 281.962C316.926 281.955 316.915 281.945 316.908 281.934C316.901 281.922 316.898 281.909 316.899 281.896L316.897 281.892C316.887 281.859 316.874 281.826 316.859 281.794C316.745 281.595 316.631 281.397 316.517 281.199L316.517 281.199L316.517 281.199C316.249 280.731 315.98 280.264 315.717 279.794C315.696 279.756 315.671 279.72 315.647 279.683L315.647 279.683L315.647 279.683L315.647 279.683L315.647 279.683L315.647 279.683C315.579 279.582 315.511 279.481 315.513 279.359C315.746 279.11 315.96 278.851 316.156 278.583L316.162 278.575C316.176 278.57 316.189 278.562 316.197 278.552C316.206 278.541 316.211 278.529 316.21 278.516L317.524 276.96H315.682C315.614 276.96 315.579 276.988 315.544 277.031C315.16 277.505 314.776 277.979 314.39 278.452C314.111 278.758 313.858 279.077 313.61 279.4L312.99 280.119V279.896C312.991 278.982 312.991 278.068 312.99 277.154C312.99 277.139 312.993 277.124 312.995 277.108C313.002 277.061 313.009 277.012 312.953 276.974C312.942 276.966 312.928 276.962 312.914 276.961L311.048 276.966H311.046H311.046L311.046 276.966C310.995 276.991 310.998 277.029 311.002 277.066C311.003 277.075 311.003 277.084 311.003 277.092C311.003 279.287 311.003 281.481 311.001 283.676C311.001 283.79 311.041 283.83 311.184 283.828C311.725 283.823 312.267 283.822 312.807 283.828C312.962 283.83 313.002 283.785 313 283.666C312.996 283.291 312.998 282.916 313.001 282.542V282.542V282.542V282.542V282.542V282.542V282.542V282.542V282.542V282.541V282.541C313.001 282.43 313.002 282.32 313.002 282.209L313.013 282.196L313.036 282.17C313.042 282.161 313.048 282.151 313.052 282.141L313.088 282.105L313.229 281.94L313.229 281.94C313.345 281.804 313.46 281.668 313.578 281.533C313.586 281.523 313.594 281.513 313.601 281.502C313.629 281.463 313.657 281.423 313.734 281.437C313.737 281.46 313.744 281.483 313.753 281.505L315.013 283.736C315.047 283.795 315.089 283.83 315.177 283.825C315.25 283.822 315.324 283.823 315.398 283.823H315.398C315.431 283.824 315.463 283.824 315.495 283.824C315.495 283.813 315.496 283.805 315.496 283.798C315.497 283.787 315.498 283.78 315.495 283.774C314.995 282.9 314.494 282.026 313.993 281.152C313.966 281.048 314.02 280.939 314.123 280.92C314.207 280.904 314.233 280.972 314.258 281.036C314.266 281.057 314.274 281.078 314.284 281.096C314.422 281.327 314.554 281.56 314.687 281.793L314.687 281.793L314.687 281.794L314.687 281.794L314.687 281.794L314.687 281.794C314.732 281.872 314.776 281.95 314.821 282.028L315.04 282.417C315.283 282.849 315.527 283.281 315.766 283.714C315.808 283.79 315.857 283.821 315.958 283.82C316.585 283.818 317.211 283.818 317.838 283.82C317.962 283.821 318.017 283.809 317.951 283.694ZM311.048 278.267L311.05 277.712C311.05 277.897 311.049 278.082 311.048 278.267ZM318.912 284.781H319.851C320.332 284.781 320.661 284.999 320.661 285.362C320.661 285.754 320.309 285.957 319.833 285.957H319.275V286.753H318.912V284.781ZM319.275 285.714H319.806C320.121 285.714 320.29 285.593 320.29 285.369C320.29 285.135 320.093 285.024 319.819 285.024H319.274L319.275 285.714ZM324.465 286.753L324.713 286.187H325.668L325.924 286.753H326.307L325.412 284.781H324.965L324.107 286.753H324.465ZM325.482 285.719L325.579 285.94H324.802L324.814 285.91L324.814 285.91C324.986 285.498 325.119 285.18 325.177 285.012H325.181C325.226 285.142 325.321 285.357 325.482 285.719ZM330.558 285.899V286.753H330.201V284.781H331.173C331.679 284.781 331.948 285.005 331.948 285.311C331.948 285.569 331.768 285.722 331.546 285.776C331.729 285.817 331.904 285.934 331.904 286.278V286.365L331.903 286.413V286.413C331.903 286.538 331.902 286.678 331.937 286.753H331.588C331.545 286.669 331.545 286.522 331.545 286.338V286.325V286.286C331.545 286.017 331.453 285.899 331.026 285.899L330.558 285.899ZM330.558 285.657H331.069C331.425 285.657 331.578 285.548 331.578 285.337C331.578 285.137 331.417 285.024 331.101 285.024H330.558V285.657ZM336.737 286.547C336.398 286.547 336.203 286.427 336.139 286.198L335.773 286.198C335.825 286.511 336.1 286.778 336.712 286.778C337.316 286.778 337.615 286.529 337.615 286.203C337.615 285.945 337.487 285.727 336.791 285.591C336.371 285.509 336.24 285.439 336.24 285.263C336.24 285.084 336.4 284.983 336.68 284.983C337.026 284.983 337.152 285.125 337.192 285.29H337.558C337.525 285.025 337.282 284.752 336.691 284.752C336.143 284.752 335.867 284.99 335.867 285.292C335.867 285.567 336.059 285.733 336.648 285.849C337.122 285.941 337.242 286.044 337.242 286.235C337.242 286.413 337.097 286.547 336.737 286.547Z" fill="white"/>
<path d="M459.163 230.668H312.891V331.574H459.163V230.668Z" fill="#D98851"/>
<path d="M380.764 230.668H312.891V331.574H380.764V230.668Z" fill="#FFD18D"/>
<path opacity="0.2" d="M374.348 310.238H365.862C365.065 310.238 364.419 310.882 364.419 311.676V323.229C364.419 324.023 365.065 324.667 365.862 324.667H374.348C375.145 324.667 375.791 324.023 375.791 323.229V311.676C375.791 310.882 375.145 310.238 374.348 310.238Z" fill="black"/>
<path opacity="0.2" d="M359.054 310.238H350.568C349.771 310.238 349.125 310.882 349.125 311.676V323.229C349.125 324.023 349.771 324.667 350.568 324.667H359.054C359.851 324.667 360.497 324.023 360.497 323.229V311.676C360.497 310.882 359.851 310.238 359.054 310.238Z" fill="black"/>
<path opacity="0.4" d="M427.713 230.668H419.446V241.188H427.713V230.668Z" fill="black"/>
<path opacity="0.2" d="M449 275.816H392V288.775H449V275.816Z" fill="black"/>
<path opacity="0.2" d="M410 72.4648H353V85.4235H410V72.4648Z" fill="black"/>
<path opacity="0.4" fill-rule="evenodd" clip-rule="evenodd" d="M438.856 283.866C438.88 284.153 438.903 284.441 438.992 284.721C439.017 284.8 438.985 284.814 438.904 284.813C438.175 284.813 437.446 284.813 436.716 284.813C436.584 284.814 436.574 284.74 436.565 284.671L436.563 284.659C436.562 284.653 436.561 284.647 436.56 284.641C436.513 284.382 436.477 284.121 436.481 283.82C436.411 283.887 436.344 283.952 436.279 284.015C436.12 284.171 435.971 284.316 435.797 284.443C435.312 284.799 434.73 284.945 434.099 284.985C433.688 285.011 433.277 284.991 432.876 284.896C432.743 284.864 432.649 284.813 432.59 284.705C432.405 284.368 432.218 284.032 432.03 283.696L432.029 283.695C431.95 283.553 431.871 283.411 431.791 283.269L431.791 283.266L431.792 283.254C431.792 283.22 431.793 283.187 431.748 283.167L431.746 283.165C431.737 283.154 431.728 283.143 431.72 283.131L431.706 283.092C431.607 282.965 431.534 282.828 431.46 282.691C431.422 282.62 431.384 282.549 431.343 282.48C431.286 282.384 431.326 282.297 431.369 282.21C431.697 281.555 432.329 281.173 433.126 280.956C433.941 280.734 434.793 280.661 435.646 280.597C435.698 280.593 435.75 280.587 435.801 280.582C435.842 280.577 435.883 280.573 435.924 280.57L435.925 280.57C436.393 280.529 436.395 280.529 436.377 280.137C436.374 280.066 436.364 279.994 436.354 279.923C436.349 279.89 436.344 279.857 436.34 279.825C436.151 279.292 435.678 279.152 435.039 279.175C434.626 279.19 434.242 279.279 433.978 279.572C433.859 279.704 433.78 279.858 433.749 280.021C433.727 280.132 433.669 280.153 433.549 280.144C433.17 280.114 432.79 280.088 432.41 280.062C432.322 280.057 432.274 280.026 432.279 279.954C432.305 279.624 432.177 279.32 432.042 279.018C431.942 278.935 431.953 278.857 432.052 278.775L432.081 278.75C432.098 278.736 432.115 278.722 432.131 278.708L432.132 278.707C432.249 278.607 432.365 278.507 432.524 278.447C432.972 278.176 433.486 278.024 434.023 277.934C435.235 277.731 436.431 277.758 437.583 278.17C437.811 278.253 438.016 278.373 438.183 278.523C438.186 278.523 438.189 278.524 438.192 278.525L438.196 278.527C438.197 278.528 438.199 278.528 438.2 278.529C438.202 278.531 438.204 278.533 438.206 278.535C438.207 278.537 438.209 278.54 438.209 278.543L438.222 278.545L438.225 278.555L438.255 278.58L438.265 278.589C438.271 278.59 438.277 278.593 438.282 278.597C438.284 278.599 438.285 278.601 438.287 278.603C438.289 278.605 438.29 278.609 438.29 278.612L438.334 278.661C438.434 278.725 438.51 278.811 438.552 278.908L438.679 279.128C438.834 279.353 438.837 279.607 438.841 279.848L438.841 279.876C438.855 280.876 438.853 281.876 438.852 282.876C438.851 283.184 438.851 283.491 438.851 283.799L438.856 283.866ZM433.549 282.96C433.523 282.958 433.497 282.956 433.471 282.956V282.957C433.485 282.957 433.499 282.958 433.513 282.958L433.537 282.96L433.549 282.96ZM433.907 283.306C434.09 283.625 434.626 283.78 435.07 283.713V283.713C435.601 283.632 435.925 283.352 436.176 282.991C436.399 282.577 436.393 282.139 436.384 281.7C436.383 281.621 436.364 281.58 436.249 281.594C436.187 281.602 436.126 281.61 436.064 281.618C435.706 281.662 435.347 281.707 435.005 281.806C434.266 282.02 433.756 282.293 433.788 282.99C433.791 282.994 433.793 282.999 433.793 283.003C433.793 283.008 433.791 283.012 433.788 283.016L433.787 283.029C433.781 283.066 433.775 283.104 433.825 283.129L433.827 283.132L433.826 283.144C433.824 283.179 433.822 283.214 433.869 283.235L433.871 283.237C433.868 283.25 433.87 283.264 433.876 283.276C433.883 283.288 433.893 283.299 433.907 283.306ZM437.714 282.954C437.39 282.95 437.066 282.945 436.742 282.955V282.956C437.063 282.946 437.385 282.95 437.707 282.955C437.973 282.958 438.24 282.962 438.506 282.957C438.242 282.962 437.978 282.958 437.714 282.954ZM431.187 283.55L431.188 283.559L431.345 283.852L431.345 283.853L431.345 283.853L431.346 283.853L431.346 283.853L431.346 283.854L431.346 283.854C431.496 284.135 431.645 284.416 431.798 284.694C431.848 284.785 431.83 284.82 431.701 284.82C431.061 284.819 430.42 284.819 429.78 284.82C429.688 284.821 429.637 284.793 429.604 284.721C429.505 284.505 429.403 284.29 429.301 284.075L429.301 284.075L429.301 284.075L429.301 284.075L429.301 284.075L429.301 284.075L429.301 284.074L429.236 283.939L429.182 283.825L429.144 283.759C429.141 283.753 429.141 283.747 429.142 283.741L429.106 283.664L429.104 283.661C429.066 283.645 429.063 283.619 429.071 283.587L429.059 283.56C429.044 283.553 429.032 283.542 429.025 283.529C429.018 283.516 429.016 283.501 429.019 283.488L429.018 283.485C429.004 283.478 428.994 283.468 428.987 283.456C428.981 283.444 428.978 283.431 428.981 283.418C428.977 283.413 428.974 283.408 428.972 283.403C428.97 283.397 428.97 283.392 428.971 283.386C428.919 283.284 428.867 283.181 428.815 283.079L428.815 283.079L428.814 283.078C428.682 282.82 428.55 282.561 428.43 282.299C428.371 282.168 428.288 282.133 428.129 282.137C427.812 282.146 427.494 282.147 427.177 282.137C427.017 282.133 426.967 282.172 426.969 282.305C426.972 282.648 426.972 282.992 426.972 283.335C426.972 283.765 426.973 284.194 426.979 284.623C426.982 284.789 426.921 284.83 426.726 284.826C426.207 284.816 425.687 284.818 425.168 284.825C425.008 284.827 424.942 284.803 424.942 284.653C424.947 283.639 424.947 282.624 424.948 281.609C424.948 280.996 424.948 280.384 424.949 279.771L424.949 279.765L424.949 279.76L424.947 279.75C424.946 279.745 424.945 279.739 424.944 279.733C424.934 279.684 424.924 279.63 425.03 279.622H426.892C426.997 279.63 426.987 279.684 426.977 279.733L426.975 279.742L426.973 279.752C426.972 279.758 426.971 279.765 426.971 279.771C426.976 280.121 426.978 280.471 426.97 280.821C426.967 280.93 427.012 280.964 427.143 280.96C427.336 280.955 427.529 280.955 427.723 280.956H427.723C428.061 280.958 428.399 280.96 428.738 280.928C429.369 280.869 429.795 280.424 429.684 279.918C429.678 279.891 429.676 279.863 429.674 279.836C429.673 279.823 429.672 279.81 429.671 279.797L429.669 279.791C429.655 279.785 429.644 279.776 429.638 279.764C429.631 279.753 429.629 279.74 429.632 279.727L429.51 279.549C429.698 279.549 429.886 279.549 430.073 279.549H430.075C430.36 279.548 430.645 279.548 430.929 279.55C430.588 279.548 430.247 279.548 429.906 279.548H429.904L429.51 279.549C429.281 279.297 428.949 279.236 428.592 279.231C428.173 279.224 427.754 279.224 427.335 279.224C426.66 279.224 425.986 279.224 425.311 279.224H425.307C423.65 279.225 421.994 279.225 420.338 279.221C420.027 279.22 419.774 279.289 419.563 279.469C419.429 279.668 419.376 279.87 419.523 280.081C419.552 280.08 419.559 280.095 419.559 280.114L419.565 280.123C419.812 280.356 420.157 280.425 420.5 280.493L420.56 280.505C420.678 280.528 420.796 280.551 420.914 280.573L420.914 280.573C421.419 280.671 421.924 280.768 422.409 280.925C423.623 281.317 424.239 282.321 423.892 283.338C423.883 283.354 423.872 283.368 423.857 283.381L423.855 283.385L423.855 283.386C423.858 283.424 423.86 283.463 423.816 283.489V283.49C423.814 283.527 423.81 283.565 423.77 283.591C423.525 284.063 423.126 284.415 422.565 284.657C421.373 285.17 420.147 285.145 418.904 284.82C418.57 284.732 418.276 284.575 417.99 284.403C417.458 284.081 417.328 283.653 417.402 283.151C417.413 283.083 417.454 283.059 417.52 283.047C417.727 283.007 417.935 282.969 418.143 282.93C418.363 282.889 418.584 282.848 418.805 282.806C418.885 282.791 418.928 282.811 418.949 282.875C419.208 283.665 420.14 283.836 420.947 283.762C421.364 283.724 421.708 283.59 421.918 283.278L421.917 283.274C421.914 283.238 421.91 283.202 421.955 283.178L421.958 283.173C421.954 282.743 421.824 282.596 421.3 282.438C421.021 282.354 420.732 282.298 420.444 282.243C420.249 282.205 420.055 282.168 419.863 282.122C419.441 282.02 419.029 281.9 418.639 281.732C417.875 281.404 417.527 280.875 417.501 280.192C417.5 280.168 417.498 280.144 417.496 280.12C417.491 280.045 417.485 279.97 417.504 279.895C417.516 279.847 417.523 279.797 417.527 279.748C417.535 279.666 417.569 279.589 417.603 279.511C417.613 279.489 417.623 279.467 417.632 279.444L418.076 279.445C418.495 279.445 418.914 279.445 419.333 279.447C418.766 279.444 418.199 279.444 417.632 279.444C417.936 278.675 418.607 278.226 419.542 278.008C419.687 277.975 419.838 277.959 419.99 277.961C422.92 277.962 425.851 277.962 428.781 277.961C429.296 277.961 429.809 277.99 430.291 278.146C430.969 278.365 431.405 278.772 431.602 279.343L431.598 279.347L431.594 279.352C431.592 279.353 431.591 279.355 431.592 279.356C431.595 279.359 431.598 279.361 431.601 279.364L431.607 279.369L431.615 279.376L431.617 279.378L431.627 279.4C431.675 279.504 431.723 279.607 431.707 279.722C431.868 280.119 431.743 280.498 431.563 280.863C431.366 281.258 431 281.541 430.541 281.737C430.363 281.812 430.299 281.868 430.4 282.037C430.562 282.308 430.704 282.587 430.846 282.865C430.894 282.96 430.942 283.054 430.991 283.148C431.016 283.203 431.037 283.258 431.055 283.314C431.07 283.321 431.082 283.331 431.09 283.344C431.097 283.356 431.1 283.37 431.096 283.384V283.386L431.134 283.455L431.138 283.46C431.179 283.482 431.183 283.516 431.187 283.55ZM409.951 284.694C409.699 284.267 409.45 283.839 409.201 283.411C409.114 283.261 409.027 283.111 408.94 282.962C408.926 282.955 408.915 282.945 408.908 282.934C408.901 282.922 408.898 282.909 408.899 282.896L408.897 282.892C408.887 282.859 408.874 282.826 408.859 282.794C408.746 282.596 408.632 282.397 408.518 282.199L408.517 282.199C408.249 281.731 407.98 281.264 407.717 280.794C407.696 280.756 407.671 280.72 407.647 280.683C407.579 280.582 407.511 280.481 407.513 280.359C407.746 280.11 407.96 279.851 408.156 279.583L408.162 279.575C408.176 279.57 408.189 279.562 408.197 279.552C408.206 279.541 408.211 279.529 408.21 279.516L409.524 277.96H407.682C407.614 277.96 407.579 277.988 407.544 278.031C407.16 278.505 406.776 278.979 406.39 279.452C406.111 279.758 405.858 280.077 405.61 280.4L404.99 281.119V280.896C404.991 279.982 404.991 279.068 404.99 278.154C404.99 278.139 404.993 278.124 404.995 278.108C405.002 278.061 405.009 278.012 404.953 277.974C404.942 277.966 404.928 277.962 404.914 277.961L403.048 277.966H403.046H403.046L403.046 277.966C402.995 277.991 402.998 278.029 403.002 278.066C403.003 278.075 403.003 278.084 403.003 278.092C403.003 280.287 403.003 282.481 403.001 284.676C403.001 284.79 403.041 284.83 403.184 284.828C403.725 284.823 404.267 284.822 404.807 284.828C404.962 284.83 405.002 284.785 405 284.666C404.996 284.291 404.998 283.916 405.001 283.542C405.001 283.431 405.002 283.32 405.002 283.209L405.013 283.196L405.036 283.17C405.042 283.161 405.048 283.151 405.052 283.141L405.088 283.105L405.229 282.94L405.229 282.939L405.229 282.939L405.229 282.939C405.345 282.804 405.461 282.668 405.578 282.533C405.586 282.523 405.594 282.513 405.601 282.502C405.629 282.463 405.657 282.423 405.734 282.437C405.737 282.46 405.744 282.483 405.753 282.505L407.013 284.736C407.047 284.795 407.089 284.83 407.177 284.825C407.25 284.822 407.324 284.823 407.398 284.823L407.4 284.823C407.432 284.824 407.463 284.824 407.495 284.824L407.495 284.816L407.496 284.808L407.496 284.797C407.497 284.787 407.498 284.78 407.495 284.774C406.995 283.9 406.494 283.026 405.993 282.152C405.966 282.048 406.02 281.939 406.123 281.92C406.207 281.904 406.233 281.972 406.258 282.036C406.266 282.057 406.274 282.078 406.284 282.096C406.422 282.327 406.554 282.56 406.687 282.793L406.687 282.793L406.687 282.794L406.688 282.795C406.732 282.873 406.776 282.951 406.821 283.028L407.039 283.417L407.04 283.417C407.283 283.849 407.527 284.281 407.766 284.714C407.808 284.79 407.857 284.821 407.958 284.82C408.585 284.818 409.211 284.818 409.838 284.82C409.962 284.821 410.017 284.809 409.951 284.694ZM403.048 279.267L403.05 278.712C403.05 278.897 403.049 279.082 403.048 279.267ZM417.064 284.627C417.072 284.651 417.079 284.675 417.087 284.7C417.117 284.799 417.067 284.822 416.958 284.82C416.258 284.818 415.558 284.817 414.859 284.822C414.724 284.824 414.685 284.773 414.667 284.68C414.614 284.409 414.58 284.138 414.594 283.863C414.527 283.858 414.507 283.888 414.489 283.915C414.484 283.922 414.479 283.93 414.473 283.936C413.656 284.834 412.558 285.137 411.226 284.949C410.954 284.911 410.738 284.843 410.623 284.598C410.484 284.303 410.32 284.015 410.157 283.726L410.157 283.726C410.086 283.602 410.015 283.477 409.947 283.352C409.951 283.322 409.946 283.294 409.91 283.277L409.907 283.273L409.454 282.5C409.404 282.415 409.42 282.332 409.46 282.246C409.757 281.608 410.356 281.228 411.114 280.995C411.782 280.789 412.49 280.717 413.195 280.646L413.202 280.645C413.58 280.608 413.96 280.577 414.34 280.549C414.447 280.541 414.468 280.501 414.471 280.425C414.482 280.19 414.452 279.958 414.411 279.727V279.726L414.341 279.619C414.091 279.234 413.646 279.16 413.178 279.181C412.369 279.217 412.07 279.429 411.847 280.071C411.823 280.137 411.783 280.156 411.709 280.151L409.643 279.998C409.551 279.992 409.517 279.955 409.538 279.88C409.651 279.477 409.807 279.091 410.166 278.781C410.485 278.452 410.923 278.264 411.391 278.122C412.759 277.706 414.135 277.712 415.507 278.108C415.936 278.232 416.29 278.451 416.54 278.768C416.701 278.91 416.789 279.081 416.839 279.267C416.947 279.494 416.95 279.734 416.952 279.967L416.952 279.975C416.964 281.007 416.964 282.038 416.965 283.069V283.069C416.965 283.42 416.965 283.771 416.966 284.122C416.958 284.296 417.011 284.461 417.064 284.627ZM411.975 283.242C412.12 283.59 412.664 283.803 413.179 283.718C413.601 283.648 413.922 283.461 414.156 283.172L414.19 283.135V283.133C414.481 282.693 414.506 282.217 414.487 281.735C414.486 281.724 414.487 281.713 414.488 281.702C414.492 281.644 414.496 281.585 414.368 281.6L414.361 281.601H414.361C413.779 281.67 413.197 281.739 412.665 281.962C412.037 282.226 411.818 282.577 411.932 283.138C411.935 283.141 411.937 283.144 411.939 283.147C411.94 283.149 411.941 283.151 411.942 283.153C411.943 283.159 411.944 283.165 411.942 283.17C411.956 283.178 411.966 283.189 411.972 283.202C411.978 283.215 411.979 283.229 411.975 283.242ZM410.912 285.781H411.851C412.332 285.781 412.661 285.999 412.661 286.362C412.661 286.754 412.309 286.957 411.833 286.957H411.275V287.753H410.912V285.781ZM411.275 286.714H411.806C412.121 286.714 412.29 286.593 412.29 286.369C412.29 286.135 412.093 286.024 411.819 286.024H411.274L411.275 286.714ZM416.465 287.753L416.713 287.187H417.668L417.924 287.753H418.307L417.412 285.781H416.965L416.107 287.753H416.465ZM417.482 286.719L417.579 286.94H416.802L416.814 286.91C416.986 286.498 417.119 286.18 417.177 286.012H417.181C417.226 286.142 417.321 286.357 417.482 286.718L417.482 286.719L417.482 286.719ZM422.558 286.899V287.753H422.201V285.781H423.173C423.679 285.781 423.948 286.005 423.948 286.311C423.948 286.569 423.768 286.722 423.546 286.776C423.729 286.817 423.904 286.934 423.904 287.278V287.365L423.903 287.413C423.903 287.538 423.902 287.678 423.937 287.753H423.588C423.545 287.669 423.545 287.522 423.545 287.338V287.325V287.286C423.545 287.017 423.453 286.899 423.026 286.899L422.558 286.899ZM422.558 286.657H423.069C423.425 286.657 423.578 286.548 423.578 286.337C423.578 286.137 423.417 286.024 423.101 286.024H422.558V286.657ZM428.737 287.547C428.398 287.547 428.203 287.427 428.139 287.198L427.773 287.198C427.825 287.511 428.1 287.778 428.712 287.778C429.316 287.778 429.615 287.529 429.615 287.203C429.615 286.945 429.487 286.727 428.791 286.591C428.371 286.509 428.24 286.439 428.24 286.263C428.24 286.084 428.4 285.983 428.68 285.983C429.026 285.983 429.152 286.125 429.192 286.29H429.558C429.525 286.025 429.282 285.752 428.691 285.752C428.143 285.752 427.867 285.99 427.867 286.292C427.867 286.567 428.059 286.733 428.648 286.849C429.122 286.941 429.242 287.044 429.242 287.235C429.242 287.413 429.097 287.547 428.737 287.547Z" fill="white"/>
<path opacity="0.4" fill-rule="evenodd" clip-rule="evenodd" d="M399.856 80.5145C399.88 80.8019 399.903 81.0895 399.992 81.3694C400.017 81.4481 399.985 81.4627 399.904 81.4619C399.175 81.4611 398.446 81.4611 397.716 81.4619C397.584 81.462 397.574 81.3889 397.565 81.3194L397.565 81.3194L397.563 81.3057C397.562 81.3001 397.561 81.2946 397.56 81.2892C397.513 81.0299 397.477 80.7699 397.481 80.4688C397.411 80.5351 397.344 80.6002 397.279 80.6635C397.12 80.8191 396.971 80.9642 396.797 81.0918C396.312 81.4473 395.73 81.5938 395.099 81.6338C394.688 81.6598 394.277 81.639 393.876 81.5443C393.743 81.5127 393.649 81.4612 393.59 81.3537C393.405 81.0161 393.217 80.6801 393.029 80.3437L393.029 80.3435L393.029 80.3432L393.029 80.3429L393.029 80.3426C392.95 80.201 392.87 80.0594 392.791 79.9175C392.791 79.9125 392.791 79.9075 392.792 79.9025C392.792 79.8687 392.793 79.8355 392.748 79.8149L392.746 79.813C392.737 79.802 392.728 79.791 392.72 79.7798L392.706 79.7405C392.607 79.6131 392.534 79.4761 392.46 79.339C392.422 79.2683 392.384 79.1977 392.343 79.1284C392.286 79.0324 392.326 78.9458 392.369 78.8587C392.697 78.203 393.329 77.8217 394.126 77.6046C394.941 77.3824 395.793 77.3091 396.646 77.2452C396.698 77.2412 396.75 77.2357 396.801 77.2302L396.873 77.2228C396.89 77.2211 396.907 77.2195 396.924 77.218L396.925 77.218C397.393 77.1776 397.395 77.1774 397.377 76.7859C397.374 76.7143 397.364 76.6428 397.354 76.5713C397.349 76.5385 397.344 76.5057 397.34 76.473C397.151 75.9404 396.678 75.8001 396.039 75.8236C395.626 75.8388 395.242 75.9278 394.978 76.2203C394.859 76.3528 394.78 76.5068 394.749 76.6693C394.727 76.7805 394.669 76.8016 394.549 76.7921C394.17 76.7624 393.79 76.7361 393.41 76.7108C393.322 76.7051 393.274 76.6747 393.279 76.6022C393.305 76.2725 393.177 75.9688 393.042 75.6664C392.942 75.5832 392.953 75.5059 393.052 75.4235C393.079 75.4012 393.105 75.3785 393.132 75.3559C393.249 75.2556 393.365 75.1555 393.524 75.0952C393.972 74.8241 394.486 74.672 395.023 74.5821C396.235 74.3794 397.431 74.4064 398.583 74.8188C398.811 74.9011 399.016 75.0212 399.183 75.1714C399.189 75.172 399.195 75.1742 399.2 75.1777C399.205 75.1812 399.208 75.1859 399.209 75.191L399.222 75.1933L399.225 75.2037L399.255 75.2284L399.265 75.237L399.267 75.2376L399.271 75.2388L399.274 75.2403L399.276 75.2415C399.278 75.2427 399.28 75.2441 399.282 75.2456C399.287 75.2498 399.289 75.255 399.29 75.2605L399.334 75.3096C399.434 75.3736 399.51 75.4591 399.552 75.5562L399.679 75.7767C399.834 76.0016 399.837 76.2555 399.841 76.4966L399.841 76.5244C399.855 77.5243 399.853 78.5243 399.852 79.5244C399.851 79.8321 399.851 80.1399 399.851 80.4477L399.856 80.5145ZM394.549 79.6087C394.523 79.6065 394.497 79.6049 394.471 79.6049V79.6055C394.497 79.6057 394.523 79.6071 394.549 79.6087ZM394.907 79.9546C395.09 80.2737 395.626 80.4287 396.07 80.3611V80.3617C396.601 80.2806 396.925 80.0002 397.176 79.6399C397.399 79.2255 397.393 78.787 397.384 78.348C397.383 78.2693 397.364 78.2281 397.249 78.2428C397.187 78.2507 397.126 78.2583 397.064 78.266C396.706 78.3105 396.347 78.355 396.005 78.4541C395.266 78.668 394.756 78.9415 394.788 79.6386C394.791 79.6425 394.793 79.647 394.793 79.6516C394.793 79.6562 394.791 79.6607 394.788 79.6646L394.787 79.677C394.781 79.7147 394.775 79.7523 394.825 79.7779L394.827 79.7808L394.826 79.7926C394.824 79.8276 394.822 79.8619 394.869 79.8836L394.871 79.8857C394.868 79.8988 394.87 79.9123 394.876 79.9245C394.883 79.9367 394.893 79.9472 394.907 79.9546ZM398.714 79.6027C398.39 79.5982 398.066 79.5937 397.742 79.6039V79.6046C398.063 79.5944 398.385 79.5988 398.707 79.6031C398.973 79.6067 399.24 79.6103 399.506 79.6057C399.242 79.61 398.978 79.6063 398.714 79.6027ZM392.187 80.1987L392.188 80.2071L392.345 80.5006L392.346 80.5017C392.496 80.7829 392.645 81.0639 392.798 81.3426C392.848 81.4338 392.83 81.4688 392.701 81.4688C392.061 81.4672 391.42 81.4672 390.78 81.4688C390.688 81.4691 390.637 81.4418 390.604 81.3699C390.505 81.1537 390.403 80.9385 390.301 80.7234L390.301 80.7229C390.261 80.6398 390.222 80.5567 390.182 80.4736L390.144 80.4071C390.141 80.4017 390.141 80.3957 390.142 80.3899L390.106 80.3125L390.104 80.3095C390.066 80.2937 390.063 80.2672 390.071 80.2352L390.059 80.2084C390.044 80.2012 390.032 80.1903 390.025 80.1773C390.018 80.1644 390.016 80.1499 390.019 80.136L390.018 80.1332C390.004 80.1262 389.994 80.1161 389.987 80.1043C389.981 80.0924 389.978 80.0792 389.981 80.0664L389.979 80.0642L389.978 80.0623C389.976 80.0608 389.975 80.0592 389.974 80.0575C389.973 80.0555 389.972 80.0534 389.972 80.0513C389.97 80.0458 389.97 80.0401 389.971 80.0344C389.919 79.9318 389.867 79.8293 389.814 79.7268C389.682 79.4683 389.55 79.2097 389.43 78.9472C389.371 78.8166 389.288 78.7816 389.129 78.7859C388.812 78.7947 388.494 78.7952 388.177 78.7859C388.017 78.7813 387.967 78.8207 387.969 78.9535C387.972 79.2969 387.972 79.6404 387.972 79.9839C387.972 80.4132 387.973 80.8426 387.979 81.2718C387.982 81.4375 387.921 81.4782 387.726 81.4744C387.207 81.464 386.687 81.4668 386.168 81.4732C386.008 81.4752 385.942 81.4512 385.942 81.3018C385.947 80.2871 385.947 79.2724 385.948 78.2576C385.948 77.6448 385.948 77.032 385.949 76.4192C385.949 76.4078 385.947 76.3949 385.944 76.3815C385.934 76.3329 385.924 76.2784 386.03 76.2708H387.892C387.997 76.2786 387.987 76.3329 387.977 76.3812C387.974 76.3947 387.971 76.4076 387.971 76.419C387.976 76.7693 387.978 77.1196 387.97 77.4699C387.967 77.5787 388.012 77.6119 388.143 77.6083C388.336 77.603 388.529 77.6039 388.723 77.6048H388.723C389.061 77.6064 389.399 77.6079 389.738 77.5763C390.369 77.5174 390.795 77.072 390.684 76.5666C390.678 76.5395 390.676 76.5117 390.674 76.484C390.673 76.471 390.672 76.4581 390.671 76.4452L390.669 76.4398C390.655 76.4336 390.644 76.4242 390.638 76.4127C390.631 76.4012 390.629 76.3883 390.632 76.3759L390.51 76.1973C390.698 76.1976 390.886 76.1974 391.073 76.1972H391.075H391.075H391.076H391.076H391.076C391.361 76.1968 391.645 76.1965 391.929 76.1981C391.588 76.1962 391.247 76.1965 390.906 76.1969H390.904L390.51 76.1971C390.281 75.945 389.949 75.8847 389.592 75.8795C389.173 75.8727 388.754 75.8727 388.335 75.8727C387.66 75.8725 386.986 75.8726 386.311 75.8728H386.307C384.65 75.8731 382.994 75.8734 381.338 75.869C381.027 75.868 380.774 75.9372 380.563 76.1176C380.429 76.3164 380.376 76.5187 380.523 76.7292C380.552 76.7289 380.559 76.7433 380.559 76.7628L380.565 76.7712C380.812 77.0048 381.157 77.0731 381.5 77.141L381.56 77.153C381.678 77.1764 381.795 77.1991 381.913 77.2218L381.913 77.2218L381.914 77.2219L381.914 77.2219C382.419 77.3193 382.924 77.4167 383.409 77.5734C384.623 77.9656 385.239 78.9691 384.892 79.9867C384.883 80.0022 384.872 80.0165 384.857 80.029L384.855 80.0335L384.855 80.0339C384.858 80.0724 384.86 80.1111 384.816 80.1378V80.1389C384.814 80.1758 384.81 80.2135 384.77 80.2397C384.525 80.7117 384.126 81.0635 383.565 81.305C382.373 81.8183 381.147 81.7937 379.904 81.468C379.57 81.3804 379.276 81.2237 378.99 81.0514C378.458 80.7298 378.328 80.3015 378.402 79.7995C378.413 79.7312 378.454 79.7078 378.52 79.6953C378.727 79.6559 378.935 79.6172 379.143 79.5785C379.363 79.5374 379.584 79.4963 379.805 79.4543C379.885 79.4391 379.928 79.459 379.949 79.5229C380.208 80.3135 381.14 80.4848 381.947 80.4105C382.364 80.3721 382.708 80.2384 382.918 79.9266L382.917 79.9226C382.914 79.8867 382.91 79.8508 382.955 79.8269L382.958 79.8212C382.954 79.391 382.824 79.244 382.3 79.0864C382.021 79.0025 381.732 78.9469 381.444 78.8913C381.249 78.8538 381.055 78.8164 380.863 78.7702C380.441 78.6682 380.029 78.5482 379.639 78.3806C378.875 78.0525 378.527 77.5238 378.501 76.8401C378.5 76.8164 378.498 76.7926 378.496 76.7687C378.491 76.6936 378.485 76.6179 378.504 76.5439C378.516 76.4952 378.523 76.4459 378.527 76.3963C378.535 76.3146 378.569 76.2371 378.603 76.1595C378.613 76.1373 378.623 76.1151 378.632 76.0928L379.076 76.0932C379.495 76.0935 379.914 76.0937 380.333 76.0955C379.766 76.0928 379.199 76.0928 378.632 76.0928C378.936 75.3232 379.607 74.8741 380.542 74.6569C380.687 74.6239 380.838 74.6077 380.99 74.609C383.92 74.6102 386.851 74.6106 389.781 74.6099C390.296 74.6097 390.809 74.6387 391.291 74.7946C391.969 75.0139 392.405 75.42 392.602 75.9915L392.598 75.9957C392.594 75.9992 392.591 76.0029 392.592 76.004C392.599 76.0112 392.607 76.018 392.615 76.0241L392.617 76.0263L392.627 76.0489C392.675 76.1524 392.723 76.2558 392.707 76.3703C392.868 76.7679 392.743 77.1465 392.563 77.5115C392.366 77.9068 392 78.1896 391.541 78.3851C391.363 78.4607 391.299 78.5162 391.4 78.6853C391.562 78.9563 391.704 79.2351 391.846 79.5137C391.894 79.6082 391.942 79.7026 391.991 79.7967C392.016 79.8511 392.037 79.9064 392.055 79.9626C392.07 79.969 392.082 79.9793 392.09 79.992C392.097 80.0046 392.1 80.0188 392.096 80.0325V80.0341L392.134 80.1031L392.138 80.1084C392.179 80.1303 392.183 80.1644 392.187 80.1987ZM370.951 81.3425C370.699 80.9157 370.45 80.4875 370.201 80.0594C370.114 79.9095 370.027 79.7597 369.94 79.6099C369.926 79.6033 369.915 79.5936 369.908 79.5821C369.901 79.5706 369.898 79.5576 369.899 79.5448L369.897 79.5408C369.887 79.5073 369.874 79.4744 369.859 79.4424C369.746 79.244 369.632 79.0457 369.518 78.8475L369.517 78.8472C369.249 78.3796 368.98 77.9121 368.717 77.4424C368.696 77.4047 368.671 77.3679 368.647 77.3311C368.579 77.2304 368.511 77.129 368.513 77.0071C368.746 76.7586 368.96 76.4996 369.156 76.2312L369.162 76.2236C369.176 76.2187 369.189 76.2105 369.197 76.2C369.206 76.1894 369.211 76.1771 369.21 76.1645L370.524 74.6089H368.682C368.614 74.6089 368.579 74.6368 368.544 74.679C368.16 75.1533 367.776 75.6272 367.39 76.1007C367.111 76.4061 366.858 76.7258 366.61 77.0483L365.99 77.767V77.5448C365.991 76.6307 365.991 75.7168 365.99 74.8028C365.99 74.7879 365.993 74.7725 365.995 74.7569C366.002 74.7095 366.009 74.6607 365.953 74.6221C365.942 74.6144 365.928 74.61 365.914 74.6097L364.048 74.6143H364.046H364.046L364.046 74.6144C363.995 74.6392 363.998 74.6774 364.002 74.7142C364.003 74.7232 364.003 74.7322 364.003 74.7408C364.003 76.9354 364.003 79.1299 364.001 81.3245C364.001 81.438 364.041 81.478 364.184 81.4765C364.725 81.4711 365.267 81.4703 365.807 81.4765C365.962 81.4784 366.002 81.4336 366 81.3141C365.996 80.9395 365.998 80.5648 366.001 80.1901V80.1901V80.1901V80.19V80.19V80.1899C366.001 80.079 366.002 79.968 366.002 79.8571C366.013 79.8443 366.024 79.8315 366.036 79.8187C366.042 79.8096 366.048 79.7999 366.052 79.7898L366.088 79.7531L366.229 79.5882L366.229 79.5879L366.229 79.5877L366.229 79.5877C366.345 79.452 366.461 79.3163 366.578 79.1814C366.586 79.1718 366.594 79.161 366.601 79.1502C366.629 79.1112 366.657 79.0715 366.734 79.0855C366.737 79.1086 366.744 79.1313 366.753 79.1532L368.013 81.3847C368.047 81.4438 368.089 81.4781 368.177 81.4738C368.25 81.4701 368.324 81.471 368.398 81.4718C368.431 81.4722 368.463 81.4725 368.495 81.4725C368.495 81.4616 368.496 81.453 368.496 81.4459C368.497 81.4352 368.498 81.4283 368.495 81.4227C367.995 80.5486 367.494 79.6746 366.993 78.8008C366.966 78.6962 367.02 78.5879 367.123 78.5683C367.207 78.552 367.233 78.6204 367.258 78.6841C367.266 78.7058 367.274 78.7269 367.284 78.744C367.422 78.9752 367.554 79.2085 367.687 79.4418L367.687 79.4419L367.687 79.4428L367.688 79.4431C367.732 79.521 367.776 79.599 367.821 79.6769L368.039 80.0652C368.283 80.4971 368.527 80.9289 368.766 81.3623C368.808 81.4384 368.857 81.4692 368.958 81.4689C369.585 81.4665 370.211 81.4665 370.838 81.4689C370.962 81.4695 371.017 81.457 370.951 81.3425ZM364.048 75.9157L364.05 75.3605C364.05 75.5455 364.049 75.7306 364.048 75.9157ZM378.064 81.2751L378.075 81.3104L378.087 81.3484C378.117 81.4479 378.067 81.4699 377.958 81.4688C377.258 81.4667 376.558 81.465 375.859 81.4701C375.724 81.472 375.685 81.4214 375.667 81.3283C375.614 81.0578 375.58 80.7862 375.594 80.5118C375.527 80.5063 375.507 80.536 375.489 80.5632C375.484 80.5708 375.479 80.5782 375.473 80.5847C374.656 81.4826 373.558 81.7858 372.226 81.5979C371.954 81.5591 371.738 81.4917 371.623 81.2465C371.484 80.951 371.32 80.663 371.157 80.3747L371.157 80.3746C371.086 80.2502 371.015 80.1257 370.947 80.0005C370.951 79.9703 370.946 79.9428 370.91 79.9259L370.907 79.9219L370.454 79.1487C370.404 79.0631 370.42 78.9807 370.46 78.8944C370.757 78.2561 371.356 77.8764 372.114 77.6432C372.782 77.4372 373.49 77.3655 374.195 77.2942L374.202 77.2935C374.58 77.2559 374.96 77.2253 375.34 77.1976C375.447 77.1898 375.468 77.1496 375.471 77.0738C375.482 76.8382 375.452 76.6067 375.411 76.375V76.3742L375.341 76.2671C375.091 75.8822 374.646 75.808 374.178 75.8291C373.369 75.8655 373.07 76.0777 372.847 76.7192C372.823 76.7857 372.783 76.8045 372.709 76.7991L370.643 76.6462C370.551 76.64 370.517 76.6034 370.538 76.5282C370.651 76.1253 370.807 75.7393 371.166 75.4291C371.485 75.1002 371.923 74.9125 372.391 74.7704C373.759 74.3549 375.135 74.3601 376.507 74.7566C376.936 74.8806 377.29 75.0991 377.54 75.4163C377.701 75.5584 377.789 75.7294 377.839 75.9159C377.947 76.142 377.95 76.3828 377.952 76.6157L377.952 76.6238C377.964 77.6555 377.964 78.6864 377.965 79.7174V79.7177C377.965 80.0685 377.965 80.4193 377.966 80.7701C377.958 80.944 378.011 81.1097 378.064 81.2751ZM372.975 79.8904C373.12 80.2383 373.664 80.4517 374.179 80.3661C374.601 80.296 374.922 80.1093 375.156 79.8206L375.19 79.7831V79.7816C375.481 79.3417 375.506 78.8657 375.487 78.3832C375.486 78.3727 375.487 78.3614 375.488 78.35C375.492 78.2928 375.496 78.2331 375.368 78.2483L375.361 78.2491C374.779 78.3185 374.197 78.3878 373.665 78.6106C373.037 78.8746 372.818 79.2254 372.932 79.7867C372.936 79.7911 372.94 79.7962 372.942 79.8017C372.943 79.8073 372.944 79.8131 372.942 79.8187C372.956 79.8267 372.966 79.8378 372.972 79.8506C372.978 79.8633 372.979 79.8772 372.975 79.8904ZM371.912 82.4296H372.851C373.332 82.4296 373.661 82.648 373.661 83.0103C373.661 83.4029 373.309 83.6053 372.833 83.6053H372.275V84.4015H371.912V82.4296ZM372.275 83.3627H372.806C373.121 83.3627 373.29 83.2414 373.29 83.0173C373.29 82.7839 373.093 82.6723 372.819 82.6723H372.274L372.275 83.3627ZM377.465 84.4015L377.713 83.8358H378.668L378.924 84.4015H379.307L378.412 82.4296H377.965L377.107 84.4015H377.465ZM378.482 83.3673L378.579 83.5881H377.802L377.814 83.5584C377.986 83.1462 378.119 82.8285 378.177 82.6601H378.181C378.226 82.7907 378.321 83.0051 378.482 83.367L378.482 83.3672L378.482 83.3673ZM383.558 83.548V84.4015H383.201V82.4296H384.173C384.679 82.4296 384.948 82.6533 384.948 82.9598C384.948 83.2176 384.768 83.3707 384.546 83.424C384.729 83.4659 384.904 83.5826 384.904 83.9269V84.0136L384.903 84.0611V84.0612C384.903 84.1862 384.902 84.3268 384.937 84.4012H384.588C384.545 84.3179 384.545 84.17 384.545 83.9861V83.9739V83.9344C384.545 83.6659 384.453 83.5477 384.026 83.5477L383.558 83.548ZM383.558 83.3053H384.069C384.425 83.3053 384.578 83.1967 384.578 82.9858C384.578 82.7855 384.417 82.6723 384.101 82.6723H383.558V83.3053ZM389.737 84.1956C389.398 84.1956 389.203 84.0757 389.139 83.8464L388.773 83.8466C388.825 84.1599 389.1 84.4263 389.712 84.4263C390.316 84.4263 390.615 84.1773 390.615 83.8512C390.615 83.5934 390.487 83.3757 389.791 83.2391C389.371 83.1573 389.24 83.0872 389.24 82.9115C389.24 82.7327 389.4 82.6314 389.68 82.6314C390.026 82.6314 390.152 82.7731 390.192 82.9383H390.558C390.525 82.6738 390.282 82.4004 389.691 82.4004C389.143 82.4004 388.867 82.6381 388.867 82.9407C388.867 83.2158 389.059 83.3817 389.648 83.4972C390.122 83.5896 390.242 83.6926 390.242 83.8833C390.242 84.0616 390.097 84.1956 389.737 84.1956Z" fill="white"/>
<rect x="215" y="227.969" width="89" height="2.99046" fill="#E49D5D"/>
<rect x="304" y="227.969" width="147" height="2.99046" fill="#E49D5D"/>
<div xmlns="" id="divScriptsUsed" style="display: none"/><script xmlns="" id="globalVarsDetection" src="moz-extension://ed313b70-294c-48e5-8f81-e021425ce826/js/wrs_env.js"/></svg>